<svg xmlns="http://www.w3.org/2000/svg" width="50" height="50" viewBox="0 0 50 50">
    <g fill="none">
        <path fill="#EB6E7A" d="M45.608.328H3.411C1.707.328.325 1.71.325 3.414v11.542c0 1.704 1.382 3.086 3.086 3.086h42.197c1.705 0 3.086-1.382 3.086-3.086V3.414c0-1.704-1.381-3.086-3.086-3.086z" transform="translate(.5)"/>
        <path fill="#3A312A" d="M45.608.003H10.452c-.18 0-.326.145-.326.325 0 .18.146.325.326.325h35.156c1.523 0 2.76 1.239 2.76 2.761v11.542c0 1.522-1.237 2.76-2.76 2.76H3.411c-1.522 0-2.76-1.238-2.76-2.76V3.414c0-1.522 1.238-2.76 2.76-2.76H7.48c.18 0 .325-.147.325-.326 0-.18-.145-.326-.325-.326H3.41C1.531.002 0 1.532 0 3.414v11.542c0 1.88 1.53 3.411 3.411 3.411h42.197c1.881 0 3.412-1.53 3.412-3.411V3.414c0-1.881-1.53-3.411-3.412-3.411z" transform="translate(.5)"/>
        <path fill="#FFDB4D" d="M7.167 24.334c-.212 2.508-2.826 2.904-2.826 2.904 2.245.106 2.804 3.05 2.804 3.05.048-2.1 2.89-3.08 2.89-3.08-2.129-.128-2.868-2.874-2.868-2.874z" transform="translate(.5)"/>
        <path fill="#E5C545" d="M10.054 26.882c-1.866-.111-2.566-2.608-2.573-2.633-.042-.153-.187-.254-.343-.24-.158.015-.282.14-.295.297-.187 2.216-2.454 2.595-2.55 2.61-.165.025-.284.171-.276.338.009.168.143.3.31.309 1.958.092 2.494 2.758 2.499 2.785.03.155.164.265.32.265.008 0 .017 0 .026-.002.166-.013.295-.15.299-.316.042-1.846 2.644-2.772 2.67-2.78.147-.051.237-.199.216-.352-.022-.154-.148-.272-.303-.28zm-2.942 2.244c-.295-.679-.805-1.498-1.646-1.925.636-.305 1.39-.849 1.78-1.794.336.666.91 1.492 1.807 1.892-.653.355-1.502.955-1.941 1.827z" transform="translate(.5)"/>
        <path fill="#FFDB4D" d="M2.46 28.017C2.31 29.79.462 30.07.462 30.07c1.587.075 1.983 2.157 1.983 2.157.034-1.484 2.044-2.179 2.044-2.179-1.506-.09-2.029-2.032-2.029-2.032z" transform="translate(.5)"/>
        <path fill="#E5C545" d="M4.508 29.725c-1.25-.075-1.73-1.776-1.734-1.793-.041-.152-.185-.255-.343-.24-.157.015-.282.14-.295.298C2.01 29.48.478 29.739.413 29.749c-.165.025-.284.172-.276.339.009.167.143.3.31.308 1.309.061 1.675 1.875 1.678 1.893.03.154.165.264.32.264h.027c.166-.014.294-.151.298-.318.028-1.238 1.807-1.872 1.825-1.878.147-.051.237-.198.216-.352-.021-.154-.148-.271-.303-.28zM2.43 31.198c-.2-.409-.507-.856-.964-1.145.402-.226.802-.57 1.056-1.066.23.406.576.857 1.072 1.133-.401.239-.865.594-1.164 1.078z" transform="translate(.5)"/>
        <path fill="#FFDB4D" d="M2.46 22.235C2.31 24.009.462 24.289.462 24.289c1.587.075 1.983 2.157 1.983 2.157.034-1.484 2.044-2.179 2.044-2.179-1.506-.09-2.029-2.032-2.029-2.032z" transform="translate(.5)"/>
        <path fill="#E5C545" d="M4.508 23.943c-1.25-.075-1.73-1.776-1.734-1.793-.04-.153-.185-.253-.343-.24-.157.015-.282.14-.295.297-.125 1.49-1.658 1.75-1.722 1.76-.166.025-.285.172-.276.339.008.167.142.3.309.308 1.31.062 1.675 1.875 1.679 1.893.029.154.164.264.319.264h.027c.166-.014.295-.151.298-.318.029-1.238 1.807-1.872 1.825-1.878.147-.05.238-.198.216-.352-.021-.154-.148-.271-.303-.28zM2.43 25.416c-.2-.409-.507-.856-.964-1.145.402-.226.802-.57 1.056-1.066.23.406.576.858 1.072 1.133-.401.239-.865.594-1.164 1.078z" transform="translate(.5)"/>
        <g transform="translate(.5) translate(11.334 14.003)">
            <path fill="#F5E1C5" d="M23.296 9.341h-.026c-1.11 0-2.009.9-2.009 2.01V9.975c0-1.11-.9-2.009-2.01-2.009h-.025c-1.086 0-1.97.861-2.008 1.938l-.001 1.33V8.601c0-1.11-.9-2.009-2.01-2.009h-.025c-1.11 0-2.01.9-2.01 2.01v2.286l-.001-.002V2.335c0-1.11-.9-2.01-2.01-2.01h-.025c-1.11 0-2.01.9-2.01 2.01v13.289c0 .774-.627 1.402-1.401 1.402H3.157c-1.564 0-2.832 1.268-2.832 2.83 0 .782.317 1.49.829 2.002.514.512 1.221.828 2.003.828h3.534c1.456 0 2.752.927 3.222 2.307l.936 2.748c.084-.01.17-.017.257-.017h12.807l.113.002.151-.594c.732-2.878 1.108-5.835 1.126-8.805l.002-.07V11.35c0-1.11-.9-2.01-2.009-2.01z"/>
            <path fill="#3A312A" d="M23.296 9.016h-.026c-.667 0-1.269.281-1.695.731-.115-1.18-1.113-2.105-2.323-2.105h-.026c-.668 0-1.27.277-1.695.725-.119-1.177-1.115-2.099-2.323-2.099h-.026c-.662 0-1.26.277-1.686.721V2.334C13.496 1.047 12.45 0 11.162 0h-.026C9.85 0 8.802 1.047 8.802 2.334v13.29c0 .593-.483 1.077-1.077 1.077H3.157C1.417 16.7 0 18.116 0 19.856c0 .844.328 1.636.924 2.232.598.596 1.391.924 2.233.924h3.534c1.319 0 2.49.838 2.914 2.086l.936 2.748c.046.134.17.221.308.221.014 0 .029 0 .043-.003.069-.01.14-.014.214-.014h12.806l.114.002c.149 0 .279-.101.315-.245l.151-.594c.736-2.893 1.118-5.881 1.137-8.885l.002-6.977c0-1.287-1.048-2.335-2.335-2.335zm1.684 9.126l-.002.183c-.019 2.95-.394 5.886-1.117 8.727l-.088.348H11.076l-.856-2.512c-.514-1.512-1.932-2.527-3.529-2.527H3.157c-.668 0-1.298-.26-1.773-.733-.473-.473-.733-1.102-.733-1.772 0-1.381 1.124-2.505 2.506-2.505h4.568c.952 0 1.727-.775 1.727-1.727V2.334c0-.928.755-1.683 1.684-1.683h.026c.928 0 1.684.755 1.684 1.683v8.553c0 .086.036.17.097.232.093.093.232.12.354.07.122-.05.201-.169.201-.3V8.602c0-.928.755-1.684 1.684-1.684h.026c.928 0 1.684.756 1.684 1.684v2.651c0 .18.145.325.325.325.18 0 .325-.145.325-.325l.001-1.337c.032-.91.771-1.623 1.683-1.623h.026c.928 0 1.684.755 1.684 1.684v1.374c0 .18.145.325.325.325.18 0 .325-.146.325-.325 0-.929.756-1.684 1.684-1.684h.026c.929 0 1.684.755 1.684 1.684v6.79z"/>
            <path fill="#714FEB" d="M23.912 27.724H11.106c-1.168 0-2.114.946-2.114 2.113v2.784c0 1.142.926 2.068 2.068 2.068h12.898c1.142 0 2.067-.926 2.067-2.068v-2.784c0-1.167-.946-2.113-2.113-2.113z"/>
            <path fill="#3A312A" d="M23.912 27.398H11.106c-1.345 0-2.44 1.095-2.44 2.44v2.783c0 1.32 1.074 2.393 2.394 2.393h2.823c.18 0 .325-.145.325-.325 0-.18-.146-.325-.325-.325H11.06c-.961 0-1.743-.782-1.743-1.743v-2.784c0-.986.803-1.788 1.789-1.788h12.806c.986 0 1.788.802 1.788 1.788v2.784c0 .961-.781 1.743-1.742 1.743H16.86c-.18 0-.325.145-.325.325 0 .18.146.325.325.325h7.098c1.32 0 2.393-1.073 2.393-2.393v-2.784c0-1.344-1.094-2.439-2.44-2.439z"/>
            <circle cx="23.013" cy="31.221" r="1.277" fill="#F7F3F0" transform="rotate(-9.208 23.013 31.221)"/>
            <path fill="#3A312A" d="M23.025 29.617c-.884 0-1.602.718-1.602 1.602 0 .883.718 1.602 1.602 1.602.883 0 1.602-.719 1.602-1.602 0-.884-.72-1.602-1.602-1.602zm0 2.553c-.525 0-.952-.427-.952-.951 0-.525.427-.952.952-.952.524 0 .951.427.951.952 0 .524-.427.951-.951.951z"/>
        </g>
        <path fill="#BE4958" d="M45.608.652h-3.904c1.522 0 2.76 1.239 2.76 2.762v11.54c0 1.524-1.238 2.762-2.76 2.762h3.904c1.522 0 2.76-1.238 2.76-2.761V3.414c0-1.523-1.238-2.762-2.76-2.762z" transform="translate(.5)"/>
        <path fill="#A53F4C" d="M8.842 12.117c.247-.187.299-.538.116-.789l-.414-.566c-.264-.362-.185-.868.176-1.132.075-.055.159-.097.248-.123l.555-.165c.3-.089.472-.404.383-.704l-.001-.004c-.086-.283-.386-.443-.67-.358l-.03.01-.532.198c-.397.147-.839-.056-.986-.454-.034-.092-.05-.19-.048-.288l.024-.82c.008-.295-.224-.54-.518-.55h-.016c-.295 0-.535.24-.535.536v.014l.02.765c.012.432-.33.79-.761.802-.1.003-.2-.014-.293-.048l-.552-.205c-.277-.103-.584.038-.687.315l-.01.03c-.09.297.077.612.375.703h.003l.541.162c.424.126.665.572.538.995-.026.087-.066.17-.12.243l-.45.618c-.18.248-.126.595.122.775.233.17.56.12.73-.114l.018-.026.347-.542c.23-.358.706-.462 1.065-.233.092.06.171.138.231.231l.383.592c.155.24.476.31.716.154l.032-.022zm7.902 0c.247-.187.298-.538.116-.789l-.414-.566c-.264-.362-.186-.868.176-1.132.075-.055.159-.097.248-.123l.555-.165c.3-.089.472-.404.383-.704l-.001-.004c-.086-.283-.386-.443-.67-.358l-.03.01-.532.198c-.397.147-.839-.056-.986-.454-.034-.092-.05-.19-.048-.288l.024-.82c.008-.295-.224-.54-.518-.55h-.016c-.295 0-.535.24-.535.536v.014l.02.765c.012.432-.33.79-.761.802-.1.003-.2-.014-.293-.048l-.553-.205c-.276-.103-.583.038-.686.315l-.01.03c-.09.297.077.612.375.703h.003l.541.162c.423.126.664.572.538.995-.026.087-.066.17-.12.243l-.45.618c-.18.248-.126.595.122.775.233.17.56.12.73-.114l.018-.026.347-.542c.23-.358.706-.462 1.064-.233.093.06.172.138.232.231l.383.592c.155.24.476.31.716.154l.032-.022zm7.902 0c.247-.187.298-.538.115-.789l-.414-.566c-.264-.362-.185-.868.177-1.132.075-.055.158-.097.247-.123l.556-.165c.3-.089.471-.404.382-.704v-.004c-.086-.283-.386-.443-.67-.358l-.03.01-.532.198c-.397.147-.839-.056-.986-.454-.034-.092-.05-.19-.048-.288l.024-.82c.008-.295-.224-.54-.518-.55h-.016c-.295 0-.535.24-.535.536v.014l.02.765c.012.432-.33.79-.761.802-.1.003-.2-.014-.293-.048l-.553-.205c-.276-.103-.583.038-.686.315l-.01.03c-.09.297.077.612.375.703h.003l.541.162c.423.126.664.572.538.995-.026.087-.066.17-.12.243l-.45.618c-.18.248-.126.595.122.775.233.17.56.12.73-.114l.018-.026.347-.542c.23-.358.706-.462 1.064-.233.093.06.172.138.232.231l.383.592c.155.24.476.31.716.154l.032-.022zm7.902 0c.247-.187.298-.538.115-.789l-.414-.566c-.264-.362-.185-.868.177-1.132.075-.055.158-.097.247-.123l.556-.165c.3-.089.471-.404.382-.704v-.004c-.086-.283-.386-.443-.67-.358l-.03.01-.532.198c-.397.147-.84-.056-.986-.454-.034-.092-.05-.19-.048-.288l.024-.82c.008-.295-.224-.54-.519-.55h-.015c-.295 0-.535.24-.535.536v.014l.02.765c.012.432-.33.79-.761.802-.1.003-.2-.014-.293-.048l-.553-.205c-.276-.103-.584.038-.686.315l-.01.03c-.09.297.077.612.374.703h.004l.54.162c.424.126.665.572.54.995-.027.087-.067.17-.12.243l-.451.618c-.18.248-.126.595.122.775.233.17.56.12.73-.114l.018-.026.347-.542c.23-.358.706-.462 1.064-.233.093.06.172.138.232.231l.382.592c.156.24.476.31.717.154l.032-.022z" transform="translate(.5)"/>
    </g>
</svg>
