<svg xmlns="http://www.w3.org/2000/svg" width="438" height="605" fill="none" viewBox="0 0 438 605">
    <mask id="prefix__a" width="438" height="605" x="0" y="0" maskUnits="userSpaceOnUse">
        <path fill="#fff" d="M0 0H438V605H0z"/>
    </mask>
    <g mask="url(#prefix__a)">
        <path fill="#1D2326" d="M0 0H438V605H0z"/>
        <path fill="url(#prefix__paint0_linear)" d="M179.731 45.406c43.459-1.5 45.245-40.298 27.221-52.765L-1.815-7.37l.013 216.816c27.593 5.944 11.203-22.462 50.82-39.717 30.4-13.242 9.862-17.986 15.089-41.418 5.227-23.433 32.263-8.53 66.289-22.213 33.66-13.535 5.876-59.19 49.335-60.691z"/>
        <g opacity=".4">
            <path stroke="url(#prefix__paint1_linear)" d="M353.477 467.332H369.13199999999995V482.259H353.477z"/>
            <path stroke="url(#prefix__paint2_linear)" d="M289.399 345.73H305.419V361.021H289.399z"/>
            <path stroke="url(#prefix__paint3_linear)" d="M255.904 321.336H269.739V334.807H255.904z"/>
            <path stroke="url(#prefix__paint4_linear)" d="M247.166 23.884H256.632V32.986000000000004H247.166z"/>
            <path stroke="url(#prefix__paint5_linear)" d="M27.991 592.576H40.006V604.226H27.991z" opacity=".5"/>
            <path stroke="url(#prefix__paint6_linear)" d="M335.273 387.963H351.293V403.254H335.273z" opacity=".5"/>
            <path stroke="url(#prefix__paint7_linear)" d="M218.404 389.055H234.424V404.346H218.404z" opacity=".5"/>
            <path stroke="url(#prefix__paint8_linear)" d="M59.666 298.035H73.137V311.14200000000005H59.666z" opacity=".5"/>
            <path stroke="url(#prefix__paint9_linear)" d="M88.792 193.181H101.535V205.56H88.792z" opacity=".5" transform="rotate(-180 88.792 193.181)"/>
            <path fill-rule="evenodd" stroke="url(#prefix__paint10_linear)" d="M380.601 609.323c3.921 0 7.1-3.097 7.1-6.917 0-3.821-3.179-6.918-7.1-6.918s-7.099 3.097-7.099 6.918c0 3.82 3.178 6.917 7.099 6.917z" clip-rule="evenodd"/>
            <path fill-rule="evenodd" stroke="url(#prefix__paint11_linear)" d="M285.213 604.954c3.317 0 6.007-2.608 6.007-5.825s-2.69-5.825-6.007-5.825c-3.318 0-6.008 2.608-6.008 5.825s2.69 5.825 6.008 5.825z" clip-rule="evenodd"/>
            <path fill-rule="evenodd" stroke="url(#prefix__paint12_linear)" d="M265.552 512.478c3.921 0 7.1-3.097 7.1-6.917 0-3.821-3.179-6.918-7.1-6.918s-7.099 3.097-7.099 6.918c0 3.82 3.178 6.917 7.099 6.917z" clip-rule="evenodd" opacity=".5"/>
            <path fill-rule="evenodd" stroke="url(#prefix__paint13_linear)" d="M330.993 559.979c1.565 2.612 5.03 3.507 7.74 1.999s3.638-4.848 2.073-7.46c-1.564-2.612-5.029-3.507-7.739-1.999s-3.639 4.848-2.074 7.46z" clip-rule="evenodd" opacity=".5"/>
            <path fill-rule="evenodd" stroke="url(#prefix__paint14_linear)" d="M53.112 81.772c3.62 0 6.553-2.852 6.553-6.371 0-3.519-2.934-6.371-6.553-6.371-3.62 0-6.553 2.852-6.553 6.371 0 3.519 2.934 6.371 6.553 6.371z" clip-rule="evenodd"/>
            <path fill-rule="evenodd" stroke="url(#prefix__paint15_linear)" d="M16.158 26.432c4.122 0 7.464-3.26 7.464-7.281 0-4.022-3.342-7.282-7.464-7.282s-7.464 3.26-7.464 7.282c0 4.021 3.342 7.281 7.464 7.281z" clip-rule="evenodd"/>
            <path fill-rule="evenodd" stroke="url(#prefix__paint16_linear)" d="M96.107 130.982c-.755 2.719.919 5.514 3.74 6.243 2.821.728 5.72-.885 6.476-3.605.756-2.719-.918-5.514-3.739-6.242-2.821-.729-5.72.885-6.477 3.604z" clip-rule="evenodd"/>
            <path fill-rule="evenodd" stroke="url(#prefix__paint17_linear)" d="M401.172 244.516l8.374 16.019h-16.748l8.374-16.019z" clip-rule="evenodd"/>
            <path fill-rule="evenodd" stroke="url(#prefix__paint18_linear)" d="M348.198 249.795l-12.743 6.189v-12.378l12.743 6.189z" clip-rule="evenodd"/>
            <path fill-rule="evenodd" stroke="url(#prefix__paint19_linear)" d="M374.412 21.335l6.735 13.107h-13.47l6.735-13.107z" clip-rule="evenodd"/>
            <path fill-rule="evenodd" stroke="url(#prefix__paint20_linear)" d="M275.382 79.77l13.471-6.554v13.107l-13.471-6.553z" clip-rule="evenodd"/>
            <path fill-rule="evenodd" stroke="url(#prefix__paint21_linear)" d="M329.266 151.676l6.736 13.106h-13.471l6.735-13.106z" clip-rule="evenodd"/>
            <path fill-rule="evenodd" stroke="url(#prefix__paint22_linear)" d="M263.368 209.018l-11.287 5.461v-10.922l11.287 5.461z" clip-rule="evenodd"/>
            <path fill-rule="evenodd" stroke="url(#prefix__paint23_linear)" d="M113.731 210.292l6.372 12.379H107.36l6.371-12.379z" clip-rule="evenodd"/>
            <path fill-rule="evenodd" stroke="url(#prefix__paint24_linear)" d="M9.423 324.249l7.281 14.199H2.141l7.282-14.199z" clip-rule="evenodd"/>
            <path fill-rule="evenodd" stroke="url(#prefix__paint25_linear)" d="M161.018 364.343l-.911 14.628-11.776-6.553 12.687-8.075z" clip-rule="evenodd" opacity=".2"/>
            <path fill-rule="evenodd" stroke="url(#prefix__paint26_linear)" d="M108.482 29.603l-.911 14.627-11.776-6.553 12.687-8.074z" clip-rule="evenodd" opacity=".2"/>
            <path stroke="url(#prefix__paint27_linear)" stroke-linecap="round" d="M389.521 71.578l4.096 1.82 4.096-1.82 4.096 1.82 4.096-1.82 4.096 1.82 4.096-1.82 4.096 1.82 4.095-1.82"/>
            <path stroke="url(#prefix__paint28_linear)" d="M194.859 511.779l1.903 4.409 4.574 1.834 1.903 4.409 4.574 1.834 1.903 4.409 4.574 1.834 1.903 4.409 4.574 1.834" opacity=".5"/>
            <path stroke="url(#prefix__paint29_linear)" stroke-linecap="round" d="M193.647 244.516l5.097 2.184 5.097-2.184 5.097 2.184 5.097-2.184 5.097 2.184 5.097-2.184 5.097 2.184 5.098-2.184"/>
            <path stroke="url(#prefix__paint30_linear)" stroke-linecap="round" d="M165.977 564.906l5.461 2.184 5.461-2.184 5.461 2.184 5.461-2.184 5.462 2.184 5.461-2.184 5.461 2.184 5.461-2.184"/>
            <path stroke="url(#prefix__paint31_linear)" stroke-linecap="round" d="M356.653 301.228l-.386 2.359c-.205 1.25.87 2.337 2.123 2.146l.087-.013c1.21-.184 2.247.865 2.049 2.073v0c-.198 1.207.84 2.257 2.05 2.073l.174-.027c1.21-.184 2.247.865 2.05 2.073v0c-.198 1.207.839 2.257 2.049 2.073l.175-.027c1.209-.184 2.247.865 2.049 2.073v0c-.198 1.207.84 2.257 2.05 2.073l2.624-.4"/>
            <path stroke="url(#prefix__paint32_linear)" stroke-linecap="round" d="M350.235 199.081l-.306 1.94c-.163 1.033.723 1.929 1.758 1.777l.073-.011c.999-.146 1.854.719 1.697 1.717v0c-.157.998.698 1.862 1.697 1.716l.144-.021c1-.147 1.855.718 1.698 1.716v0c-.157.998.698 1.862 1.697 1.716l.144-.021c1-.147 1.855.718 1.698 1.716v0c-.158.998.698 1.862 1.697 1.716l2.159-.316"/>
            <path stroke="url(#prefix__paint33_linear)" stroke-linecap="round" d="M106.511 452.615l-.387 2.359c-.204 1.251.87 2.337 2.123 2.147l.087-.014c1.21-.184 2.247.866 2.05 2.073v0c-.198 1.208.839 2.257 2.049 2.073l.175-.027c1.209-.184 2.247.866 2.049 2.073v0c-.198 1.208.84 2.257 2.049 2.073l.175-.027c1.21-.184 2.247.866 2.049 2.073v0c-.197 1.208.84 2.257 2.05 2.073l2.624-.399"/>
            <path stroke="#4E4E4E" stroke-linecap="round" d="M108.38 307.028l-.257 1.737c-.139.933.658 1.738 1.592 1.609l.065-.009c.903-.124 1.672.653 1.538 1.554v0c-.134.901.635 1.678 1.538 1.554l.129-.018c.903-.124 1.672.652 1.538 1.553v0c-.133.901.635 1.678 1.538 1.554l.129-.018c.903-.124 1.672.653 1.538 1.554v0c-.133.901.636 1.677 1.538 1.553l1.934-.266"/>
            <path stroke="#19BD65" stroke-linecap="round" d="M127.19 63.197l-.354 2.389c-.191 1.283.905 2.39 2.19 2.213l.089-.012c1.241-.171 2.298.897 2.114 2.136v0c-.183 1.239.874 2.307 2.115 2.136l.178-.025c1.241-.17 2.298.898 2.114 2.137v0c-.183 1.238.874 2.307 2.115 2.136l.178-.025c1.241-.17 2.298.898 2.114 2.136v0c-.183 1.24.874 2.307 2.115 2.137l2.659-.367"/>
            <path stroke="url(#prefix__paint34_linear)" d="M67.822 490.973l-.322 2.419c-.175 1.316.94 2.442 2.258 2.28l.091-.012c1.271-.157 2.348.93 2.18 2.2v0c-.17 1.27.907 2.356 2.178 2.199l.183-.022c1.27-.157 2.348.929 2.179 2.199v0c-.17 1.27.908 2.357 2.179 2.2l.182-.023c1.271-.157 2.348.93 2.18 2.2v0c-.17 1.27.907 2.356 2.178 2.199l2.696-.333"/>
            <rect width=".364" height="8.738" x="172.894" y="493.546" fill="url(#prefix__paint35_linear)" rx=".182"/>
            <rect width=".364" height="7.282" x="172.894" y="92.331" fill="url(#prefix__paint36_linear)" rx=".182"/>
            <rect width=".728" height="9.466" x="26.898" y="506.653" fill="url(#prefix__paint37_linear)" rx=".364"/>
        </g>
        <path fill="url(#prefix__paint38_linear)" d="M236.567 456.471c-45.964 35.6-35.194 109.882 0 145.529l259.393-46.396L557 311.716c-21.63-20.388-50.922-64.934-140.228-55.394-111.633 11.925-48.339 102.876-36.294 143.101 25.983 86.78-97.947 21.448-143.911 57.048z" opacity=".8"/>
        <path fill="#181D1F" d="M164.026 529.773c-68.294 22.658-50.625 62.259-33.254 79.227H438V232c0 13.779-8.934 68.893-65.019 74.252-56.085 5.358-64.523 45.546-60.552 114.439 3.97 68.894-63.034 80.759-148.403 109.082z"/>
        <path fill="url(#prefix__paint39_linear)" d="M253.65 554.423c-71.032 2.74-73.372 58.806-43.717 76.577l268.65-21.077L548 315.075c-45.202-8.222-17.982 32.595-82.495 58.043-49.507 19.527-15.856 26.109-24.052 60.026s-52.621 12.747-108.048 32.96c-54.83 19.996-8.724 85.578-79.755 88.319z"/>
    </g>
    <defs>
        <linearGradient id="prefix__paint0_linear" x1="127.778" x2="34.164" y1="94.154" y2="-7.207" gradientUnits="userSpaceOnUse">
            <stop stop-color="#263238" stop-opacity=".21"/>
            <stop offset="1" stop-color="#161C1E"/>
        </linearGradient>
        <linearGradient id="prefix__paint1_linear" x1="346.734" x2="361.17" y1="475.608" y2="490.159" gradientUnits="userSpaceOnUse">
            <stop stop-color="#252C30"/>
            <stop offset="1" stop-color="#E54343"/>
        </linearGradient>
        <linearGradient id="prefix__paint2_linear" x1="282.499" x2="297.287" y1="354.207" y2="369.097" gradientUnits="userSpaceOnUse">
            <stop stop-color="#252C30"/>
            <stop offset="1" stop-color="#E54343"/>
        </linearGradient>
        <linearGradient id="prefix__paint3_linear" x1="249.945" x2="262.972" y1="328.805" y2="341.663" gradientUnits="userSpaceOnUse">
            <stop stop-color="#252C30"/>
            <stop offset="1" stop-color="#9D63D2"/>
        </linearGradient>
        <linearGradient id="prefix__paint4_linear" x1="243.089" x2="251.892" y1="28.93" y2="37.729" gradientUnits="userSpaceOnUse">
            <stop stop-color="#FCD834"/>
            <stop offset="1" stop-color="#27261A"/>
        </linearGradient>
        <linearGradient id="prefix__paint5_linear" x1="22.816" x2="34.082" y1="599.035" y2="610.202" gradientUnits="userSpaceOnUse">
            <stop stop-color="#4FC1E3"/>
            <stop offset="1" stop-color="#27261A"/>
        </linearGradient>
        <linearGradient id="prefix__paint6_linear" x1="328.373" x2="343.161" y1="396.441" y2="411.33" gradientUnits="userSpaceOnUse">
            <stop stop-color="#252C30"/>
            <stop offset="1" stop-color="#27261A"/>
        </linearGradient>
        <linearGradient id="prefix__paint7_linear" x1="211.504" x2="226.292" y1="397.533" y2="412.423" gradientUnits="userSpaceOnUse">
            <stop stop-color="#FCD834"/>
            <stop offset="1" stop-color="#27261A"/>
        </linearGradient>
        <linearGradient id="prefix__paint8_linear" x1="53.863" x2="66.538" y1="305.302" y2="317.822" gradientUnits="userSpaceOnUse">
            <stop stop-color="#4FC1E3"/>
            <stop offset="1" stop-color="#27261A"/>
        </linearGradient>
        <linearGradient id="prefix__paint9_linear" x1="83.303" x2="95.274" y1="200.043" y2="211.887" gradientUnits="userSpaceOnUse">
            <stop stop-color="#FCD834"/>
            <stop offset="1" stop-color="#27261A"/>
        </linearGradient>
        <linearGradient id="prefix__paint10_linear" x1="367.386" x2="380.764" y1="603.158" y2="616.355" gradientUnits="userSpaceOnUse">
            <stop stop-color="#252C30"/>
            <stop offset="1" stop-color="#9D63D2"/>
        </linearGradient>
        <linearGradient id="prefix__paint11_linear" x1="274.03" x2="285.297" y1="599.763" y2="610.93" gradientUnits="userSpaceOnUse">
            <stop stop-color="#FCD834"/>
            <stop offset="1" stop-color="#27261A"/>
        </linearGradient>
        <linearGradient id="prefix__paint12_linear" x1="252.337" x2="265.715" y1="506.313" y2="519.51" gradientUnits="userSpaceOnUse">
            <stop stop-color="#4FC1E3"/>
            <stop offset="1" stop-color="#27261A"/>
        </linearGradient>
        <linearGradient id="prefix__paint13_linear" x1="330.239" x2="326.8" y1="548.666" y2="563.173" gradientUnits="userSpaceOnUse">
            <stop stop-color="#19BD65"/>
            <stop offset="1" stop-color="#27261A"/>
        </linearGradient>
        <linearGradient id="prefix__paint14_linear" x1="40.913" x2="53.236" y1="76.094" y2="88.276" gradientUnits="userSpaceOnUse">
            <stop stop-color="#252C30"/>
            <stop offset="1" stop-color="#27261A"/>
        </linearGradient>
        <linearGradient id="prefix__paint15_linear" x1="2.265" x2="16.347" y1="19.943" y2="33.816" gradientUnits="userSpaceOnUse">
            <stop stop-color="#252C30"/>
            <stop offset="1" stop-color="#E54343"/>
        </linearGradient>
        <linearGradient id="prefix__paint16_linear" x1="103.123" x2="91.336" y1="122.964" y2="130.343" gradientUnits="userSpaceOnUse">
            <stop stop-color="#FCD834"/>
            <stop offset="1" stop-color="#27261A"/>
        </linearGradient>
        <linearGradient id="prefix__paint17_linear" x1="385.584" x2="401.077" y1="253.397" y2="268.964" gradientUnits="userSpaceOnUse">
            <stop stop-color="#FCD834"/>
            <stop offset="1" stop-color="#27261A"/>
        </linearGradient>
        <linearGradient id="prefix__paint18_linear" x1="341.134" x2="329.655" y1="238.274" y2="250.568" gradientUnits="userSpaceOnUse">
            <stop stop-color="#4FC1E3"/>
            <stop offset="1" stop-color="#27261A"/>
        </linearGradient>
        <linearGradient id="prefix__paint19_linear" x1="367.677" x2="374.122" y1="24.612" y2="37.86" gradientUnits="userSpaceOnUse">
            <stop stop-color="#573D7E"/>
            <stop offset="1" stop-color="#27261A"/>
        </linearGradient>
        <linearGradient id="prefix__paint20_linear" x1="282.851" x2="295.006" y1="91.969" y2="78.97" gradientUnits="userSpaceOnUse">
            <stop stop-color="#4FC1E3"/>
            <stop offset="1" stop-color="#27261A"/>
        </linearGradient>
        <linearGradient id="prefix__paint21_linear" x1="316.728" x2="329.403" y1="158.942" y2="171.462" gradientUnits="userSpaceOnUse">
            <stop stop-color="#252C30"/>
            <stop offset="1" stop-color="#E54343"/>
        </linearGradient>
        <linearGradient id="prefix__paint22_linear" x1="244.939" x2="244.939" y1="200.655" y2="214.479" gradientUnits="userSpaceOnUse">
            <stop stop-color="#FCD834"/>
            <stop offset="1" stop-color="#27261A"/>
        </linearGradient>
        <linearGradient id="prefix__paint23_linear" x1="101.871" x2="113.842" y1="217.155" y2="228.999" gradientUnits="userSpaceOnUse">
            <stop stop-color="#4FC1E3"/>
            <stop offset="1" stop-color="#27261A"/>
        </linearGradient>
        <linearGradient id="prefix__paint24_linear" x1="-4.132" x2="9.599" y1="332.121" y2="345.656" gradientUnits="userSpaceOnUse">
            <stop stop-color="#252C30"/>
            <stop offset="1" stop-color="#9D63D2"/>
        </linearGradient>
        <linearGradient id="prefix__paint25_linear" x1="146.275" x2="151.18" y1="364.369" y2="381.658" gradientUnits="userSpaceOnUse">
            <stop stop-color="#252C30"/>
            <stop offset="1" stop-color="#27261A"/>
        </linearGradient>
        <linearGradient id="prefix__paint26_linear" x1="93.739" x2="98.644" y1="29.628" y2="46.917" gradientUnits="userSpaceOnUse">
            <stop stop-color="#252C30"/>
            <stop offset="1" stop-color="#27261A"/>
        </linearGradient>
        <linearGradient id="prefix__paint27_linear" x1="375.407" x2="375.61" y1="72.587" y2="76.097" gradientUnits="userSpaceOnUse">
            <stop stop-color="#252C30"/>
            <stop offset="1" stop-color="#9D63D2"/>
        </linearGradient>
        <linearGradient id="prefix__paint28_linear" x1="183.416" x2="180.337" y1="501.307" y2="504.852" gradientUnits="userSpaceOnUse">
            <stop stop-color="#4FC1E3"/>
            <stop offset="1" stop-color="#27261A"/>
        </linearGradient>
        <linearGradient id="prefix__paint29_linear" x1="176.083" x2="176.318" y1="245.727" y2="249.939" gradientUnits="userSpaceOnUse">
            <stop stop-color="#4FC1E3"/>
            <stop offset="1" stop-color="#27261A"/>
        </linearGradient>
        <linearGradient id="prefix__paint30_linear" x1="166.463" x2="185.332" y1="564.564" y2="589.54" gradientUnits="userSpaceOnUse">
            <stop stop-color="#6E98E8"/>
            <stop offset="1" stop-color="#1D2326"/>
        </linearGradient>
        <linearGradient id="prefix__paint31_linear" x1="347.983" x2="343.255" y1="295.439" y2="302.466" gradientUnits="userSpaceOnUse">
            <stop stop-color="#252C30"/>
            <stop offset="1" stop-color="#E54343"/>
        </linearGradient>
        <linearGradient id="prefix__paint32_linear" x1="351.05" x2="360.493" y1="198.576" y2="218.46" gradientUnits="userSpaceOnUse">
            <stop stop-color="#6E98E8"/>
            <stop offset="1" stop-color="#1D2326"/>
        </linearGradient>
        <linearGradient id="prefix__paint33_linear" x1="107.5" x2="119" y1="452" y2="476" gradientUnits="userSpaceOnUse">
            <stop stop-color="#6E98E8"/>
            <stop offset="1" stop-color="#1D2326"/>
        </linearGradient>
        <linearGradient id="prefix__paint34_linear" x1="58.709" x2="53.875" y1="484.722" y2="491.752" gradientUnits="userSpaceOnUse">
            <stop stop-color="#FCD834"/>
            <stop offset="1" stop-color="#27261A"/>
        </linearGradient>
        <linearGradient id="prefix__paint35_linear" x1="172.737" x2="173.413" y1="498.39" y2="498.417" gradientUnits="userSpaceOnUse">
            <stop stop-color="#252C30"/>
            <stop offset="1" stop-color="#27261A"/>
        </linearGradient>
        <linearGradient id="prefix__paint36_linear" x1="172.737" x2="173.413" y1="96.368" y2="96.4" gradientUnits="userSpaceOnUse">
            <stop stop-color="#252C30"/>
            <stop offset="1" stop-color="#27261A"/>
        </linearGradient>
        <linearGradient id="prefix__paint37_linear" x1="26.585" x2="27.931" y1="511.901" y2="512" gradientUnits="userSpaceOnUse">
            <stop stop-color="#252C30"/>
            <stop offset="1" stop-color="#27261A"/>
        </linearGradient>
        <linearGradient id="prefix__paint38_linear" x1="379.378" x2="310.273" y1="291.712" y2="540.955" gradientUnits="userSpaceOnUse">
            <stop stop-color="#232B2F"/>
            <stop offset="1" stop-color="#1F272B"/>
        </linearGradient>
        <linearGradient id="prefix__paint39_linear" x1="337.527" x2="412.25" y1="503.428" y2="626.354" gradientUnits="userSpaceOnUse">
            <stop stop-color="#263238" stop-opacity=".15"/>
            <stop offset="1" stop-color="#1D2326"/>
        </linearGradient>
    </defs>
</svg>
