<svg xmlns="http://www.w3.org/2000/svg" width="130" height="107" fill="none" viewBox="0 0 130 107">
    <g opacity=".8">
        <g style="mix-blend-mode:multiply" filter="url(#prefix__filter0_f)">
            <path fill="url(#prefix__paint0_radial)" d="M88.746 60.094c14.5-11.197 23.41-23.956 19.902-28.5-3.509-4.543-18.107.85-32.607 12.046s-23.41 23.956-19.902 28.5c3.508 4.543 18.107-.85 32.607-12.046z" style="mix-blend-mode:multiply"/>
        </g>
        <path fill="url(#prefix__paint1_linear)" stroke="url(#prefix__paint2_linear)" stroke-linecap="square" d="M77.404 1.418c-.795-.39-1.696-.512-2.566-.346-.87.166-1.664.61-2.26 1.266L60.443 16.672c-1.261 1.627-2.148 3.511-2.597 5.52L55.267 36.55c-.12.9.028 1.817.424 2.636.396.818 1.023 1.502 1.804 1.968l21.285 11.412c.796.39 1.696.512 2.567.346.87-.166 1.663-.61 2.259-1.266l12.136-14.334c1.262-1.626 2.149-3.51 2.597-5.52l2.577-14.358c.12-.901-.026-1.817-.421-2.635-.396-.819-1.022-1.503-1.802-1.97L77.404 1.418z"/>
        <path fill="url(#prefix__paint3_linear)" d="M63.749 20.514c-.428-.196-.804-.492-1.094-.863-.29-.37-.488-.805-.577-1.268-.088-.463-.064-.94.07-1.392.134-.451.374-.864.7-1.204l9.603-11.349c.722-.794 1.683-1.333 2.738-1.533 1.055-.2 2.147-.053 3.11.422l17.832 9.558c.425.2.796.499 1.083.87.287.372.483.806.57 1.267.088.461.066.937-.065 1.388-.13.45-.366.864-.687 1.207L87.43 28.965c-.722.794-1.683 1.332-2.737 1.532-1.054.2-2.144.053-3.107-.42l-17.837-9.563z"/>
        <g style="mix-blend-mode:multiply">
            <path style="mix-blend-mode:multiply" fill="#DF7F37" d="M79.73 7.528c-1.21-.65-2.779-.492-3.507.388-.728.88-.344 2.086.866 2.735 1.21.65 2.78.492 3.512-.388.733-.88.34-2.086-.87-2.735M71.82 16.874c-1.21-.65-2.778-.492-3.511.389-.733.88-.34 2.085.87 2.735 1.21.649 2.78.492 3.508-.389.728-.88.339-2.086-.866-2.735M90.705 13.411c-1.21-.65-2.784-.492-3.512.389-.728.88-.344 2.085.866 2.735 1.21.649 2.784.491 3.512-.389.728-.88.34-2.086-.866-2.735zM82.79 22.757c-1.21-.649-2.779-.492-3.507.389-.728.88-.344 2.086.866 2.735 1.21.65 2.78.492 3.507-.389.728-.88.345-2.085-.865-2.735z"/>
        </g>
        <path fill="url(#prefix__paint4_linear)" d="M85.767 37.805c.544-2.433 1.619-4.716 3.148-6.685l8.013-9.465c1.363-1.603 2.17-1.224 1.796.846l-1.447 8.083c-.544 2.433-1.619 4.716-3.148 6.685l-8.018 9.474c-1.358 1.604-2.165 1.225-1.796-.846l1.452-8.092z"/>
        <g style="mix-blend-mode:multiply">
            <path style="mix-blend-mode:multiply" fill="#DF7F37" d="M92.614 32.9c.138-.767-.236-.811-.846-.098-.638.785-1.096 1.7-1.343 2.681-.138.768.241.812.846.099.64-.784 1.099-1.7 1.343-2.681zM96.515 25.551c.138-.767-.24-.811-.846-.093-.64.784-1.099 1.699-1.343 2.68-.138.763.241.808.846.094.64-.783 1.099-1.699 1.343-2.68M89.968 33.29c.137-.768-.241-.813-.847-.1-.63.787-1.08 1.702-1.318 2.682-.138.767.241.811.841.098.64-.784 1.1-1.7 1.348-2.68M95.266 32.512c.137-.767-.241-.812-.847-.098-.64.783-1.098 1.699-1.342 2.68-.138.768.24.812.846.099.639-.784 1.097-1.7 1.343-2.681M88.718 40.25c.138-.768-.24-.812-.846-.099-.64.784-1.099 1.7-1.343 2.681-.138.768.241.812.846.094.64-.782 1.099-1.696 1.343-2.676"/>
        </g>
        <path fill="url(#prefix__paint5_linear)" d="M59.489 40.79c-.942-.566-1.698-1.396-2.174-2.387-.475-.992-.65-2.1-.502-3.19l1.874-10.429c.369-2.071 2.189-2.951 4.043-1.968l17.773 9.529c.945.564 1.704 1.392 2.183 2.383.479.99.657 2.1.513 3.19l-1.874 10.429c-.37 2.07-2.194 2.951-4.049 1.967L59.49 40.791z"/>
        <g style="mix-blend-mode:multiply">
            <path style="mix-blend-mode:multiply" fill="#DF7F37" d="M61.181 38.587c.984 1.407 2.725 2.327 3.935 2.046 1.21-.28 1.427-1.643.463-3.06-.964-1.416-2.73-2.326-3.936-2.046-1.205.28-1.426 1.648-.462 3.06zM74.38 35.567c.983 1.411 2.73 2.331 3.934 2.051 1.206-.28 1.427-1.648.463-3.06-.964-1.411-2.73-2.326-3.936-2.051-1.205.276-1.421 1.648-.462 3.06"/>
        </g>
        <g style="mix-blend-mode:multiply" filter="url(#prefix__filter1_f)" opacity=".5">
            <path fill="url(#prefix__paint6_radial)" d="M46.246 91.29c17.257 0 31.247-5.234 31.247-11.692s-13.99-11.693-31.247-11.693C28.99 67.905 15 73.14 15 79.598c0 6.458 13.99 11.693 31.246 11.693z" style="mix-blend-mode:multiply"/>
        </g>
        <path fill="url(#prefix__paint7_linear)" stroke="url(#prefix__paint8_linear)" stroke-linecap="square" d="M68.255 45.321c-.567-2.053-1.624-3.939-3.08-5.494L53.084 27.942c-.7-.628-1.572-1.034-2.504-1.167-.931-.133-1.881.013-2.73.42L25.98 38.93c-.803.476-1.441 1.187-1.827 2.037-.386.85-.503 1.797-.333 2.715L27.888 61.5c.568 2.053 1.623 3.937 3.075 5.495l12.076 11.86c.701.628 1.572 1.034 2.504 1.167.931.133 1.881-.013 2.73-.42l21.87-11.736c.804-.476 1.442-1.186 1.828-2.036.387-.85.502-1.798.332-2.716L68.255 45.32z"/>
        <path fill="url(#prefix__paint9_linear)" d="M27.622 43.098c-1.284-1.264-1.038-3 .551-3.852L47.62 28.808c.851-.412 1.806-.56 2.743-.428.936.134 1.812.543 2.515 1.176l10.114 9.956c1.289 1.264 1.038 2.996-.551 3.852L42.995 53.797c-.849.408-1.8.554-2.731.421-.932-.133-1.803-.54-2.503-1.169l-10.139-9.951z"/>
        <g style="mix-blend-mode:multiply">
            <path style="mix-blend-mode:multiply" fill="#DF7F37" d="M54.122 44.446c1.245-.674 1.648-1.815.885-2.563-.762-.748-2.38-.802-3.63-.133-1.25.67-1.643 1.815-.885 2.558.757.743 2.38.807 3.63.138M50.31 40.702c1.249-.669 1.647-1.815.89-2.558-.758-.742-2.386-.806-3.63-.137-1.245.669-1.648 1.815-.89 2.563.757.747 2.38.801 3.63.132M46.482 36.959c1.245-.67 1.643-1.815.886-2.558-.758-.743-2.386-.802-3.63-.133-1.245.67-1.648 1.815-.886 2.558.763.743 2.38.802 3.63.133zM46.856 48.342c1.25-.67 1.648-1.815.89-2.558-.757-.743-2.38-.807-3.63-.138-1.249.669-1.647 1.82-.89 2.563.758.743 2.386.802 3.63.133M43.039 44.598c1.244-.669 1.648-1.815.885-2.558-.762-.742-2.38-.801-3.63-.133-1.25.67-1.643 1.816-.885 2.558.757.743 2.39.802 3.63.133zM39.237 40.84c1.25-.669 1.648-1.815.89-2.558-.758-.743-2.386-.802-3.635-.133-1.25.67-1.643 1.815-.886 2.558.758.743 2.381.807 3.63.133"/>
        </g>
        <path fill="url(#prefix__paint10_linear)" d="M32.153 66.306c-1.451-1.559-2.504-3.445-3.07-5.5l-2.985-13.045c-.399-1.76.325-2.164 1.613-.9l8.628 8.47c1.45 1.561 2.503 3.448 3.07 5.5l2.986 13.046c.398 1.761-.325 2.164-1.614.9l-8.628-8.47z"/>
        <path style="mix-blend-mode:multiply" fill="#DF7F37" d="M36.236 62.77c-.479-1.797-1.387-3.45-2.646-4.816-1.097-1.083-1.693-.674-1.334.91.481 1.797 1.39 3.45 2.647 4.82 1.097 1.078 1.692.67 1.333-.914"/>
        <path fill="url(#prefix__paint11_linear)" d="M42.105 60.846c-.17-.919-.053-1.868.334-2.719.387-.85 1.026-1.562 1.83-2.038l19.47-10.443c.333-.211.714-.336 1.108-.363.394-.028.789.044 1.148.207.36.164.672.415.91.73.239.314.395.684.454 1.074l3.444 15.136c.169.918.052 1.866-.334 2.715-.386.85-1.023 1.56-1.826 2.037L49.188 77.63c-.333.212-.714.337-1.108.364-.394.027-.789-.045-1.148-.208-.36-.164-.672-.414-.91-.73-.239-.314-.395-.683-.454-1.074l-3.463-15.136z"/>
        <g style="mix-blend-mode:multiply">
            <path style="mix-blend-mode:multiply" fill="#DF7F37" d="M47.81 58.583c.793-1.283 2.303-2.021 3.37-1.643 1.068.38 1.29 1.722.492 3.01-.797 1.29-2.302 2.018-3.37 1.644-1.067-.374-1.288-1.727-.491-3.01zM54.53 60.954c.792-1.284 2.303-2.017 3.37-1.643 1.067.374 1.294 1.727.492 3.01-.802 1.285-2.302 2.018-3.37 1.644-1.067-.374-1.288-1.727-.492-3.01M61.24 63.33c.792-1.288 2.302-2.021 3.37-1.643 1.067.38 1.293 1.722.491 3.006-.802 1.284-2.297 2.022-3.37 1.643-1.072-.379-1.288-1.727-.491-3.006"/>
        </g>
    </g>
    <defs>
        <linearGradient id="prefix__paint1_linear" x1="55.227" x2="102.668" y1="19.845" y2="50.325" gradientUnits="userSpaceOnUse">
            <stop stop-color="#F48836"/>
            <stop offset="1" stop-color="#F4364C"/>
        </linearGradient>
        <linearGradient id="prefix__paint2_linear" x1="32.362" x2="83.923" y1="26.993" y2="72.35" gradientUnits="userSpaceOnUse">
            <stop stop-color="#F48836"/>
            <stop offset="1" stop-color="#F4364C"/>
        </linearGradient>
        <linearGradient id="prefix__paint3_linear" x1="85.989" x2="78.63" y1="4.28" y2="29.81" gradientUnits="userSpaceOnUse">
            <stop stop-color="#FF725C"/>
            <stop offset="1" stop-color="#FD994E"/>
        </linearGradient>
        <linearGradient id="prefix__paint4_linear" x1="93.988" x2="81.386" y1="22.088" y2="40.354" gradientUnits="userSpaceOnUse">
            <stop stop-color="#FF725C"/>
            <stop offset="1" stop-color="#FD994E"/>
        </linearGradient>
        <linearGradient id="prefix__paint5_linear" x1="74.485" x2="64.813" y1="23.904" y2="48.247" gradientUnits="userSpaceOnUse">
            <stop stop-color="#FF725C"/>
            <stop offset="1" stop-color="#FD994E"/>
        </linearGradient>
        <linearGradient id="prefix__paint7_linear" x1="23.744" x2="73.126" y1="46.064" y2="78.948" gradientUnits="userSpaceOnUse">
            <stop stop-color="#F48836"/>
            <stop offset="1" stop-color="#F4364C"/>
        </linearGradient>
        <linearGradient id="prefix__paint8_linear" x1="-.574" x2="52.542" y1="53.399" y2="101.827" gradientUnits="userSpaceOnUse">
            <stop stop-color="#F48836"/>
            <stop offset="1" stop-color="#F4364C"/>
        </linearGradient>
        <linearGradient id="prefix__paint9_linear" x1="51.569" x2="45.27" y1="29.698" y2="53.883" gradientUnits="userSpaceOnUse">
            <stop stop-color="#FF725C"/>
            <stop offset="1" stop-color="#FD994E"/>
        </linearGradient>
        <linearGradient id="prefix__paint10_linear" x1="37.04" x2="23.572" y1="47.672" y2="68.03" gradientUnits="userSpaceOnUse">
            <stop stop-color="#FF725C"/>
            <stop offset="1" stop-color="#FD994E"/>
        </linearGradient>
        <linearGradient id="prefix__paint11_linear" x1="61.334" x2="49.667" y1="47" y2="74.667" gradientUnits="userSpaceOnUse">
            <stop stop-color="#FF725C"/>
            <stop offset="1" stop-color="#FD994E"/>
        </linearGradient>
        <radialGradient id="prefix__paint0_radial" cx="0" cy="0" r="1" gradientTransform="matrix(26.26 -20.27672 6.34747 8.2205 81.76 51.75)" gradientUnits="userSpaceOnUse">
            <stop stop-color="#7A7A7A"/>
            <stop offset="1" stop-color="#fff" stop-opacity="0"/>
        </radialGradient>
        <radialGradient id="prefix__paint6_radial" cx="0" cy="0" r="1" gradientTransform="matrix(31.2528 0 0 11.6837 45.841 79.058)" gradientUnits="userSpaceOnUse">
            <stop stop-color="#7A7A7A"/>
            <stop offset="1" stop-color="#fff" stop-opacity="0"/>
        </radialGradient>
        <filter id="prefix__filter0_f" width="95.214" height="86.999" x="34.786" y="8.367" color-interpolation-filters="sRGB" filterUnits="userSpaceOnUse">
            <feFlood flood-opacity="0" result="BackgroundImageFix"/>
            <feBlend in="SourceGraphic" in2="BackgroundImageFix" result="shape"/>
            <feGaussianBlur result="effect1_foregroundBlur" stdDeviation="7.5"/>
        </filter>
        <filter id="prefix__filter1_f" width="92.493" height="53.386" x="0" y="52.905" color-interpolation-filters="sRGB" filterUnits="userSpaceOnUse">
            <feFlood flood-opacity="0" result="BackgroundImageFix"/>
            <feBlend in="SourceGraphic" in2="BackgroundImageFix" result="shape"/>
            <feGaussianBlur result="effect1_foregroundBlur" stdDeviation="7.5"/>
        </filter>
    </defs>
</svg>
