<svg xmlns="http://www.w3.org/2000/svg" width="51" height="50" viewBox="0 0 51 50">
    <g fill="none" transform="translate(.5)">
        <path fill="#FFDB4D" d="M7.17 2.498C6.956 5.056 4.29 5.46 4.29 5.46c2.29.108 2.86 3.11 2.86 3.11.048-2.14 2.947-3.141 2.947-3.141-2.171-.13-2.925-2.931-2.925-2.931z"/>
        <path fill="#E5C545" d="M10.116 5.097c-1.904-.114-2.618-2.66-2.625-2.686-.042-.155-.189-.257-.35-.244-.16.015-.287.143-.301.303-.19 2.26-2.503 2.647-2.6 2.662-.17.025-.29.175-.282.345.009.17.145.306.316.314 1.997.094 2.544 2.814 2.549 2.842.03.157.168.269.326.269l.028-.001c.169-.014.3-.154.304-.323.043-1.882 2.697-2.827 2.724-2.836.15-.052.241-.202.22-.36-.023-.156-.152-.275-.31-.285zm-3.002 2.29c-.3-.694-.82-1.53-1.678-1.965.648-.31 1.418-.866 1.814-1.83.343.68.93 1.522 1.844 1.93-.665.363-1.531.974-1.98 1.864z"/>
        <path fill="#FFDB4D" d="M2.37 6.255C2.217 8.065.332 8.35.332 8.35c1.619.076 2.022 2.2 2.022 2.2C2.39 9.036 4.44 8.327 4.44 8.327c-1.536-.091-2.07-2.072-2.07-2.072z"/>
        <path fill="#E5C545" d="M4.459 7.996C3.183 7.92 2.695 6.186 2.69 6.168c-.042-.155-.19-.258-.35-.244-.16.014-.287.142-.3.303C1.91 7.747.347 8.01.281 8.022c-.169.025-.29.174-.281.345.009.17.145.306.316.314 1.335.063 1.708 1.913 1.712 1.93.03.158.167.27.325.27h.028c.17-.014.3-.154.305-.324.028-1.263 1.843-1.91 1.86-1.916.15-.052.243-.202.221-.359-.022-.157-.151-.276-.31-.286zM2.339 9.5c-.205-.417-.519-.874-.985-1.169.41-.23.818-.581 1.078-1.087.234.414.587.875 1.093 1.156-.41.243-.882.606-1.187 1.1z"/>
        <path fill="#FFDB4D" d="M2.37.357C2.217 2.167.332 2.452.332 2.452c1.619.076 2.022 2.2 2.022 2.2C2.39 3.138 4.44 2.43 4.44 2.43 2.903 2.338 2.369.357 2.369.357z"/>
        <path fill="#E5C545" d="M4.459 2.098C3.183 2.022 2.695.288 2.69.27 2.648.115 2.5.012 2.34.026c-.16.014-.287.142-.3.303C1.91 1.849.347 2.113.281 2.124c-.169.025-.29.175-.281.345.009.17.145.306.316.314 1.335.063 1.708 1.913 1.712 1.93.03.159.167.27.325.27h.028c.17-.014.3-.154.305-.323.028-1.264 1.843-1.91 1.86-1.917.15-.052.243-.202.221-.359-.022-.156-.151-.276-.31-.286zm-2.12 1.504c-.205-.417-.518-.873-.985-1.168.41-.23.818-.582 1.078-1.088.234.415.587.875 1.093 1.156-.41.243-.882.606-1.187 1.1z"/>
        <path fill="#EB6E7A" d="M45.077 14.612H4.923c-2.536 0-4.591 2.055-4.591 4.59v25.85c0 2.536 2.055 4.591 4.59 4.591h40.155c2.536 0 4.591-2.055 4.591-4.59v-25.85c0-2.536-2.055-4.59-4.59-4.59z"/>
        <path fill="#3A312A" d="M45.077 14.28H4.923C2.208 14.28 0 16.488 0 19.203v17.182c0 .184.149.332.332.332.183 0 .332-.148.332-.332V19.203c0-2.348 1.91-4.259 4.259-4.259h40.154c2.349 0 4.26 1.91 4.26 4.259v25.85c0 2.348-1.911 4.258-4.26 4.258H4.923c-2.349 0-4.26-1.91-4.26-4.258v-5.53c0-.184-.148-.333-.331-.333-.183 0-.332.149-.332.332v5.53c0 2.715 2.208 4.923 4.923 4.923h40.154c2.715 0 4.923-2.208 4.923-4.922v-25.85c0-2.715-2.208-4.923-4.923-4.923z"/>
        <path fill="#D7E057" d="M0.332 27.612L49.668 27.612 49.668 31.152 0.332 31.152z"/>
        <path fill="#3A312A" d="M49.668 27.28H19.583c-.183 0-.332.149-.332.332 0 .184.149.332.332.332h29.753v2.876H.664v-2.876h15.889c.183 0 .332-.148.332-.332 0-.183-.15-.332-.332-.332H.332c-.183 0-.332.149-.332.332v3.54c0 .183.149.332.332.332h49.336c.183 0 .332-.149.332-.332v-3.54c0-.183-.149-.332-.332-.332z"/>
        <path fill="#D7E057" d="M32.927 14.612L36.467 14.612 36.467 49.643 32.927 49.643z"/>
        <path fill="#3A312A" d="M36.467 14.28h-3.54c-.183 0-.332.149-.332.332v35.031c0 .184.149.332.332.332h3.54c.183 0 .332-.148.332-.332v-35.03c0-.184-.149-.333-.332-.333zm-.332 35.031h-2.876V14.944h2.876v34.367z"/>
        <path fill="#D7E057" d="M42.158 25.358l-6.237 2.799 2.799-6.237c.751-1.675-.474-3.567-2.309-3.567h-3.428c-1.835 0-3.06 1.892-2.31 3.567l2.8 6.237-6.237-2.799c-1.675-.751-3.567.474-3.567 2.309v3.428c0 1.835 1.892 3.06 3.567 2.309l6.237-2.799-2.8 6.237c-.75 1.675.475 3.567 2.31 3.567h3.428c1.835 0 3.06-1.892 2.309-3.567l-2.799-6.237 6.237 2.799c1.675.751 3.567-.474 3.567-2.31v-3.427c0-1.835-1.892-3.06-3.567-2.309z"/>
        <path fill="#3A312A" d="M44.75 25.264c-.819-.53-1.838-.608-2.727-.209l-5.442 2.442 2.442-5.441c.399-.89.32-1.91-.209-2.728-.53-.818-1.428-1.307-2.403-1.307h-3.428c-.975 0-1.873.489-2.403 1.307s-.608 1.838-.209 2.728l2.442 5.44-5.441-2.44c-.89-.4-1.91-.322-2.728.208-.818.53-1.307 1.428-1.307 2.403v3.428c0 .975.489 1.873 1.307 2.403.819.53 1.838.608 2.728.209l5.441-2.442-2.442 5.441c-.399.89-.32 1.91.21 2.728.529.818 1.427 1.307 2.402 1.307h3.428c.975 0 1.874-.489 2.403-1.307.53-.819.608-1.838.209-2.728l-2.442-5.441 5.442 2.442c.89.399 1.908.32 2.727-.209.818-.53 1.307-1.428 1.307-2.403v-3.428c0-.975-.489-1.873-1.307-2.403zm.643 5.831c0 .749-.375 1.44-1.004 1.846-.628.407-1.412.467-2.095.16l-6.237-2.798c-.125-.057-.273-.03-.37.068-.098.097-.125.245-.068.37l2.798 6.237c.307.684.247 1.467-.16 2.095-.407.629-1.097 1.004-1.846 1.004h-3.428c-.75 0-1.44-.375-1.846-1.004-.407-.628-.467-1.411-.16-2.095l2.798-6.237c.056-.125.03-.273-.068-.37-.064-.064-.149-.097-.235-.097-.046 0-.092.01-.136.029L27.1 33.1c-.684.307-1.466.247-2.095-.16-.629-.407-1.004-1.097-1.004-1.846v-3.428c0-.75.375-1.44 1.004-1.846.629-.407 1.412-.467 2.095-.16l6.237 2.798c.125.056.273.03.37-.068.098-.097.125-.245.069-.37l-2.799-6.237c-.306-.683-.246-1.467.16-2.096.408-.628 1.098-1.003 1.847-1.003h3.428c.749 0 1.439.375 1.846 1.003.407.63.466 1.412.16 2.096L35.62 28.02c-.057.125-.03.273.068.37.097.098.245.124.37.068l6.237-2.798c.684-.307 1.467-.247 2.095.16.629.407 1.004 1.097 1.004 1.846v3.428z"/>
        <circle cx="34.7" cy="29.37" r="2.944" fill="#D7E057" transform="rotate(-16.858 34.7 29.37)"/>
        <path fill="#3A312A" d="M34.697 26.106c-1.806 0-3.276 1.469-3.276 3.275 0 1.806 1.47 3.276 3.276 3.276 1.806 0 3.276-1.47 3.276-3.276 0-1.806-1.47-3.275-3.276-3.275zm0 5.887c-1.44 0-2.612-1.172-2.612-2.612 0-1.44 1.172-2.612 2.612-2.612 1.44 0 2.612 1.172 2.612 2.612 0 1.44-1.172 2.612-2.612 2.612z"/>
        <path fill="#BE4958" d="M45.077 14.944h-3.76c2.347 0 4.258 1.912 4.258 4.259v6.878c.24.356.396.766.454 1.2h3.307v-8.078c0-2.347-1.911-4.259-4.259-4.259zM46.029 31.484c-.058.433-.215.843-.454 1.201v12.367c0 2.348-1.911 4.26-4.259 4.26h3.761c2.348 0 4.26-1.912 4.26-4.26V31.484h-3.308z"/>
        <path fill="#D7E057" d="M46.057 27.944L49.336 27.944 49.336 30.82 46.057 30.82z"/>
    </g>
</svg>
