<svg xmlns="http://www.w3.org/2000/svg" width="46" height="46" viewBox="0 0 46 46">
    <g fill="none" transform="translate(.5)">
        <path fill="#FFDB4D" d="M6.62 2.33c-.196 2.317-2.61 2.683-2.61 2.683C6.083 5.11 6.6 7.829 6.6 7.829c.044-1.938 2.668-2.845 2.668-2.845C7.302 4.866 6.62 2.33 6.62 2.33z"/>
        <path fill="#E5C545" d="M9.286 4.684c-1.724-.103-2.37-2.409-2.376-2.432-.039-.141-.174-.234-.318-.221-.145.013-.26.128-.272.274-.172 2.046-2.266 2.397-2.355 2.41-.153.023-.263.159-.255.313.008.154.132.277.286.285 1.81.085 2.304 2.548 2.309 2.573.027.142.152.244.295.244l.025-.001c.153-.013.272-.14.275-.293.04-1.705 2.443-2.56 2.467-2.568.135-.047.219-.183.2-.325-.02-.142-.138-.25-.28-.259zM6.57 6.757c-.272-.628-.743-1.384-1.52-1.779.587-.281 1.284-.784 1.643-1.657.31.615.841 1.378 1.67 1.748-.603.328-1.388.882-1.793 1.688z"/>
        <path fill="#FFDB4D" d="M2.272 5.732C2.134 7.37.427 7.629.427 7.629c1.466.07 1.831 1.993 1.831 1.993.032-1.372 1.888-2.013 1.888-2.013-1.39-.083-1.874-1.877-1.874-1.877z"/>
        <path fill="#E5C545" d="M4.164 7.309c-1.155-.07-1.597-1.64-1.602-1.656-.038-.14-.171-.234-.317-.22-.145.012-.26.128-.272.273C1.857 7.083.441 7.322.382 7.332c-.153.023-.263.158-.255.313.008.154.131.277.286.284 1.209.057 1.547 1.732 1.55 1.749.027.142.152.244.295.244h.025c.154-.014.272-.14.276-.294.026-1.143 1.67-1.73 1.685-1.735.136-.047.22-.183.2-.325-.02-.142-.137-.25-.28-.259zM2.244 8.67c-.185-.377-.47-.79-.891-1.057.372-.209.74-.527.976-.985.212.375.531.792.99 1.046-.371.22-.8.55-1.075.996z"/>
        <path fill="#FFDB4D" d="M2.272.391C2.134 2.03.427 2.29.427 2.29c1.466.069 1.831 1.992 1.831 1.992C2.29 2.91 4.146 2.27 4.146 2.27 2.756 2.185 2.272.39 2.272.39z"/>
        <path fill="#E5C545" d="M4.164 1.969C3.009 1.899 2.567.329 2.562.313 2.524.173 2.391.08 2.245.092c-.145.013-.26.129-.272.274C1.857 1.742.441 1.982.382 1.991c-.153.024-.263.159-.255.313.008.155.131.278.286.285 1.209.057 1.547 1.732 1.55 1.748.027.143.152.245.295.245l.025-.001c.154-.013.272-.14.276-.293.026-1.144 1.67-1.73 1.685-1.735.136-.047.22-.183.2-.325-.02-.142-.137-.251-.28-.26zm-1.92 1.36c-.185-.377-.469-.79-.891-1.057.372-.208.74-.527.976-.985.212.376.531.793.99 1.047-.371.22-.8.549-1.075.996z"/>
        <path fill="#714FEB" d="M.3 16.828v25.176c0 1.702 1.38 3.082 3.082 3.082h38.513c1.702 0 3.081-1.38 3.081-3.082V16.828H.301z"/>
        <path fill="#3A312A" d="M44.976 16.527H.301c-.167 0-.301.135-.301.301v7.169c0 .166.134.3.3.3.167 0 .301-.134.301-.3v-6.868h44.075v24.875c0 1.534-1.248 2.781-2.781 2.781H3.382c-1.533 0-2.781-1.247-2.781-2.78V26.653c0-.166-.134-.3-.3-.3-.167 0-.301.134-.301.3v15.35c0 1.865 1.517 3.382 3.382 3.382h38.513c1.865 0 3.382-1.517 3.382-3.382V16.828c0-.166-.135-.3-.3-.3z"/>
        <path fill="#5F40CC" d="M41.895 10.884H3.382c-1.702 0-3.081 1.38-3.081 3.082v2.862h44.675v-2.862c0-1.702-1.38-3.082-3.081-3.082z"/>
        <path fill="#3A312A" d="M41.895 10.584h-6.261c-.166 0-.3.135-.3.3 0 .166.134.301.3.301h6.26c1.534 0 2.782 1.248 2.782 2.781v2.561H.6v-2.56c0-1.534 1.248-2.782 2.781-2.782h29.686c.166 0 .3-.135.3-.3 0-.166-.134-.301-.3-.301H3.382C1.517 10.584 0 12.101 0 13.966v2.862c0 .166.134.3.3.3h44.676c.166 0 .3-.134.3-.3v-2.862c0-1.865-1.516-3.382-3.381-3.382z"/>
        <circle cx="4.407" cy="13.89" r="1.352" fill="#EF6D7A"/>
        <path fill="#3A312A" d="M4.407 12.237c-.91 0-1.652.741-1.652 1.653 0 .91.741 1.652 1.652 1.652.912 0 1.653-.741 1.653-1.652 0-.912-.741-1.653-1.653-1.653zm0 2.704c-.58 0-1.051-.471-1.051-1.051s.472-1.052 1.051-1.052c.58 0 1.052.472 1.052 1.052 0 .58-.472 1.051-1.052 1.051z"/>
        <circle cx="10.067" cy="13.89" r="1.352" fill="#D6DF58"/>
        <path fill="#3A312A" d="M10.067 12.237c-.911 0-1.653.741-1.653 1.653 0 .91.742 1.652 1.653 1.652s1.653-.741 1.653-1.652c0-.912-.742-1.653-1.653-1.653zm0 2.704c-.58 0-1.052-.471-1.052-1.051s.472-1.052 1.052-1.052c.58 0 1.052.472 1.052 1.052 0 .58-.472 1.051-1.052 1.051z"/>
        <circle cx="15.727" cy="13.89" r="1.352" fill="#8AC5DC"/>
        <path fill="#3A312A" d="M15.727 12.237c-.912 0-1.653.741-1.653 1.653 0 .91.741 1.652 1.653 1.652.911 0 1.653-.741 1.653-1.652 0-.912-.742-1.653-1.653-1.653zm0 2.704c-.58 0-1.052-.471-1.052-1.051s.472-1.052 1.052-1.052c.58 0 1.052.472 1.052 1.052 0 .58-.472 1.051-1.052 1.051z"/>
        <path fill="#5F40CC" d="M41.67 17.13v24.874c0 1.534-1.247 2.78-2.78 2.78h3.005c1.533 0 2.78-1.246 2.78-2.78V17.129h-3.004z"/>
        <path fill="#583BBC" d="M41.895 11.185H38.89c1.533 0 2.78 1.248 2.78 2.78v2.563h3.006v-2.562c0-1.533-1.248-2.78-2.78-2.78z"/>
        <circle cx="32.801" cy="31.03" r="7.663" fill="#D5DE58" transform="rotate(-9.208 32.8 31.03)"/>
        <path fill="#3A312A" d="M32.81 23.061c-4.392 0-7.965 3.573-7.965 7.965 0 4.392 3.573 7.965 7.965 7.965 4.392 0 7.965-3.573 7.965-7.965 0-4.392-3.573-7.965-7.965-7.965zm0 15.329c-4.06 0-7.364-3.304-7.364-7.364 0-4.06 3.304-7.364 7.364-7.364 4.06 0 7.364 3.304 7.364 7.364 0 4.06-3.304 7.364-7.364 7.364z"/>
        <path fill="#8AC5DC" d="M23.328 31.028L16.45 26.282 16.449 29.17 4.202 29.168 4.201 32.881 16.448 32.882 16.447 35.77z"/>
        <path fill="#3A312A" d="M23.499 30.78l-6.878-4.745c-.092-.063-.212-.07-.31-.019-.1.052-.161.155-.161.266l-.001 2.587-11.947-.002c-.166 0-.3.135-.3.301L3.9 32.88c0 .08.031.157.088.213.056.056.132.088.212.088l11.947.002-.001 2.587c0 .111.062.214.16.266.044.023.092.034.14.034.06 0 .12-.018.17-.053l6.882-4.742c.081-.056.13-.149.13-.248 0-.098-.049-.19-.13-.247zm-6.75 4.417v-2.315c0-.08-.032-.156-.088-.212-.057-.057-.133-.088-.213-.088L4.502 32.58v-3.112l11.947.002c.166 0 .3-.134.3-.3l.001-2.316 6.049 4.173-6.05 4.17z"/>
    </g>
</svg>
