<svg xmlns="http://www.w3.org/2000/svg" width="32" height="50" viewBox="0 0 32 50">
    <g fill="none">
        <path fill="#D5DE58" d="M18.496 14c-.037.421-.496.488-.496.488.394.018.492.512.492.512.009-.353.508-.517.508-.517-.374-.022-.504-.483-.504-.483z" transform="translate(-.5 .5)"/>
        <path fill="#3A312A" d="M19.952 15.435c-.294-.017-.405-.395-.406-.399-.006-.023-.03-.038-.054-.036-.025.002-.044.021-.047.045-.029.336-.386.393-.401.395-.026.004-.045.026-.044.052.001.025.023.045.049.046.309.014.393.418.394.422.005.023.026.04.05.04h.005c.026-.002.046-.023.047-.048.006-.28.416-.42.42-.421.024-.008.038-.03.035-.053-.004-.024-.024-.041-.048-.043zm-.464.34c-.046-.103-.127-.227-.26-.292.1-.046.22-.128.281-.271.053.1.144.226.285.286-.103.054-.237.145-.306.277z" transform="translate(-.5 .5)"/>
        <path fill="#D5DE58" d="M18.999 15.823c-.013.15-.166.173-.166.173.132.006.164.18.164.18.003-.124.17-.182.17-.182-.125-.008-.168-.17-.168-.17z" transform="translate(-.5 .5)"/>
        <path fill="#3A312A" d="M19.935 15.418c-.268-.015-.37-.365-.371-.369-.009-.03-.04-.052-.074-.049-.033.003-.06.029-.063.061-.026.307-.354.36-.368.362-.035.005-.06.036-.059.07.002.034.03.062.066.063.28.013.358.386.36.39.005.031.034.054.067.054h.006c.036-.003.063-.031.064-.065.006-.255.386-.386.39-.387.032-.01.05-.04.046-.072-.004-.032-.031-.056-.064-.058zm-.445.303c-.043-.084-.108-.176-.206-.235.086-.047.171-.118.226-.22.049.084.123.177.229.233-.086.05-.185.123-.249.222z" transform="translate(-.5 .5)"/>
        <path fill="#D5DE58" d="M18.999 14.823c-.013.15-.166.173-.166.173.132.006.164.18.164.18.003-.124.17-.182.17-.182-.125-.008-.168-.17-.168-.17z" transform="translate(-.5 .5)"/>
        <path fill="#3A312A" d="M19.935 15.418c-.268-.015-.37-.365-.371-.369-.009-.03-.04-.051-.074-.049-.033.003-.06.029-.063.061-.026.307-.354.36-.368.362-.035.005-.06.035-.059.07.002.034.03.062.066.063.28.013.358.386.36.39.005.031.034.054.067.054h.006c.036-.003.063-.031.064-.065.006-.255.386-.386.39-.387.032-.01.05-.04.046-.072-.004-.032-.031-.056-.064-.058zm-.445.303c-.043-.084-.108-.176-.206-.235.086-.047.171-.118.226-.22.049.084.123.177.229.233-.086.05-.185.123-.249.222z" transform="translate(-.5 .5)"/>
        <path fill="#FFDB4D" d="M23.255 2.08c-.159 1.91-2.13 2.212-2.13 2.212 1.692.08 2.114 2.322 2.114 2.322.036-1.598 2.18-2.346 2.18-2.346-1.606-.097-2.164-2.188-2.164-2.188z" transform="translate(-.5 .5)"/>
        <path fill="#E5C545" d="M25.434 4.02c-1.408-.084-1.936-1.986-1.942-2.005-.03-.116-.14-.192-.259-.182-.118.01-.212.106-.222.226-.14 1.687-1.851 1.976-1.923 1.988-.125.019-.215.13-.209.258.007.127.108.228.234.234 1.477.07 1.881 2.101 1.885 2.122.023.117.124.2.241.2h.02c.126-.01.223-.114.226-.241.032-1.406 1.995-2.11 2.014-2.118.111-.039.18-.15.163-.268-.016-.117-.112-.206-.228-.213zm-2.22 1.71c-.222-.517-.607-1.141-1.242-1.467.48-.232 1.049-.646 1.342-1.366.254.507.687 1.136 1.364 1.44-.492.272-1.133.728-1.464 1.393z" transform="translate(-.5 .5)"/>
        <path fill="#FFDB4D" d="M19.705 4.885c-.113 1.351-1.507 1.564-1.507 1.564 1.197.057 1.496 1.643 1.496 1.643.025-1.13 1.541-1.66 1.541-1.66-1.136-.068-1.53-1.547-1.53-1.547z" transform="translate(-.5 .5)"/>
        <path fill="#E5C545" d="M21.25 6.185c-.944-.057-1.305-1.352-1.308-1.365-.031-.116-.141-.192-.259-.182-.119.01-.213.106-.223.226-.094 1.135-1.25 1.333-1.3 1.34-.124.02-.214.13-.207.258.006.127.107.229.233.235.988.047 1.264 1.428 1.267 1.441.022.118.124.202.24.202h.021c.125-.011.222-.115.225-.242.021-.943 1.363-1.426 1.376-1.43.111-.04.18-.152.164-.269-.017-.117-.112-.207-.23-.214zM19.68 7.308c-.15-.312-.382-.652-.727-.872.304-.172.605-.435.797-.812.173.31.434.653.808.863-.302.181-.652.452-.878.82z" transform="translate(-.5 .5)"/>
        <path fill="#FFDB4D" d="M19.699.481c-.108 1.352-1.501 1.57-1.501 1.57C19.395 2.105 19.7 3.69 19.7 3.69c.02-1.131 1.535-1.666 1.535-1.666C20.1 1.96 19.7.481 19.7.481z" transform="translate(-.5 .5)"/>
        <path fill="#E5C545" d="M21.249 1.776c-.94-.053-1.307-1.336-1.313-1.36-.032-.116-.144-.194-.26-.182-.119.012-.212.107-.222.227-.09 1.136-1.246 1.338-1.294 1.346-.125.02-.215.131-.208.259.007.127.109.228.235.233.988.043 1.27 1.423 1.272 1.437.023.117.124.2.24.2h.022c.125-.011.222-.116.224-.243.018-.943 1.358-1.431 1.371-1.436.11-.039.179-.151.162-.269-.017-.117-.113-.206-.23-.212zm-1.564 1.128c-.153-.31-.386-.65-.731-.87.303-.172.603-.436.793-.815.175.31.437.652.812.86-.302.183-.65.456-.874.825z" transform="translate(-.5 .5)"/>
        <path fill="#94972D" d="M10.665 6.486c-3.156 0-5.96 1.513-7.745 3.86L1.74 12.35c-.536 1.22-.836 2.57-.836 3.99 0 5.444 4.37 9.856 9.761 9.856 5.391 0 9.761-4.413 9.761-9.855 0-5.443-4.37-9.855-9.76-9.855z" transform="translate(-.5 .5)"/>
        <path fill="#3A312A" d="M10.665 6.238c-3.133 0-6.027 1.442-7.94 3.957-.082.108-.062.264.045.347.108.084.262.063.345-.045 1.818-2.392 4.57-3.764 7.55-3.764 5.247 0 9.516 4.31 9.516 9.608 0 5.297-4.269 9.607-9.516 9.607S1.15 21.638 1.15 16.34c0-1.35.275-2.66.816-3.89.055-.125-.001-.272-.125-.327-.124-.056-.27 0-.324.126-.569 1.295-.857 2.671-.857 4.09 0 5.571 4.489 10.104 10.006 10.104 5.518 0 10.007-4.533 10.007-10.103 0-5.57-4.49-10.103-10.007-10.103z" transform="translate(-.5 .5)"/>
        <path fill="#D7E057" d="M11.596 15.233c-1.413-.536-1.995-.889-1.995-1.443 0-.47.35-.94 1.43-.94 1.196 0 1.96.386 2.393.571l.482-1.896c-.548-.268-1.296-.503-2.41-.554V9.495H9.867v1.594c-1.778.352-2.808 1.51-2.808 2.987 0 1.627 1.213 2.466 2.991 3.07 1.23.42 1.762.823 1.762 1.46 0 .671-.648 1.04-1.595 1.04-1.08 0-2.061-.352-2.76-.738l-.498 1.963c.632.37 1.712.671 2.825.722v1.594h1.629v-1.712c1.377-.241 2.305-.97 2.717-1.918.16-.368.241-.768.241-1.186 0-1.51-.798-2.433-2.775-3.138z" transform="translate(-.5 .5)"/>
        <path fill="#3A312A" d="M11.682 15.001c-1.372-.521-1.835-.827-1.835-1.21 0-.603.741-.693 1.184-.693 1.04 0 1.723.3 2.174.498l.123.053c.066.028.14.026.205-.006.064-.032.11-.09.129-.16l.482-1.896c.029-.114-.026-.233-.131-.285-.648-.317-1.393-.502-2.272-.565V9.495c0-.137-.11-.248-.245-.248H9.867c-.136 0-.245.11-.245.248v1.394c-1.739.414-2.81 1.62-2.81 3.186 0 1.98 1.689 2.807 3.16 3.306 1.323.451 1.594.816 1.594 1.225 0 .735-1.033.792-1.35.792-1.184 0-2.163-.443-2.641-.707-.066-.037-.146-.04-.215-.01-.07.03-.122.091-.14.165l-.5 1.964c-.026.107.02.22.116.276.66.386 1.679.663 2.703.74v1.36c0 .138.11.248.245.248h1.629c.135 0 .245-.11.245-.247v-1.508c1.295-.278 2.248-.991 2.696-2.023.174-.4.263-.833.263-1.285 0-1.629-.88-2.637-2.935-3.37zm2.223 4.456c-.403.928-1.303 1.558-2.534 1.774-.118.02-.203.124-.203.244v1.464H10.03v-1.346c0-.133-.104-.242-.235-.248-.93-.042-1.904-.274-2.55-.6l.374-1.475c.575.28 1.505.624 2.597.624 1.136 0 1.841-.494 1.841-1.288 0-.86-.77-1.3-1.929-1.695-1.98-.672-2.824-1.52-2.824-2.836 0-1.394.976-2.42 2.61-2.743.116-.023.199-.125.199-.243V9.742h1.138v1.23c0 .132.103.241.234.247.83.037 1.53.183 2.132.445l-.36 1.415c-.468-.202-1.195-.476-2.226-.476-1.554 0-1.675.909-1.675 1.187 0 .729.695 1.121 2.158 1.677 1.855.661 2.612 1.502 2.612 2.904 0 .383-.075.749-.221 1.086z" transform="translate(-.5 .5)"/>
        <path fill="#7C7E1D" d="M10.665 6.733c-.43 0-.852.032-1.268.088l-.052.083c4.395.847 7.728 4.757 7.728 9.437 0 4.763-3.451 8.728-7.962 9.478.505.084 1.024.129 1.554.129 5.248 0 9.516-4.31 9.516-9.607s-4.268-9.608-9.516-9.608z" transform="translate(-.5 .5)"/>
        <g transform="translate(-.5 .5) translate(5 13)">
            <path fill="#F5E1C5" d="M23.762 9.528h-.026c-1.132 0-2.05.918-2.05 2.05v-1.402c0-1.132-.917-2.05-2.05-2.05h-.026c-1.107 0-2.01.879-2.048 1.977v1.356-2.685c0-1.132-.918-2.049-2.05-2.049h-.027c-1.131 0-2.049.917-2.049 2.05v2.332l-.002-.002V2.38c0-1.132-.917-2.049-2.049-2.049h-.026c-1.132 0-2.05.917-2.05 2.05v13.554c0 .79-.64 1.43-1.43 1.43H3.221c-1.596 0-2.89 1.294-2.89 2.887 0 .798.324 1.52.846 2.042.524.522 1.246.845 2.044.845h3.604c1.485 0 2.807.946 3.286 2.353l.955 2.803c.086-.011.173-.017.262-.017h13.063l.116.002.154-.606c.746-2.936 1.13-5.952 1.149-8.981l.002-.072v-7.044c0-1.132-.918-2.05-2.05-2.05z"/>
            <path fill="#3A312A" d="M23.762 9.197h-.026c-.68 0-1.295.286-1.73.745-.117-1.204-1.135-2.147-2.369-2.147h-.026c-.682 0-1.296.282-1.73.739-.12-1.2-1.137-2.14-2.369-2.14h-.026c-.676 0-1.286.282-1.72.735V2.38c0-1.313-1.068-2.381-2.38-2.381h-.027c-1.313 0-2.381 1.068-2.381 2.381v13.555c0 .606-.493 1.099-1.099 1.099H3.221C1.445 17.035 0 18.478 0 20.253c0 .86.335 1.669.943 2.277.61.607 1.419.942 2.278.942h3.604c1.345 0 2.539.855 2.972 2.128l.955 2.803c.046.136.174.225.314.225.015 0 .03 0 .044-.003.07-.01.144-.014.218-.014h13.063l.116.002c.151 0 .284-.103.321-.25l.154-.606c.75-2.95 1.14-5.999 1.16-9.063l.001-7.116c0-1.313-1.068-2.381-2.38-2.381zm1.718 9.308l-.003.187c-.019 3.008-.402 6.003-1.139 8.901l-.09.355h-12.95l-.873-2.562c-.525-1.542-1.971-2.578-3.6-2.578H3.221c-.683 0-1.325-.266-1.81-.748-.482-.482-.747-1.124-.747-1.807 0-1.409 1.147-2.555 2.557-2.555h4.658c.972 0 1.762-.79 1.762-1.762V2.381c0-.947.77-1.717 1.718-1.717h.026c.947 0 1.717.77 1.717 1.717v8.724c0 .087.037.174.1.236.094.095.237.124.361.072.124-.051.205-.172.205-.307V8.774c0-.947.77-1.717 1.717-1.717h.027c.947 0 1.717.77 1.717 1.717v2.704c0 .183.149.332.332.332.184 0 .332-.149.332-.332l.001-1.363c.033-.929.787-1.656 1.717-1.656h.026c.947 0 1.717.77 1.717 1.717v1.402c0 .183.149.332.332.332.184 0 .332-.15.332-.332 0-.947.77-1.718 1.718-1.718h.026c.947 0 1.718.77 1.718 1.718v6.927z"/>
            <path fill="#714FEB" d="M24.39 28.278H11.328c-1.19 0-2.156.965-2.156 2.156v2.84c0 1.164.944 2.109 2.109 2.109h13.156c1.165 0 2.109-.945 2.109-2.11v-2.839c0-1.19-.965-2.156-2.156-2.156z"/>
            <path fill="#3A312A" d="M24.39 27.946H11.328c-1.372 0-2.488 1.116-2.488 2.488v2.84c0 1.346 1.095 2.44 2.441 2.44h2.88c.183 0 .331-.148.331-.331 0-.183-.148-.332-.332-.332h-2.879c-.98 0-1.777-.797-1.777-1.777v-2.84c0-1.006.818-1.824 1.824-1.824H24.39c1.006 0 1.824.818 1.824 1.824v2.84c0 .98-.797 1.777-1.777 1.777h-7.24c-.183 0-.331.149-.331.332 0 .183.148.332.332.332h7.239c1.346 0 2.44-1.095 2.44-2.441v-2.84c0-1.372-1.115-2.488-2.487-2.488z"/>
            <circle cx="23.473" cy="31.846" r="1.302" fill="#F7F3F0" transform="rotate(-9.208 23.473 31.846)"/>
            <path fill="#3A312A" d="M23.485 30.21c-.9 0-1.634.732-1.634 1.633s.733 1.634 1.634 1.634c.901 0 1.634-.733 1.634-1.634 0-.901-.733-1.634-1.634-1.634zm0 2.603c-.535 0-.97-.435-.97-.97 0-.535.435-.97.97-.97.535 0 .97.435.97.97 0 .535-.435.97-.97.97z"/>
        </g>
    </g>
</svg>
