<svg xmlns="http://www.w3.org/2000/svg" width="110" height="97" fill="none" viewBox="0 0 110 97">
    <path fill="#65798A" d="M58.13 96.539c26.658 0 48.269-21.611 48.269-48.27C106.399 21.611 84.789 0 58.129 0 31.473 0 9.862 21.61 9.862 48.27c0 26.658 21.61 48.269 48.269 48.269z"/>
    <path fill="#65798A" d="M58.13 95.21c25.924 0 46.94-21.016 46.94-46.94 0-25.925-21.016-46.94-46.94-46.94S11.19 22.344 11.19 48.27c0 25.924 21.016 46.94 46.94 46.94z"/>
    <path fill="url(#paint0_linear)" d="M105.071 48.27c0-7.179-1.612-13.98-4.492-20.062-1.914 1.74-4.631 3.904-8.45 6.515-3.533 2.417-6.11 5.023-10.539 7.558-1.252.717-1.679 2.317-.958 3.566.175.304.403.558.664.76l20.04 20.04c2.404-5.644 3.735-11.855 3.735-18.378z"/>
    <path fill="url(#paint1_linear)" d="M100.236 69.035C92.573 84.544 76.597 95.21 58.13 95.21c-16.7 0-31.364-8.723-39.679-21.86-.976-1.533-1.86-3.125-2.65-4.774 1.463-.295 3.104-.67 4.941-1.148l.67-.175c.264-.068.53-.14.802-.214 10.274-2.8 23.098-7.65 36.11-13.664 1.91-.884 3.798-1.78 5.656-2.684l-2.708-5.386c-.55-1.088.384-2.335 1.584-2.116l13.88 2.541c.044.008.091.019.133.032.044.01.086.026.128.042.04.013.076.028.112.047.032.015.063.031.094.049.024.013.047.029.07.044.027.016.053.034.076.053.05.034.097.073.141.12.021.018.042.041.063.062.068.073.127.152.18.238.044.073.08.148.112.227l22.391 22.391z"/>
    <path fill="#F1F1F2" fill-rule="evenodd" d="M69.928 17.554c.726 1.657 1.384 3.428 1.974 5.294-4.375.75-9.012 1.14-13.771 1.14-4.76 0-9.396-.39-13.772-1.14.59-1.866 1.249-3.637 1.974-5.294C49.605 10.084 53.905 5.8 58.131 5.8c4.225 0 8.525 4.285 11.797 11.755zm-27.69-1.793c-.846 1.932-1.607 4.003-2.281 6.189-4.426-1.052-8.502-2.498-12.07-4.3 5.48-5.414 12.405-9.366 20.145-11.227-2.15 2.353-4.107 5.486-5.794 9.338zm35.243 10.5c4.87-1.168 9.363-2.783 13.286-4.807.206-.106.406-.214.606-.322l.114-.062c5.613 6.875 9.144 15.517 9.627 24.964H79.922c-.148-7.002-.987-13.728-2.441-19.773zm10.894-8.611c-1.943.98-4.037 1.859-6.257 2.62-1.854.64-3.798 1.201-5.814 1.68-.674-2.185-1.434-4.258-2.281-6.19-1.688-3.85-3.643-6.984-5.793-9.336l.056.014C76.005 8.304 82.91 12.25 88.376 17.65zM40.81 50.505h34.64c-.147 6.71-.953 13.13-2.346 18.863-4.762-.846-9.806-1.287-14.975-1.287-5.168 0-10.212.441-14.974 1.287-1.393-5.733-2.199-12.152-2.345-18.863zM73.106 27.17c-4.763.846-9.806 1.287-14.975 1.287-5.17 0-10.213-.441-14.975-1.287-1.392 5.733-2.198 12.152-2.345 18.863h34.64c-.147-6.711-.953-13.13-2.345-18.863zm-34.327-.91c-.654 2.732-1.19 5.605-1.586 8.581-.484 3.603-.773 7.356-.855 11.193H15.147c.467-9.106 3.762-17.462 9.027-24.212.197-.253.399-.505.6-.753l.168.09c.183.099.364.197.553.294 3.922 2.023 8.416 3.638 13.284 4.807zm38.702 44.017c1.455-6.045 2.294-12.771 2.441-19.773h21.192c-.483 9.447-4.014 18.089-9.627 24.964l-.109-.06c-.202-.108-.403-.217-.61-.324-3.924-2.024-8.417-3.639-13.287-4.807zm-38.702 0c-2.082.5-4.093 1.08-6.022 1.739-2.584.885-5.016 1.908-7.262 3.067-.195.1-.383.203-.572.305l-.149.08c-4.74-5.806-7.996-12.87-9.184-20.618-.22-1.427-.368-2.878-.444-4.347h21.192c.148 7.003.988 13.73 2.441 19.774zm19.352 2.274c4.759 0 9.395.389 13.77 1.14-.59 1.863-1.247 3.635-1.972 5.292-3.272 7.472-7.574 11.756-11.798 11.756-4.225 0-8.527-4.284-11.799-11.756-.725-1.657-1.382-3.429-1.972-5.292 4.375-.751 9.012-1.14 13.77-1.14zm15.892 8.227c-1.686 3.85-3.643 6.984-5.795 9.338 7.741-1.863 14.668-5.813 20.147-11.227-3.569-1.803-7.644-3.249-12.072-4.3-.673 2.184-1.435 4.255-2.28 6.189zm-46.137-1.89c3.57-1.802 7.645-3.248 12.072-4.299.673 2.184 1.435 4.255 2.28 6.189 1.686 3.851 3.643 6.985 5.795 9.338-7.74-1.863-14.668-5.813-20.147-11.227z" clip-rule="evenodd"/>
    <path fill="url(#paint2_linear)" d="M109.564 20.963c-1.618-3.502-6.612-3.38-8.253-3.34-1.578.04-3.397.224-5.442.556 1.226 1.531 2.358 3.138 3.389 4.814 1.795-.186 3.102-.19 4.013-.107.798.07 1.205.983.743 1.638-.493.697-1.265 1.607-2.421 2.732-1.925 1.878-4.915 4.357-9.463 7.467-3.534 2.418-6.11 5.023-10.54 7.558-1.251.717-1.679 2.317-.958 3.566.72 1.248 2.313 1.673 3.564.957 5.167-2.957 8.358-5.982 12.34-8.788 2.84-1.999 5.245-3.877 7.194-5.615 1.177-1.049 2.189-2.046 3.029-2.987.887-.992 3.241-3.627 3.241-6.453 0-.663-.128-1.333-.436-1.998z"/>
    <path fill="url(#paint3_linear)" d="M76.736 45.73l-13.88-2.54c-1.2-.22-2.134 1.027-1.585 2.117l2.71 5.383c-1.86.906-3.747 1.802-5.657 2.686-13.012 6.014-25.836 10.864-36.11 13.663-3.06.833-5.628 1.41-7.765 1.793-3.807.689-6.257.777-7.71.65-.793-.07-1.224-.974-.764-1.623.874-1.245 2.637-3.163 5.891-5.79-.545-1.824-.983-3.695-1.31-5.602-3.133 2.374-5.586 4.548-7.315 6.484C2.145 64.174-1.182 67.9.436 71.4c1.409 3.053 5.387 3.351 7.472 3.351.306 0 .572-.005.78-.01 2.299-.055 5.104-.423 8.378-1.096 1.503-.308 3.105-.681 4.801-1.117 10.841-2.79 24.565-7.909 38.646-14.418 1.966-.91 3.906-1.83 5.815-2.76l2.598 5.16c.549 1.089 2.107 1.081 2.645-.013l6.225-12.664c.432-.879-.096-1.928-1.06-2.104z"/>
    <defs>
        <linearGradient id="paint0_linear" x1="105.465" x2="89.65" y1="51.945" y2="37.269" gradientUnits="userSpaceOnUse">
            <stop stop-color="#475662" stop-opacity="0"/>
            <stop offset="1" stop-color="#475662"/>
        </linearGradient>
        <linearGradient id="paint1_linear" x1="101.578" x2="86.033" y1="75.304" y2="39.016" gradientUnits="userSpaceOnUse">
            <stop stop-color="#475662" stop-opacity="0"/>
            <stop offset="1" stop-color="#475662"/>
        </linearGradient>
        <linearGradient id="paint2_linear" x1="65.423" x2="94.963" y1="32.382" y2="62.099" gradientUnits="userSpaceOnUse">
            <stop stop-color="#F48836"/>
            <stop offset="1" stop-color="#F4364C"/>
        </linearGradient>
        <linearGradient id="paint3_linear" x1="-38.974" x2="-16.984" y1="58.958" y2="113.222" gradientUnits="userSpaceOnUse">
            <stop stop-color="#F48836"/>
            <stop offset="1" stop-color="#F4364C"/>
        </linearGradient>
    </defs>
</svg>
