<svg xmlns="http://www.w3.org/2000/svg" xmlns:xlink="http://www.w3.org/1999/xlink" width="301" height="300" viewBox="0 0 301 300">
    <defs>
        <filter id="a" width="166.7%" height="239.5%" x="-33.3%" y="-69.8%" filterUnits="objectBoundingBox">
            <feGaussianBlur in="SourceGraphic" stdDeviation="20"/>
        </filter>
        <linearGradient id="d" x1="0%" y1="50%" y2="0%">
            <stop offset="0%" stop-color="#F48836"/>
            <stop offset="100%" stop-color="#F4364C"/>
        </linearGradient>
        <path id="c" d="M148.508 58.254c49.705 0 90 40.294 90 90 0 49.705-40.295 90-90 90-49.706 0-90-40.295-90-90 0-49.706 40.294-90 90-90z"/>
        <filter id="b" width="202.2%" height="202.2%" x="-51.1%" y="-51.1%" filterUnits="objectBoundingBox">
            <feMorphology in="SourceAlpha" operator="dilate" radius="2" result="shadowSpreadOuter1"/>
            <feOffset in="shadowSpreadOuter1" result="shadowOffsetOuter1"/>
            <feGaussianBlur in="shadowOffsetOuter1" result="shadowBlurOuter1" stdDeviation="30"/>
            <feComposite in="shadowBlurOuter1" in2="SourceAlpha" operator="out" result="shadowBlurOuter1"/>
            <feColorMatrix in="shadowBlurOuter1" values="0 0 0 0 0.901960784 0 0 0 0 0.454901961 0 0 0 0 0.301960784 0 0 0 0.4 0"/>
        </filter>
    </defs>
    <g fill="none" fill-rule="evenodd">
        <path fill="#F44747" d="M69 152h180v86H69z" filter="url(#a)" opacity=".1" transform="translate(1 2)"/>
        <g transform="translate(1 2)">
            <use fill="#000" filter="url(#b)" xlink:href="#c"/>
            <use fill="url(#d)" stroke="url(#d)" stroke-width="4" xlink:href="#c"/>
        </g>
        <path stroke="#FFF" stroke-width="2" d="M206.569 58.822l35.355 35.356c31.242 31.242 31.242 81.895 0 113.137l-35.355 35.355c-31.242 31.242-81.896 31.242-113.138 0l-35.355-35.355c-31.242-31.242-31.242-81.895 0-113.137l35.355-35.356c31.242-31.242 81.896-31.242 113.138 0z" opacity=".06"/>
        <path stroke="#FFF" stroke-width="2" d="M255.508 126.254v50c0 44.183-35.818 80-80 80h-50c-44.183 0-80-35.817-80-80v-50c0-44.183 35.817-80 80-80h50c44.182 0 80 35.817 80 80z" opacity=".06"/>
        <g fill="#FFF">
            <path d="M175.421 164.128c-2.023 12.507-10.005 21.409-26.223 21.555-7.449.076-14.597-2.99-19.757-8.473 2.59.154 5.19.114 7.775-.122a4.252 4.252 0 0 1 2.563.567c9.754 5.522 22.044 2.004 27.565-7.889a4.372 4.372 0 0 1 1.864-1.814 45.84 45.84 0 0 0 6.213-3.815v-.009zm-25.747-34.263l.595.77a.23.23 0 0 0 .143.097l.904.275a.295.295 0 0 1 .095.51l-.746.6a.349.349 0 0 0-.103.154l-.262.923a.29.29 0 1 1-.508.097l-.587-.769a.285.285 0 0 0-.142-.097l-.905-.275a.29.29 0 0 1-.206-.227.303.303 0 0 1 .103-.284l.754-.6a.284.284 0 0 0 .095-.153l.27-.923a.288.288 0 0 1 .222-.203.26.26 0 0 1 .278.105zm-2.38-3.2l.087.454a.106.106 0 0 0 .04.073l.325.316a.132.132 0 0 1 0 .138.128.128 0 0 1-.104.097l-.444.097a.087.087 0 0 0-.071.04l-.31.333a.148.148 0 0 1-.143 0 .12.12 0 0 1-.095-.105l-.087-.454a.163.163 0 0 0-.04-.073l-.325-.316a.131.131 0 0 1-.04-.137.128.128 0 0 1 .103-.098l.445-.089.079-.04.31-.34a.133.133 0 0 1 .134 0c.05.012.087.053.096.105h.04zm27.77 20.51c.08 1.035.019 2.077-.182 3.094a18.49 18.49 0 0 0-2.635-7.087 22.739 22.739 0 0 0-3.475-4.147c-7.712-7.347-19.749-11.34-23.899-17.82-3.412-5.346-2.912-12.15 2.809-14.961-14.742 1.442-19.765 14.96-15.433 28.35.984 3.062 1.88 5.824 1.548 8.019-.42 2.762-3.523 5.054-6.086 3.434-1.452-.923-2.579-3.013-1.69-6.666-4.19 3.483-5.785 9.283-5.824 16.913.096 2.89.596 5.75 1.484 8.497a7.393 7.393 0 0 1-2.31-2.43c-9.648 10.028 6.078 16.2 32.223 9.072 26.144-7.128 36.729-20.534 23.478-24.3l-.008.032zm-40.466 21.676a62.718 62.718 0 0 0 14.282-2.187l2.69-.737a63.83 63.83 0 0 0 15.726-6.7c1.701-1.047 2.511-3.122 1.984-5.078-1.909-7.253-7.502-12.891-14.631-14.747-7.13-1.857-14.684.358-19.763 5.792-5.079 5.434-6.89 13.242-4.74 20.425.59 2.007 2.45 3.343 4.5 3.232h-.048z"/>
            <path d="M120.945 160.499c.462-.215 4.777-2.28 4.323-5.356-.796-5.562-2.389-11.823.98-15.955-4.205 3.417-5.805 9.106-5.845 16.591.06 1.585.241 3.163.542 4.72zM136.822 122.124c.058-3.74.822-13.443 10.852-15.87-15.263 1.407-20.463 14.605-15.978 27.676 1.372 4.017 3.229 8.753-.698 11.07 14.319-7.891 5.701-14.945 5.824-22.876zM139.2 150.349c-.181-.06-.374-.09-.569-.088-1.25 0-2.621 1.142-3.032 2.546-.15.448-.17.919-.061 1.374.054.19-.059.384-.271.466a.566.566 0 0 1-.603-.116c-.784-1.023-.834-2.32-.131-3.382 1.363-2.182 4.736-3.15 5.33-1.288.053.15-.005.313-.148.415a.546.546 0 0 1-.516.073zM143.31 145.811c-.374-.262-1.202-.128-1.637 0-.545.165-.955.486-1.121.877-.045.164-.196.25-.276.25-.303 0-.41-.36-.392-.512.17-1.784 4.244-1.735 3.87-.724-.016.067-.084.122-.178.146a.338.338 0 0 1-.267-.037z"/>
            <path d="M147.663 112.189l.617.831a.29.29 0 0 0 .156.109l.969.318a.304.304 0 0 1 .21.25.287.287 0 0 1-.116.294l-.836.614a.288.288 0 0 0-.11.156l-.32.963a.304.304 0 0 1-.25.21.29.29 0 0 1-.297-.116l-.617-.832a.29.29 0 0 0-.157-.109l-.968-.318a.304.304 0 0 1-.211-.249.287.287 0 0 1 .117-.295l.836-.614a.288.288 0 0 0 .11-.156l.32-.963a.304.304 0 0 1 .25-.21.29.29 0 0 1 .297.117zM176.699 133.68l.524 1.44c.036.09.095.168.172.226l1.25.9a.44.44 0 0 1 .19.441.45.45 0 0 1-.3.37l-1.447.522a.416.416 0 0 0-.227.171l-.905 1.243a.444.444 0 0 1-.443.189.452.452 0 0 1-.371-.297l-.525-1.441a.387.387 0 0 0-.172-.225l-1.249-.9a.458.458 0 0 1 .109-.811l1.448-.522a.48.48 0 0 0 .226-.172l.905-1.242a.444.444 0 0 1 .443-.19c.174.015.32.133.372.298zM126.692 131.63l.382.951a.267.267 0 0 0 .125.143l.85.552c.1.059.157.17.144.285a.295.295 0 0 1-.191.257l-.956.38a.353.353 0 0 0-.144.124l-.555.847a.287.287 0 0 1-.287.142.315.315 0 0 1-.258-.19l-.383-.951a.353.353 0 0 0-.124-.143l-.851-.542a.323.323 0 0 1-.144-.295.314.314 0 0 1 .192-.257l.956-.38a.248.248 0 0 0 .144-.114l.554-.856a.307.307 0 0 1 .546.047zM121.358 137.31l.308.408c.02.026.049.045.081.054l.49.154a.154.154 0 0 1 .053.272l-.416.316a.136.136 0 0 0-.054.082l-.145.489a.145.145 0 0 1-.127.1.154.154 0 0 1-.154-.055l-.308-.407a.163.163 0 0 0-.081-.055l-.49-.154a.163.163 0 0 1-.108-.117.145.145 0 0 1 .063-.154l.408-.317a.145.145 0 0 0 .054-.073l.145-.489a.145.145 0 0 1 .127-.108.145.145 0 0 1 .154.054z"/>
        </g>
    </g>
</svg>
