<?xml version="1.0" encoding="UTF-8"?>
<svg width="932px" height="9px" viewBox="0 0 932 9" version="1.1" xmlns="http://www.w3.org/2000/svg" xmlns:xlink="http://www.w3.org/1999/xlink">
    <!-- Generator: Sketch 62 (91390) - https://sketch.com -->
    <title>Shape</title>
    <desc>Created with Sketch.</desc>
    <g id="Page-1" stroke="none" stroke-width="1" fill="none" fill-rule="evenodd">
        <g id="Row-icons" transform="translate(-46.000000, -1538.000000)" fill="#2E3439" fill-rule="nonzero">
            <path d="M55.5,1538 L55.5,1542 L409.5,1542 L409.5,1538 L418.5,1538 L418.5,1547 L409.5,1547 L409.5,1543 L55.5,1543 L55.5,1547 L46.5,1547 L46.5,1538 L55.5,1538 Z M615.5,1538 L615.5,1542 L968.5,1542 L968.5,1538 L977.5,1538 L977.5,1547 L968.5,1547 L968.5,1543 L615.5,1543 L615.5,1547 L606.5,1547 L606.5,1538 L615.5,1538 Z M54.5,1539 L47.5,1539 L47.5,1546 L54.5,1546 L54.5,1539 Z M417.5,1539 L410.5,1539 L410.5,1546 L417.5,1546 L417.5,1539 Z M614.5,1539 L607.5,1539 L607.5,1546 L614.5,1546 L614.5,1539 Z M976.5,1539 L969.5,1539 L969.5,1546 L976.5,1546 L976.5,1539 Z" id="Shape"></path>
        </g>
    </g>
</svg>