<?xml version="1.0" encoding="UTF-8"?>
<svg width="20px" height="16px" viewBox="0 0 20 16" version="1.1" xmlns="http://www.w3.org/2000/svg" xmlns:xlink="http://www.w3.org/1999/xlink">
    <title>Affiliates</title>
    <defs>
        <linearGradient x1="0%" y1="20.8816516%" x2="100%" y2="79.1183484%" id="linearGradient-1">
            <stop stop-color="#F48836" offset="0%"></stop>
            <stop stop-color="#F4364C" offset="100%"></stop>
        </linearGradient>
    </defs>
    <g id="Page-1" stroke="none" stroke-width="1" fill="none" fill-rule="evenodd">
        <g id="Open-Case-1-Open-Menu-(Logged-on)---icons" transform="translate(-79.000000, -318.000000)" fill="url(#linearGradient-1)" fill-rule="nonzero">
            <g id="Menu">
                <g id="Affiliates" transform="translate(79.000000, 318.000000)">
                    <path d="M6.75891892,7.96918919 C10.1841257,7.96918919 13.0367568,9.66555724 13.0367568,11.9086486 L13.0367568,11.9086486 L13.0367568,14.2621622 C13.0367568,14.7472771 12.6434934,15.1405405 12.1583784,15.1405405 L12.1583784,15.1405405 L1.37837838,15.1405405 C0.893263395,15.1405405 0.5,14.7472771 0.5,14.2621622 L0.5,14.2621622 L0.5,11.9086486 C0.5,9.66923554 3.34157976,7.96918919 6.75891892,7.96918919 Z M15.1967568,9.86483856 C17.5620264,9.86483856 19.5565704,11.0114486 19.6789195,12.5907067 L19.6848649,12.7448649 L19.6848649,14.3718919 C19.6848649,14.7514508 19.4028127,15.0651329 19.036869,15.1147775 L18.9351351,15.1216216 L13.967027,15.1216216 C13.6908847,15.1216216 13.467027,14.897764 13.467027,14.6216216 C13.467027,14.3761617 13.6439022,14.1720133 13.8771514,14.1296773 L13.967027,14.1216216 L18.684,14.121 L18.6848649,12.7448649 C18.6848649,11.8121922 17.269092,10.9324464 15.4119639,10.8685586 L15.1957766,10.864851 C14.8172548,10.864109 14.4395302,10.8991948 14.0676581,10.9696412 C13.7963412,11.0210388 13.5347293,10.8427589 13.4833318,10.5714419 C13.4319342,10.3001249 13.6102141,10.0385131 13.8815311,9.98711554 C14.3154098,9.9049227 14.7561111,9.86398721 15.1967568,9.86483856 Z M6.75891892,8.96918919 C3.82189274,8.96918919 1.5,10.3583198 1.5,11.9086486 L1.5,11.9086486 L1.499,14.14 L12.036,14.14 L12.0367568,11.9086486 C12.0367568,10.4020408 9.83923252,9.0509318 7.01714877,8.97275809 L7.01714877,8.97275809 Z M15.192973,4.84 C16.5695518,4.84 17.687027,5.94899343 17.687027,7.31891892 C17.687027,8.6888444 16.5695518,9.79783784 15.192973,9.79783784 C13.8163941,9.79783784 12.6989189,8.6888444 12.6989189,7.31891892 C12.6989189,5.94899343 13.8163941,4.84 15.192973,4.84 Z M15.192973,5.84 C14.3669805,5.84 13.6989189,6.50299092 13.6989189,7.31891892 C13.6989189,8.13484691 14.3669805,8.79783784 15.192973,8.79783784 C16.0189654,8.79783784 16.687027,8.13484691 16.687027,7.31891892 C16.687027,6.50299092 16.0189654,5.84 15.192973,5.84 Z M6.77783784,0.5 C8.76660058,0.5 10.3805405,2.10016242 10.3805405,4.07621622 C10.3805405,6.05227001 8.76660058,7.65243243 6.77783784,7.65243243 C4.78907509,7.65243243 3.17513514,6.05227001 3.17513514,4.07621622 C3.17513514,2.10016242 4.78907509,0.5 6.77783784,0.5 Z M6.77783784,1.5 C5.33944981,1.5 4.17513514,2.6543754 4.17513514,4.07621622 C4.17513514,5.49805703 5.33944981,6.65243243 6.77783784,6.65243243 C8.21622587,6.65243243 9.38054054,5.49805703 9.38054054,4.07621622 C9.38054054,2.6543754 8.21622587,1.5 6.77783784,1.5 Z" id="Combined-Shape"></path>
                </g>
            </g>
        </g>
    </g>
</svg>