<?xml version="1.0" encoding="UTF-8"?>
<svg width="20px" height="21px" viewBox="0 0 20 21" version="1.1" xmlns="http://www.w3.org/2000/svg" xmlns:xlink="http://www.w3.org/1999/xlink">
    <title>Mobile/Box_icon_Bold</title>
    <defs>
        <linearGradient x1="5.93910809%" y1="0%" x2="94.0608919%" y2="100%" id="linearGradient-1">
            <stop stop-color="#F48836" offset="0%"></stop>
            <stop stop-color="#F4364C" offset="100%"></stop>
        </linearGradient>
    </defs>
    <g id="Page-1" stroke="none" stroke-width="1" fill="none" fill-rule="evenodd">
        <g id="Open-Case-1-Open-Menu-(Logged-on)---icons" transform="translate(-80.000000, -69.000000)" fill="url(#linearGradient-1)" fill-rule="nonzero">
            <g id="Menu">
                <g id="Mobile/Box_icon_Bold" transform="translate(80.000000, 69.000000)">
                    <path d="M10.7741417,0.543703822 L10.9689097,0.613763617 L11.1449429,0.692672854 L18.1444839,4.17590494 C18.9045735,4.55181762 19.4256542,5.27420093 19.5479633,6.10769677 L19.5680105,6.28791796 L19.575,6.47425292 L19.575,14.7740157 C19.5745489,15.6198676 19.1564856,16.4060125 18.4626108,16.8847396 L18.3097535,16.9825283 L18.1463067,17.0710195 L11.1465596,20.5543534 C10.7128596,20.7703514 10.2295794,20.8587105 9.75218564,20.813531 L9.598,20.792 L9.56230747,20.8034578 L9.46984465,20.8195768 L9.375,20.8250238 C9.12461143,20.8250238 8.89331241,20.7124166 8.73882235,20.5253392 L8.713,20.49 L1.84271138,17.0698832 C1.13811805,16.716538 0.641264364,16.0646352 0.48046898,15.3061859 L0.449386292,15.1293552 L0.430585105,14.9492661 L0.42484008,14.7648671 L0.42484008,6.47374725 C0.42484008,6.41950814 0.426730324,6.36537587 0.431340299,6.34915711 C0.41408836,6.21201012 0.432118594,6.07173079 0.474264887,5.97714884 C0.603173933,5.3252111 0.981475287,4.74910891 1.53088793,4.36761253 L1.68491136,4.26848223 L1.85373591,4.17680922 L8.85554154,0.692453642 C9.45458851,0.396186672 10.1425906,0.345225436 10.7741417,0.543703822 Z M17.9250001,6.953 L17.8457035,6.99907547 L10.199,10.526 L10.2,19.152 L10.3002228,19.1243096 L10.4112151,19.0772724 L17.4130208,15.5929167 C17.6588379,15.4713446 17.8350058,15.2492007 17.8981284,14.9972947 L17.9181333,14.8877193 L17.9250001,14.7735758 L17.9250001,6.953 Z M2.074,7.538 L2.07495354,14.7705701 C2.07308465,15.0428057 2.19325899,15.2995296 2.39138534,15.4692689 L2.48094066,15.5364804 L2.58008389,15.5938157 L8.549,18.563 L8.549,10.526 L2.074,7.538 Z M9.68732895,2.12883152 L9.58882754,2.17055631 L2.58702179,5.65491195 C2.52137193,5.68737998 2.46041438,5.72714695 2.40511433,5.77316534 L2.332,5.84 L9.374,9.09 L17.127,5.513 L10.4130377,2.17146054 C10.1866059,2.05947554 9.92395291,2.0444197 9.68732895,2.12883152 Z" id="Combined-Shape"></path>
                </g>
            </g>
        </g>
    </g>
</svg>