<?xml version="1.0" encoding="UTF-8"?>
<svg width="17px" height="17px" viewBox="0 0 17 17" version="1.1" xmlns="http://www.w3.org/2000/svg" xmlns:xlink="http://www.w3.org/1999/xlink">
    <title>cases</title>
    <defs>
        <linearGradient x1="0%" y1="0%" x2="100%" y2="100%" id="linearGradient-1">
            <stop stop-color="#F48836" offset="0%"></stop>
            <stop stop-color="#F4364C" offset="100%"></stop>
        </linearGradient>
    </defs>
    <g id="Page-1" stroke="none" stroke-width="1" fill="none" fill-rule="evenodd">
        <g id="Open-Case-1-Open-Menu-(Logged-on)---icons" transform="translate(-81.000000, -366.000000)" fill="url(#linearGradient-1)" fill-rule="nonzero">
            <g id="Menu">
                <g id="cases" transform="translate(81.000000, 366.000000)">
                    <path d="M15.6938776,0.5 L15.7044149,0.500110356 C15.7256105,0.500554365 15.7467833,0.502338203 15.7677953,0.505461871 L15.6938776,0.5 C15.7299746,0.5 15.7651782,0.503825155 15.7991052,0.51109223 C15.8141079,0.514344009 15.8292285,0.518320607 15.8441721,0.523015475 C15.8590419,0.527660604 15.873685,0.53304536 15.8879887,0.539076503 C15.8997278,0.544019303 15.9111039,0.549323901 15.9223081,0.555079592 C15.935742,0.562015905 15.9490323,0.569642909 15.9619216,0.577843986 C15.9734947,0.585152815 15.9848684,0.593064669 15.9959701,0.601502609 C16.0096318,0.611920253 16.0226962,0.622939203 16.035164,0.634588748 C16.0392025,0.638356953 16.0433433,0.642358996 16.0474309,0.646446609 L16.0592888,0.65871357 C16.0709383,0.671181315 16.0819573,0.684245765 16.0922948,0.697856082 L16.0474309,0.646446609 C16.0742652,0.673280881 16.0974117,0.702406427 16.1168705,0.733193482 C16.1238582,0.744317532 16.1305842,0.755953329 16.1368432,0.767872755 C16.1441279,0.781724313 16.1505261,0.795461137 16.156267,0.8094049 C16.1614691,0.821974932 16.1663195,0.83526315 16.1706091,0.848800827 C16.1754295,0.864165295 16.1794814,0.879525749 16.1827919,0.895012947 C16.1838754,0.899861393 16.184888,0.904979165 16.1858219,0.910124368 L16.1884157,0.92608223 C16.1915393,0.947094242 16.1933232,0.96826702 16.1937672,0.98946265 L16.1938776,1 L16.1938776,11.9346939 C16.1938776,12.0407805 16.1601634,12.143391 16.0986684,12.2282011 L16.0474309,12.2882473 L12.2882473,16.0474309 L12.2736228,16.0614775 C12.2617775,16.0724044 12.249403,16.082766 12.2365418,16.0925194 L12.2882473,16.0474309 C12.2625549,16.0731233 12.2347621,16.0954351 12.2054216,16.1143664 C12.1908266,16.1237136 12.1761045,16.1321741 12.1609363,16.1398837 C12.1507155,16.145114 12.1399343,16.1501152 12.1290231,16.1547118 C12.1145013,16.1608322 12.0998582,16.1662169 12.0849125,16.1709187 C12.0700448,16.1755569 12.0549243,16.1795335 12.0396809,16.1827919 C12.0059945,16.1900524 11.9707909,16.1938776 11.9346939,16.1938776 L12.0086116,16.1884157 C11.9875996,16.1915393 11.9664269,16.1933232 11.9452312,16.1937672 L11.9346939,16.1938776 L1,16.1938776 C0.723857625,16.1938776 0.5,15.9700199 0.5,15.6938776 L0.5,15.6938776 L0.5,4.75918367 C0.5,4.75543359 0.500041285,4.75169315 0.500123424,4.74796279 C0.500554365,4.72745069 0.502338203,4.70627792 0.505461871,4.6852659 C0.507027908,4.67450335 0.508904033,4.66417181 0.51109223,4.65395602 C0.514344009,4.63895328 0.518320607,4.62383272 0.523015475,4.60888908 C0.527660604,4.59401932 0.53304536,4.57937627 0.539076503,4.56507253 C0.544019303,4.5533334 0.549323901,4.54195733 0.555079592,4.53075315 C0.561866498,4.51761001 0.569318391,4.50459506 0.577320904,4.49196346 C0.580833513,4.48633023 0.584646469,4.48057237 0.588591159,4.47487817 L0.605129756,4.45242554 C0.613484305,4.44168673 0.622267295,4.43129772 0.631453058,4.42128418 L0.646446609,4.40563028 L4.40563028,0.646446609 C4.48064483,0.571432058 4.577041,0.522714959 4.6804943,0.506228701 L4.75918367,0.5 L15.6938776,0.5 Z M11.434,5.259 L1.5,5.259 L1.5,15.193 L11.434,15.193 L11.434,5.259 Z M15.192,2.208 L12.434,4.966 L12.434,14.487 L15.193,11.728 L15.192,2.208 Z M14.486,1.5 L4.965,1.5 L2.206,4.259 L11.727,4.259 L14.486,1.5 Z" id="Combined-Shape"></path>
                </g>
            </g>
        </g>
    </g>
</svg>