<?xml version="1.0" encoding="UTF-8"?>
<svg width="24px" height="20px" viewBox="0 0 24 20" version="1.1" xmlns="http://www.w3.org/2000/svg" xmlns:xlink="http://www.w3.org/1999/xlink">
    <title>Handshake</title>
    <defs>
        <linearGradient x1="0%" y1="13.9239737%" x2="100%" y2="86.0760263%" id="linearGradient-1">
            <stop stop-color="#F48836" offset="0%"></stop>
            <stop stop-color="#F4364C" offset="100%"></stop>
        </linearGradient>
    </defs>
    <g id="Page-1" stroke="none" stroke-width="1" fill="none" fill-rule="evenodd">
        <g id="Open-Case-1-Open-Menu-(Logged-on)---icons" transform="translate(-78.000000, -119.000000)" fill="url(#linearGradient-1)" fill-rule="nonzero" stroke="url(#linearGradient-1)" stroke-width="0.4">
            <g id="Menu">
                <g id="Handshake" transform="translate(78.000000, 119.000000)">
                    <path d="M17.5027855,0.376937019 C17.3221375,0.190801025 17.0302931,0.186237936 16.8442885,0.366860162 C16.428872,0.769742856 15.6964279,1.42816444 15.668167,1.4564936 C15.6665046,1.45820475 15.6646576,1.45972578 15.6629951,1.46143693 C15.2004772,1.93751915 14.745163,2.14970281 14.186595,2.14970281 C13.0447076,2.14970281 12.1699133,2.48166747 11.4434424,3.1898968 C10.8477473,2.60924383 10.1726263,2.30903062 9.2304122,2.20883279 L7.76459325,0.894766716 C7.5798816,0.704638032 7.280464,0.704638032 7.09575236,0.894766716 L1.03665641,7.13174802 C0.856747249,7.31674327 0.850836476,7.61562556 1.02612781,7.8082259 C1.02982205,7.81221859 1.03296213,7.81621128 1.03665641,7.8200139 C1.03665641,7.8200139 4.08139048,10.7528356 4.08693186,10.7583493 L3.91995253,10.9302257 C3.27346174,11.5956761 3.27309234,12.6733254 3.92013723,13.3393462 C4.22638911,13.6541993 4.64716225,13.841286 5.10746366,13.8365327 C5.10247644,14.3040592 5.27795252,14.7369822 5.59196226,15.060201 C5.91095928,15.3885532 6.33727375,15.562711 6.77928874,15.5579578 C6.77448622,16.025104 6.94977755,16.4578369 7.26378734,16.7810557 C7.57003927,17.0959088 7.99062767,17.2829954 8.45111378,17.2782422 C8.4461266,17.7457686 8.62160263,18.1786916 8.93561242,18.5019104 C9.58081018,19.1660299 10.6305264,19.1660299 11.2759089,18.5019104 L11.4432577,18.3296538 L11.6106064,18.5019104 C12.2558042,19.1660299 13.3055204,19.1660299 13.9509029,18.5019104 C14.2641739,18.1794521 14.4400193,17.7472897 14.4355863,17.2791928 C14.8872062,17.2839461 15.3079794,17.1050349 15.6229127,16.7808655 C15.9498523,16.4443378 16.1109209,16.0007675 16.1064878,15.5587184 C16.5649421,15.5636617 16.9838681,15.3799974 17.2945531,15.060201 C17.609117,14.7366019 17.7842236,14.3029184 17.7790517,13.8365327 C18.2184807,13.8410958 18.6457187,13.6692195 18.9665628,13.3391561 C19.6132383,12.6735156 19.6132383,11.5960563 18.9665628,10.9302257 L18.7997682,10.7585395 C17.4038824,12.1857682 18.7545762,10.790285 22.8518499,6.57209006 C23.0365615,6.38196138 23.0365615,6.07395286 22.8518499,5.88382418 L17.5027855,0.376937019 Z M4.58860863,11.6184915 L6.26061845,9.89744666 C6.53731647,9.61282403 6.98708933,9.61301415 7.26360264,9.89744666 C7.54122425,10.1834002 7.54122425,10.6444622 7.26360264,10.9302257 L5.59214701,12.6507001 C5.31544895,12.9351326 4.86512199,12.9351326 4.58860863,12.6508903 C4.31154121,12.3656972 4.31154121,11.9038747 4.58860863,11.6184915 Z M6.26061845,13.3391561 L7.93225879,11.6184915 C8.2098804,11.3329182 8.65799082,11.3327281 8.93561242,11.6184915 C9.21212574,11.9031141 9.21323403,12.3651269 8.93561242,12.6507001 L7.26360264,14.3719351 C6.98708933,14.6565578 6.53713177,14.6565578 6.26061845,14.3719351 C5.98336624,14.0863618 5.98299685,13.6247294 6.26061845,13.3391561 Z M7.93225879,15.060201 L9.60426857,13.3391561 C9.88078188,13.0545334 10.3305547,13.0545334 10.6074375,13.3395364 C10.8804413,13.6199762 10.8885686,14.0819889 10.6072528,14.371745 L8.93579712,16.0922194 C8.65909911,16.3768421 8.2087721,16.3768421 7.93225879,16.0924096 C7.65519132,15.8074067 7.65519132,15.345394 7.93225879,15.060201 Z M9.60426857,17.8136446 C9.3270164,17.5280712 9.32664696,17.0664388 9.60426857,16.7808655 L11.2759089,15.060201 C11.5531611,14.7748178 12.001641,14.7744375 12.2790778,15.060201 C12.5581771,15.3474854 12.5541135,15.8096882 12.2790778,16.0925997 L10.6072528,17.8136446 C10.3305547,18.0980771 9.88078188,18.0980771 9.60426857,17.8136446 Z M13.2820621,17.8136446 C13.0057335,18.0982672 12.5557759,18.0982672 12.2792626,17.8136446 L12.1119138,17.641388 L12.9479187,16.7808655 C13.0044405,16.7226862 13.0554209,16.6605141 13.1027071,16.5960605 L13.2818773,16.7806754 C13.5596836,17.0664388 13.5596836,17.5278811 13.2820621,17.8136446 Z M17.2945531,12.6507001 L15.1212359,10.4138362 C14.9365242,10.2237075 14.6371067,10.2237075 14.452395,10.4138362 C14.2678681,10.6037747 14.2678681,10.9119733 14.452395,11.102102 L16.6258969,13.3393462 C16.9031491,13.6245393 16.9033338,14.0861717 16.6257122,14.3719351 C16.3480906,14.6576985 15.899426,14.6565578 15.6229127,14.3719351 L13.4495955,12.1343106 C13.2650686,11.9443721 12.965651,11.9443721 12.7809394,12.1343106 C12.5962277,12.3244393 12.5962277,12.6326379 12.7807547,12.8227666 L14.9540719,15.060201 C15.2305852,15.3448236 15.2305852,15.8079771 14.9540719,16.0924096 C14.8203406,16.2302529 14.6420939,16.3063043 14.452395,16.3063043 C14.0029916,16.3063043 13.8581776,15.9420178 13.4320479,15.5585282 C13.4277995,15.1102048 13.2563871,14.68945 12.9481034,14.3721253 C12.634463,14.0489065 12.2144288,13.8684743 11.7605923,13.8730374 C11.7652101,13.4051307 11.5891799,12.9727781 11.2759089,12.6507001 C10.9489693,12.3141724 10.5180371,12.1485703 10.0885825,12.1531334 C10.0980028,11.1931737 9.34271688,10.4216314 8.41694213,10.4315181 C8.42155991,9.95866812 8.2420202,9.52802662 7.93225879,9.20918083 C7.28706103,8.54487118 6.23716006,8.54487118 5.59196226,9.20918083 L4.75558795,10.0700835 L2.08313778,7.31644976 L7.59797699,1.78738763 L9.19420872,3.18419297 C9.88336787,3.26518776 10.3473635,3.46919583 10.7727544,3.87626138 L9.4367351,5.25127202 C8.69992037,6.01026573 8.69992037,7.24534166 9.4369198,8.0047156 C10.1744734,8.76332907 11.3745449,8.76351919 12.1119138,8.00452548 L13.4495955,6.62780369 C14.314046,7.51779605 17.6676705,10.9699626 18.297722,11.6186816 C18.5742353,11.9031141 18.5742353,12.3662676 18.2979067,12.6507001 C18.0212087,12.9351326 17.5710664,12.9351326 17.2945531,12.6507001 Z M18.4946746,10.0700835 L14.1182516,5.93953786 L14.4525797,5.59540492 C14.6372914,5.40527623 14.6372914,5.09707765 14.4525797,4.90694896 C14.2678681,4.7170104 13.9686352,4.7170104 13.7837389,4.90694896 L11.443073,7.31644976 C11.0745732,7.6957565 10.4742604,7.6957565 10.105576,7.31644976 C9.73707625,6.93676279 9.73707625,6.31903471 10.1053912,5.93953786 C10.590444,5.44045003 11.5465115,4.45653412 12.0310101,3.95801669 C12.5917946,3.380786 13.2567565,3.12316167 14.186595,3.12316167 C14.8554358,3.12316167 15.4328444,2.91630166 15.9738648,2.47824518 L17.1459008,1.29240084 L22.0326846,6.26943016 L18.4946746,10.0700835 Z" id="Shape"></path>
                </g>
            </g>
        </g>
    </g>
</svg>