<?xml version="1.0" encoding="UTF-8"?>
<svg width="17px" height="15px" viewBox="0 0 17 15" version="1.1" xmlns="http://www.w3.org/2000/svg" xmlns:xlink="http://www.w3.org/1999/xlink">
    <title>History</title>
    <defs>
        <linearGradient x1="0%" y1="8.73288003%" x2="100%" y2="91.26712%" id="linearGradient-1">
            <stop stop-color="#F48836" offset="0%"></stop>
            <stop stop-color="#F4364C" offset="100%"></stop>
        </linearGradient>
    </defs>
    <g id="Page-1" stroke="none" stroke-width="1" fill="none" fill-rule="evenodd">
        <g id="Open-Case-1-Open-Menu-(Logged-on)---icons" transform="translate(-81.000000, -465.000000)" fill="url(#linearGradient-1)" fill-rule="nonzero">
            <g id="Menu">
                <g id="History" transform="translate(81.000000, 465.000000)">
                    <path d="M14.9762673,3.35905064 C17.2379364,6.33088388 16.8712799,10.5347256 14.1292718,13.0701411 C12.7908547,14.3077172 11.0630124,14.9805345 9.27195276,14.9962 C8.37928224,15.0040077 7.49148983,14.847642 6.65484387,14.5329853 C6.39637671,14.4357776 6.26565009,14.1474462 6.36285779,13.888979 C6.4600655,13.6305118 6.74839694,13.4997852 7.0068641,13.5969929 C7.72785318,13.8681519 8.4933173,14.002972 9.26320663,13.9962382 C10.8077755,13.9827287 12.2961678,13.4031526 13.4503658,12.335916 C15.8140615,10.1503094 16.1301307,6.52646795 14.180502,3.96465585 C12.2308734,1.40284376 8.65384542,0.741785546 5.91738361,2.4375774 C3.19063224,4.12735167 2.18804895,7.60601843 3.59497439,10.4917 L4.24586374,8.74144297 C4.34187844,8.48253026 4.62960396,8.35047534 4.88851666,8.44649004 C5.11866129,8.53183644 5.2485726,8.76865805 5.2071663,9.00207408 L5.18346959,9.08914296 L4.1785807,11.7989207 C4.09317341,12.0292296 3.85609477,12.159135 3.62256081,12.1174937 L3.53545489,12.093698 L0.825677108,11.085698 C0.566861407,10.9894221 0.435096843,10.7015635 0.531372718,10.4427478 C0.616951274,10.2126894 0.853903833,10.0830171 1.08727797,10.1246589 L1.17432289,10.1484435 L2.57520667,10.6697069 C1.12446512,7.38059232 2.30738874,3.49825128 5.3906267,1.58756142 C8.56506255,-0.379643978 12.7145982,0.387217406 14.9762673,3.35905064 Z M9.19466667,3.77351518 C9.44012656,3.77351518 9.64427504,3.95039034 9.686611,4.18363955 L9.69466667,4.27351518 L9.694,7.534 L11.4055534,9.24618402 C11.5791197,9.41975037 11.5984049,9.68917477 11.4634088,9.88404291 L11.4055534,9.9532908 C11.231987,10.1268571 10.9625626,10.1461423 10.7676945,10.0111462 L10.6984466,9.9532908 L8.84111328,8.09595746 C8.76609872,8.02094291 8.71738163,7.92454675 8.70089537,7.82109345 L8.69466667,7.74240407 L8.69466667,4.27351518 C8.69466667,3.99737281 8.91852429,3.77351518 9.19466667,3.77351518 Z" id="Combined-Shape"></path>
                </g>
            </g>
        </g>
    </g>
</svg>