<?xml version="1.0" encoding="UTF-8"?>
<svg width="16px" height="16px" viewBox="0 0 16 16" version="1.1" xmlns="http://www.w3.org/2000/svg" xmlns:xlink="http://www.w3.org/1999/xlink">
    <title>inventory</title>
    <defs>
        <linearGradient x1="0%" y1="0%" x2="100%" y2="100%" id="linearGradient-1">
            <stop stop-color="#F48836" offset="0%"></stop>
            <stop stop-color="#F4364C" offset="100%"></stop>
        </linearGradient>
    </defs>
    <g id="Page-1" stroke="none" stroke-width="1" fill="none" fill-rule="evenodd">
        <g id="Open-Case-1-Open-Menu-(Logged-on)---icons" transform="translate(-81.000000, -415.000000)" fill="url(#linearGradient-1)" fill-rule="nonzero">
            <g id="Menu">
                <g id="inventory" transform="translate(81.000000, 415.000000)">
                    <path d="M5.91071429,8.53571429 C6.92652371,8.53571429 7.75,9.35919057 7.75,10.375 L7.75,10.375 L7.75,13.9464286 C7.75,14.962238 6.92652371,15.7857143 5.91071429,15.7857143 L5.91071429,15.7857143 L2.33928571,15.7857143 C1.32347627,15.7857143 0.5,14.962238 0.5,13.9464286 L0.5,13.9464286 L0.5,10.375 C0.5,9.35919057 1.32347627,8.53571429 2.33928571,8.53571429 L2.33928571,8.53571429 Z M13.9464286,8.53571429 C14.962238,8.53571429 15.7857143,9.35919057 15.7857143,10.375 L15.7857143,10.375 L15.7857143,13.9464286 C15.7857143,14.962238 14.962238,15.7857143 13.9464286,15.7857143 L13.9464286,15.7857143 L10.375,15.7857143 C9.35919057,15.7857143 8.53571429,14.962238 8.53571429,13.9464286 L8.53571429,13.9464286 L8.53571429,10.375 C8.53571429,9.35919057 9.35919057,8.53571429 10.375,8.53571429 L10.375,8.53571429 Z M5.91071429,9.53571429 L2.33928571,9.53571429 C1.87576102,9.53571429 1.5,9.91147531 1.5,10.375 L1.5,10.375 L1.5,13.9464286 C1.5,14.4099533 1.87576102,14.7857143 2.33928571,14.7857143 L2.33928571,14.7857143 L5.91071429,14.7857143 C6.37423896,14.7857143 6.75,14.4099533 6.75,13.9464286 L6.75,13.9464286 L6.75,10.375 C6.75,9.91147532 6.37423896,9.53571429 5.91071429,9.53571429 L5.91071429,9.53571429 Z M13.9464286,9.53571429 L10.375,9.53571429 C9.91147532,9.53571429 9.53571429,9.91147532 9.53571429,10.375 L9.53571429,10.375 L9.53571429,13.9464286 C9.53571429,14.4099533 9.91147532,14.7857143 10.375,14.7857143 L10.375,14.7857143 L13.9464286,14.7857143 C14.4099533,14.7857143 14.7857143,14.4099533 14.7857143,13.9464286 L14.7857143,13.9464286 L14.7857143,10.375 C14.7857143,9.91147532 14.4099533,9.53571429 13.9464286,9.53571429 L13.9464286,9.53571429 Z M13.9464286,0.5 C14.962238,0.5 15.7857143,1.32347627 15.7857143,2.33928571 L15.7857143,2.33928571 L15.7857143,5.91071429 C15.7857143,6.92652371 14.962238,7.75 13.9464286,7.75 L13.9464286,7.75 L10.375,7.75 C9.35919057,7.75 8.53571429,6.92652371 8.53571429,5.91071429 L8.53571429,5.91071429 L8.53571429,2.33928571 C8.53571429,1.32347627 9.35919057,0.5 10.375,0.5 L10.375,0.5 Z M5.91071429,0.5 C6.92652372,0.5 7.75,1.32347627 7.75,2.33928571 L7.75,2.33928571 L7.75,5.91071429 C7.75,6.92652371 6.92652371,7.75 5.91071429,7.75 L5.91071429,7.75 L2.33928571,7.75 C1.32347629,7.75 0.5,6.92652371 0.5,5.91071429 L0.5,5.91071429 L0.5,2.33928571 C0.5,1.32347627 1.32347628,0.5 2.33928571,0.5 L2.33928571,0.5 Z M13.9464286,1.5 L10.375,1.5 C9.91147531,1.5 9.53571429,1.87576102 9.53571429,2.33928571 L9.53571429,2.33928571 L9.53571429,5.91071429 C9.53571429,6.37423896 9.91147532,6.75 10.375,6.75 L10.375,6.75 L13.9464286,6.75 C14.4099533,6.75 14.7857143,6.37423896 14.7857143,5.91071429 L14.7857143,5.91071429 L14.7857143,2.33928571 C14.7857143,1.87576102 14.4099533,1.5 13.9464286,1.5 L13.9464286,1.5 Z M5.91071429,1.5 L2.33928571,1.5 C1.87576103,1.5 1.5,1.87576102 1.5,2.33928571 L1.5,2.33928571 L1.5,5.91071429 C1.5,6.37423896 1.87576104,6.75 2.33928571,6.75 L2.33928571,6.75 L5.91071429,6.75 C6.37423896,6.75 6.75,6.37423896 6.75,5.91071429 L6.75,5.91071429 L6.75,2.33928571 C6.75,1.87576102 6.37423897,1.5 5.91071429,1.5 L5.91071429,1.5 Z" id="Combined-Shape"></path>
                </g>
            </g>
        </g>
    </g>
</svg>