<?xml version="1.0" encoding="UTF-8"?>
<svg width="17px" height="18px" viewBox="0 0 17 18" version="1.1" xmlns="http://www.w3.org/2000/svg" xmlns:xlink="http://www.w3.org/1999/xlink">
    <title>log out</title>
    <defs>
        <linearGradient x1="6.06724281%" y1="0%" x2="93.9327572%" y2="100%" id="linearGradient-1">
            <stop stop-color="#F48836" offset="0%"></stop>
            <stop stop-color="#F4364C" offset="100%"></stop>
        </linearGradient>
    </defs>
    <g id="Page-1" stroke="none" stroke-width="1" fill="none" fill-rule="evenodd">
        <g id="Open-Case-1-Open-Menu-(Logged-on)---icons" transform="translate(-81.000000, -561.000000)" fill="url(#linearGradient-1)" fill-rule="nonzero">
            <g id="Menu">
                <g id="log-out" transform="translate(81.000000, 561.000000)">
                    <path d="M10.6311348,0.5 C10.971666,0.5 11.1662242,0.537570914 11.3693464,0.646201891 C11.5627609,0.74964106 11.7175432,0.904423411 11.8209824,1.09783784 C11.9115082,1.2671064 11.9526868,1.43042766 11.9638983,1.67723287 L11.9671843,1.83604952 L11.9671843,3.3745465 C11.9671843,3.65068887 11.7433267,3.8745465 11.4671843,3.8745465 C11.2217244,3.8745465 11.0175759,3.69767134 10.97524,3.46442213 L10.9671843,3.3745465 L10.9671843,1.83604952 C10.9671843,1.64648298 10.9597302,1.60788237 10.9391692,1.5694367 C10.9289298,1.55029074 10.9168935,1.53825446 10.8977476,1.52801509 C10.8657095,1.51088095 10.8335639,1.50284879 10.7140357,1.50064735 L1.75314854,1.50064735 C1.63362041,1.50284879 1.60147476,1.51088095 1.5694367,1.52801509 C1.55029074,1.53825446 1.53825446,1.55029074 1.52801509,1.5694367 C1.50745412,1.60788237 1.5,1.64648298 1.5,1.83604952 L1.50064735,15.8990254 C1.50284879,16.0185535 1.51088095,16.0506992 1.52801509,16.0827372 C1.53825446,16.1018832 1.55029074,16.1139195 1.5694367,16.1241588 C1.59506715,16.1378661 1.62076645,16.1457482 1.69121936,16.1494798 L1.83604952,16.1521739 L10.6311348,16.1521739 C10.8207013,16.1521739 10.8593019,16.1447198 10.8977476,16.1241588 C10.9168935,16.1139195 10.9289298,16.1018832 10.9391692,16.0827372 C10.9528765,16.0571068 10.9607586,16.0314075 10.9644902,15.9609546 L10.9671843,15.8161244 L10.9671843,14.2776274 C10.9671843,14.001485 11.1910419,13.7776274 11.4671843,13.7776274 C11.7126442,13.7776274 11.9167927,13.9545026 11.9591286,14.1877518 L11.9671843,14.2776274 L11.9671843,15.8161244 C11.9671843,16.1566556 11.9296134,16.3512138 11.8209824,16.5543361 C11.7175432,16.7477505 11.5627609,16.9025329 11.3693464,17.005972 C11.2000779,17.0964978 11.0367566,17.1376764 10.7899514,17.148888 L10.6311348,17.1521739 L1.83604952,17.1521739 C1.49551827,17.1521739 1.30096011,17.114603 1.09783784,17.005972 C0.904423411,16.9025329 0.74964106,16.7477505 0.646201891,16.5543361 C0.555676077,16.3850675 0.514497529,16.2217463 0.503285952,15.974941 L0.5,15.8161244 L0.5,1.83604952 C0.5,1.49551827 0.537570914,1.30096011 0.646201891,1.09783784 C0.74964106,0.904423411 0.904423411,0.74964106 1.09783784,0.646201891 C1.2671064,0.555676077 1.43042766,0.514497529 1.67723287,0.503285952 L1.83604952,0.5 L10.6311348,0.5 Z M16.0816538,8.66220848 L16.0899101,8.68814764 C16.10246,8.73198592 16.1088501,8.77708983 16.1091828,8.82214219 C16.1088461,8.87562688 16.1023051,8.92127485 16.0894538,8.96561023 C16.0869256,8.97407589 16.084391,8.98204997 16.0816538,8.98996543 C16.0737947,9.01178077 16.0682673,9.02505633 16.0621354,9.03813523 C16.0565305,9.05009714 16.0505976,9.06158763 16.0441972,9.07287129 C16.0432379,9.07447103 16.0423024,9.07609461 16.0413568,9.07771429 L16.01995,9.1113868 C16.0120571,9.12273428 16.0036473,9.13381339 15.9947235,9.14458933 L15.9890317,9.1512303 L13.5662056,11.9816651 C13.3866339,12.1914474 13.0710001,12.2159379 12.8612178,12.0363662 C12.6747447,11.8767469 12.6346749,11.6096218 12.7541916,11.4048944 L12.8065167,11.3313784 L14.522,9.326 L7.12766551,9.32608696 C6.85152314,9.32608696 6.62766551,9.10222933 6.62766551,8.82608696 C6.62766551,8.58062707 6.80454067,8.37647859 7.03778988,8.33414263 L7.12766551,8.32608696 L14.523,8.326 L12.8065167,6.32079552 C12.626945,6.11101322 12.6514355,5.79537944 12.8612178,5.61580773 C13.047691,5.45618843 13.3177999,5.45780348 13.5016409,5.6074698 L13.5662056,5.67050883 L15.9890317,8.50094361 L15.994,8.507 C16.0053142,8.52056592 16.0128417,8.53056769 16.01995,8.54078711 L15.9890317,8.50094361 C16.0102469,8.52572802 16.0286139,8.55198988 16.0441635,8.57933029 C16.0505976,8.59058628 16.0565305,8.60207678 16.0619936,8.61374444 C16.0682673,8.62711758 16.0737947,8.64039314 16.0787207,8.65382543 L16.0816538,8.66220848 Z" id="Combined-Shape"></path>
                </g>
            </g>
        </g>
    </g>
</svg>