<?xml version="1.0" encoding="UTF-8"?>
<svg width="21px" height="17px" viewBox="0 0 21 17" version="1.1" xmlns="http://www.w3.org/2000/svg" xmlns:xlink="http://www.w3.org/1999/xlink">
    <title>money</title>
    <defs>
        <linearGradient x1="0%" y1="17.8099955%" x2="100%" y2="82.1900045%" id="linearGradient-1">
            <stop stop-color="#F48836" offset="0%"></stop>
            <stop stop-color="#F4364C" offset="100%"></stop>
        </linearGradient>
    </defs>
    <g id="Page-1" stroke="none" stroke-width="1" fill="none" fill-rule="evenodd">
        <g id="Open-Case-1-Open-Menu-(Logged-on)---icons" transform="translate(-79.000000, -513.000000)" fill="url(#linearGradient-1)" fill-rule="nonzero">
            <g id="Menu">
                <g id="money" transform="translate(79.000000, 513.000000)">
                    <path d="M15.8461538,7.19230769 C18.1211105,7.19230769 20.0231168,7.94860212 20.1473895,9.14401406 L20.1538462,9.26923077 L20.1538462,14.0384615 C20.1538462,15.3127798 18.1949462,16.1153846 15.8461538,16.1153846 C13.5756546,16.1153846 11.6694881,15.365395 11.5449331,14.1643087 L11.5384615,14.0384615 L11.5384615,9.26923077 L11.5449182,9.14401406 C11.6691909,7.94860212 13.5711972,7.19230769 15.8461538,7.19230769 Z M5,0.5 C7.19972494,0.5 9.05075816,1.2071009 9.28312514,2.33456335 C9.30942885,2.38098492 9.32819265,2.43247311 9.33809818,2.48704744 L9.34615385,2.57692308 L9.34615385,13.7307692 C9.34615385,15.0095973 7.41178808,15.8076923 5.03846154,15.8076923 C2.87869664,15.8076923 1.05486183,15.105444 0.769543409,13.9991541 C0.736263517,13.9456151 0.712097785,13.8852955 0.700363362,13.8206449 L0.692307692,13.7307692 L0.692307692,2.57692308 C0.692307692,1.30935194 2.64659652,0.5 5,0.5 Z M19.1545003,13.0311356 C18.3592649,13.4780726 17.1640873,13.7307692 15.8461538,13.7307692 C14.5286703,13.7307692 13.3338589,13.4782451 12.5386221,13.0315933 L12.5384615,14.0384615 C12.5384615,14.5165472 14.0000309,15.1153846 15.8461538,15.1153846 C17.6184318,15.1153846 19.0363053,14.563496 19.1468995,14.0963654 L19.1538462,14.0384615 L19.1545003,13.0311356 Z M1.69198521,12.3327372 L1.69340066,13.5022983 C1.70649993,13.5341581 1.71640387,13.567669 1.72271356,13.6024321 L1.73076923,13.6923077 C1.73076923,14.1887407 3.1817541,14.8076923 5.03846154,14.8076923 C6.83537445,14.8076923 8.2305838,14.2617018 8.33932549,13.7893808 L8.34615385,13.7307692 L8.34669744,12.372095 C7.55555661,12.8157468 6.36564344,13.0653215 5.03846154,13.0653215 C3.70268211,13.0653215 2.48832131,12.7963502 1.69198521,12.3327372 Z M19.1542046,10.6447316 C18.359741,11.0917155 17.1656828,11.3461538 15.8461538,11.3461538 C14.5267225,11.3461538 13.3327435,11.0917532 12.5382796,10.6448308 L12.5384615,11.6538462 C12.5384615,12.1319318 14.0000309,12.7307692 15.8461538,12.7307692 C17.6184318,12.7307692 19.0363053,12.1788806 19.1468995,11.71175 L19.1538462,11.6538462 L19.1542046,10.6447316 Z M1.69198521,9.49818488 L1.6933183,10.7981888 C1.70645843,10.8301084 1.71639066,10.8636869 1.72271356,10.8985228 L1.73076923,10.9883984 C1.73076923,11.4500243 3.19722752,12.0653215 5.03846154,12.0653215 C6.83537445,12.0653215 8.2305838,11.519331 8.33932549,11.04701 L8.34615385,10.9883984 L8.34669744,9.53754278 C7.55555661,9.98119457 6.36564344,10.2307692 5.03846154,10.2307692 C3.70268211,10.2307692 2.48832131,9.96179797 1.69198521,9.49818488 Z M15.8461538,8.19230769 C13.9936965,8.19230769 12.5384615,8.79498077 12.5384615,9.26923077 C12.5384615,9.74348077 13.9936965,10.3461538 15.8461538,10.3461538 C17.6986112,10.3461538 19.1538462,9.74348077 19.1538462,9.26923077 C19.1538462,8.79498077 17.6986112,8.19230769 15.8461538,8.19230769 Z M1.69258589,6.68156239 L1.69340066,7.96383675 C1.70649993,7.99569652 1.71640387,8.02920742 1.72271356,8.06397052 L1.73076923,8.15384615 C1.73076923,8.61547205 3.19722752,9.23076923 5.03846154,9.23076923 C6.83537445,9.23076923 8.2305838,8.68477876 8.33932549,8.21245776 L8.34615385,8.15384615 L8.34669744,6.7029905 C7.55555661,7.1466423 6.36564344,7.39621696 5.03846154,7.39621696 C3.69006046,7.39621696 2.48335255,7.13859803 1.69258589,6.68156239 Z M8.34574707,3.93089631 C7.55163281,4.39122932 6.34056835,4.65384615 5,4.65384615 C3.6805687,4.65384615 2.48658965,4.39944552 1.69212572,3.95252313 L1.69340066,5.12928448 C1.70649993,5.16114425 1.71640387,5.19465514 1.72271356,5.22941825 L1.73076923,5.31929388 C1.73076923,5.80377938 3.16667726,6.39621696 5.03846154,6.39621696 C6.83537445,6.39621696 8.2305838,5.85022649 8.33932549,5.37790548 L8.34615385,5.31929388 L8.34574707,3.93089631 Z M1.69230769,2.584 C1.69230769,3.05117307 3.14754269,3.65384615 5,3.65384615 C6.85245731,3.65384615 8.30769231,3.05117307 8.30769231,2.57692308 C8.30769231,2.10267308 6.85245731,1.5 5,1.5 C3.15274257,1.5 1.70048056,2.0992944 1.69234207,2.57292637 L1.69230769,2.584 Z" id="Combined-Shape"></path>
                </g>
            </g>
        </g>
    </g>
</svg>