<?xml version="1.0" encoding="UTF-8"?>
<svg width="20px" height="20px" viewBox="0 0 20 20" version="1.1" xmlns="http://www.w3.org/2000/svg" xmlns:xlink="http://www.w3.org/1999/xlink">
    <title>profile</title>
    <defs>
        <linearGradient x1="0%" y1="0%" x2="100%" y2="100%" id="linearGradient-1">
            <stop stop-color="#F48836" offset="0%"></stop>
            <stop stop-color="#F4364C" offset="100%"></stop>
        </linearGradient>
    </defs>
    <g id="Page-1" stroke="none" stroke-width="1" fill="none" fill-rule="evenodd">
        <g id="Open-Case-1-Open-Menu-(Logged-on)---icons" transform="translate(-80.000000, -266.000000)" fill="url(#linearGradient-1)" fill-rule="nonzero">
            <g id="Menu">
                <g id="profile" transform="translate(80.000000, 266.000000)">
                    <path d="M9.81632653,0.5 C14.9615916,0.5 19.1326531,4.67106146 19.1326531,9.81632653 C19.1326531,14.9615916 14.9615916,19.1326531 9.81632653,19.1326531 C4.67106146,19.1326531 0.5,14.9615916 0.5,9.81632653 C0.5,4.67106146 4.67106146,0.5 9.81632653,0.5 Z M9.89897959,13.8804082 C7.41599648,13.8804082 5.22874084,14.7543276 4.27744491,16.0201751 C5.74906781,17.3342438 7.68945793,18.1326531 9.81632653,18.1326531 C11.9920774,18.1326531 13.9726796,17.297122 15.4547761,15.9294168 C14.4716036,14.7082329 12.3328058,13.8804082 9.89897959,13.8804082 Z M9.81632653,1.5 C5.22334621,1.5 1.5,5.22334621 1.5,9.81632653 C1.5,11.919423 2.28066131,13.8401863 3.56801331,15.3046458 C4.76775655,13.8217385 7.19880806,12.8804082 9.89897959,12.8804082 C12.5487814,12.8804082 14.9281535,13.7755708 16.1524552,15.2026779 C17.3875588,13.7515591 18.1326531,11.8709558 18.1326531,9.81632653 C18.1326531,5.22334621 14.4093068,1.5 9.81632653,1.5 Z M9.81632653,3.23306122 C12.0583772,3.23306122 13.8759184,5.0506024 13.8759184,7.29265306 C13.8759184,9.53470372 12.0583772,11.3522449 9.81632653,11.3522449 C7.57427587,11.3522449 5.75673469,9.53470372 5.75673469,7.29265306 C5.75673469,5.0506024 7.57427587,3.23306122 9.81632653,3.23306122 Z M9.81632653,4.23306122 C8.12656062,4.23306122 6.75673469,5.60288715 6.75673469,7.29265306 C6.75673469,8.98241897 8.12656062,10.3522449 9.81632653,10.3522449 C11.5060924,10.3522449 12.8759184,8.98241897 12.8759184,7.29265306 C12.8759184,5.60288715 11.5060924,4.23306122 9.81632653,4.23306122 Z" id="Combined-Shape"></path>
                </g>
            </g>
        </g>
    </g>
</svg>