<?xml version="1.0" encoding="UTF-8"?>
<svg width="19px" height="18px" viewBox="0 0 19 18" version="1.1" xmlns="http://www.w3.org/2000/svg" xmlns:xlink="http://www.w3.org/1999/xlink">
    <title>sword-cross</title>
    <defs>
        <linearGradient x1="0%" y1="8.96758644%" x2="100%" y2="91.0324136%" id="linearGradient-1">
            <stop stop-color="#F48836" offset="0%"></stop>
            <stop stop-color="#F4364C" offset="100%"></stop>
        </linearGradient>
    </defs>
    <g id="Page-1" stroke="none" stroke-width="1" fill="none" fill-rule="evenodd" stroke-linejoin="round">
        <g id="Open-Case-1-Open-Menu-(Logged-on)---icons" transform="translate(-80.000000, -217.000000)" fill-rule="nonzero" stroke="url(#linearGradient-1)" stroke-width="1.1">
            <g id="sword-cross" transform="translate(89.500000, 226.500000) rotate(-360.000000) translate(-89.500000, -226.500000) translate(81.000000, 218.500000)">
                <path d="M4.07008333,0.344391667 L13.3843125,9.65862083 L14.4918448,8.55108854 C14.7966007,8.24633264 15.2907076,8.24633264 15.5954635,8.55108854 C15.9002194,8.85584444 15.9002194,9.34995139 15.5954635,9.65470729 L14.2139833,11.0361875 L14.2139833,11.0361875 L16.7029958,13.5252 C17.0064519,13.8304563 17.0064519,14.3235625 16.7029958,14.6288188 L16.1472729,15.1845417 C15.8420167,15.4879977 15.3489104,15.4879977 15.0436542,15.1845417 L12.5233333,12.7033563 L11.1619526,14.0814753 C10.8609094,14.3862198 10.3698214,14.3892204 10.0650768,14.0881772 C10.063953,14.087067 10.0628326,14.0859534 10.0617156,14.0848365 C9.75695972,13.7800806 9.75695972,13.2859736 10.0617156,12.9812177 L11.1692479,11.8736854 L11.1692479,11.8736854 L1.85501875,2.55945625 L1.85501875,0.344391667 L4.07008333,0.344391667 Z M11.9115609,6.00463289 L15.3645646,2.55162917 L15.3645646,0.344391667 L13.1495,0.344391667 L9.69649628,3.79739539 L11.9115609,6.00463289 Z M7.50384435,10.4514848 L5.28877977,8.2051119 L3.83527083,9.65862083 L2.72773854,8.55108854 C2.42298264,8.24633264 1.92887569,8.24633264 1.62411979,8.55108854 C1.31936389,8.85584444 1.31936389,9.34995139 1.62411979,9.65470729 L3.0056,11.0361875 L3.0056,11.0361875 L0.5165875,13.5330271 C0.213115825,13.8382833 0.213115825,14.3313896 0.5165875,14.6366458 L1.07231042,15.1923687 C1.37759798,15.4958248 1.87064161,15.4958248 2.17592917,15.1923687 L4.69625,12.7033562 L6.05763074,14.0814753 C6.35867395,14.3862198 6.84976197,14.3892204 7.15450653,14.0881772 C7.15563032,14.087067 7.15675072,14.0859534 7.15786771,14.0848365 C7.46262361,13.7800806 7.46262361,13.2859736 7.15786771,12.9812177 L6.05033542,11.8736854 L6.05033542,11.8736854 L7.50384435,10.4514848 Z" id="Shape"></path>
            </g>
        </g>
    </g>
</svg>