<svg xmlns="http://www.w3.org/2000/svg" width="16" height="16" viewBox="0 0 16 16">
    <defs>
        <linearGradient id="prefix__a" x1="0%" x2="100%" y1="9.5%" y2="90.5%">
            <stop offset="0%" stop-color="#F48836"/>
            <stop offset="100%" stop-color="#F4364C"/>
        </linearGradient>
    </defs>
    <path fill="url(#prefix__a)" d="M14.4 2.4h-1.544c-.534 0-1.034-.266-1.331-.711l-.65-.976C10.578.268 10.078 0 9.544 0H6.456c-.534 0-1.034.268-1.331.712l-.65.976c-.297.446-.797.712-1.331.712H1.6C.716 2.4 0 3.117 0 4v8.8c0 .883.716 1.6 1.6 1.6h12.8c.883 0 1.6-.717 1.6-1.6V4c0-.882-.717-1.6-1.6-1.6zM8 3.2c2.647 0 4.8 2.154 4.8 4.8 0 2.648-2.153 4.8-4.8 4.8S3.2 10.647 3.2 8c0-2.646 2.153-4.8 4.8-4.8zm0 1.294c-1.936 0-3.506 1.57-3.506 3.506 0 1.936 1.57 3.506 3.506 3.506 1.936 0 3.506-1.57 3.506-3.506 0-1.936-1.57-3.506-3.506-3.506z" transform="translate(0 .531)"/>
</svg>
