<svg xmlns="http://www.w3.org/2000/svg" width="48" height="21" fill="none" viewBox="0 0 48 21">
    <path stroke="#fff" stroke-linecap="round" d="M41.436 9c3.742.993 6.023 2.31 6.023 3.757 0 2.735-8.154 5.01-18.928 5.496m-6.022.081C10.483 18.122 1 15.706 1 12.757 1 11.31 3.28 9.993 7.022 9"/>
    <path stroke="#fff" stroke-linecap="round" stroke-linejoin="round" d="M20.788 16.198l2.15 2.151-2.15 2.151"/>
    <path fill="#fff" d="M14.595 6.808h.882c.554-.009.99-.155 1.308-.438.317-.284.476-.667.476-1.15 0-1.083-.54-1.624-1.619-1.624-.508 0-.914.146-1.219.438-.3.287-.45.67-.45 1.149h-1.175c0-.732.267-1.34.8-1.822.538-.487 1.219-.73 2.044-.73.872 0 1.555.23 2.05.692.495.461.743 1.102.743 1.923 0 .402-.131.791-.393 1.168-.259.377-.612.658-1.06.844.507.161.899.428 1.174.8.28.373.419.827.419 1.365 0 .83-.271 1.487-.813 1.974-.541.487-1.246.73-2.114.73-.867 0-1.574-.235-2.12-.705-.541-.47-.812-1.09-.812-1.86h1.18c0 .487.16.877.477 1.168.317.293.742.438 1.275.438.567 0 1.001-.148 1.302-.444.3-.296.45-.721.45-1.276 0-.537-.165-.95-.495-1.238-.33-.287-.806-.435-1.428-.444h-.882v-.958zm10.2-4.057v.997h-.215c-.914.017-1.642.288-2.184.813-.542.524-.855 1.263-.94 2.215.487-.559 1.152-.838 1.994-.838.804 0 1.445.284 1.923.85.482.568.724 1.3.724 2.197 0 .952-.26 1.714-.781 2.285-.516.571-1.21.857-2.082.857-.885 0-1.602-.339-2.152-1.016-.55-.681-.825-1.557-.825-2.628v-.45c0-1.701.362-3 1.085-3.898.728-.901 1.81-1.362 3.244-1.384h.21zm-1.542 4.165c-.402 0-.772.12-1.11.361-.34.242-.574.544-.706.908v.432c0 .761.172 1.375.515 1.84.342.466.77.699 1.282.699.529 0 .944-.195 1.244-.584.305-.39.457-.9.457-1.53 0-.635-.154-1.147-.463-1.536-.305-.394-.711-.59-1.22-.59zm10.03 1.142c0 1.375-.236 2.397-.705 3.066-.47.669-1.204 1.003-2.203 1.003-.986 0-1.716-.326-2.19-.978-.474-.655-.72-1.633-.736-2.932V6.649c0-1.358.235-2.368.704-3.028.47-.66 1.206-.99 2.21-.99.994 0 1.726.32 2.196.958.47.635.71 1.617.723 2.946v1.523zm-1.175-1.606c0-.994-.14-1.718-.419-2.17-.28-.458-.722-.686-1.327-.686-.6 0-1.039.226-1.314.679-.275.453-.416 1.149-.425 2.088v1.88c0 .998.144 1.736.432 2.214.292.474.732.711 1.32.711.58 0 1.01-.224 1.289-.672.283-.449.431-1.156.444-2.12V6.451zm2.736-2.17c0-.44.156-.826.47-1.156.317-.33.7-.495 1.148-.495.44 0 .815.165 1.124.495.313.326.47.71.47 1.155 0 .449-.157.832-.47 1.15-.309.317-.683.475-1.124.475-.444 0-.825-.158-1.142-.476-.318-.317-.476-.7-.476-1.149zm1.618.812c.229 0 .421-.074.578-.222.157-.153.235-.35.235-.59 0-.246-.078-.447-.235-.604-.157-.16-.35-.241-.578-.241-.232 0-.43.085-.59.254-.157.165-.235.362-.235.59 0 .229.078.421.235.578.16.156.358.235.59.235z"/>
</svg>
