<?xml version="1.0" encoding="UTF-8"?>
<svg width="22px" height="23px" viewBox="0 0 22 23" version="1.1" xmlns="http://www.w3.org/2000/svg" xmlns:xlink="http://www.w3.org/1999/xlink">
    <!-- Generator: Sketch 61.2 (89653) - https://sketch.com -->
    <title>18+</title>
    <desc>Created with Sketch.</desc>
    <defs>
        <linearGradient x1="0%" y1="0%" x2="100%" y2="100%" id="linearGradient-1">
            <stop stop-color="#F48836" offset="0%"></stop>
            <stop stop-color="#F4364C" offset="100%"></stop>
        </linearGradient>
    </defs>
    <g id="Page-1" stroke="none" stroke-width="1" fill="none" fill-rule="evenodd">
        <g id="FAQ-HIW-Dark---bg-oval" transform="translate(-878.000000, -2336.000000)" fill="url(#linearGradient-1)" fill-rule="nonzero">
            <g id="Footer-Copy" transform="translate(0.000000, 2315.000000)">
                <g id="Group-2" transform="translate(809.000000, 21.000000)">
                    <g id="18+" transform="translate(69.000000, 0.240018)">
                        <path d="M10.9954529,-1.42108547e-14 C11.9856535,-1.42108547e-14 12.9604073,0.131264438 13.9042006,0.389981763 L13.9042006,0.389981763 L13.9042006,2.4073617 C12.9698359,2.09060182 11.9924073,1.9301155 10.995386,1.9301155 C5.99670517,1.9301155 1.92998176,5.99670517 1.92998176,10.9954529 C1.92998176,15.9940669 5.99677204,20.0607903 10.9954529,20.0607903 C15.9941337,20.0607903 20.0608571,15.9940669 20.0608571,10.9954529 C20.0608571,9.99856535 19.9002371,9.02113678 19.5836109,8.0866383 L19.5836109,8.0866383 L21.6008571,8.0866383 C21.8595745,9.03049848 21.990772,10.0053191 21.990772,10.9954529 C21.990772,17.0583587 17.0582918,21.9909058 10.9954529,21.9909058 C4.93261398,21.9909058 6.68693008e-05,17.0583587 6.68693008e-05,10.9954529 C6.68693008e-05,4.93254711 4.93261398,-1.42108547e-14 10.9954529,-1.42108547e-14 Z M13.3331368,7.16504559 C14.9807964,7.16504559 16.0186748,7.94607903 16.0186748,9.17647416 C16.0186748,9.82911854 15.6656049,10.4068693 15.077155,10.7279088 C15.9009179,11.0702128 16.414541,11.7871185 16.414541,12.6216474 C16.414541,13.9697325 15.2161763,14.8257264 13.3438359,14.8257264 C11.4714286,14.8257264 10.2731307,13.9804316 10.2731307,12.6538116 C10.2731307,11.7978176 10.8294833,11.0702128 11.6961094,10.7279088 C11.0648632,10.374772 10.6582979,9.77568997 10.6582979,9.12304559 C10.6582979,7.92461398 11.7068754,7.16504559 13.3331368,7.16504559 Z M8.86105167,7.23993921 L8.86105167,14.7402675 L6.95654711,14.7402675 L6.95654711,8.76990881 L5.57636474,8.76990881 L5.57636474,7.23993921 L8.86105167,7.23993921 Z M13.3438359,11.4875441 C12.5199392,11.4875441 12.0705775,11.8406809 12.0705775,12.461228 C12.0705775,13.092541 12.5200061,13.4456109 13.3438359,13.4456109 C14.1676657,13.4456109 14.6277264,13.103307 14.6277264,12.461228 C14.6277264,11.8407477 14.1676657,11.4875441 13.3438359,11.4875441 Z M13.3438359,8.41690578 C12.6483283,8.41690578 12.263228,8.7272462 12.263228,9.28346505 C12.263228,9.81855319 12.6483951,10.1179939 13.3438359,10.1179939 C14.0392766,10.1179939 14.4244438,9.81848632 14.4244438,9.28346505 C14.4244438,8.7272462 14.0392766,8.41690578 13.3438359,8.41690578 Z M19.0349483,0.841349544 L19.0349483,2.94967173 L21.1431368,2.94967173 L21.1431368,4.46559878 L19.0349483,4.46559878 L19.0349483,6.5738541 L17.5188875,6.5738541 L17.5188875,4.46559878 L15.4232036,4.46559878 L15.4232036,2.94967173 L17.5188875,2.94967173 L17.5188875,0.841349544 L19.0349483,0.841349544 Z" id="Combined-Shape"></path>
                    </g>
                </g>
            </g>
        </g>
    </g>
</svg>