<?xml version="1.0" encoding="UTF-8"?>
<svg width="15px" height="15px" viewBox="0 0 15 15" version="1.1" xmlns="http://www.w3.org/2000/svg" xmlns:xlink="http://www.w3.org/1999/xlink">
    <title>US</title>
    <defs>
        <circle id="path-1" cx="7.5" cy="7.5" r="7.5"></circle>
        <rect id="path-3" x="0" y="0" width="20.7142857" height="15" rx="2"></rect>
        <linearGradient x1="50%" y1="0%" x2="50%" y2="100%" id="linearGradient-5">
            <stop stop-color="#FFFFFF" offset="0%"></stop>
            <stop stop-color="#F0F0F0" offset="100%"></stop>
        </linearGradient>
        <path d="M7.34693878,4.71428571 C7.62871671,4.71428571 7.85714286,4.93814334 7.85714286,5.21428571 C7.85714286,5.49042809 7.62871671,5.71428571 7.34693878,5.71428571 C7.06516084,5.71428571 6.83673469,5.49042809 6.83673469,5.21428571 C6.83673469,4.93814334 7.06516084,4.71428571 7.34693878,4.71428571 Z M5.30612245,4.71428571 C5.58790038,4.71428571 5.81632653,4.93814334 5.81632653,5.21428571 C5.81632653,5.49042809 5.58790038,5.71428571 5.30612245,5.71428571 C5.02434452,5.71428571 4.79591837,5.49042809 4.79591837,5.21428571 C4.79591837,4.93814334 5.02434452,4.71428571 5.30612245,4.71428571 Z M3.26530612,4.71428571 C3.54708406,4.71428571 3.7755102,4.93814334 3.7755102,5.21428571 C3.7755102,5.49042809 3.54708406,5.71428571 3.26530612,5.71428571 C2.98352819,5.71428571 2.75510204,5.49042809 2.75510204,5.21428571 C2.75510204,4.93814334 2.98352819,4.71428571 3.26530612,4.71428571 Z M1.2244898,4.71428571 C1.50626773,4.71428571 1.73469388,4.93814334 1.73469388,5.21428571 C1.73469388,5.49042809 1.50626773,5.71428571 1.2244898,5.71428571 C0.942711862,5.71428571 0.714285714,5.49042809 0.714285714,5.21428571 C0.714285714,4.93814334 0.942711862,4.71428571 1.2244898,4.71428571 Z M2.24489796,3.71428571 C2.52667589,3.71428571 2.75510204,3.93814334 2.75510204,4.21428571 C2.75510204,4.49042809 2.52667589,4.71428571 2.24489796,4.71428571 C1.96312003,4.71428571 1.73469388,4.49042809 1.73469388,4.21428571 C1.73469388,3.93814334 1.96312003,3.71428571 2.24489796,3.71428571 Z M4.28571429,3.71428571 C4.56749222,3.71428571 4.79591837,3.93814334 4.79591837,4.21428571 C4.79591837,4.49042809 4.56749222,4.71428571 4.28571429,4.71428571 C4.00393635,4.71428571 3.7755102,4.49042809 3.7755102,4.21428571 C3.7755102,3.93814334 4.00393635,3.71428571 4.28571429,3.71428571 Z M6.32653061,3.71428571 C6.60830855,3.71428571 6.83673469,3.93814334 6.83673469,4.21428571 C6.83673469,4.49042809 6.60830855,4.71428571 6.32653061,4.71428571 C6.04475268,4.71428571 5.81632653,4.49042809 5.81632653,4.21428571 C5.81632653,3.93814334 6.04475268,3.71428571 6.32653061,3.71428571 Z M7.34693878,2.71428571 C7.62871671,2.71428571 7.85714286,2.93814334 7.85714286,3.21428571 C7.85714286,3.49042809 7.62871671,3.71428571 7.34693878,3.71428571 C7.06516084,3.71428571 6.83673469,3.49042809 6.83673469,3.21428571 C6.83673469,2.93814334 7.06516084,2.71428571 7.34693878,2.71428571 Z M5.30612245,2.71428571 C5.58790038,2.71428571 5.81632653,2.93814334 5.81632653,3.21428571 C5.81632653,3.49042809 5.58790038,3.71428571 5.30612245,3.71428571 C5.02434452,3.71428571 4.79591837,3.49042809 4.79591837,3.21428571 C4.79591837,2.93814334 5.02434452,2.71428571 5.30612245,2.71428571 Z M3.26530612,2.71428571 C3.54708406,2.71428571 3.7755102,2.93814334 3.7755102,3.21428571 C3.7755102,3.49042809 3.54708406,3.71428571 3.26530612,3.71428571 C2.98352819,3.71428571 2.75510204,3.49042809 2.75510204,3.21428571 C2.75510204,2.93814334 2.98352819,2.71428571 3.26530612,2.71428571 Z M1.2244898,2.71428571 C1.50626773,2.71428571 1.73469388,2.93814334 1.73469388,3.21428571 C1.73469388,3.49042809 1.50626773,3.71428571 1.2244898,3.71428571 C0.942711862,3.71428571 0.714285714,3.49042809 0.714285714,3.21428571 C0.714285714,2.93814334 0.942711862,2.71428571 1.2244898,2.71428571 Z M2.24489796,1.71428571 C2.52667589,1.71428571 2.75510204,1.93814334 2.75510204,2.21428571 C2.75510204,2.49042809 2.52667589,2.71428571 2.24489796,2.71428571 C1.96312003,2.71428571 1.73469388,2.49042809 1.73469388,2.21428571 C1.73469388,1.93814334 1.96312003,1.71428571 2.24489796,1.71428571 Z M4.28571429,1.71428571 C4.56749222,1.71428571 4.79591837,1.93814334 4.79591837,2.21428571 C4.79591837,2.49042809 4.56749222,2.71428571 4.28571429,2.71428571 C4.00393635,2.71428571 3.7755102,2.49042809 3.7755102,2.21428571 C3.7755102,1.93814334 4.00393635,1.71428571 4.28571429,1.71428571 Z M6.32653061,1.71428571 C6.60830855,1.71428571 6.83673469,1.93814334 6.83673469,2.21428571 C6.83673469,2.49042809 6.60830855,2.71428571 6.32653061,2.71428571 C6.04475268,2.71428571 5.81632653,2.49042809 5.81632653,2.21428571 C5.81632653,1.93814334 6.04475268,1.71428571 6.32653061,1.71428571 Z M1.2244898,0.714285714 C1.50626773,0.714285714 1.73469388,0.938143339 1.73469388,1.21428571 C1.73469388,1.49042809 1.50626773,1.71428571 1.2244898,1.71428571 C0.942711862,1.71428571 0.714285714,1.49042809 0.714285714,1.21428571 C0.714285714,0.938143339 0.942711862,0.714285714 1.2244898,0.714285714 Z M3.26530612,0.714285714 C3.54708406,0.714285714 3.7755102,0.938143339 3.7755102,1.21428571 C3.7755102,1.49042809 3.54708406,1.71428571 3.26530612,1.71428571 C2.98352819,1.71428571 2.75510204,1.49042809 2.75510204,1.21428571 C2.75510204,0.938143339 2.98352819,0.714285714 3.26530612,0.714285714 Z M5.30612245,0.714285714 C5.58790038,0.714285714 5.81632653,0.938143339 5.81632653,1.21428571 C5.81632653,1.49042809 5.58790038,1.71428571 5.30612245,1.71428571 C5.02434452,1.71428571 4.79591837,1.49042809 4.79591837,1.21428571 C4.79591837,0.938143339 5.02434452,0.714285714 5.30612245,0.714285714 Z M7.34693878,0.714285714 C7.62871671,0.714285714 7.85714286,0.938143339 7.85714286,1.21428571 C7.85714286,1.49042809 7.62871671,1.71428571 7.34693878,1.71428571 C7.06516084,1.71428571 6.83673469,1.49042809 6.83673469,1.21428571 C6.83673469,0.938143339 7.06516084,0.714285714 7.34693878,0.714285714 Z" id="path-6"></path>
        <filter x="-7.0%" y="-10.0%" width="114.0%" height="140.0%" filterUnits="objectBoundingBox" id="filter-7">
            <feOffset dx="0" dy="1" in="SourceAlpha" result="shadowOffsetOuter1"></feOffset>
            <feColorMatrix values="0 0 0 0 0   0 0 0 0 0   0 0 0 0 0  0 0 0 0.06 0" type="matrix" in="shadowOffsetOuter1"></feColorMatrix>
        </filter>
        <rect id="path-8" x="0" y="0" width="21" height="15" rx="2"></rect>
    </defs>
    <g id="Page-1" stroke="none" stroke-width="1" fill="none" fill-rule="evenodd">
        <g id="Unboxing-page-Hover" transform="translate(-773.000000, -9.000000)">
            <g id="Header">
                <g id="Language" transform="translate(773.000000, 9.000000)">
                    <g id="US">
                        <mask id="mask-2" fill="white">
                            <use xlink:href="#path-1"></use>
                        </mask>
                        <use id="Mask" fill="#D8D8D8" xlink:href="#path-1"></use>
                        <g mask="url(#mask-2)">
                            <g transform="translate(-0.714286, 0.000000)">
                                <mask id="mask-4" fill="white">
                                    <use xlink:href="#path-3"></use>
                                </mask>
                                <use id="Mask" stroke="none" fill="#FFFFFF" fill-rule="evenodd" xlink:href="#path-3"></use>
                                <path d="M20.7142857,14 L20.7142857,15 L0,15 L0,14 L20.7142857,14 Z M20.7142857,12 L20.7142857,13 L0,13 L0,12 L20.7142857,12 Z M20.7142857,10 L20.7142857,11 L0,11 L0,10 L20.7142857,10 Z M20.7142857,8 L20.7142857,9 L0,9 L0,8 L20.7142857,8 Z M20.7142857,6 L20.7142857,7 L0,7 L0,6 L20.7142857,6 Z M20.7142857,4 L20.7142857,5 L0,5 L0,4 L20.7142857,4 Z M20.7142857,2 L20.7142857,3 L0,3 L0,2 L20.7142857,2 Z M20.7142857,0 L20.7142857,1 L0,1 L0,0 L20.7142857,0 Z" id="Rectangle-511" stroke="none" fill="#D02F44" fill-rule="evenodd" mask="url(#mask-4)"></path>
                                <rect id="Rectangle-511" stroke="none" fill="#46467F" fill-rule="evenodd" mask="url(#mask-4)" x="0" y="0" width="8.57142857" height="7.14285714"></rect>
                                <g id="Oval-43" stroke="none" fill="none" mask="url(#mask-4)">
                                    <use fill="black" fill-opacity="1" filter="url(#filter-7)" xlink:href="#path-6"></use>
                                    <use fill="url(#linearGradient-5)" fill-rule="evenodd" xlink:href="#path-6"></use>
                                </g>
                            </g>
                        </g>
                        <g id="DZ" mask="url(#mask-2)">
                            <g transform="translate(-3.000000, 0.000000)">
                                <mask id="mask-9" fill="white">
                                    <use xlink:href="#path-8"></use>
                                </mask>
                                <rect stroke="#F5F5F5" stroke-width="0.5" x="0.25" y="0.25" width="20.5" height="14.5" rx="2"></rect>
                                <rect id="Rectangle-2" stroke="none" fill="#048345" fill-rule="evenodd" mask="url(#mask-9)" x="0" y="0" width="11" height="15"></rect>
                                <polygon id="Star-8" stroke="none" fill="#E81B42" fill-rule="evenodd" mask="url(#mask-9)" points="13 8.28000003 11.8244295 9.11803399 12.2581759 7.74103327 11.097887 6.88196601 12.5415275 6.86896672 13 5.5 13.4584725 6.86896672 14.902113 6.88196601 13.7418241 7.74103327 14.1755705 9.11803399"></polygon>
                                <path d="M10.3131751,3 C11.4530456,3 12.4896417,3.46132307 13.2607965,4.21477818 C12.7289447,3.96103075 12.1269862,3.81818182 11.4894956,3.81818182 C9.32394935,3.81818182 7.5684273,5.46658797 7.5684273,7.5 C7.5684273,9.53341203 9.32394935,11.1818182 11.4894956,11.1818182 C12.1269862,11.1818182 12.7289447,11.0389693 13.2610466,10.7855014 C12.4896417,11.5386769 11.4530456,12 10.3131751,12 C7.93107426,12 6,9.98528137 6,7.5 C6,5.01471863 7.93107426,3 10.3131751,3 Z" id="Oval-3" stroke="none" fill="#E81B42" fill-rule="evenodd" mask="url(#mask-9)"></path>
                            </g>
                        </g>
                    </g>
                </g>
            </g>
        </g>
    </g>
</svg>