<svg xmlns="http://www.w3.org/2000/svg" width="24" height="24" fill="none" viewBox="0 0 24 24">
    <path fill="#E35162" d="M12 24c-.307 0-.614-.118-.848-.352l-10.8-10.8c-.47-.469-.47-1.227 0-1.696l10.8-10.8c.469-.47 1.227-.47 1.696 0l10.8 10.8c.47.468.47 1.227 0 1.697l-10.8 10.8c-.234.235-.54.351-.848.351zM2.897 12L12 21.103 21.103 12 12 2.898 2.897 12z"/>
    <path fill="#E35162" d="M13 13V9c0-.552-.448-1-1-1s-1 .448-1 1v4c0 .552.448 1 1 1s1-.448 1-1zM12 17.25c.69 0 1.25-.56 1.25-1.25s-.56-1.25-1.25-1.25-1.25.56-1.25 1.25.56 1.25 1.25 1.25z"/>
</svg>
