<svg xmlns="http://www.w3.org/2000/svg" width="17" height="17" viewBox="0 0 17 17">
    <defs>
        <linearGradient id="prefix__a" x1="0%" x2="100%" y1="8.968%" y2="91.032%">
            <stop offset="0%" stop-color="#F48836"/>
            <stop offset="100%" stop-color="#F4364C"/>
        </linearGradient>
    </defs>
    <path fill="url(#prefix__a)" d="M4.07.344l9.314 9.315 1.108-1.108c.305-.305.799-.305 1.103 0 .305.305.305.799 0 1.104l-1.381 1.381 2.489 2.49c.303.304.303.798 0 1.103l-.556.556c-.305.303-.798.303-1.103 0l-2.52-2.482-1.362 1.378c-.301.305-.792.308-1.097.007l-.003-.003c-.305-.305-.305-.799 0-1.104l1.107-1.107-9.314-9.315V.344H4.07zm7.842 5.66l3.453-3.452V.344h-2.216L9.697 3.797l2.216 2.208zm-4.408 4.447L5.289 8.205 3.835 9.66 2.728 8.55c-.305-.305-.8-.305-1.104 0-.305.305-.305.799 0 1.104l1.382 1.381-2.49 2.497c-.303.305-.303.798 0 1.104l.556.555c.306.304.799.304 1.104 0l2.52-2.489 1.362 1.378c.3.305.792.308 1.097.007l.003-.003c.305-.305.305-.799 0-1.104L6.05 11.874l1.454-1.423z" transform="translate(0 .031)"/>
</svg>
