<svg xmlns="http://www.w3.org/2000/svg" width="20" height="21" viewBox="0 0 20 21">
    <path fill="#A6AEB4" d="M8.944.872c.665-.33 1.447-.33 2.112 0l7 3.483c.807.4 1.319 1.22 1.319 2.12v8.299c0 .899-.512 1.72-1.318 2.118l-7 3.483c-.46.23-.978.301-1.474.214-.064.023-.135.036-.208.036-.222 0-.418-.116-.529-.291L1.932 16.89c-.806-.404-1.313-1.23-1.307-2.126V6.474c0-.05.002-.1.005-.15-.013-.101 0-.207.04-.308.141-.712.606-1.33 1.273-1.66zm9.173 5.468l-.003.03c-.03.155-.12.297-.254.391l-.098.056L10 10.4v8.976c.129 0 .257-.023.379-.067l.121-.052 7.002-3.484c.382-.189.623-.576.623-.998v-8.3c0-.045-.003-.09-.008-.134zm-16.242.886v7.543c-.003.424.236.813.616 1.004l6.259 3.114v-8.488L1.875 7.226zm8.627-5.234c-.316-.156-.688-.156-1.002 0L2.498 5.476c-.202.1-.365.255-.473.443l7.35 3.392 7.863-3.628c.196-.091.415-.071.587.033-.09-.097-.2-.18-.325-.241z"/>
</svg>
