<svg xmlns="http://www.w3.org/2000/svg" width="18" height="19" viewBox="0 0 18 19">
    <defs>
        <linearGradient id="prefix__a" x1="47.531%" x2="52.469%" y1="0%" y2="100%">
            <stop offset="0%" stop-color="#F48836"/>
            <stop offset="100%" stop-color="#F4364C"/>
        </linearGradient>
        <linearGradient id="prefix__b" x1="6.444%" x2="93.556%" y1="0%" y2="100%">
            <stop offset="0%" stop-color="#F48836"/>
            <stop offset="100%" stop-color="#F4364C"/>
        </linearGradient>
        <linearGradient id="prefix__c" x1="0%" x2="100%" y1="46.783%" y2="53.217%">
            <stop offset="0%" stop-color="#F48836"/>
            <stop offset="100%" stop-color="#F4364C"/>
        </linearGradient>
    </defs>
    <g fill="none" fill-rule="evenodd" stroke-linecap="round" stroke-linejoin="round" stroke-width="1.2">
        <path stroke="url(#prefix__a)" d="M7.5 16.5L7.367 7.933" transform="translate(1 1)"/>
        <path stroke="url(#prefix__b)" d="M8.64.165l6.346 3.158c.54.267.88.814.88 1.414v7.524c0 .6-.34 1.147-.88 1.414L8.64 16.833c-.447.223-.973.223-1.42 0L.873 13.675c-.539-.27-.877-.821-.873-1.422V4.737c0-.6.341-1.147.88-1.414L7.228.165c.445-.22.968-.22 1.412 0z" transform="translate(1 1)"/>
        <path stroke="url(#prefix__c)" d="M0 4.533L7.367 7.933 15.512 3.998" transform="translate(1 1)"/>
    </g>
</svg>
