<svg xmlns="http://www.w3.org/2000/svg" xmlns:xlink="http://www.w3.org/1999/xlink" width="61" height="59" viewBox="0 0 61 59">
    <defs>
        <linearGradient id="c" x1="0%" y1="0%" y2="100%">
            <stop offset="0%" stop-color="#F48836"/>
            <stop offset="100%" stop-color="#F4364C"/>
        </linearGradient>
        <path id="b" d="M0 0h21v17.79H5.737L0 22z"/>
        <filter id="a" width="433.3%" height="418.2%" x="-166.7%" y="-113.6%" filterUnits="objectBoundingBox">
            <feOffset dy="10" in="SourceAlpha" result="shadowOffsetOuter1"/>
            <feMorphology in="SourceAlpha" radius="2" result="shadowInner"/>
            <feOffset dy="10" in="shadowInner" result="shadowInner"/>
            <feComposite in="shadowOffsetOuter1" in2="shadowInner" operator="out" result="shadowOffsetOuter1"/>
            <feGaussianBlur in="shadowOffsetOuter1" result="shadowBlurOuter1" stdDeviation="10"/>
            <feColorMatrix in="shadowBlurOuter1" values="0 0 0 0 0 0 0 0 0 0 0 0 0 0 0 0 0 0 0.05 0"/>
        </filter>
        <path id="e" d="M6.692 10H15V8H6v2z"/>
        <filter id="d" width="777.8%" height="3500%" x="-388.9%" y="-1250%" filterUnits="objectBoundingBox">
            <feOffset dy="10" in="SourceAlpha" result="shadowOffsetOuter1"/>
            <feMorphology in="SourceAlpha" radius="2" result="shadowInner"/>
            <feOffset dy="10" in="shadowInner" result="shadowInner"/>
            <feComposite in="shadowOffsetOuter1" in2="shadowInner" operator="out" result="shadowOffsetOuter1"/>
            <feGaussianBlur in="shadowOffsetOuter1" result="shadowBlurOuter1" stdDeviation="10"/>
            <feColorMatrix in="shadowBlurOuter1" values="0 0 0 0 0 0 0 0 0 0 0 0 0 0 0 0 0 0 0.05 0"/>
        </filter>
        <path id="g" d="M6.556 14H11v-2H6v2z"/>
        <filter id="f" width="1400%" height="3500%" x="-700%" y="-1250%" filterUnits="objectBoundingBox">
            <feOffset dy="10" in="SourceAlpha" result="shadowOffsetOuter1"/>
            <feMorphology in="SourceAlpha" radius="2" result="shadowInner"/>
            <feOffset dy="10" in="shadowInner" result="shadowInner"/>
            <feComposite in="shadowOffsetOuter1" in2="shadowInner" operator="out" result="shadowOffsetOuter1"/>
            <feGaussianBlur in="shadowOffsetOuter1" result="shadowBlurOuter1" stdDeviation="10"/>
            <feColorMatrix in="shadowBlurOuter1" values="0 0 0 0 0 0 0 0 0 0 0 0 0 0 0 0 0 0 0.05 0"/>
        </filter>
    </defs>
    <g fill="none" fill-rule="evenodd">
        <g transform="translate(20 10)">
            <use fill="#000" filter="url(#a)" xlink:href="#b"/>
            <path stroke="url(#c)" stroke-linejoin="square" stroke-width="2" d="M1 1v19.026l4.41-3.237H20V1H1z"/>
        </g>
        <g transform="translate(20 10)">
            <use fill="#000" filter="url(#d)" xlink:href="#e"/>
            <path stroke="url(#c)" stroke-linejoin="square" stroke-width="2" d="M6.346 9H6v1h1V8H6v1h.346zm8.308 0H15V8h-1v2h1V9h-.346z"/>
        </g>
        <g transform="translate(20 10)">
            <use fill="#000" filter="url(#f)" xlink:href="#g"/>
            <path stroke="url(#c)" stroke-linejoin="square" stroke-width="2" d="M6.278 13H6v1h1v-2H6v1h.278zm4.444 0H11v-1h-1v2h1v-1h-.278z"/>
        </g>
    </g>
</svg>
