<?xml version="1.0" encoding="UTF-8"?>
<svg width="20px" height="17px" viewBox="0 0 20 17" version="1.1" xmlns="http://www.w3.org/2000/svg" xmlns:xlink="http://www.w3.org/1999/xlink">
    <!-- Generator: Sketch 63.1 (92452) - https://sketch.com -->
    <title>712584</title>
    <desc>Created with Sketch.</desc>
    <g id="Page-1" stroke="none" stroke-width="1" fill="none" fill-rule="evenodd">
        <g id="712584" fill-rule="nonzero">
            <ellipse id="Oval" fill="#FCC62D" cx="11.2935323" cy="12.6368159" rx="8.70646766" ry="1.89054726"></ellipse>
            <path d="M20,12.6368159 L20,14.8334917 C20,15.151912 19.6325791,15.4519067 18.9802631,15.7149645 C18.8287739,15.7795398 18.6587751,15.8395302 18.475086,15.8949355 C18.0203627,16.0425975 17.4737308,16.1718339 16.8582635,16.277974 C16.6974769,16.3102831 16.5275634,16.3379644 16.3483524,16.3656457 C15.8476961,16.4441045 15.3056704,16.5087227 14.7315299,16.5640852 C14.5662225,16.5779259 14.4008298,16.5917665 14.2263528,16.60565 C13.7072722,16.6471719 13.1698952,16.6748532 12.6095303,16.6933216 C12.4395315,16.7025344 12.269618,16.7071623 12.0996192,16.7071623 C11.8332337,16.7117901 11.5622422,16.7164179 11.291208,16.7164179 C11.0203017,16.7164179 10.7492248,16.7117901 10.4827967,16.7071623 C10.3129259,16.7071623 10.1428844,16.7025344 9.97761965,16.6933216 C9.42181825,16.6748532 8.87979247,16.6471719 8.36079714,16.60565 C8.18619225,16.5918094 8.0163214,16.5779687 7.85088604,16.5640852 C7.27674558,16.5087227 6.73476245,16.4441045 6.23406353,16.3656457 C6.05958658,16.3379644 5.89415122,16.3102831 5.72888646,16.277974 C5.1133765,16.1718339 4.56678728,16.0425975 4.11206395,15.8949355 C3.92833218,15.839573 3.75837603,15.7749548 3.60215285,15.7149645 C2.95457086,15.4519067 2.58706468,15.1519549 2.58706468,14.8334917 L2.58706468,12.6368159 C2.58706468,12.9552362 2.95452821,13.2598587 3.60215285,13.5228736 C3.75837603,13.582864 3.92828953,13.6474393 4.11206395,13.7028447 C4.56678728,13.8459217 5.11333385,13.9751153 5.72888646,14.0858832 C5.89419387,14.1135645 6.05958658,14.1412457 6.23406353,14.168927 C6.73476245,14.2473858 7.27674558,14.312004 7.85088604,14.3673666 C8.01627875,14.3812072 8.18619225,14.3950478 8.36079714,14.4089313 C8.87979247,14.4504532 9.42181825,14.4781774 9.97761965,14.496603 C10.1429271,14.5058586 10.3129259,14.5104436 10.4827967,14.5104436 C10.7492248,14.5150714 11.0202591,14.5196993 11.291208,14.5196993 C11.5622422,14.5196993 11.8332337,14.5150714 12.0996192,14.5104436 C12.269618,14.5104436 12.4395315,14.5058586 12.6095303,14.496603 C13.1698952,14.4781345 13.7072722,14.4504532 14.2263528,14.4089313 C14.4008298,14.3950907 14.5662651,14.3812501 14.7315299,14.3673666 C15.3056704,14.312004 15.8476961,14.2473858 16.3483524,14.168927 C16.5275634,14.1412457 16.6974342,14.1135645 16.8582635,14.0858832 C17.4737308,13.9751153 18.0203627,13.8459217 18.475086,13.7028447 C18.6587751,13.6474822 18.8287739,13.5874918 18.9802631,13.5228736 C19.6325791,13.2598587 20,12.959864 20,12.6368159 Z" id="Path" fill="#D4A51E"></path>
            <g id="Group" transform="translate(0.000000, 7.164179)" fill="#FCC62D">
                <path d="M4.09051126,6.54136461 L4.09051126,8.72285714 C3.90652602,8.66776119 3.7363354,8.60345416 3.5798967,8.54375267 L3.5798967,6.36226013 C3.7363354,6.42196162 3.90652602,6.48622601 4.09051126,6.54136461 Z" id="Path"></path>
                <path d="M6.21543831,7.00520256 L6.21543831,9.19130064 C6.04072067,9.16375267 5.87505707,9.13620469 5.70956431,9.10405117 L5.70956431,6.92255864 C5.87505707,6.95010661 6.04072067,6.97765458 6.21543831,7.00520256 Z" id="Path"></path>
                <path d="M8.34506322,7.24405117 L8.34506322,9.43014925 C8.17021745,9.41637527 8.00011225,9.40260128 7.83444866,9.38878465 L7.83444866,7.20268657 C8.00011225,7.2165032 8.17021745,7.23023454 8.34506322,7.24405117 Z" id="Path"></path>
                <path d="M10.4699903,7.34507463 L10.4699903,9.53117271 C10.2998851,9.53117271 10.129609,9.52656716 9.96411627,9.51739872 L9.96411627,7.33130064 C10.1296517,7.34051173 10.2998851,7.34507463 10.4699903,7.34507463 Z" id="Path"></path>
                <path d="M12.5996579,7.33130064 L12.5996579,9.51739872 C12.4294246,9.52656716 12.2592767,9.53117271 12.0890433,9.53117271 L12.0890433,7.34507463 C12.2592767,7.34507463 12.4294246,7.34051173 12.5996579,7.33130064 Z" id="Path"></path>
                <path d="M14.7245849,7.20268657 L14.7245849,9.38878465 C14.5590495,9.40255864 14.3934286,9.41633262 14.2187109,9.43014925 L14.2187109,7.24405117 C14.3934286,7.23023454 14.5590495,7.2165032 14.7245849,7.20268657 Z" id="Path"></path>
                <path d="M16.8542098,6.92255864 L16.8542098,9.10405117 C16.6932014,9.13620469 16.5230535,9.16375267 16.3435953,9.19130064 L16.3435953,7.00520256 C16.5230535,6.97765458 16.6932014,6.95010661 16.8542098,6.92255864 Z" id="Path"></path>
                <path d="M18.9791369,6.36226013 L18.9791369,8.54375267 C18.8274388,8.60801706 18.6572054,8.66771855 18.4732629,8.72285714 L18.4732629,6.54136461 C18.6572054,6.48622601 18.8274388,6.42652452 18.9791369,6.36226013 Z" id="Path"></path>
                <ellipse id="Oval" cx="8.71777427" cy="1.89923241" rx="8.71777427" ry="1.87185501"></ellipse>
            </g>
            <path d="M8.70646766,10.9376229 C3.89802812,10.9376229 0,10.0945963 0,9.05472637 L0,11.2514318 C0,12.2913447 3.89802812,13.1343284 8.70646766,13.1343284 C13.5149072,13.1343284 17.4129353,12.2913447 17.4129353,11.2514318 L17.4129353,9.05472637 C17.4129353,10.0946392 13.5149072,10.9376229 8.70646766,10.9376229 Z" id="Path" fill="#D4A51E"></path>
            <g id="Group" transform="translate(0.995025, 3.582090)" fill="#FCC62D">
                <path d="M0.545817772,6.54904051 L0.545817772,8.73053305 C0.362245053,8.6754371 0.192436026,8.61113006 0.0363480802,8.55142857 L0.0363480802,6.36993603 C0.192436026,6.42963753 0.362245053,6.49394456 0.545817772,6.54904051 Z" id="Path"></path>
                <path d="M2.66598041,7.01292111 L2.66598041,9.19901919 C2.49165451,9.17147122 2.32636236,9.14392324 2.16124066,9.11176972 L2.16124066,6.93027719 C2.32640497,6.95778252 2.49165451,6.98533049 2.66598041,7.01292111 Z" id="Path"></path>
                <path d="M4.79087299,7.25172708 L4.79087299,9.43782516 C4.61641925,9.42405117 4.44669545,9.41027719 4.2814033,9.39646055 L4.2814033,7.21036247 C4.44669545,7.2241791 4.61641925,7.23795309 4.79087299,7.25172708 Z" id="Path"></path>
                <path d="M6.91103563,7.35275053 L6.91103563,9.53884861 C6.74131183,9.53884861 6.57141758,9.53424307 6.40629587,9.52507463 L6.40629587,7.33897655 C6.57141758,7.34818763 6.74126921,7.35275053 6.91103563,7.35275053 Z" id="Path"></path>
                <path d="M9.03588559,7.33897655 L9.03588559,9.52507463 C8.86603396,9.53424307 8.69626754,9.53884861 8.5264159,9.53884861 L8.5264159,7.35275053 C8.69631015,7.35275053 8.86603396,7.34818763 9.03588559,7.33897655 Z" id="Path"></path>
                <path d="M11.1560482,7.21040512 L11.1560482,9.3965032 C10.9908839,9.41027719 10.8256344,9.42405117 10.6513085,9.4378678 L10.6513085,7.25176972 C10.8256344,7.23795309 10.9909265,7.2241791 11.1560482,7.21040512 Z" id="Path"></path>
                <path d="M13.2809408,6.93023454 L13.2809408,9.11172708 C13.1202934,9.1438806 12.950527,9.17142857 12.7714711,9.19897655 L12.7714711,7.01287846 C12.950527,6.98533049 13.1202508,6.95778252 13.2809408,6.93023454 Z" id="Path"></path>
                <path d="M15.4011035,6.36993603 L15.4011035,8.55142857 C15.2497454,8.61569296 15.0798938,8.67539446 14.8963637,8.73053305 L14.8963637,6.54904051 C15.0798938,6.49394456 15.2497454,6.43424307 15.4011035,6.36993603 Z" id="Path"></path>
                <ellipse id="Oval" cx="10.2752997" cy="1.89897655" rx="8.6982277" ry="1.87185501"></ellipse>
            </g>
            <path d="M20,5.47263682 L20,7.66931262 C20,7.98773291 19.6325791,8.28772759 18.9802631,8.55078535 C18.8287739,8.61536069 18.6587751,8.67535106 18.475086,8.73075644 C18.0203627,8.87841844 17.4737308,9.00765483 16.8582635,9.11379493 C16.6974769,9.14610403 16.5275634,9.1737853 16.3483524,9.20146657 C15.8476961,9.27992539 15.3056704,9.34454359 14.7315299,9.39990613 C14.5662225,9.41374676 14.4008298,9.4275874 14.2263528,9.44147088 C13.7072722,9.48299278 13.1698952,9.51067405 12.6095303,9.52914252 C12.4395315,9.53835532 12.269618,9.54298315 12.0996192,9.54298315 C11.8332337,9.54761098 11.5622422,9.55223881 11.291208,9.55223881 C11.0203017,9.55223881 10.7492248,9.54761098 10.4827967,9.54298315 C10.3129259,9.54298315 10.1428844,9.53835532 9.97761965,9.52914252 C9.42181825,9.51067405 8.87979247,9.48299278 8.36079714,9.44147088 C8.18619225,9.42763025 8.0163214,9.41378961 7.85088604,9.39990613 C7.27674558,9.34454359 6.73476245,9.27992539 6.23406353,9.20146657 C6.05958658,9.1737853 5.89415122,9.14610403 5.72888646,9.11379493 C5.1133765,9.00765483 4.56678728,8.87841844 4.11206395,8.73075644 C3.92833218,8.67539391 3.75837603,8.61077571 3.60215285,8.55078535 C2.95457086,8.28772759 2.58706468,7.98777576 2.58706468,7.66931262 L2.58706468,5.47263682 C2.58706468,5.79105711 2.95452821,6.09567962 3.60215285,6.35869452 C3.75837603,6.41868489 3.92828953,6.48326023 4.11206395,6.53866562 C4.56678728,6.68174264 5.11333385,6.81093618 5.72888646,6.92170411 C5.89419387,6.94938538 6.05958658,6.97706664 6.23406353,7.00474791 C6.73476245,7.08320674 7.27674558,7.14782494 7.85088604,7.20318747 C8.01627875,7.21702811 8.18619225,7.23086874 8.36079714,7.24475223 C8.87979247,7.28627413 9.42181825,7.31399825 9.97761965,7.33242386 C10.1429271,7.34167952 10.3129259,7.3462645 10.4827967,7.3462645 C10.7492248,7.35089233 11.0202591,7.35552015 11.291208,7.35552015 C11.5622422,7.35552015 11.8332337,7.35089233 12.0996192,7.3462645 C12.269618,7.3462645 12.4395315,7.34167952 12.6095303,7.33242386 C13.1698952,7.3139554 13.7072722,7.28627413 14.2263528,7.24475223 C14.4008298,7.23091159 14.5662651,7.21707096 14.7315299,7.20318747 C15.3056704,7.14782494 15.8476961,7.08320674 16.3483524,7.00474791 C16.5275634,6.97706664 16.6974342,6.94938538 16.8582635,6.92170411 C17.4737308,6.81093618 18.0203627,6.68169979 18.475086,6.53866562 C18.6587751,6.48330308 18.8287739,6.42331272 18.9802631,6.35869452 C19.6325791,6.09567962 20,5.79568494 20,5.47263682 Z" id="Path" fill="#D4A51E"></path>
            <g id="Group" transform="translate(3.582090, 6.368159)" fill="#FCC62D">
                <path d="M0.544444903,0.184506799 L0.544444903,2.35630381 C0.360904043,2.30145274 0.191124488,2.23743151 0.0350636321,2.17799536 L0.0350636321,0.00619834163 C0.191124488,0.0656344942 0.360904043,0.129613267 0.544444903,0.184506799 Z" id="Path"></path>
                <path d="M2.66423958,0.64628325 L2.66423958,2.82266534 C2.48994393,2.7952398 2.32468047,2.76781426 2.15958742,2.73580365 L2.15958742,0.564006633 C2.32468047,0.591432172 2.48994393,0.618857711 2.66423958,0.64628325 Z" id="Path"></path>
                <path d="M4.78872076,0.884070315 L4.78872076,3.0604524 C4.6142973,3.04673964 4.44460295,3.03302687 4.27933949,3.01927164 L4.27933949,0.842889552 C4.44460295,0.856644776 4.6142973,0.870315091 4.78872076,0.884070315 Z" id="Path"></path>
                <path d="M6.90851543,0.984644776 L6.90851543,3.16102687 C6.73882109,3.16102687 6.56895632,3.15644179 6.40386328,3.1473141 L6.40386328,0.970932007 C6.56899893,0.980102156 6.73882109,0.984644776 6.90851543,0.984644776 Z" id="Path"></path>
                <path d="M9.03303922,0.970932007 L9.03303922,3.1473141 C8.86321706,3.15644179 8.69348011,3.16102687 8.52365795,3.16102687 L8.52365795,0.984644776 C8.69348011,0.984644776 8.86321706,0.980102156 9.03303922,0.970932007 Z" id="Path"></path>
                <path d="M11.1528339,0.842889552 L11.1528339,3.01927164 C10.9876982,3.03298441 10.8224774,3.04669718 10.6481817,3.0604524 L10.6481817,0.884070315 C10.8224774,0.870315091 10.9876982,0.856644776 11.1528339,0.842889552 Z" id="Path"></path>
                <path d="M13.2773151,0.564006633 L13.2773151,2.73580365 C13.1166955,2.76781426 12.9469586,2.7952398 12.7679338,2.82266534 L12.7679338,0.64628325 C12.9469586,0.618857711 13.1166955,0.591432172 13.2773151,0.564006633 Z" id="Path"></path>
                <path d="M15.3971098,0.00619834163 L15.3971098,2.17799536 C15.245778,2.24197413 15.0759559,2.30141028 14.8924576,2.35630381 L14.8924576,0.184506799 C15.0759559,0.129613267 15.245778,0.0701771144 15.3971098,0.00619834163 Z" id="Path"></path>
            </g>
            <path d="M17.4129353,1.89054726 L17.4129353,4.08510776 C17.4129353,4.40852616 17.0454709,4.70882179 16.3931959,4.97218106 C16.2416211,5.03687332 16.0717072,5.09693245 15.8879323,5.15235844 C15.8649445,5.16162471 15.8465627,5.17084807 15.8236175,5.17543831 C15.6628731,5.22164094 15.4837044,5.2724767 15.2954087,5.31867932 C14.9830895,5.39722808 14.643219,5.47114371 14.2711485,5.53583597 C14.105798,5.56354896 13.9358415,5.59126196 13.7613214,5.61897496 C13.6877944,5.62819833 13.6143527,5.64205482 13.5408684,5.65132109 C13.3709118,5.67903409 13.1963918,5.70215685 13.0126596,5.72523671 C12.7324978,5.75758284 12.4431238,5.78992897 12.1445376,5.81300884 C11.9791872,5.83149847 11.8092306,5.84535497 11.6393167,5.85921147 C11.5106871,5.86847773 11.3820574,5.8777011 11.2534278,5.88692446 C11.0789505,5.90078096 10.9043878,5.91004723 10.7252617,5.91927059 C10.4955964,5.92853686 10.261325,5.94239336 10.0224902,5.94698359 C9.85253363,5.95161672 9.68257706,5.95624986 9.51266314,5.95624986 C9.33353703,5.96551612 9.15445356,5.96551612 8.97063604,5.96551612 C8.88337603,5.97014925 8.79615867,5.97014925 8.70424991,5.97014925 C8.61694725,5.97014925 8.52968724,5.97014925 8.44246988,5.96551612 C8.25873766,5.96551612 8.07500544,5.96551612 7.89583668,5.95624986 C7.72588011,5.95624986 7.55592354,5.95161672 7.39061572,5.94698359 C7.1517809,5.94239336 6.91290342,5.92849396 6.68323815,5.91927059 C6.50415468,5.91004723 6.32494326,5.90078096 6.15507199,5.88692446 C6.02644238,5.8777011 5.89781277,5.86843483 5.77378925,5.85921147 C5.59922658,5.84535497 5.42931267,5.83149847 5.2639622,5.81300884 C4.96537602,5.78992897 4.67608734,5.75758284 4.40044636,5.72523671 C4.21675679,5.70215685 4.04215147,5.67903409 3.8722802,5.65132109 C3.79410445,5.64205482 3.72066274,5.62819833 3.64717838,5.61897496 C3.47261571,5.59126196 3.30270179,5.56354896 3.14195742,5.53583597 C2.76988689,5.46651058 2.4254103,5.39722808 2.11309112,5.31867932 C1.9247528,5.2724767 1.75019013,5.22164094 1.58483966,5.17084807 C1.56650056,5.16621494 1.54351271,5.15699158 1.52513096,5.15235844 C1.34144139,5.09229932 1.17144217,5.03224019 1.0153039,4.97218106 C0.367464438,4.70882179 0,4.40852616 0,4.08510776 L0,1.89054726 C0,2.23704553 0.431779245,2.56046392 1.18048377,2.83767969 C1.28612553,2.87465896 1.40093685,2.91622845 1.52496036,2.95316482 C1.54334211,2.95779795 1.56632996,2.96702131 1.58466907,2.97165445 C1.75001953,3.02249021 1.9245822,3.07332597 2.11292052,3.1194857 C2.4252397,3.19803446 2.76971629,3.27195008 3.14178683,3.33664234 C3.3025312,3.36435534 3.47248776,3.39206833 3.64700778,3.41978133 C3.72053479,3.4290476 3.7939765,3.4428612 3.87210961,3.45212746 C4.04198087,3.47984046 4.21658619,3.50296322 4.40027576,3.52604309 C4.67591674,3.55838922 4.96524807,3.59073535 5.2637916,3.61381521 C5.42914207,3.63230484 5.59909864,3.64616134 5.77361866,3.66001784 C5.89764217,3.6692412 6.02627178,3.67850747 6.1549014,3.68773084 C6.32477266,3.70158733 6.50398408,3.7108107 6.68306755,3.72003407 C6.91273283,3.72930033 7.15156765,3.74315683 7.39044513,3.74778996 C7.55579559,3.7523802 7.72575216,3.75701333 7.89566608,3.75701333 C8.0747922,3.76627959 8.25856707,3.76627959 8.44229929,3.76627959 C8.52955929,3.77091273 8.61677665,3.77091273 8.70407931,3.77091273 C8.79598807,3.77091273 8.88320543,3.77091273 8.97046544,3.76627959 C9.15424031,3.76627959 9.33336643,3.76627959 9.51249255,3.75701333 C9.68244912,3.75701333 9.85240568,3.7523802 10.0223196,3.74778996 C10.2611971,3.74315683 10.4954258,3.72930033 10.7250911,3.72003407 C10.9042172,3.7108107 11.0787799,3.70154444 11.2532572,3.68773084 C11.3818868,3.67846457 11.5105165,3.6692412 11.6391461,3.66001784 C11.8091026,3.64616134 11.9790592,3.63230484 12.144367,3.61381521 C12.4429532,3.59073535 12.7323272,3.55838922 13.012489,3.52604309 C13.1962212,3.50296322 13.3707839,3.47984046 13.5406978,3.45212746 C13.6142248,3.4428612 13.6876665,3.4290476 13.7611508,3.41978133 C13.9357135,3.39206833 14.1056274,3.36435534 14.2709779,3.33664234 C14.6430484,3.27195008 14.9829616,3.19803446 15.2952381,3.1194857 C15.4835764,3.07328307 15.6627025,3.02249021 15.8234469,2.97624468 C15.8463921,2.97161155 15.8647739,2.96238818 15.8877617,2.95316482 C16.0071791,2.91618555 16.1220331,2.87924919 16.2276749,2.83767969 C16.9811561,2.56046392 17.4129353,2.23704553 17.4129353,1.89054726 Z" id="Path" fill="#D4A51E"></path>
            <g id="Group" transform="translate(0.995025, 2.388060)" fill="#FCC62D">
                <path d="M0.544913554,0.414659234 L0.544913554,2.74331955 C0.361415299,2.68289876 0.191593139,2.62247797 0.0356174926,2.56205718 L0.0356174926,0.414702392 L0.544913554,0.414702392 L0.544913554,0.414659234 Z" id="Path"></path>
                <path d="M2.66479344,0.158992987 L2.66479344,3.21274591 C2.49041258,3.18486603 2.32067563,3.15698615 2.16009868,3.12910628 L2.16009868,0.158992987 L2.66479344,0.158992987 Z" id="Path"></path>
                <path d="M4.78923202,0.0334903794 L4.78923202,3.4543859 C4.61485116,3.44044596 4.44511421,3.42650602 4.27993596,3.40790505 L4.27993596,0.0334903794 L4.78923202,0.0334903794 Z" id="Path"></path>
                <path d="M6.90906929,0.00561050171 L6.90906929,3.55200863 C6.73928974,3.55200863 6.56951018,3.5473476 6.40437454,3.54268657 L6.40437454,0.00561050171 L6.90906929,0.00561050171 Z" id="Path"></path>
                <path d="M9.03350787,0.0334903794 L9.03350787,3.54272972 C8.86372832,3.54739076 8.69394876,3.55205179 8.52421181,3.55205179 L8.52421181,0.0334903794 L9.03350787,0.0334903794 Z" id="Path"></path>
                <path d="M11.1533878,0.158992987 L11.1533878,3.40794821 C10.9882095,3.42654918 10.8184299,3.44048912 10.648693,3.45442906 L10.648693,0.158992987 L11.1533878,0.158992987 Z" id="Path"></path>
                <path d="M13.2778263,0.414659234 L13.2778263,3.12910628 C13.1126481,3.15698615 12.9428685,3.18486603 12.7685303,3.21274591 L12.7685303,0.414659234 L13.2778263,0.414659234 Z" id="Path"></path>
                <path d="M15.3976636,0.414659234 L15.3976636,2.56201403 C15.2462467,2.62709585 15.0765097,2.68751663 14.8929263,2.74327639 L14.8929263,0.414616076 L15.3976636,0.414616076 L15.3976636,0.414659234 Z" id="Path"></path>
            </g>
            <path d="M8.70640368,0 C3.89801857,0 0,0.846408966 0,1.89054726 C0,2.93468556 3.89801857,3.78109453 8.70640368,3.78109453 C13.5148741,3.78109453 17.4129353,2.93464251 17.4129353,1.89054726 C17.4129353,0.846408966 13.5148741,0 8.70640368,0 Z" id="Path" fill="#FCC62D"></path>
            <path d="M8.706425,0.497512438 C4.39258488,0.497512438 0.895522388,1.12117572 0.895522388,1.89056882 C0.895522388,2.65991881 4.39258488,3.28358209 8.706425,3.28358209 C13.0203078,3.28358209 16.5174129,2.65991881 16.5174129,1.89056882 C16.5174129,1.12117572 13.0203078,0.497512438 8.706425,0.497512438 Z" id="Path" fill="#D4A51E"></path>
            <path d="M9.83628007,1.72642129 C10.1619749,1.65110769 10.3201646,1.54094375 10.2750408,1.42809901 C10.2021846,1.24593058 9.61087465,1.11059229 8.95059701,1.11059229 L8.81599472,1.11059229 L8.81573833,0.995024876 L8.5771718,0.995024876 L8.56888201,1.11059229 L8.28057672,1.11059229 L8.29882281,0.995024876 L8.06025628,0.995024876 L8.03350674,1.11059229 L7.78639403,1.11059229 L7.46933086,1.11059229 L7.41967757,1.23474664 L7.74849174,1.23474664 L7.62346116,1.64432193 L7.25589009,1.64432193 L7.18875987,1.81216486 L7.57222683,1.81216486 L7.39873944,2.38036785 L6.96147429,2.38036785 L6.86567164,2.61988017 L7.32562689,2.61988017 L7.68413902,2.61988017 L7.62260655,2.88557214 L8.00068942,2.88557214 L8.04260842,2.61988017 L8.46085833,2.61988017 L8.44184308,2.88557214 L8.81992596,2.88557214 L8.81932773,2.61988017 L9.01460787,2.61988017 C9.9724634,2.61988017 10.6480814,2.36068075 10.5348873,2.07764739 C10.4762178,1.9309995 10.2154312,1.8047089 9.83628007,1.72642129 Z M9.00443792,2.38032596 L8.08033979,2.38032596 L8.16994646,1.81212297 L8.9803377,1.81212297 C9.44930917,1.81212297 9.85986752,1.92706208 9.89789801,2.0776055 C9.93874873,2.23941664 9.53917222,2.38032596 9.00443792,2.38032596 Z M8.97324438,1.64423815 L8.19643961,1.64423815 L8.26104871,1.23466286 L8.95589564,1.23466286 C9.35799327,1.23466286 9.70642091,1.31881471 9.73398233,1.42805713 C9.76325299,1.54421097 9.42273056,1.64423815 8.97324438,1.64423815 Z" id="Shape" fill="#FCC62D"></path>
        </g>
    </g>
</svg>