<svg xmlns="http://www.w3.org/2000/svg" width="18" height="18" viewBox="0 0 18 18">
    <path fill="#F7A800" d="M0 14.249v1.501C0 16.991 3.023 18 6.75 18s6.75-1.009 6.75-2.25v-1.501c-1.452 1.023-4.106 1.501-6.75 1.501S1.452 15.272 0 14.249zM11.25 4.5C14.977 4.5 18 3.491 18 2.25S14.977 0 11.25 0 4.5 1.009 4.5 2.25 7.523 4.5 11.25 4.5zM0 10.56v1.815c0 1.241 3.023 2.25 6.75 2.25s6.75-1.009 6.75-2.25v-1.814c-1.452 1.195-4.11 1.814-6.75 1.814-2.64 0-5.298-.619-6.75-1.814zm14.625.388C16.639 10.558 18 9.833 18 9V7.499c-.816.576-2.014.97-3.375 1.213v2.236zM6.75 5.625C3.023 5.625 0 6.884 0 8.438 0 9.99 3.023 11.25 6.75 11.25s6.75-1.259 6.75-2.813c0-1.553-3.023-2.812-6.75-2.812zm7.71 1.98c2.11-.38 3.54-1.126 3.54-1.98V4.124c-1.248.882-3.393 1.357-5.65 1.47 1.037.502 1.8 1.177 2.11 2.01z"/>
</svg>
