<svg xmlns="http://www.w3.org/2000/svg" width="13" height="13" viewBox="0 0 13 13">
    <path fill="#FC9B00" d="M0 10.29v1.085C0 12.271 2.184 13 4.875 13s4.875-.729 4.875-1.625v-1.084c-1.049.739-2.966 1.084-4.875 1.084-1.91 0-3.826-.345-4.875-1.084zm8.125-7.04C10.816 3.25 13 2.521 13 1.625S10.816 0 8.125 0 3.25.729 3.25 1.625 5.434 3.25 8.125 3.25zM0 7.627v1.31c0 .897 2.184 1.626 4.875 1.626s4.875-.73 4.875-1.626v-1.31c-1.049.864-2.968 1.31-4.875 1.31S1.049 8.492 0 7.627zm10.563.28C12.017 7.625 13 7.102 13 6.5V5.416c-.59.416-1.455.7-2.438.876v1.615zM4.875 4.062C2.184 4.063 0 4.973 0 6.095c0 1.122 2.184 2.031 4.875 2.031S9.75 7.216 9.75 6.094c0-1.123-2.184-2.032-4.875-2.032zm5.568 1.43C11.967 5.218 13 4.679 13 4.062V2.978c-.901.638-2.45.98-4.08 1.062.749.363 1.3.85 1.523 1.452z"/>
</svg>
