<?xml version="1.0" encoding="UTF-8"?>
<svg width="37px" height="35px" viewBox="0 0 37 35" version="1.1" xmlns="http://www.w3.org/2000/svg" xmlns:xlink="http://www.w3.org/1999/xlink">
    <!-- Generator: Sketch 62 (91390) - https://sketch.com -->
    <title>Combined Shape</title>
    <desc>Created with Sketch.</desc>
    <defs>
        <linearGradient x1="0%" y1="2.73919753%" x2="100%" y2="97.2608025%" id="linearGradient-1">
            <stop stop-color="#F48836" offset="0%"></stop>
            <stop stop-color="#F4364C" offset="100%"></stop>
        </linearGradient>
    </defs>
    <g id="Page-1" stroke="none" stroke-width="1" fill="none" fill-rule="evenodd">
        <g id="Laptop-Dark-(Laptop)" transform="translate(-309.000000, -285.000000)" fill="url(#linearGradient-1)" fill-rule="nonzero">
            <g id="provably-fair" transform="translate(282.000000, 285.000000)">
                <path d="M45.5,0 C55.4379339,0 63.5,7.83172132 63.5,17.5 C63.5,27.1682787 55.4379339,35 45.5,35 C35.5620661,35 27.5,27.1682787 27.5,17.5 C27.5,7.83172132 35.5620661,0 45.5,0 Z M45.5,1 C36.1079677,1 28.5,8.39059719 28.5,17.5 C28.5,26.6094028 36.1079677,34 45.5,34 C54.8920323,34 62.5,26.6094028 62.5,17.5 C62.5,8.39059719 54.8920323,1 45.5,1 Z M45.2324738,8.29933621 C45.404759,8.2335546 45.595241,8.2335546 45.7675262,8.29933621 L45.7675262,8.29933621 L52.4460976,10.8493362 C52.7366371,10.9602695 52.9285714,11.2390026 52.9285714,11.55 L52.9285714,11.55 L52.9285714,17.5 C52.9285714,19.9858804 51.5694019,22.2346881 49.3381902,24.2224949 C48.5752557,24.9022002 47.7608034,25.503414 46.9461834,26.0218086 C46.8033987,26.1126716 46.6655569,26.1977869 46.533463,26.2770664 L46.533463,26.2770664 L46.1552297,26.4973095 L45.8402623,26.6683723 C45.6264755,26.7772092 45.3735245,26.7772092 45.1597377,26.6683723 L45.1597377,26.6683723 L44.8447703,26.4973095 C44.724977,26.4297896 44.5986309,26.3563459 44.466537,26.2770664 L44.466537,26.2770664 L44.0538166,26.0218086 C43.2391966,25.503414 42.4247443,24.9022002 41.6618098,24.2224949 C39.4305981,22.2346881 38.0714286,19.9858804 38.0714286,17.5 L38.0714286,17.5 L38.0714286,11.55 C38.0714286,11.2390026 38.2633629,10.9602695 38.5539024,10.8493362 L38.5539024,10.8493362 Z M45.5,9.802 L39.571,12.066 L39.5714286,17.5 C39.5714286,19.3906796 40.6192975,21.2066299 42.4107495,22.8758066 L42.4107495,22.8758066 L42.6596188,23.1025051 C43.3576218,23.7243623 44.1084597,24.2786172 44.8591298,24.7563164 C44.9902709,24.8397698 45.1165719,24.9177649 45.2372071,24.9901822 L45.2372071,24.9901822 L45.5,25.143 L45.7627929,24.9901822 L46.1408702,24.7563164 C46.8915403,24.2786172 47.6423782,23.7243623 48.3403812,23.1025051 C50.2832767,21.3715619 51.4285714,19.4766196 51.4285714,17.5 L51.4285714,17.5 L51.428,12.066 L45.5,9.802 Z M45.5,11.4285714 L49.75,13.25 L49.75,17.5 C49.75,21.1428571 45.5,23.5714286 45.5,23.5714286 C45.5,23.5714286 41.25,21.1428571 41.25,17.5 L41.25,17.5 L41.25,13.25 L45.5,11.4285714 Z" id="Combined-Shape"></path>
            </g>
        </g>
    </g>
</svg>