<?xml version="1.0" encoding="UTF-8"?>
<svg width="20px" height="17px" viewBox="0 0 20 17" version="1.1" xmlns="http://www.w3.org/2000/svg" xmlns:xlink="http://www.w3.org/1999/xlink">
    <!-- Generator: Sketch 62 (91390) - https://sketch.com -->
    <title>Daily case</title>
    <desc>Created with Sketch.</desc>
    <g id="Page-1" stroke="none" stroke-width="1" fill="none" fill-rule="evenodd">
        <g id="Unbox-2" transform="translate(-574.000000, -284.000000)" stroke="#76797B">
            <g id="Group-3" transform="translate(359.000000, 285.000000)">
                <g id="Daily-case" transform="translate(216.000000, 0.000000)">
                    <g id="48px-gift-copy" stroke-linejoin="round">
                        <path d="M8.60553502,6.57142857 C6.57253983,6.57142857 3.89450435,6.57142857 0.571428571,6.57142857 C0.342857143,6.57142857 0.142857143,6.37142857 0.142857143,6.14285714 L0.142857143,3.57142857 C0.142857143,3.34285714 0.342857143,3.14285714 0.571428571,3.14285714 L13.4285714,3.14285714 C13.6571429,3.14285714 13.8571429,3.34285714 13.8571429,3.57142857 L13.8571429,5.02300513" id="Path" stroke-linecap="round"></path>
                        <path d="M8.19660499,13.4285714 L7,13.4285714 L3.05714286,13.4285714 C1.91428571,13.4285714 1,12.5142857 1,11.3714286 L1,6.57142857" id="Path" stroke-linecap="round"></path>
                        <path d="M6.02857143,0.485714286 C5.6,-1.38777878e-16 4.82857143,-0.0571428571 4.34285714,0.4 C3.85714286,0.857142857 3.8,1.6 4.25714286,2.08571429 C4.28571429,2.11428571 4.31428571,2.14285714 4.34285714,2.17142857 C4.8,2.62857143 7,3.14285714 7,3.14285714 C7,3.14285714 6.48571429,0.942857143 6.02857143,0.485714286 Z" id="Path" stroke-linecap="round"></path>
                        <path d="M7.97142857,0.485714286 C8.45714286,0.0571428571 9.2,0.0857142857 9.65714286,0.571428571 C10.0571429,1.02857143 10.0571429,1.71428571 9.65714286,2.14285714 C9.2,2.6 7,3.11428571 7,3.11428571 C7,3.11428571 7.51428571,0.942857143 7.97142857,0.485714286 Z" id="Path" stroke-linecap="round"></path>
                        <line x1="7" y1="2.97142857" x2="7" y2="13.4285714" id="Path"></line>
                    </g>
                    <g id="Group-5" transform="translate(9.500000, 7.000000)">
                        <circle id="Oval-Copy-4" cx="4.17888797" cy="4.17888797" r="4.17888797"></circle>
                        <polyline id="Path-209-Copy" stroke-linecap="round" stroke-linejoin="round" points="3.99952958 1.9254525 3.99952958 4.53784619 5.74506548 4.53784619"></polyline>
                    </g>
                </g>
            </g>
        </g>
    </g>
</svg>