<?xml version="1.0" encoding="UTF-8"?>
<svg width="22px" height="22px" viewBox="0 0 22 22" version="1.1" xmlns="http://www.w3.org/2000/svg" xmlns:xlink="http://www.w3.org/1999/xlink">
    <!-- Generator: Sketch 51.2 (57519) - http://www.bohemiancoding.com/sketch -->
    <title>Icon</title>
    <desc>Created with Sketch.</desc>
    <defs></defs>
    <g id="Page-1" stroke="none" stroke-width="1" fill="none" fill-rule="evenodd">
        <g id="0.1-Style-Guide---Basic-Styles" transform="translate(-501.000000, -11487.000000)" fill="#B8B8B8" fill-rule="nonzero">
            <g id="Group-75" transform="translate(116.000000, 11055.000000)">
                <g id="Group-71" transform="translate(351.000000, 0.000000)">
                    <g id="Group-18" transform="translate(0.000000, 408.000000)">
                        <g id="Icon" transform="translate(30.000000, 20.000000)">
                            <g id="baseline-help-24px" transform="translate(4.000000, 4.000000)">
                                <path d="M11,0 C4.928,0 0,4.928 0,11 C0,17.072 4.928,22 11,22 C17.072,22 22,17.072 22,11 C22,4.928 17.072,0 11,0 Z M12.1,16.5 L9.9,16.5 L9.9,14.3 L12.1,14.3 L12.1,16.5 Z M12.1,12.1 L9.9,12.1 L9.9,5.5 L12.1,5.5 L12.1,12.1 Z" id="Shape"></path>
                            </g>
                        </g>
                    </g>
                </g>
            </g>
        </g>
    </g>
</svg>