<svg xmlns="http://www.w3.org/2000/svg" width="15" height="9" viewBox="0 0 15 9">
    <defs>
        <linearGradient id="fi9mcxyvaa" x1="0%" x2="100%" y1="32.699%" y2="67.301%">
            <stop offset="0%" stop-color="#F48836"/>
            <stop offset="100%" stop-color="#F4364C"/>
        </linearGradient>
    </defs>
    <path fill="url(#fi9mcxyvaa)" d="M9.77 0c.282 0 .51.23.51.51v.936h2.424c.159 0 .308.074.405.2l1.7 2.209c.069.089.106.199.106.31v2.978c0 .283-.229.51-.51.51h-1.11c-.21.594-.776 1.02-1.441 1.02s-1.23-.426-1.441-1.02h-3.75c-.211.594-.777 1.02-1.442 1.02-.665 0-1.23-.426-1.441-1.02h-.6c-.281 0-.51-.227-.51-.51 0-.28.229-.51.51-.51h.6c.21-.592.776-1.02 1.441-1.02s1.23.428 1.441 1.02H9.26V1.02H3.18c-.281 0-.51-.227-.51-.51 0-.28.229-.51.51-.51zm2.084 6.633c-.282 0-.51.23-.51.51s.228.51.51.51c.281 0 .51-.23.51-.51s-.229-.51-.51-.51zm-6.633 0c-.281 0-.51.23-.51.51s.229.51.51.51c.282 0 .51-.23.51-.51s-.228-.51-.51-.51zm7.232-4.166h-2.172v4.166h.131c.211-.592.777-1.02 1.442-1.02.665 0 1.23.428 1.441 1.02h.6V4.342l-1.442-1.875zM4.2 4c.211 0 .383.17.383.383 0 .209-.172.382-.383.382H2.053c-.211 0-.383-.173-.383-.382 0-.212.172-.383.383-.383zm-.224-1.5c.21 0 .382.17.382.383 0 .209-.171.382-.382.382H.553c-.211 0-.383-.173-.383-.382 0-.212.172-.383.383-.383z"/>
</svg>
