<svg xmlns="http://www.w3.org/2000/svg" width="18" height="13" viewBox="0 0 18 13">
    <path fill="#FFF" fill-rule="nonzero" d="M15.237 1.625S13.398.167 11.227 0l-.196.397c1.963.487 2.864 1.184 3.805 2.04C13.213 1.599 11.613.813 8.821.813c-2.79 0-4.391.785-6.014 1.625C3.748 1.58 4.82.806 6.61.397L6.416 0c-2.278.217-4.01 1.625-4.01 1.625S.352 4.642 0 10.563C2.07 12.98 5.213 13 5.213 13l.658-.887A8.025 8.025 0 0 1 2.406 9.75c1.298.995 3.258 2.031 6.415 2.031 3.158 0 5.118-1.036 6.416-2.031a8.025 8.025 0 0 1-3.465 2.363l.658.887s3.144-.019 5.213-2.438c-.353-5.92-2.406-8.937-2.406-8.937zM6.215 8.938c-.775 0-1.403-.727-1.403-1.626 0-.898.628-1.625 1.403-1.625s1.404.727 1.404 1.625c0 .899-.629 1.625-1.404 1.625zm5.213 0c-.776 0-1.404-.727-1.404-1.626 0-.898.628-1.625 1.404-1.625.775 0 1.403.727 1.403 1.625 0 .899-.628 1.625-1.403 1.625z"/>
</svg>
