<svg xmlns="http://www.w3.org/2000/svg" width="36" height="36" viewBox="0 0 36 36">
    <defs>
        <linearGradient id="5vd99not6a" x1="0%" x2="100%" y1="0%" y2="100%">
            <stop offset="0%" stop-color="#F48836"/>
            <stop offset="100%" stop-color="#F4364C"/>
        </linearGradient>
    </defs>
    <g fill="none" fill-rule="evenodd">
        <g fill="#FFF">
            <path fill-rule="nonzero" d="M18 3.035c-.388 0-.703.315-.703.703V5.07c0 .388.315.703.703.703.388 0 .703-.315.703-.703V3.738c0-.388-.315-.703-.703-.703zM18 30.537c-.388 0-.703.315-.703.704v1.331c0 .389.315.704.703.704.388 0 .703-.315.703-.704v-1.331c0-.389-.315-.704-.703-.704zM32.417 17.452h-1.332c-.388 0-.703.315-.703.703 0 .389.315.703.703.703h1.332c.389 0 .703-.314.703-.703 0-.388-.314-.703-.703-.703zM4.915 17.452H3.583c-.389 0-.703.315-.703.703 0 .389.314.703.703.703h1.332c.388 0 .703-.314.703-.703 0-.388-.315-.703-.703-.703zM27.697 7.463l-.941.942c-.275.275-.275.72 0 .995.137.137.317.206.497.206s.36-.069.497-.206l.942-.942c.274-.275.274-.72 0-.995-.275-.274-.72-.274-.995 0zM8.25 26.91l-.942.943c-.274.274-.274.72 0 .994.138.137.317.206.497.206s.36-.069.498-.206l.941-.942c.275-.274.275-.72 0-.994-.274-.275-.72-.275-.994 0zM27.75 26.91c-.275-.274-.72-.274-.994 0-.275.275-.275.72 0 .995l.941.942c.138.137.318.206.498.206s.36-.069.497-.206c.274-.275.274-.72 0-.994l-.942-.942zM8.303 7.463c-.275-.274-.72-.274-.995 0-.274.275-.274.72 0 .995l.942.942c.137.137.317.206.497.206s.36-.069.497-.206c.275-.275.275-.72 0-.995l-.941-.942z"/>
            <path d="M30.728 5.272C27.328 1.872 22.808 0 18 0S8.672 1.872 5.272 5.272C1.872 8.672 0 13.192 0 18s1.872 9.328 5.272 12.728C8.672 34.128 13.192 36 18 36s9.328-1.872 12.728-5.272C34.128 27.328 36 22.808 36 18s-1.872-9.328-5.272-12.728zM18 34.594C8.85 34.594 1.406 27.15 1.406 18 1.406 8.85 8.85 1.406 18 1.406c9.15 0 16.594 7.444 16.594 16.594 0 9.15-7.444 16.594-16.594 16.594z"/>
        </g>
        <g fill-rule="nonzero" transform="translate(7.594 7.594)">
            <circle cx="10.406" cy="10.406" r="10.357" fill="url(#5vd99not6a)"/>
            <path fill="#FFF" d="M11.598 9.871c-.225-.08-.434-.154-.628-.225V6.067c.585.096 1.015.359 1.233.67.223.317.662.394.98.171.318-.223.394-.662.171-.98-.446-.635-1.284-1.157-2.384-1.279v-.424c0-.388-.315-.703-.703-.703-.389 0-.704.315-.704.703v.484c-.203.037-.41.087-.624.151-1.103.333-1.936 1.408-2.025 2.614-.088 1.184.546 2.214 1.696 2.757.2.094.53.23.953.392v4.185c-.66-.142-1.3-.438-1.692-.924-.243-.303-.686-.35-.988-.107-.303.244-.35.686-.107.989.704.873 1.773 1.312 2.787 1.474v.347c0 .389.315.703.704.703.388 0 .703-.314.703-.703v-.29l.014-.002c2.12-.185 3.035-1.504 3.184-2.675.203-1.6-.854-3.142-2.57-3.749zM9.21 8.96c-.838-.395-.92-1.035-.894-1.38.047-.63.48-1.207 1.029-1.372.073-.022.146-.042.218-.06V9.11c-.16-.065-.277-.116-.353-.152zm3.563 4.483c-.1.787-.77 1.32-1.803 1.44v-3.741l.159.056c1.269.449 1.741 1.478 1.644 2.245z"/>
        </g>
    </g>
</svg>
