<?xml version="1.0" encoding="UTF-8"?>
<svg width="14px" height="17px" viewBox="0 0 14 17" version="1.1" xmlns="http://www.w3.org/2000/svg" xmlns:xlink="http://www.w3.org/1999/xlink">
    <title>email</title>
    <g id="Page-1" stroke="none" stroke-width="1" fill="none" fill-rule="evenodd">
        <g id="Partner-page-(White)" transform="translate(-508.000000, -408.000000)" fill="#FFFFFF" fill-rule="nonzero">
            <g id="Group-2" transform="translate(374.000000, 335.000000)">
                <g id="email" transform="translate(134.000000, 73.000000)">
                    <path d="M7,1.86666667 C5.19876,1.86666667 3.73333333,3.33209333 3.73333333,5.13333333 C3.73333333,6.25156 4.29725333,7.28046667 5.24181778,7.88564 C6.20635556,8.5036 7.39035111,8.56927556 8.49062667,8.06306667 C8.72473778,7.95536 8.82724889,7.67822222 8.71951111,7.44408 C8.61180444,7.20996889 8.33469778,7.10745778 8.10052444,7.21516444 C7.29599111,7.58532444 6.43751111,7.54323111 5.74532,7.09977333 C5.06989778,6.66704889 4.66666667,5.93192444 4.66666667,5.13333333 C4.66666667,3.84673333 5.7134,2.8 7,2.8 C8.2866,2.8 9.33333333,3.84673333 9.33333333,5.13333333 C9.33333333,5.39065333 9.12398667,5.6 8.86666667,5.6 C8.63152889,5.6 8.41188444,5.42167111 8.40006222,5.14042667 C8.40003111,5.13806222 8.4,5.13569778 8.4,5.13333333 C8.4,4.36137333 7.77196,3.73333333 7,3.73333333 C6.22804,3.73333333 5.6,4.36137333 5.6,5.13333333 C5.6,5.90529333 6.22804,6.53333333 7,6.53333333 C7.35827556,6.53333333 7.68540889,6.39790667 7.93330222,6.17574222 C8.18116444,6.39793778 8.50836,6.53333333 8.86666667,6.53333333 C9.63862667,6.53333333 10.2666667,5.90529333 10.2666667,5.13333333 C10.2666667,3.33209333 8.80124,1.86666667 7,1.86666667 Z M7.46010222,5.20818667 C7.42407556,5.42997778 7.23177778,5.6 7,5.6 C6.74268,5.6 6.53333333,5.39065333 6.53333333,5.13333333 C6.53333333,4.87601333 6.74268,4.66666667 7,4.66666667 C7.23927556,4.66666667 7.4368,4.84773333 7.4634,5.07997778 C7.45643111,5.12238222 7.45528,5.16553333 7.46010222,5.20818667 Z" id="Shape"></path>
                    <path d="M14,6.12814222 C13.9998444,6.00746222 13.9512489,5.88684444 13.8632978,5.79889333 L12.1333333,4.06892889 L12.1333333,0.466666667 C12.1333333,0.208942222 11.9243911,0 11.6666667,0 L2.33333333,0 C2.07560889,0 1.86666667,0.208942222 1.86666667,0.466666667 L1.86666667,4.06892889 L0.136702222,5.79889333 C0.135084444,5.80051111 0.133715556,5.80231556 0.132128889,5.80396444 C0.0446755556,5.89406222 0.000217777778,6.01268889 0,6.12814222 C0,6.12845333 0,6.12873333 0,6.12904444 L0,14.5288889 C0,15.3018444 0.628942222,15.9288889 1.4,15.9288889 L12.6,15.9288889 C13.3727689,15.9288889 14,15.3002267 14,14.5288889 L14,6.12904444 C14,6.12873333 14,6.12845333 14,6.12814222 Z M12.1333333,5.38884889 L12.8733733,6.12888889 L12.1333333,6.86892889 L12.1333333,5.38884889 Z M2.8,4.26237778 C2.8,4.26228444 2.8,4.26216 2.8,4.26206667 L2.8,0.933333333 L11.2,0.933333333 L11.2,4.26206667 C11.2,4.26216 11.2,4.26228444 11.2,4.26237778 L11.2,7.80226222 L8.67337333,10.3288889 L5.32662667,10.3288889 L2.8,7.80226222 L2.8,4.26237778 Z M1.86666667,5.38884889 L1.86666667,6.86892889 L1.12662667,6.12888889 L1.86666667,5.38884889 Z M0.933333333,14.3355956 L0.933333333,7.25551556 L4.47337333,10.7955556 L0.933333333,14.3355956 Z M1.59332444,14.9955556 L5.32662667,11.2622222 L8.67337333,11.2622222 L12.4066756,14.9955556 L1.59332444,14.9955556 Z M13.0666667,14.3355956 L9.52662667,10.7955556 L13.0666667,7.25551556 L13.0666667,14.3355956 Z" id="Shape"></path>
                </g>
            </g>
        </g>
    </g>
</svg>