<svg xmlns="http://www.w3.org/2000/svg" width="17" height="18" viewBox="0 0 17 18">
    <g fill="none" fill-rule="evenodd" stroke="#76797b" stroke-linecap="round">
        <path d="M11.63 12.902v3.077c0 .29-.03.396-.087.503a.593.593 0 0 1-.247.246c-.106.057-.212.087-.502.087H1.999c-.291 0-.397-.03-.503-.087a.593.593 0 0 1-.246-.246c-.057-.107-.087-.212-.087-.503V2c0-.29.03-.396.087-.502a.593.593 0 0 1 .246-.247c.106-.057.212-.087.503-.087h8.795c.29 0 .396.03.502.087.106.057.19.14.247.247.056.106.087.211.087.502v3.077M7.29 8.989h8.178M13.349 11.82l2.423-2.831M15.772 8.989l-2.423-2.83"/>
    </g>
</svg>
