<svg xmlns="http://www.w3.org/2000/svg" width="24" height="24" fill="none" viewBox="0 0 24 24">
    <path fill="#496BAF" d="M17 3.5c0-.133-.053-.26-.146-.353C16.76 3.053 16.633 3 16.5 3H14c-1.259-.063-2.491.375-3.428 1.219C9.635 5.062 9.07 6.242 9 7.5v2.7H6.5c-.133 0-.26.053-.354.147-.093.093-.146.22-.146.353v2.6c0 .133.053.26.146.354.094.093.221.146.354.146H9v6.7c0 .133.053.26.146.354.094.093.221.146.354.146h3c.133 0 .26-.053.354-.146.093-.094.146-.221.146-.354v-6.7h2.62c.111.002.22-.034.309-.1.088-.068.152-.163.181-.27l.72-2.6c.02-.074.023-.151.008-.226-.015-.075-.047-.146-.093-.207-.047-.06-.106-.11-.175-.144-.068-.034-.143-.053-.22-.053H13V7.5c.025-.247.141-.477.326-.643.185-.167.425-.258.674-.257h2.5c.133 0 .26-.053.354-.146.093-.094.146-.221.146-.354V3.5z"/>
</svg>
