<svg xmlns="http://www.w3.org/2000/svg" width="267" height="21" viewBox="0 0 267 21">
    <g fill="none">
        <path fill="#CCD3D8" d="M27.2 20.4h-17C4.566 20.4 0 15.834 0 10.2 0 4.566 4.566 0 10.2 0h17v20.4zM239 20.4h17c5.634 0 10.2-4.566 10.2-10.2C266.2 4.566 261.634 0 256 0h-17v20.4z"/>
        <path fill="#CCD3D8" d="M27 3L239 3 239 16.6 27 16.6z"/>
        <path fill="#343E45" d="M27 3L239 3 239 10 27 10z"/>
        <path fill="#DFE5EA" d="M27 3L239 3 239 10 27 10z"/>
        <path fill="#A7B9C7" d="M90 0L176 0 176 2 90 2z"/>
        <path fill="#DFE5EA" d="M73 18L193 18 193 20 73 20zM27.16 0H10.2C4.566 0 0 4.566 0 10.2c0 3.944 2.261 7.324 5.535 9.024C15.62 16.952 23.76 9.605 27.16 0zM264.286 4.287C262.436 1.7 259.424 0 256 0h-17v19.92c10.928-.384 20.373-6.582 25.286-15.633z"/>
    </g>
</svg>
