<svg xmlns="http://www.w3.org/2000/svg" width="18" height="17" viewBox="0 0 18 17">
    <g fill="none" fill-rule="evenodd">
        <path d="M0.068 1H20.068V21H0.068z" transform="translate(0 -3)"/>
        <path stroke="#76797B" d="M1.65 11.72l7.8-7.802c.196-.196.464-.302.74-.293l5.262.174c.526.017.949.44.966.966l.174 5.261c.01.277-.097.545-.292.74l-7.802 7.802c-.39.39-1.024.39-1.414 0l-5.435-5.435c-.39-.39-.39-1.023 0-1.414z" transform="translate(0 -3)"/>
        <g fill="#757575" fill-rule="nonzero">
            <path d="M.458 1.09v2.247h.749V2.213H2.33v-.749H1.207V1.09h1.498V.342H1.207c-.413 0-.749.334-.749.748zM5.7 1.464v.75c0 .618.504 1.123 1.124 1.123h1.123v-.75H6.824c-.207 0-.375-.166-.375-.373h1.123v-.75H6.45c0-.206.168-.374.375-.374h1.123V.342H6.824C6.204.342 5.7.845 5.7 1.464zM9.444 1.09h1.124V.342H9.444c-.618 0-1.123.503-1.123 1.122v.75c0 .618.505 1.123 1.123 1.123h1.124V2.59H9.444c-.206 0-.374-.168-.374-.375h1.123v-.75H9.07c0-.206.168-.374.374-.374zM5.325 1.464c0-.62-.503-1.122-1.123-1.122H3.08v2.995h.749v-.75h.193l.438.75h.866l-.536-.919c.32-.2.536-.55.536-.954zm-1.123.375h-.374v-.75h.374c.206 0 .375.169.375.374 0 .208-.169.376-.375.376z" transform="translate(0 -3) rotate(-45 18.212 1.823)"/>
        </g>
    </g>
</svg>
