<?xml version="1.0" encoding="UTF-8"?>
<svg width="18px" height="17px" viewBox="0 0 18 17" version="1.1" xmlns="http://www.w3.org/2000/svg" xmlns:xlink="http://www.w3.org/1999/xlink">
    <!-- Generator: Sketch 63.1 (92452) - https://sketch.com -->
    <title>Free box Copy</title>
    <desc>Created with Sketch.</desc>
    <defs>
        <linearGradient x1="0%" y1="33.7696092%" x2="100%" y2="66.2303908%" id="linearGradient-1">
            <stop stop-color="#F48836" offset="0%"></stop>
            <stop stop-color="#F4364C" offset="100%"></stop>
        </linearGradient>
        <linearGradient x1="21.855821%" y1="0%" x2="78.144179%" y2="100%" id="linearGradient-2">
            <stop stop-color="#F48836" offset="0%"></stop>
            <stop stop-color="#F4364C" offset="100%"></stop>
        </linearGradient>
        <linearGradient x1="21.8673308%" y1="0%" x2="78.1326692%" y2="100%" id="linearGradient-3">
            <stop stop-color="#F48836" offset="0%"></stop>
            <stop stop-color="#F4364C" offset="100%"></stop>
        </linearGradient>
    </defs>
    <g id="Page-1" stroke="none" stroke-width="1" fill="none" fill-rule="evenodd">
        <g id="labels" transform="translate(-767.000000, -28.000000)">
            <g id="Header" transform="translate(-2.000000, 0.000000)">
                <g id="Free-box-Copy" transform="translate(768.000000, 25.000000)">
                    <rect id="bound" x="0.0682100156" y="1" width="20" height="20"></rect>
                    <path d="M3.87699674,4.9973229 L14.9099865,4.9973229 C15.1866559,4.9973229 15.4509615,5.11194616 15.6400358,5.31392845 L19.2372756,9.15674939 C19.5972098,9.54125609 19.5972098,10.1390316 19.2372756,10.5235383 L15.6400358,14.3663592 C15.4509615,14.5683415 15.1866559,14.6829648 14.9099865,14.6829648 L8.03923607,14.6829648 L8.03923607,14.6829648 L3.87699674,14.6829648 C3.32471199,14.6829648 2.87699674,14.2352495 2.87699674,13.6829648 L2.87699674,5.9973229 C2.87699674,5.44503816 3.32471199,4.9973229 3.87699674,4.9973229 Z" id="Rectangle" stroke="url(#linearGradient-1)" transform="translate(11.376997, 9.840144) rotate(-45.000000) translate(-11.376997, -9.840144) "></path>
                    <g id="Group" transform="translate(10.348433, 10.936541) rotate(-45.000000) translate(-10.348433, -10.936541) translate(4.848433, 8.936541)" fill-rule="nonzero">
                        <path d="M0.458183571,1.08971734 L0.458183571,3.33653197 L1.20671342,3.33653197 L1.20671342,2.21312466 L2.33012073,2.21312466 L2.33012073,1.46398227 L1.20671342,1.46398227 L1.20671342,1.09032989 L2.7049982,1.09032989 L2.7049982,0.341800044 L1.20671342,0.341800044 C0.793858166,0.341800044 0.458183571,0.676249549 0.458183571,1.08971734 Z" id="Path" fill="url(#linearGradient-2)"></path>
                        <path d="M5.70034266,1.46398227 L5.70034266,2.2137372 C5.70034266,2.83179499 6.20385456,3.33714451 6.82374998,3.33714451 L7.94715729,3.33714451 L7.94715729,2.58738958 L6.82374998,2.58738958 C6.61732235,2.58738958 6.44887251,2.42077737 6.44887251,2.2137372 L7.57227982,2.2137372 L7.57227982,1.46398227 L6.44887251,1.46398227 C6.44887251,1.25816719 6.61732235,1.08971734 6.82374998,1.08971734 L7.94715729,1.08971734 L7.94715729,0.341800044 L6.82374998,0.341800044 C6.20385456,0.341800044 5.70034266,0.844699391 5.70034266,1.46398227 Z" id="Path" fill="url(#linearGradient-3)"></path>
                        <path d="M9.44421698,1.08971734 L10.5676243,1.08971734 L10.5676243,0.341800044 L9.44421698,0.341800044 C8.82554665,0.341800044 8.32080967,0.844699391 8.32080967,1.46398227 L8.32080967,2.2137372 C8.32080967,2.83179499 8.82554665,3.33714451 9.44421698,3.33714451 L10.5676243,3.33714451 L10.5676243,2.58861467 L9.44421698,2.58861467 C9.2384019,2.58861467 9.06995206,2.42077737 9.06995206,2.2137372 L10.1933594,2.2137372 L10.1933594,1.46398227 L9.06995206,1.46398227 C9.06995206,1.25816719 9.2384019,1.08971734 9.44421698,1.08971734 Z" id="Path" fill="url(#linearGradient-3)"></path>
                        <path d="M5.3254652,1.46398227 C5.3254652,0.844699391 4.8219533,0.341800044 4.20205788,0.341800044 L3.07865057,0.341800044 L3.07865057,3.33714451 L3.82779296,3.33714451 L3.82779296,2.58738958 L4.02135714,2.58738958 L4.45871419,3.33714451 L5.3254652,3.33714451 L4.78887588,2.41832719 C5.1098494,2.21863756 5.3254652,1.86826189 5.3254652,1.46398227 Z M4.20205788,1.83885973 L3.82779296,1.83885973 L3.82779296,1.08971734 L4.20205788,1.08971734 C4.40848551,1.08971734 4.57693701,1.25755464 4.57693701,1.46336972 C4.5775479,1.67102244 4.40848551,1.83885973 4.20205788,1.83885973 Z" id="Shape" fill="url(#linearGradient-3)"></path>
                    </g>
                </g>
            </g>
        </g>
    </g>
</svg>