<svg xmlns="http://www.w3.org/2000/svg" width="15" height="15" viewBox="0 0 15 15">
    <g fill="none">
        <path fill="#505457" d="M6.987 9.544v3.581H3.475c-.315 0-.572-.254-.575-.569V9.544h4.088zm5.113 0v3.012c-.003.315-.26.569-.575.569H8.012V9.544H12.1zM9.8 1.875c.988 0 1.79.8 1.794 1.788-.002.266-.064.529-.181.768h1.15c.312 0 .562.369.562.819v2.456c0 .45-.25.819-.563.819h-4.55V4.431H6.987v4.094h-4.55c-.312 0-.562-.369-.562-.819V5.25c0-.45.25-.819.563-.819h1.15c-.118-.239-.18-.502-.182-.768.004-.989.806-1.788 1.794-1.788 1.012.048 1.906.673 2.3 1.606.394-.933 1.288-1.558 2.3-1.606zM5.2 2.9c-.29-.026-.57.114-.723.361-.153.248-.153.561 0 .809s.433.387.723.361h1.612C6.57 3.8 6.075 2.9 5.2 2.9zm4.708-.002L9.8 2.9c-.875 0-1.369.906-1.613 1.531H9.8c.29.026.57-.113.723-.361.153-.248.153-.56 0-.809-.153-.247-.433-.387-.723-.361z"/>
    </g>
</svg>
