<svg xmlns="http://www.w3.org/2000/svg" width="24" height="24" fill="none" viewBox="0 0 24 24">
    <path fill="#D74A3C" d="M17.5 14c-.293 1.018-.873 1.93-1.671 2.628-.798.697-1.78 1.149-2.829 1.302-.82.119-1.655.071-2.457-.141-.8-.212-1.55-.584-2.204-1.093-.654-.509-1.198-1.145-1.6-1.87-.402-.724-.653-1.522-.739-2.346-.066-.827.04-1.66.311-2.444.272-.784.703-1.503 1.267-2.113.564-.609 1.248-1.094 2.01-1.425.76-.331 1.582-.5 2.412-.498.778.001 1.548.15 2.27.44.114.051.242.058.36.019.12-.039.219-.12.28-.229l1.44-2.65c.031-.061.05-.128.055-.196.005-.068-.003-.137-.025-.202-.021-.065-.055-.125-.1-.177-.044-.052-.099-.094-.16-.125-1.546-.7-3.245-.995-4.937-.857-1.692.138-3.32.704-4.733 1.645-1.413.942-2.562 2.227-3.34 3.735-.78 1.509-1.161 3.19-1.11 4.887.099 2.52 1.134 4.912 2.905 6.708 1.77 1.796 4.147 2.867 6.665 3.002 2.638.117 5.215-.814 7.169-2.59 1.954-1.776 3.126-4.253 3.261-6.89v-2c-.003-.132-.056-.258-.15-.35-.093-.094-.218-.147-.35-.15h-9c-.133 0-.26.053-.354.146-.093.094-.146.221-.146.354v3c0 .133.053.26.146.354.094.093.221.146.354.146h5"/>
</svg>
