<svg xmlns="http://www.w3.org/2000/svg" width="24" height="20" viewBox="0 0 24 20">
    <path fill="#76797B" stroke="#76797B" stroke-width=".1" d="M17.503.377c-.18-.186-.473-.19-.659-.01-.415.403-1.148 1.061-1.176 1.09l-.005.004c-.463.477-.918.689-1.476.689-1.142 0-2.017.332-2.744 1.04-.595-.58-1.27-.881-2.213-.981L7.765.895c-.185-.19-.485-.19-.67 0L1.038 7.132c-.18.185-.186.484-.01.676l.01.012 3.05 2.938-.167.172c-.647.666-.647 1.743 0 2.41.306.314.727.501 1.187.497-.005.467.171.9.485 1.223.319.329.745.503 1.187.498-.005.467.17.9.485 1.223.306.315.727.502 1.187.497-.005.468.17.9.485 1.224.645.664 1.695.664 2.34 0l.167-.172.168.172c.645.664 1.695.664 2.34 0 .313-.323.489-.755.485-1.223.451.005.872-.174 1.187-.498.327-.337.488-.78.483-1.222.459.005.878-.179 1.189-.499.314-.323.49-.757.484-1.223.44.004.867-.168 1.188-.498.646-.665.646-1.743 0-2.409l-.167-.171c-1.396 1.427-.045.031 4.052-4.187.185-.19.185-.498 0-.688L17.502.377zM4.589 11.618l1.672-1.72c.276-.285.726-.285 1.003 0 .277.285.277.746 0 1.032l-1.672 1.72c-.277.285-.727.285-1.003 0-.277-.284-.277-.746 0-1.032zM6.26 13.34l1.671-1.72c.278-.286.726-.286 1.004 0 .276.284.277.746 0 1.032l-1.672 1.72c-.277.286-.727.286-1.003 0-.278-.285-.278-.746 0-1.032zm1.671 1.721l1.672-1.72c.277-.285.727-.285 1.003 0 .273.28.282.742 0 1.032l-1.671 1.72c-.277.285-.727.285-1.004 0s-.277-.747 0-1.032zm1.672 2.754c-.277-.286-.277-.748 0-1.033l1.672-1.72c.277-.286.726-.287 1.003 0 .28.286.275.749 0 1.032l-1.672 1.72c-.276.285-.726.285-1.003 0zm3.678 0c-.276.284-.726.284-1.003 0l-.167-.173.836-.86c.056-.058.107-.12.155-.185l.179.185c.278.285.278.747 0 1.033zm4.013-5.163l-2.174-2.237c-.184-.19-.484-.19-.669 0-.184.19-.184.498 0 .688l2.174 2.237c.277.286.277.747 0 1.033-.278.286-.727.285-1.003 0l-2.173-2.238c-.185-.19-.484-.19-.67 0-.184.19-.184.499 0 .689l2.174 2.237c.277.285.277.748 0 1.032-.134.138-.312.214-.502.214-.449 0-.594-.364-1.02-.747-.004-.449-.176-.87-.484-1.187-.314-.323-.734-.504-1.187-.499.004-.468-.172-.9-.485-1.222-.327-.337-.758-.502-1.187-.498.009-.96-.746-1.731-1.672-1.721.005-.473-.175-.904-.485-1.223-.645-.664-1.695-.664-2.34 0l-.836.861-2.673-2.754 5.515-5.529 1.596 1.397c.69.081 1.153.285 1.579.692L9.437 5.251c-.737.76-.737 1.994 0 2.754.737.758 1.938.759 2.675 0l1.338-1.377 4.848 4.99c.276.285.276.748 0 1.033-.277.284-.727.284-1.003 0zm1.2-2.58L14.118 5.94l.335-.345c.184-.19.184-.498 0-.688-.185-.19-.484-.19-.67 0l-2.34 2.41c-.368.379-.969.379-1.337 0-.369-.38-.369-.998 0-1.377.484-.5 1.44-1.483 1.925-1.982.56-.577 1.226-.835 2.156-.835.668 0 1.246-.207 1.787-.645l1.172-1.186 4.887 4.977-3.538 3.801z"/>
</svg>
