<svg xmlns="http://www.w3.org/2000/svg" width="19" height="16" viewBox="0 0 19 16">
    <defs>
        <linearGradient id="prefix__a" x1="2.797%" x2="97.203%" y1="0%" y2="100%">
            <stop offset="0%" stop-color="#F48836"/>
            <stop offset="100%" stop-color="#F4364C"/>
        </linearGradient>
        <linearGradient id="prefix__b" x1="3.615%" x2="96.385%" y1="0%" y2="100%">
            <stop offset="0%" stop-color="#F48836"/>
            <stop offset="100%" stop-color="#F4364C"/>
        </linearGradient>
        <linearGradient id="prefix__c" x1="0%" x2="100%" y1="10.917%" y2="89.083%">
            <stop offset="0%" stop-color="#F48836"/>
            <stop offset="100%" stop-color="#F4364C"/>
        </linearGradient>
        <linearGradient id="prefix__d" x1="2.766%" x2="97.234%" y1="0%" y2="100%">
            <stop offset="0%" stop-color="#F48836"/>
            <stop offset="100%" stop-color="#F4364C"/>
        </linearGradient>
        <linearGradient id="prefix__e" x1="2.798%" x2="97.202%" y1="0%" y2="100%">
            <stop offset="0%" stop-color="#F48836"/>
            <stop offset="100%" stop-color="#F4364C"/>
        </linearGradient>
        <linearGradient id="prefix__f" x1="2.759%" x2="97.241%" y1="0%" y2="100%">
            <stop offset="0%" stop-color="#F48836"/>
            <stop offset="100%" stop-color="#F4364C"/>
        </linearGradient>
        <linearGradient id="prefix__g" x1="0%" x2="100%" y1="24.132%" y2="75.868%">
            <stop offset="0%" stop-color="#F48836"/>
            <stop offset="100%" stop-color="#F4364C"/>
        </linearGradient>
    </defs>
    <g fill="none" fill-rule="evenodd">
        <path fill="url(#prefix__a)" d="M9.024 12.186c.247.254.244.663 0 .914l-1.48 1.523c-.244.252-.642.252-.887 0-.245-.253-.246-.662 0-.914l1.48-1.523c.245-.253.642-.253.887 0z" transform="translate(0 .531)"/>
        <path fill="url(#prefix__b)" d="M9.753 13.545l.159.164c.246.252.246.66 0 .914-.244.252-.643.252-.887 0l-.149-.153.74-.761c.05-.052.095-.107.137-.164z" transform="translate(0 .531)"/>
        <path fill="url(#prefix__c)" d="M5.234.747l1.06.927c.61.072 1.02.253 1.397.613L6.51 3.504c-.653.672-.653 1.765 0 2.437.653.671 1.715.672 2.367 0l1.184-1.219 4.291 4.418c.245.251.245.661 0 .913-.244.252-.643.252-.887 0l-1.924-1.98c-.164-.168-.429-.168-.592 0-.163.168-.163.441 0 .61l1.924 1.98c.245.252.245.66 0 .914-.246.253-.643.252-.888 0l-1.924-1.98c-.163-.169-.428-.169-.591 0-.164.167-.164.44 0 .608l1.923 1.98c.245.253.245.663 0 .914-.118.122-.276.19-.444.19-.398 0-.526-.323-.903-.662-.004-.397-.156-.77-.428-1.05-.278-.286-.65-.446-1.052-.442.005-.414-.151-.797-.429-1.082-.289-.298-.67-.444-1.05-.44.008-.85-.66-1.533-1.48-1.524.004-.419-.155-.8-.429-1.082-.571-.588-1.5-.588-2.071 0l-.74.762L.342 5.685c-.19-.196-.188-.508.004-.701L4.55.77c.186-.187.485-.197.684-.023z" transform="translate(0 .531)"/>
        <path fill="url(#prefix__d)" d="M7.545 10.663c.241.248.249.657 0 .913L6.065 13.1c-.245.252-.643.252-.888 0s-.245-.66 0-.913l1.48-1.523c.245-.252.643-.252.888 0z" transform="translate(0 .531)"/>
        <path fill="url(#prefix__e)" d="M6.065 9.14c.245.251.246.66 0 .913l-1.48 1.524c-.245.252-.643.252-.888 0-.245-.253-.245-.662 0-.914l1.48-1.523c.246-.253.642-.253.888 0z" transform="translate(0 .531)"/>
        <path fill="url(#prefix__f)" d="M4.585 7.616c.246.253.246.661 0 .914l-1.48 1.523c-.244.252-.643.252-.887 0-.246-.252-.246-.66 0-.913l1.48-1.524c.244-.252.642-.251.887 0z" transform="translate(0 .531)"/>
        <path fill="url(#prefix__g)" d="M13.688.362l3.634 3.702c.188.19.192.495.01.691l-2.806 3.014-3.874-3.656.296-.304c.164-.169.164-.442 0-.61-.163-.168-.428-.168-.592 0L8.284 5.332c-.326.336-.857.336-1.183 0-.327-.336-.327-.883 0-1.219L8.804 2.36c.496-.51 1.085-.739 1.908-.739.592 0 1.103-.183 1.582-.57l.68-.689c.194-.196.51-.198.707-.004l.006.005z" transform="translate(0 .531)"/>
    </g>
</svg>
