<?xml version="1.0" encoding="UTF-8"?>
<svg width="15px" height="15px" viewBox="0 0 15 15" version="1.1" xmlns="http://www.w3.org/2000/svg" xmlns:xlink="http://www.w3.org/1999/xlink">
    <!-- Generator: Sketch 61.2 (89653) - https://sketch.com -->
    <title>Help_hover</title>
    <desc>Created with Sketch.</desc>
    <defs>
        <linearGradient x1="0%" y1="0%" x2="100%" y2="100%" id="linearGradient-1">
            <stop stop-color="#F48836" offset="0%"></stop>
            <stop stop-color="#F4364C" offset="100%"></stop>
        </linearGradient>
    </defs>
    <g id="Page-1" stroke="none" stroke-width="1" fill="none" fill-rule="evenodd">
        <g id="Cases-box-2.4" transform="translate(-349.000000, -28.000000)" fill="url(#linearGradient-1)" fill-rule="nonzero">
            <g id="Help_hover" transform="translate(349.000000, 28.000000)">
                <path d="M7.5,0 C11.6421356,0 15,3.35786438 15,7.5 C15,11.6421356 11.6421356,15 7.5,15 C3.35786438,15 0,11.6421356 0,7.5 C0,3.35786438 3.35786438,0 7.5,0 Z M7.81974183,10.6064582 C7.68463201,10.3102608 7.33498841,10.1796735 7.03879099,10.3147833 C6.74259358,10.4498931 6.61200629,10.7995367 6.74711611,11.0957341 C6.88222593,11.3919316 7.23186953,11.5225189 7.52806695,11.387409 C7.82426436,11.2522992 7.95485166,10.9026556 7.81974183,10.6064582 Z M7.47330099,3.55928894 L7.28686621,3.56557095 C6.2837459,3.63460816 5.42566176,4.2641 5.15574706,5.1572028 C5.07585961,5.42153707 5.2253833,5.7005839 5.48971757,5.78047136 C5.75405184,5.86035881 6.03309868,5.71083512 6.11298613,5.44650085 L6.11298613,5.44650085 L6.15632954,5.3292628 C6.34093344,4.90915821 6.80238512,4.6012796 7.35552626,4.56321107 C7.96402242,4.52133286 8.52647325,4.81733072 8.75863757,5.28023081 C8.9781556,5.71791615 8.86113224,6.22634538 8.45034772,6.5665681 L8.45034772,6.5665681 L6.75922205,7.60681138 L6.75922205,8.72594897 L6.76727772,8.81582461 C6.80961368,9.04907381 7.01376216,9.22594897 7.25922205,9.22594897 L7.25922205,9.22594897 L7.34909768,9.21789331 C7.58234689,9.17555734 7.75922205,8.97140886 7.75922205,8.72594897 L7.75922205,8.72594897 L7.75903326,8.16366466 L9.03226143,7.37689658 L9.17075537,7.25480482 C9.87674276,6.58595142 10.0590228,5.64243359 9.65251236,4.83191412 C9.23324135,3.99595195 8.28491708,3.49688263 7.28686621,3.56557095 Z" id="Combined-Shape"></path>
            </g>
        </g>
    </g>
</svg>