<svg xmlns="http://www.w3.org/2000/svg" width="15" height="15" viewBox="0 0 15 15">
    <path fill="#8AC6DD" d="M7.5 0C11.636 0 15 3.365 15 7.5c0 4.136-3.364 7.5-7.5 7.5S0 11.636 0 7.5C0 3.365 3.365 0 7.5 0zm0 1.5c-3.308 0-6 2.692-6 6s2.692 6 6 6 6-2.692 6-6-2.692-6-6-6zm0 8.813c.518 0 .938.42.938.937 0 .518-.42.938-.938.938s-.938-.42-.938-.938.42-.938.938-.938zM7.5 3c1.654 0 3 1.346 3 3 0 1.395-.958 2.571-2.25 2.906v.844h-1.5V7.5h.75C8.328 7.5 9 6.827 9 6c0-.828-.672-1.5-1.5-1.5S6 5.172 6 6H4.5c0-1.654 1.346-3 3-3z"/>
</svg>
