<?xml version="1.0" encoding="UTF-8"?>
<svg width="15px" height="15px" viewBox="0 0 15 15" version="1.1" xmlns="http://www.w3.org/2000/svg" xmlns:xlink="http://www.w3.org/1999/xlink">
    <title>62D3BB91-7C80-4103-9DCB-D504B00F3D10</title>
    <g id="Page-1" stroke="none" stroke-width="1" fill="none" fill-rule="evenodd">
        <g id="Reconnect-Battle-(Light)" transform="translate(-121.000000, -333.000000)" fill="#2B8BB0" fill-rule="nonzero">
            <g id="How-to-play" transform="translate(121.000000, 333.000000)">
                <path d="M7.5,0 C11.6355,0 15,3.3645 15,7.5 C15,11.63625 11.6355,15 7.5,15 C3.3645,15 0,11.63625 0,7.5 C0,3.36525 3.3645,0 7.5,0 Z M7.5,1.5 C4.19175,1.5 1.5,4.19175 1.5,7.5 C1.5,10.80825 4.19175,13.5 7.5,13.5 C10.80825,13.5 13.5,10.80825 13.5,7.5 C13.5,4.19175 10.80825,1.5 7.5,1.5 Z M7.5,10.3125 C8.01776695,10.3125 8.4375,10.732233 8.4375,11.25 C8.4375,11.767767 8.01776695,12.1875 7.5,12.1875 C6.98223305,12.1875 6.5625,11.767767 6.5625,11.25 C6.5625,10.732233 6.98223305,10.3125 7.5,10.3125 Z M7.5,3 C9.15375,3 10.5,4.34625 10.5,6 C10.5,7.395 9.54225,8.571 8.25,8.90625 L8.25,9.75 L6.75,9.75 L6.75,7.5 L7.5,7.5 C8.328,7.5 9,6.82725 9,6 C9,5.172 8.328,4.5 7.5,4.5 C6.672,4.5 6,5.172 6,6 L4.5,6 C4.5,4.34625 5.84625,3 7.5,3 Z" id="Combined-Shape"></path>
            </g>
        </g>
    </g>
</svg>