<svg xmlns="http://www.w3.org/2000/svg" width="15" height="15" viewBox="0 0 15 15">
    <g fill="none" fill-rule="evenodd">
        <path d="M0 0L15 0 15 15 0 15z"/>
        <path fill="#F7B500" fill-rule="nonzero" d="M1.492 13.125h12.016c.276 0 .5-.224.5-.5 0-.088-.023-.174-.068-.25L7.933 1.996c-.139-.239-.445-.32-.684-.182-.075.044-.138.107-.182.182L1.06 12.374c-.139.24-.057.545.182.684.076.044.162.067.25.067zm6.533-1.875h-1.05c-.055 0-.1-.045-.1-.1V10.1c0-.055.045-.1.1-.1h1.05c.055 0 .1.045.1.1v1.05c0 .055-.045.1-.1.1zm0-2.5h-1.05c-.055 0-.1-.045-.1-.1v-2.3c0-.055.045-.1.1-.1h1.05c.055 0 .1.045.1.1v2.3c0 .055-.045.1-.1.1z"/>
    </g>
</svg>
