<svg xmlns="http://www.w3.org/2000/svg" width="14" height="14" viewBox="0 0 14 14">
    <path fill="#76797B" d="M7 .28C3.288.28.28 3.289.28 7c0 3.712 3.008 6.72 6.72 6.72 3.71 0 6.72-3.008 6.72-6.72C13.72 3.289 10.71.28 7 .28zm.627 2.426c.655 0 .848.38.848.815 0 .543-.434 1.044-1.175 1.044-.62 0-.916-.311-.898-.827 0-.435.364-1.032 1.225-1.032zM5.95 11.025c-.448 0-.775-.272-.462-1.466L6 7.442c.089-.34.103-.475 0-.475-.134 0-.716.234-1.059.465l-.223-.366c1.088-.91 2.34-1.443 2.876-1.443.448 0 .522.53.298 1.344l-.588 2.226c-.104.393-.059.53.045.53.135 0 .574-.163 1.007-.504l.253.34c-1.059 1.059-2.213 1.466-2.66 1.466z"/>
</svg>
