<svg xmlns="http://www.w3.org/2000/svg" width="25" height="25" fill="none" viewBox="0 0 25 25">
    <path fill="#fff" d="M2 2H23V23H2z"/>
    <path fill="url(#paint0_linear)" fill-rule="evenodd" d="M2.778 0h19.444C23.75 0 25 1.25 25 2.778v19.444C25 23.752 23.75 25 22.222 25H2.778C1.25 25 0 23.751 0 22.222V2.778C0 1.25 1.25 0 2.778 0zm13.728 2.885H8.493c-3.092 0-5.608 2.516-5.608 5.61v8.012c0 3.092 2.516 5.608 5.61 5.608h8.012c3.092 0 5.608-2.516 5.608-5.61V8.494c0-3.092-2.516-5.608-5.61-5.608zM12.5 17.308c-2.651 0-4.808-2.157-4.808-4.808S9.85 7.692 12.5 7.692s4.808 2.157 4.808 4.808-2.157 4.808-4.808 4.808zM17.308 6.89c0 .442.359.801.801.801.442 0 .801-.359.801-.801 0-.442-.359-.801-.801-.801-.442 0-.801.359-.801.801zM15.705 12.5c0 1.77-1.435 3.205-3.205 3.205S9.295 14.27 9.295 12.5 10.73 9.295 12.5 9.295s3.205 1.435 3.205 3.205z" clip-rule="evenodd"/>
    <defs>
        <linearGradient id="paint0_linear" x1="2.297" x2="22.751" y1="22.714" y2="2.347" gradientUnits="userSpaceOnUse">
            <stop stop-color="#FFC107"/>
            <stop offset=".221" stop-color="#F98D1C"/>
            <stop offset=".514" stop-color="#F1423B"/>
            <stop offset=".833" stop-color="#B93088"/>
            <stop offset=".994" stop-color="#9C27B0"/>
        </linearGradient>
    </defs>
</svg>
