<svg xmlns="http://www.w3.org/2000/svg" width="17" height="17" viewBox="0 0 17 17">
    <path fill="none" fill-rule="nonzero" stroke="#76797b" d="M2.696 9.393h3.572c.74 0 1.34.6 1.34 1.34v3.57c0 .74-.6 1.34-1.34 1.34H2.696c-.74 0-1.339-.6-1.339-1.34v-3.57c0-.74.6-1.34 1.34-1.34zm8.036-8.036h3.572c.74 0 1.339.6 1.339 1.34v3.57c0 .74-.6 1.34-1.34 1.34h-3.57c-.74 0-1.34-.6-1.34-1.34v-3.57c0-.74.6-1.34 1.34-1.34zm-8.036 0h3.572c.74 0 1.34.6 1.34 1.34v3.57c0 .74-.6 1.34-1.34 1.34H2.696c-.74 0-1.339-.6-1.339-1.34v-3.57c0-.74.6-1.34 1.34-1.34zm8.036 8.036h3.572c.74 0 1.339.6 1.339 1.34v3.57c0 .74-.6 1.34-1.34 1.34h-3.57c-.74 0-1.34-.6-1.34-1.34v-3.57c0-.74.6-1.34 1.34-1.34z"/>
</svg>
