<?xml version="1.0" encoding="UTF-8"?>
<svg width="14px" height="14px" viewBox="0 0 14 14" version="1.1" xmlns="http://www.w3.org/2000/svg" xmlns:xlink="http://www.w3.org/1999/xlink">
    <!-- Generator: Sketch 60 (88103) - https://sketch.com -->
    <title>Inventory</title>
    <desc>Created with Sketch.</desc>
    <g id="Desktop" stroke="none" stroke-width="1" fill="none" fill-rule="evenodd">
        <g id="Update-Light-(Laptop)" transform="translate(-368.000000, -29.000000)">
            <g id="Header-white">
                <g id="Inventory" transform="translate(365.000000, 26.000000)">
                    <rect id="bound" x="0" y="0" width="20" height="20"></rect>
                    <path d="M7.91666667,10.8333333 C8.60702258,10.8333333 9.16666667,11.3929774 9.16666667,12.0833333 L9.16666667,15.4166667 C9.16666667,16.1070226 8.60702258,16.6666667 7.91666667,16.6666667 L4.58333333,16.6666667 C3.8929774,16.6666667 3.33333333,16.1070226 3.33333333,15.4166667 L3.33333333,12.0833333 C3.33333333,11.3929774 3.8929774,10.8333333 4.58333333,10.8333333 L7.91666667,10.8333333 Z M15.4166667,10.8333333 C16.1070226,10.8333333 16.6666667,11.3929774 16.6666667,12.0833333 L16.6666667,15.4166667 C16.6666667,16.1070226 16.1070226,16.6666667 15.4166667,16.6666667 L12.0833333,16.6666667 C11.3929774,16.6666667 10.8333333,16.1070226 10.8333333,15.4166667 L10.8333333,12.0833333 C10.8333333,11.3929774 11.3929774,10.8333333 12.0833333,10.8333333 L15.4166667,10.8333333 Z M7.66666667,3.33333333 C8.49509379,3.33333333 9.16666667,4.00490621 9.16666667,4.83333333 L9.16666667,7.66666667 C9.16666667,8.49509379 8.49509379,9.16666667 7.66666667,9.16666667 L4.83333333,9.16666667 C4.00490621,9.16666667 3.33333333,8.49509379 3.33333333,7.66666667 L3.33333333,4.83333333 C3.33333333,4.00490621 4.00490621,3.33333333 4.83333333,3.33333333 L7.66666667,3.33333333 Z M15.4166667,3.33333333 C16.1070226,3.33333333 16.6666667,3.8929774 16.6666667,4.58333333 L16.6666667,7.91666667 C16.6666667,8.60702258 16.1070226,9.16666667 15.4166667,9.16666667 L12.0833333,9.16666667 C11.3929774,9.16666667 10.8333333,8.60702258 10.8333333,7.91666667 L10.8333333,4.58333333 C10.8333333,3.8929774 11.3929774,3.33333333 12.0833333,3.33333333 L15.4166667,3.33333333 Z" id="Combined-Shape" fill="#76797B" fill-rule="nonzero"></path>
                </g>
            </g>
        </g>
    </g>
</svg>