<svg xmlns="http://www.w3.org/2000/svg" width="34" height="36" viewBox="0 0 34 36">
    <defs>
        <linearGradient id="oddh8ji42a" x1=".391%" x2="99.609%" y1="0%" y2="100%">
            <stop offset="0%" stop-color="#F48836"/>
            <stop offset="100%" stop-color="#F4364C"/>
        </linearGradient>
        <linearGradient id="lgidk0tddb" x1="0%" x2="100%" y1="0%" y2="100%">
            <stop offset="0%" stop-color="#F48836"/>
            <stop offset="100%" stop-color="#F4364C"/>
        </linearGradient>
    </defs>
    <g fill="none">
        <path fill="#FFF" d="M13.025 13.893h7.005c.383 0 .693-.31.693-.693 0-.382-.31-.692-.693-.692h-7.005c-.382 0-.692.31-.692.692 0 .383.31.693.692.693zM20.426 19.084h-7.401c-.382 0-.692.31-.692.692 0 .383.31.693.692.693h7.401c.382 0 .692-.31.692-.693 0-.382-.31-.692-.692-.692zM20.426 25.66h-7.401c-.382 0-.692.31-.692.692 0 .383.31.693.692.693h7.401c.382 0 .692-.31.692-.693 0-.382-.31-.692-.692-.692z"/>
        <path fill="#FFF" d="M26.173 29.416c-.233 0-.464-.012-.692-.034v3.93c0 .413-.336.75-.75.75H2.135c-.413 0-.75-.337-.75-.75V5.681c0-.414.337-.75.75-.75h4.312v1.712H3.792c-.383 0-.693.31-.693.693v24.321c0 .383.31.693.693.693h19.282c.382 0 .692-.31.692-.693v-2.664c-.489-.178-.953-.41-1.384-.686v2.658H4.484V8.028h17.898v9.71c.431-.276.895-.507 1.384-.685V7.336c0-.383-.31-.693-.692-.693H20.42V4.931h4.312c.413 0 .749.336.749.75v10.983c.228-.023.459-.034.692-.034.234 0 .465.011.693.034V5.68c0-1.177-.958-2.134-2.134-2.134h-7.623C17.04 1.579 15.418 0 13.433 0S9.825 1.58 9.757 3.547H2.134C.957 3.547 0 4.504 0 5.68v27.631c0 1.177.957 2.134 2.134 2.134h22.598c1.176 0 2.134-.957 2.134-2.134v-3.93c-.228.022-.459.034-.693.034z"/>
        <path fill="#131719" d="M7.83 4.931h2.67c.207 0 .403-.092.534-.25.132-.16.185-.37.146-.572-.027-.142-.04-.288-.04-.434 0-1.263 1.028-2.29 2.293-2.29 1.264 0 2.293 1.027 2.293 2.29 0 .146-.014.292-.04.434-.04.202.014.412.145.571.132.16.328.251.534.251h2.67v1.712H7.83V4.931z"/>
        <ellipse cx="26.173" cy="23.023" fill="url(#oddh8ji42a)" rx="7.057" ry="7.085"/>
        <path fill="#FFF" d="M25.998 25.554l-1.335.499c-.258.096-.546-.035-.643-.293-.023-.06-.033-.124-.032-.189l.04-1.547c.004-.11-.03-.219-.095-.308l-.912-1.247c-.164-.223-.115-.535.108-.699.044-.032.094-.057.147-.074l1.402-.434c.112-.035.208-.107.271-.205l.806-1.235c.15-.232.46-.297.691-.146.059.038.108.088.146.146l.805 1.235c.064.098.16.17.271.205l1.403.434c.264.082.411.362.33.626-.017.053-.042.103-.075.147l-.912 1.247c-.065.089-.1.197-.096.308l.04 1.547c.008.276-.21.506-.486.513-.065.002-.128-.009-.189-.031l-1.335-.5c-.112-.042-.237-.042-.35 0z"/>
        <circle cx="8.585" cy="13.206" r="1.785" fill="url(#lgidk0tddb)" transform="rotate(-76.7 8.585 13.206)"/>
        <circle cx="8.582" cy="26.35" r="1.785" fill="url(#lgidk0tddb)" transform="rotate(-45 8.582 26.35)"/>
        <circle cx="8.584" cy="19.784" r="1.785" fill="url(#lgidk0tddb)" transform="rotate(-76.7 8.584 19.784)"/>
    </g>
</svg>
