<svg xmlns="http://www.w3.org/2000/svg" width="359" height="202" viewBox="0 0 359 202">
    <g fill="none">
        <g>
            <path fill="#FCD834" d="M174.627 146.396l-3.253.57c-.04.003-.08.045-.118.087l-1.144 1.658c-.037.082-.033.162-.07.244.043.037.086.075.168.07l.041-.001.976-.171.163 3.108c.004.08.05.158.133.193l3.336 1.024.164-.008 3.21-1.367c.08-.045.117-.126.113-.206l-.163-3.109.989.068.07-.004c.042-.005.1-.02.13-.086.037-.082.033-.162-.012-.24l-1.312-1.53c-.002-.04-.086-.075-.127-.073l-3.294-.227zm.287.785l.918 1.07c.002.04.086.076.127.074l1.895.14.159 3.03-2.81 1.186-.289-5.5zm-.409.021l.288 5.5-2.918-.886-.159-3.03 1.87-.337c.04-.002.08-.044.118-.086l.801-1.161zm1.681 3.11c-.082.003-.123.006-.202.05l-.624.632c-.077.084-.071.203.015.279.043.038.084.035.166.031.082-.004.122-.006.161-.048l.233-.252.038.717c.006.12.092.195.215.189.123-.007.2-.09.194-.21l-.038-.718.259.227c.086.075.208.069.286-.015.078-.084.071-.204-.015-.28zm-3.025.997c-.125-.033-.245.013-.28.135-.037.081.01.199.135.232l1.044.345.082-.004c.082-.004.162-.048.198-.13.035-.122-.053-.237-.135-.233zm1.982-4.46l2.717.177.961 1.109-2.717-.178-.96-1.108zm-.902.007l-.84 1.203-2.684.46.84-1.202 2.684-.46z" opacity=".4" transform="rotate(11 14.417 169.39)"/>
            <path fill="#E44444" d="M43.063 17.115l-3.956-.82c-.047-.016-.111.016-.175.049l-2.089 1.451c-.08.08-.114.178-.195.259.03.064.061.13.156.162l.048.016 1.186.246-1.303 3.784c-.033.097-.02.21.059.292l3.287 2.76.189.065 4.29-.151c.11-.016.192-.097.225-.194l1.303-3.784 1.086.537.081.027c.051.014.125.022.19-.043.08-.08.114-.178.1-.291l-.753-2.43c.017-.048-.06-.13-.108-.146l-3.621-1.79zm-.05 1.068l.526 1.7c-.016.05.062.13.109.147l2.078 1.04-1.27 3.688-3.749.12 2.306-6.695zm-.474-.163l-2.305 6.695-2.88-2.402 1.269-3.688 2.278.459c.048.016.112-.016.176-.048l1.462-1.016zm.416 4.485c-.095-.033-.142-.05-.254-.033l-1.008.466c-.128.065-.178.21-.117.34.03.065.078.081.173.114.094.032.142.049.206.017l.384-.194-.3.874c-.05.145.01.275.153.324.142.049.27-.016.32-.161l.3-.874.185.39c.06.129.203.178.331.113.128-.064.178-.21.117-.34zm-3.903-.204c-.125-.098-.284-.098-.381.031-.08.08-.084.243.042.34l1.016.893.095.032c.095.033.206.017.287-.064.097-.129.053-.307-.042-.34zm4.378-4.409l2.992 1.465.557 1.765-2.991-1.464-.558-1.766zm-1.025-.407l-1.526 1.049-3.259-.688 1.526-1.049 3.26.688z" opacity=".3" transform="rotate(11 14.417 169.39)"/>
            <path fill="#FCD834" d="M20.728 62.76l-3.27-.463c-.039-.01-.089.017-.139.045l-1.6 1.224c-.06.067-.081.144-.141.21.029.05.058.099.137.12l.04.01.98.14-.805 3.006c-.02.077-.002.165.067.225l2.857 2.005.158.042 3.476-.308c.09-.017.15-.084.17-.16l.806-3.008.92.37.067.018c.042.009.102.011.15-.042.06-.066.082-.143.063-.231l-.775-1.86c.01-.039-.058-.099-.098-.11l-3.063-1.233zm.031.835l.542 1.302c-.01.038.059.098.098.109l1.759.719-.785 2.93-3.04.26 1.426-5.32zm-.396-.106l-1.425 5.32-2.502-1.745.785-2.93 1.883.257c.04.01.09-.018.14-.046l1.12-.856zm.638 3.476c-.079-.021-.118-.032-.208-.014l-.788.408c-.1.056-.13.172-.072.27.029.05.069.06.148.081.079.021.118.032.168.004l.3-.168-.186.694c-.031.116.027.214.146.246s.219-.024.25-.14l.186-.694.175.295c.059.098.177.13.277.074.1-.056.131-.171.072-.27zm-3.185.014c-.108-.07-.237-.063-.308.042-.06.066-.052.192.057.263l.886.65.08.022c.078.02.168.003.228-.063.07-.105.022-.242-.057-.263zm3.263-3.63l2.53 1.01.571 1.35-2.53-1.008-.57-1.351zm-.86-.271l-1.17.885-2.695-.392 1.17-.885 2.695.392z" opacity=".5" transform="rotate(11 14.417 169.39)"/>
            <path fill="#FCD834" d="M6.806 24.838l-2.035 2.6c-.03.03-.03.087-.031.144L5 29.58c.027.085.084.142.111.227.057 0 .114-.001.172-.06l.03-.028.61-.78 2.201 2.201c.057.057.142.084.228.054l3.165-1.47.116-.117 1.471-3.164c.03-.087.002-.172-.054-.228l-2.201-2.202.78-.61.049-.05c.028-.033.061-.083.04-.152-.028-.085-.085-.142-.17-.17l-1.998-.259c-.029-.028-.115.002-.144.03l-2.6 2.036zm.738.391l1.4.182c.027.028.114-.002.142-.03l1.503-1.164 2.144 2.145-1.294 2.762-3.895-3.895zm-.29.29l3.895 3.894-2.762 1.295-2.144-2.145 1.163-1.502c.029-.03.03-.086.03-.144l-.181-1.398zm3.33 1.185c-.057.058-.086.087-.116.174l-.04.886c-.002.115.083.2.197.198.057 0 .086-.03.144-.088.058-.058.087-.087.088-.144l.004-.343.508.508c.085.085.2.083.286-.004.087-.087.089-.201.004-.286l-.508-.508.343-.004c.115-.002.202-.089.203-.203.002-.114-.083-.199-.197-.198zm-1.58 2.766c-.115.059-.174.174-.118.288.027.085.141.14.256.082l1.007-.442.058-.058c.058-.058.087-.144.06-.23-.056-.113-.198-.14-.256-.082zm-1.511-4.64l2.138-1.687 1.455.18-2.138 1.687-1.455-.18zm-.666.609l.18 1.455-1.686 2.139-.18-1.456 1.686-2.138z" opacity=".2" transform="rotate(11 14.417 169.39)"/>
            <path fill="#5EC26C" d="M97.68 122.992l-4.2-1.95c-.089-.021-.203-.012-.255.05l-4.394 5.237c-.052.062-.041.176-.005.259l2.65 3.798.062.052 4.2 1.95c.088.02.202.011.254-.05l4.394-5.237c.052-.062.041-.176.005-.259l-2.65-3.798-.062-.052zm-.093.553l.727 1.03-2.515 2.998c-.029.038-.043.066-.039.108l.053.57c.006.057.037.083.099.135.062.052.093.078.15.074l.342-.028.032.341c.01.114.104.193.218.183l.57-.047c.026-.03.108-.066.134-.097l2.12-2.526.493.677-4.187 4.99-3.812-1.78 5.615-6.628zm-.317-.319l-5.609 6.685-2.415-3.444 4.27-5.026.752.368-2.153 2.568c-.03.037-.043.065-.039.108l.053.57c.005.056.036.082.099.135l.041.034c.038.029.066.043.11.04l.341-.029.032.342c.01.114.104.192.218.183l.57-.047c.025-.031.108-.067.134-.097l2.456-2.927 1.14.537zm-2.388 5.818c-.062-.052-.093-.078-.181-.1l-.886.045c-.114.009-.192.101-.181.215.005.057.036.083.098.136.063.052.094.078.15.073l.343-.028-.466.555c-.077.092-.067.206.027.284.093.079.207.07.285-.023l.465-.555.032.342c.01.114.104.192.218.183.114-.01.191-.102.18-.216l-.079-.854s.026-.03-.005-.057zm-3.319-1.735c-.067-.109-.213-.126-.295-.09-.083.035-.13.154-.062.263l.675 1.092.063.052c.062.052.15.074.233.038.083-.035.13-.154.062-.263zm6.954-2.407l.727 1.03-2.15 2.5-.286.024-.031-.342c-.01-.114-.104-.192-.218-.183l-.342.028-.027-.284 2.327-2.773zm-2.776-2.382l-2.358 2.747-.285.023-.031-.341c-.011-.114-.104-.193-.218-.183l-.342.028-.027-.285 2.12-2.526 1.14.537z" opacity=".2" transform="rotate(11 14.417 169.39)"/>
            <path fill="#FCD834" d="M56.081 44.173l-4.595.573c-.086.028-.178.097-.189.176l-.951 6.77c-.011.08.058.171.133.222l4.26 1.817.08.011 4.595-.572c.086-.029.177-.097.189-.177l.951-6.77c.011-.08-.058-.17-.133-.221l-4.26-1.817-.08-.012zm.215.518l1.163.488-.545 3.876c-.004.047 0 .078.025.112l.347.455c.034.045.074.051.155.062.08.012.12.017.167-.017l.275-.205.208.273c.069.091.19.108.281.04l.459-.342c.005-.04.057-.114.062-.154l.46-3.265.776.312-.907 6.451-4.175.51 1.249-8.596zm-.437-.102l-1.215 8.642-3.873-1.641.958-6.526.833-.086-.466 3.319c-.005.047-.001.078.025.112l.346.454c.035.046.075.052.156.063l.053.007c.048.005.079.001.113-.024l.275-.205.208.273c.07.09.19.108.282.04l.458-.342c.006-.04.057-.114.063-.154l.532-3.783 1.252-.15zm1.057 6.2c-.08-.012-.12-.018-.206.01l-.728.508c-.092.068-.109.188-.04.278.035.046.075.052.156.063.08.011.12.017.166-.017l.276-.205-.101.717c-.017.119.052.21.173.227.12.017.212-.051.23-.17l.1-.718.208.273c.07.091.19.108.282.04.091-.069.108-.188.039-.279l-.52-.682s.006-.04-.035-.046zm-3.734.287c-.115-.057-.247.006-.298.08-.052.074-.028.199.087.256l1.151.567.08.012c.081.011.167-.017.219-.091.051-.074.028-.2-.087-.256zm4.622-5.727l1.163.489-.5 3.26-.229.17-.208-.272c-.069-.091-.19-.108-.281-.04l-.276.205-.173-.227.504-3.585zm-3.617-.548l-.544 3.578-.229.17-.208-.272c-.069-.091-.19-.108-.281-.04l-.276.205-.173-.227.46-3.266 1.251-.148z" opacity=".3" transform="rotate(11 14.417 169.39)"/>
            <path fill="#E44444" d="M103.49 88.844l2.591 1.641c.055.022.128.028.162-.006l2.951-2.85c.035-.033.032-.105.011-.16l-1.55-2.648-.037-.039-2.59-1.64c-.056-.023-.128-.028-.163.005l-2.95 2.85c-.035.033-.032.106-.012.161l1.55 2.647.037.04zm.077-.337l-.426-.72 1.666-1.608c.035-.034.052-.05.05-.087l-.014-.362c-.001-.037-.02-.056-.058-.095l-.033-.033c-.019-.017-.035-.026-.06-.028l-.217-.017-.008-.217c-.003-.073-.06-.131-.132-.137l-.362-.027c-.017.017-.07.03-.088.048l-1.423 1.374-.29-.474 2.812-2.715 2.35 1.497-3.767 3.6zm.19.23l3.766-3.637 1.413 2.402-2.865 2.73-.463-.307 1.423-1.374c.035-.033.052-.05.05-.087l-.014-.362c-.001-.036-.02-.056-.058-.095-.038-.039-.056-.058-.093-.06l-.217-.017-.008-.218c-.003-.072-.06-.13-.132-.136l-.362-.028c-.017.017-.07.031-.088.048l-1.65 1.592-.703-.45zm1.7-3.413c.039.04.057.059.112.08l.562.061c.072.006.124-.044.121-.117-.001-.036-.02-.056-.058-.095-.037-.039-.056-.058-.092-.06l-.217-.017.312-.302c.052-.05.05-.123-.007-.181-.057-.059-.129-.064-.181-.014l-.312.302-.01-.218c-.002-.072-.059-.13-.131-.136-.072-.006-.124.045-.121.117l.021.544s-.017.017.002.036zm2.042 1.42c.04.074.13.1.184.085.053-.014.087-.084.048-.159l-.392-.752-.037-.04c-.038-.038-.093-.06-.146-.046-.054.014-.087.084-.048.159zm-4.475.818l-.426-.719 1.442-1.355.18.014.01.217c.002.073.059.131.131.137l.217.016.008.182-1.562 1.508zm1.676 1.771l1.581-1.49.181.015.009.217c.003.073.06.131.132.137l.217.016.007.181-1.423 1.375-.704-.451z" opacity=".2" transform="rotate(11 14.417 169.39)"/>
            <path fill="#E44444" d="M22.816 89.569l-3.46-1.024c-.07-.007-.158.014-.193.07l-2.898 4.637c-.034.055-.014.143.022.204l2.438 2.66.053.034 3.46 1.024c.071.007.159-.014.193-.069l2.898-4.638c.034-.055.015-.143-.022-.204l-2.437-2.66-.054-.034zm-.017.444l.668.721-1.637 2.62c-.034.054-.05.081-.04.125l.097.44c.01.045.036.061.09.095.053.033.08.05.124.04l.263-.064.059.265c.02.088.1.138.187.117l.439-.105c.017-.028.078-.065.095-.093l1.398-2.237.45.471-2.761 4.42-3.141-.938 3.71-5.877zm-.278-.211l-3.7 5.92-2.22-2.411 2.823-4.458.622.198-1.398 2.238c-.034.054-.051.082-.042.126l.098.44c.01.044.036.06.09.094s.08.05.124.04l.263-.063.059.264c.02.088.1.138.188.117l.438-.105c.017-.027.078-.065.095-.092l1.62-2.592.94.284zm-1.28 4.852c-.053-.033-.08-.05-.15-.056l-.686.141c-.087.021-.138.103-.119.191.01.044.037.061.09.094.054.034.08.05.125.04l.263-.063-.307.491c-.051.082-.032.17.049.22.08.05.168.03.219-.052l.307-.491.058.264c.02.088.1.138.188.117.088-.021.139-.103.12-.191l-.147-.66s.017-.028-.01-.045zm-2.753-.962c-.064-.077-.178-.073-.24-.035-.06.038-.085.136-.021.214l.634.775.053.034c.054.033.124.04.185.002s.086-.137.022-.214zm5.17-2.725l.667.72-1.425 2.221-.219.053-.059-.264c-.02-.088-.1-.139-.187-.118l-.263.064-.05-.22 1.535-2.456zm-2.396-1.535L19.7 91.87l-.219.052-.058-.264c-.02-.088-.1-.138-.188-.117l-.263.063-.049-.22 1.398-2.237.94.284z" opacity=".8" transform="rotate(11 14.417 169.39)"/>
            <path fill="#E44444" d="M66.09 5.754l2.228.9c-.27-.417-.42-.918-.35-1.418 0-.22.169-.417.38-.507.211-.09.416-.052.627.078.527.434.813 1.032.825 1.654.44-.439 1.114-.695 1.742-.617.22 0 .416.168.505.38.09.211.052.417-.079.628-.334.393-.752.664-1.236.777l2.23.901c.53.214.775.798.562 1.327l-.459 1.135c-.046.113-.153.159-.266.113l-.19-.077-1.298 3.215c-.214.53-.798.777-1.326.564l-6.04-2.44c-.53-.214-.776-.798-.562-1.327l1.299-3.215-.19-.076c-.113-.046-.158-.153-.112-.266l.458-1.135c.188-.552.722-.808 1.251-.594zm5.51.817c.03-.076.046-.113.04-.205 0 0-.062-.067-.099-.083l-.037-.015c-.719-.07-1.439.3-1.79.95.673.184 1.438-.079 1.886-.647zm-4.368 6.684l2.832 1.145c.302.122.673-.036.795-.34l1.3-3.214-3.4-1.373-1.527 3.782zm1.68-4.16l3.847 1.554.382-.947c.123-.303-.034-.674-.337-.796l-3.016-1.219.472 1.115c.045.107 0 .22-.107.264-.106.044-.22 0-.263-.106l-.472-1.115-.505 1.25zm-.24-3.97c-.113-.046-.165-.024-.165-.024-.053.022-.122.082-.114.174-.07.72.297 1.44.946 1.792.16-.728-.103-1.494-.667-1.943zm-4.988 6.037c-.123.303.034.674.337.796l2.832 1.144 1.528-3.782-3.398-1.373-1.3 3.215zm1.145-3.717l3.705 1.497.504-1.248-1.114.474c-.052.022-.09.006-.165-.024-.075-.03-.114-.045-.136-.098-.045-.107 0-.22.107-.264l1.115-.476-2.838-1.146c-.302-.122-.673.035-.795.339l-.383.946z" opacity=".4" transform="rotate(11 14.417 169.39)"/>
            <path fill="#1D999E" d="M62.397 84.379l-1.582-.25c.238.23.41.533.44.868.032.143-.048.296-.171.386-.124.09-.263.097-.42.043-.407-.202-.682-.548-.783-.95-.22.351-.62.618-1.04.662-.142.033-.295-.047-.384-.17-.09-.125-.097-.264-.043-.42.157-.306.388-.545.686-.691l-1.584-.251c-.375-.06-.623-.402-.563-.777l.127-.806c.013-.08.076-.127.156-.114l.135.022.361-2.284c.06-.376.402-.624.777-.565l4.29.68c.376.06.623.402.563.777l-.361 2.283.134.022c.08.012.126.075.113.156l-.127.806c-.04.386-.348.633-.724.573zm-3.702.295c-.009.054-.013.08.005.14 0 0 .05.034.076.038l.027.005c.477-.063.89-.41 1.02-.886-.465-.018-.922.267-1.128.703zm1.835-4.997l-2.011-.318c-.215-.034-.432.124-.466.34l-.362 2.282 2.414.383.425-2.687zm-.468 2.955l-2.731-.433-.107.673c-.034.215.124.432.339.466l2.142.34-.474-.654c-.046-.063-.033-.143.03-.187.062-.045.143-.033.187.03l.474.653.14-.888zm.752 2.543c.08.013.11-.01.11-.01.031-.022.068-.071.049-.13-.063-.478-.41-.89-.884-1.022.006.497.291.955.725 1.162zm2.335-4.67c.034-.215-.124-.432-.339-.466l-2.01-.319-.426 2.686 2.413.382.362-2.283zm-.187 2.586l-2.63-.417-.141.887.652-.475c.03-.022.058-.018.111-.01.053.009.08.013.103.044.045.063.033.143-.03.187l-.653.477 2.015.319c.215.034.432-.124.467-.34l.106-.672z" transform="rotate(11 14.417 169.39)"/>
            <path fill="#1D999E" d="M163.68 99.136l.037 2.136c.247-.366.606-.662 1.039-.778.18-.076.4-.007.546.134.147.142.188.323.154.54-.172.582-.562 1.024-1.066 1.25.512.208.955.67 1.11 1.21.075.181.006.4-.136.546-.142.147-.323.188-.541.154-.438-.137-.804-.385-1.066-.742l.038 2.138c.009.507-.384.911-.89.92l-1.088.02c-.11.001-.184-.07-.185-.18l-.004-.18-3.081.053c-.509.009-.913-.383-.922-.888l-.101-5.791c-.009-.507.384-.911.89-.92l3.082-.054-.003-.181c-.002-.109.07-.183.178-.185l1.088-.02c.516-.037.912.31.92.818zm1.245 4.793c.073-.001.108-.002.18-.039 0 0 .035-.073.035-.109v-.036c-.194-.612-.746-1.073-1.4-1.134.084.614.564 1.149 1.185 1.318zm-6.987-1.253l.048 2.715c.005.29.262.538.553.533l3.082-.053-.057-3.258-3.626.063zm3.988-.07l.064 3.688.908-.016c.29-.005.54-.263.535-.553l-.05-2.89-.75.773c-.071.074-.18.076-.252.004-.073-.072-.077-.18-.005-.253l.748-.773-1.198.02zm3.166-1.575c-.002-.109-.039-.144-.039-.144-.036-.035-.11-.07-.182-.032-.614.192-1.075.743-1.137 1.396.65-.122 1.187-.603 1.358-1.22zm-6.673-1.985c-.29.005-.54.263-.534.553l.047 2.714 3.626-.063-.057-3.257-3.082.053zm3.439-.353l.062 3.55 1.196-.02-.774-.747c-.037-.035-.037-.072-.039-.144 0-.07-.002-.108.034-.144.071-.075.18-.077.253-.005l.776.747-.047-2.72c-.005-.29-.263-.538-.554-.533l-.907.016z" opacity=".2" transform="rotate(11 14.417 169.39)"/>
            <path fill="#5EC26C" d="M6.406 5.476l1.41-1.226c-.383.04-.784-.034-1.106-.259-.152-.078-.229-.264-.217-.442.013-.178.111-.307.276-.407.487-.212 1.002-.199 1.437.012-.148-.46-.088-1.017.188-1.425.078-.152.263-.228.441-.216.179.013.308.112.408.277.155.37.194.755.102 1.131l1.412-1.227c.335-.292.827-.256 1.117.079l.625.718c.062.072.056.162-.016.225l-.12.104 1.77 2.035c.292.336.257.828-.077 1.118L10.23 9.297c-.335.292-.826.256-1.117-.079l-1.77-2.035-.12.104c-.071.062-.161.056-.224-.016l-.624-.718c-.316-.325-.305-.786.03-1.077zm2.512-3.53c-.042-.049-.062-.072-.128-.1 0 0-.068.018-.092.039l-.023.02c-.303.474-.3 1.103.026 1.576.365-.402.453-1.024.217-1.535zm3.09 5.387l1.793-1.558c.192-.167.213-.48.046-.671l-1.77-2.036-2.15 1.87 2.081 2.395zM9.718 4.7l2.435-2.116-.52-.6c-.168-.192-.48-.214-.672-.047l-1.909 1.66.94.066c.09.006.152.078.145.167-.008.09-.078.153-.167.145l-.94-.066.688.791zM6.882 3.464c-.072.062-.075.106-.075.106-.003.044.014.114.08.14.475.304 1.104.303 1.576-.022-.447-.368-1.071-.457-1.581-.224zm2.422 5.589c.167.192.48.214.671.047l1.793-1.558-2.081-2.395-2.152 1.87 1.77 2.036zm-2.17-2.106l2.345-2.04-.687-.79-.065.94c-.003.044-.028.065-.075.106-.047.041-.072.063-.116.06-.09-.007-.152-.079-.145-.168l.064-.94-1.797 1.561c-.191.167-.213.48-.046.671l.521.6z" opacity=".3" transform="rotate(11 14.417 169.39)"/>
            <path fill="#5EC26C" d="M125.873 72.327l1.821-.421c-.358-.145-.677-.398-.855-.748-.098-.14-.079-.34.016-.492.095-.151.242-.219.435-.23.529.041.977.295 1.263.686.085-.476.4-.94.834-1.17.14-.098.34-.079.492.016.151.095.219.243.23.436-.038.4-.183.758-.441 1.046l1.823-.42c.432-.1.85.162.949.594l.214.928c.022.093-.026.17-.119.19l-.155.036.607 2.628c.1.433-.162.851-.593.95l-4.937 1.14c-.433.1-.85-.162-.95-.594l-.606-2.628-.155.036c-.093.021-.17-.027-.19-.12l-.215-.927c-.126-.435.1-.837.532-.936zm3.876-1.938c-.015-.062-.022-.093-.066-.148 0 0-.07-.016-.1-.01l-.03.008c-.49.276-.783.833-.717 1.404.51-.184.88-.692.913-1.254zm.199 6.207l2.314-.534c.248-.057.413-.323.356-.57l-.607-2.629-2.777.642.714 3.091zm-.785-3.4l3.143-.726-.178-.774c-.058-.248-.323-.414-.57-.357l-2.466.57.798.5c.077.047.098.14.05.215-.048.075-.14.098-.215.05l-.798-.5.236 1.022zm-1.925-2.423c-.093.022-.116.06-.116.06-.023.037-.04.106.005.161.277.49.832.785 1.402.72-.222-.536-.732-.907-1.291-.94zm-.485 6.072c.057.248.323.414.57.357l2.315-.534-.714-3.092-2.777.642.606 2.627zm-.928-2.878l3.028-.7-.236-1.02-.498.8c-.023.037-.055.044-.116.058-.06.014-.092.021-.13-.002-.076-.048-.098-.14-.05-.216l.498-.8-2.319.535c-.247.057-.413.323-.356.57l.179.775z" opacity=".2" transform="rotate(11 14.417 169.39)"/>
            <path fill="#FCD834" d="M35.832 153.125l-1.584-2.469c-.016-.032-.063-.05-.11-.068l-1.709-.382c-.077-.003-.139.027-.216.024-.015.048-.03.096.002.161l.016.033.476.74-2.399 1.17c-.061.03-.107.093-.105.174l.354 3.069.064.13 2.2 2.17c.063.05.14.053.202.023l2.398-1.17.291.83.016.033c.016.033.048.099.125.101.078.003.14-.027.185-.09l.75-1.582c.031-.015.03-.095.014-.128l-.97-2.769zm-.519.497l-.525 1.107c-.031.015-.03.095-.014.128l.55 1.596-2.337 1.14-1.917-1.902 4.243-2.07zm-.16-.328l-4.243 2.07-.318-2.682 2.337-1.14.919 1.417c.016.032.063.05.11.068l1.196.267zm-1.868 2.411c-.013-.026-.023-.046-.035-.065l-.026.04.024-.042c-.016-.028-.037-.051-.074-.081l-.717-.3c-.093-.035-.185.01-.215.106-.015.047.001.08.033.146.032.065.048.098.095.116l.28.106-.553.27c-.093.045-.122.14-.074.239.048.098.141.133.233.088l.554-.27-.089.287c-.03.095.018.193.112.229.093.035.186-.01.215-.105zm-1.844-2.14c-.017-.113-.095-.196-.204-.184-.077-.003-.153.075-.136.188l.092.968.031.066c.032.065.095.116.173.119.108-.013.168-.123.136-.189zm4.214.133l.808 2.28-.54 1.156-.808-2.28.54-1.156zm-.32-.735l-1.243-.285-1.3-2.041 1.243.285 1.3 2.04z" opacity=".5" transform="rotate(11 14.417 169.39)"/>
            <path fill="#683F77" d="M85.795 162.807l3.437 2.122c.039.032.11.024.181.015l2.46-.65c.103-.048.168-.127.271-.176-.006-.071-.013-.142-.09-.205l-.04-.032-1.03-.637 2.518-3.11c.065-.08.09-.191.045-.294l-2.145-3.718-.156-.126-4.082-1.325c-.11-.023-.214.025-.278.105l-2.52 3.11-.836-.876-.067-.053c-.043-.03-.11-.063-.192-.025-.104.049-.169.128-.194.24l-.124 2.54c-.033.04.013.143.052.175l2.79 2.92zm.413-.987l.087-1.778c.032-.04-.014-.143-.052-.175l-1.597-1.689 2.454-3.03 3.564 1.169-4.456 5.503zm.389.315l4.457-5.503 1.884 3.243-2.454 3.03-1.984-1.21c-.039-.031-.11-.023-.181-.014l-1.722.454zm1.143-4.356c.078.063.117.094.227.118l1.107-.094c.143-.017.24-.137.227-.28-.007-.07-.046-.102-.124-.165-.078-.063-.117-.095-.188-.087l-.427.05.581-.717c.097-.12.084-.263-.033-.357-.117-.095-.26-.078-.356.042l-.581.717-.04-.428c-.013-.143-.13-.237-.272-.22-.143.016-.24.136-.227.279zm3.598 1.526c.084.135.233.19.369.101.103-.048.161-.2.077-.334l-.65-1.186-.078-.063c-.078-.063-.188-.087-.291-.038-.136.088-.155.27-.077.334zm-5.622 2.645l-2.31-2.399.08-1.85 2.31 2.4-.08 1.85zm.824.733l1.793-.463 2.827 1.761-1.793.463-2.827-1.76z" opacity=".5" transform="rotate(11 14.417 169.39)"/>
            <path fill="#FCD834" d="M145.469 135.67l-2.036 2.6c-.029.03-.03.087-.03.144l.26 1.998c.027.085.083.142.11.227.058 0 .115-.001.173-.06l.029-.028.61-.78 2.202 2.2c.056.057.142.085.228.055l3.164-1.471.116-.116 1.472-3.165c.03-.086.002-.171-.055-.228l-2.2-2.201.78-.61.048-.05c.029-.033.062-.084.04-.152-.028-.085-.084-.142-.17-.17l-1.998-.259c-.028-.028-.114.002-.143.03l-2.6 2.036zm.738.39l1.399.183c.028.028.114-.002.143-.031l1.502-1.163 2.145 2.144-1.294 2.762-3.895-3.894zm-.29.29l3.895 3.895-2.762 1.295-2.145-2.145 1.164-1.502c.029-.03.03-.087.03-.144l-.182-1.398zm3.33 1.186c-.058.058-.087.087-.117.173l-.04.887c-.001.115.083.2.198.198.057-.001.086-.03.144-.088.058-.058.087-.087.087-.144l.005-.343.508.508c.085.084.199.083.286-.004.087-.087.088-.201.004-.286l-.508-.508.343-.004c.114-.002.201-.089.203-.203.001-.115-.083-.2-.198-.198zm-1.58 2.766c-.116.059-.174.174-.119.287.028.086.142.142.257.083l1.006-.442.058-.058c.058-.058.088-.144.06-.23-.055-.113-.198-.14-.256-.082zm-1.512-4.64l2.138-1.687 1.456.18-2.138 1.687-1.456-.18zm-.666.608l.181 1.456-1.686 2.138-.181-1.456 1.686-2.138z" opacity=".1" transform="rotate(11 14.417 169.39)"/>
            <path fill="#1D999E" d="M3.623 136.548l-1.19 4.475c-.006.09.023.201.093.241l5.92 3.419c.07.04.18.01.256-.04l3.28-3.27.04-.07 1.191-4.474c.006-.09-.023-.202-.093-.242L7.2 133.17c-.07-.04-.18-.01-.256.04l-3.28 3.269-.04.07zm.56-.005l.889-.895 3.39 1.956c.042.022.072.03.113.02l.551-.151c.056-.016.076-.05.116-.121.041-.07.061-.106.047-.161l-.087-.332.33-.09c.111-.03.172-.136.143-.247l-.145-.553c-.035-.02-.084-.095-.119-.115l-2.856-1.65.58-.603 5.643 3.258-1.092 4.062-7.502-4.378zm-.258.367l7.558 4.363-2.973 2.977-5.691-3.333.232-.804 2.903 1.675c.041.022.071.03.113.019l.551-.151c.055-.015.076-.05.116-.12l.027-.048c.022-.042.03-.072.02-.114l-.087-.331.33-.091c.11-.03.172-.136.143-.246l-.145-.553c-.035-.02-.084-.096-.12-.116l-3.308-1.91.331-1.217zm6.145 1.342c-.041.07-.061.105-.067.196l.197.865c.03.11.134.17.244.14.055-.015.075-.05.116-.12.04-.07.061-.106.046-.161l-.087-.332.627.362c.105.06.215.03.276-.076.061-.105.032-.216-.072-.276l-.627-.362.33-.09c.11-.03.172-.136.143-.247-.03-.11-.134-.17-.244-.14l-.827.226s-.035-.02-.055.015zm-1.133 3.57c-.096.085-.087.231-.038.306.05.076.175.1.27.015l.958-.854.04-.07c.042-.071.047-.162-.002-.237-.05-.076-.174-.1-.27-.015zm-3.578-6.43l.888-.896 2.836 1.684.072.277-.33.09c-.11.03-.172.136-.143.247l.087.332-.275.075-3.135-1.81zm-1.864 3.147l3.115 1.845.072.276-.33.091c-.111.03-.172.136-.143.246l.087.332-.276.076-2.856-1.65.331-1.216z" opacity=".4" transform="rotate(11 14.417 169.39)"/>
            <path fill="#E44444" d="M48.888 123.596l1.86-.195c-.338-.188-.624-.478-.758-.847-.08-.151-.037-.347.075-.486.113-.14.267-.188.46-.176.52.106.934.412 1.17.835.142-.463.511-.884.97-1.06.152-.08.348-.036.486.076.14.113.188.268.176.46-.086.393-.274.73-.566.986l1.861-.196c.442-.046.824.265.87.706l.1.947c.01.095-.047.165-.142.175l-.158.016.282 2.683c.046.442-.264.825-.704.87l-5.04.53c-.441.047-.824-.264-.87-.705l-.282-2.682-.158.016c-.094.01-.164-.047-.174-.142l-.1-.946c-.072-.447.2-.819.642-.865zm4.083-1.45c-.006-.064-.01-.095-.047-.156 0 0-.067-.024-.098-.02l-.031.002c-.52.215-.879.731-.883 1.306.53-.12.96-.58 1.06-1.133zm-.559 6.185l2.363-.249c.252-.026.449-.27.422-.523l-.281-2.682-2.836.298.332 3.156zm-.365-3.471l3.209-.337-.083-.79c-.027-.253-.27-.45-.522-.424l-2.516.264.73.594c.07.057.08.151.024.22-.057.069-.151.08-.22.023l-.731-.593.11 1.043zm-1.615-2.64c-.094.01-.122.045-.122.045-.028.034-.054.101-.014.161.214.52.73.881 1.303.885-.155-.558-.616-.988-1.167-1.09zm-1.22 5.968c.026.253.269.45.521.424l2.363-.248-.332-3.156-2.835.298.282 2.682zm-.571-2.97l3.09-.325-.11-1.041-.591.732c-.028.034-.06.038-.122.044-.062.007-.095.01-.13-.018-.07-.057-.08-.151-.022-.22l.591-.734-2.367.249c-.252.026-.449.27-.422.523l.083.79z" opacity=".5" transform="rotate(11 14.417 169.39)"/>
            <path fill="#1D999E" d="M135.857 162.064l-.42-1.821c-.146.358-.399.677-.748.855-.141.098-.34.079-.493-.016-.151-.094-.219-.242-.23-.434.042-.53.295-.978.686-1.263-.476-.085-.94-.4-1.17-.835-.098-.14-.078-.34.016-.491.095-.152.243-.22.436-.23.4.037.758.183 1.047.44l-.421-1.822c-.1-.433.162-.85.594-.95l.928-.214c.093-.021.17.027.19.12l.037.154 2.627-.607c.434-.1.851.162.95.593l1.14 4.938c.1.432-.162.85-.594.95l-2.628.606.036.155c.022.092-.026.169-.12.19l-.927.214c-.435.127-.836-.099-.936-.532zm-1.938-3.875c-.062.014-.093.021-.148.066 0 0-.016.069-.009.1l.007.03c.276.49.833.783 1.404.717-.184-.511-.692-.881-1.254-.913zm6.208-.2l-.535-2.314c-.057-.247-.323-.413-.57-.356l-2.628.607.641 2.778 3.092-.714zm-3.4.786L136 155.63l-.774.179c-.247.057-.414.322-.356.57l.569 2.465.5-.798c.047-.077.14-.098.215-.05.076.048.098.14.05.216l-.5.798 1.022-.236zm-2.423 1.925c.02.092.058.115.058.115.038.024.107.041.162-.005.49-.276.785-.832.72-1.402-.535.223-.906.732-.94 1.292zm6.071.484c.248-.057.415-.322.357-.57l-.534-2.315-3.092.714.642 2.778 2.627-.607zm-2.878.928l-.7-3.028-1.02.236.8.498c.037.024.044.055.058.116.014.061.021.093-.002.13-.048.077-.14.098-.216.05l-.8-.498.535 2.32c.057.247.323.412.57.355l.775-.179z" opacity=".5" transform="rotate(11 14.417 169.39)"/>
            <path fill="#683F77" d="M123.236 104.385l-.112 2.134c.272-.348.65-.619 1.09-.704.186-.064.4.02.536.172.137.152.165.335.116.55-.212.568-.632.981-1.15 1.172.495.243.906.735 1.021 1.285.064.185-.02.398-.172.535-.152.136-.336.164-.551.115-.427-.166-.775-.44-1.011-.814l-.112 2.135c-.027.507-.446.883-.952.856l-1.087-.057c-.109-.006-.178-.082-.172-.19l.01-.182-3.078-.161c-.508-.027-.884-.446-.858-.951l.303-5.783c.027-.507.446-.883.952-.856l3.078.161.01-.181c.005-.109.082-.178.19-.172l1.087.057c.518-.002.888.373.862.88zm.907 4.869c.073.003.109.005.184-.027 0 0 .04-.07.041-.106l.002-.036c-.15-.624-.668-1.122-1.316-1.23.04.62.482 1.187 1.09 1.399zm-6.882-1.737l-.142 2.71c-.015.29.225.556.515.572l3.078.16.17-3.253-3.62-.19zm3.983.208l-.193 3.683.907.047c.29.015.556-.224.572-.514l.15-2.887-.8.719c-.076.07-.185.063-.252-.013-.068-.077-.064-.185.013-.253l.8-.719-1.197-.063zm3.268-1.351c.006-.108-.028-.146-.028-.146-.034-.037-.105-.078-.18-.045-.626.149-1.124.667-1.231 1.314.657-.076 1.225-.52 1.44-1.123zm-6.518-2.445c-.29-.015-.556.224-.571.514l-.143 2.71 3.622.19.17-3.253-3.078-.161zm3.455-.113l-.186 3.547 1.195.062-.72-.799c-.034-.037-.032-.075-.028-.146.003-.07.005-.108.043-.142.077-.069.185-.063.253.013l.722.8.143-2.717c.015-.29-.225-.555-.515-.57l-.907-.048z" transform="rotate(11 14.417 169.39)"/>
        </g>
        <g>
            <path fill="#E44444" d="M145.359 50.794l3.95-.82c.047-.016.11.016.174.048l2.085 1.444c.08.08.114.177.194.258-.03.064-.061.129-.156.161l-.047.017-1.185.245 1.298 3.769c.033.097.019.21-.06.29l-3.283 2.753-.19.065-4.282-.147c-.111-.016-.192-.096-.225-.193l-1.298-3.768-1.085.536-.08.027c-.052.014-.125.022-.19-.043-.08-.08-.113-.177-.1-.29l.754-2.42c-.017-.049.061-.13.109-.146l3.617-1.786zm.049 1.064l-.528 1.695c.017.048-.061.129-.108.145l-2.076 1.04 1.264 3.671 3.743.116-2.295-6.667zm.472-.163l2.296 6.668 2.878-2.397-1.264-3.671-2.275.459c-.048.016-.112-.016-.176-.048l-1.459-1.01zm-.418 4.468c.094-.033.141-.05.253-.033l1.006.464c.128.064.178.209.116.338-.03.065-.078.08-.172.113-.095.033-.142.05-.206.017l-.384-.192.3.87c.05.145-.012.274-.153.323-.142.049-.27-.015-.32-.16l-.3-.87-.183.388c-.062.129-.204.178-.331.114-.128-.065-.178-.21-.117-.339zm3.896-.207c.125-.097.284-.098.38.031.081.08.084.242-.041.339l-1.016.89-.095.033c-.094.032-.206.016-.286-.064-.097-.129-.053-.306.042-.339zm-4.367-4.387l-2.988 1.461-.558 1.76 2.988-1.461.558-1.76zm1.023-.406l1.523 1.042 3.255-.688-1.523-1.043-3.255.689z" opacity=".3" transform="translate(193 35)"/>
            <path fill="#FCD834" d="M159.229 25.438l2.034 2.596c.028.03.03.086.03.143l-.256 1.992c-.027.086-.083.142-.11.227-.058 0-.115-.002-.173-.06l-.028-.029-.61-.778-2.193 2.192c-.056.056-.141.083-.227.053l-3.158-1.472-.116-.115-1.472-3.158c-.03-.086-.002-.171.054-.228l2.192-2.192-.779-.61-.029-.029c-.029-.029-.087-.087-.06-.172.028-.085.084-.141.17-.168l1.992-.256c.028-.028.114.001.143.03l2.596 2.034zm-.736.389l-1.395.179c-.028.028-.114-.002-.143-.03l-1.5-1.163-2.135 2.135 1.295 2.757 3.878-3.878zm.29.289l-3.879 3.878 2.756 1.295 2.136-2.136-1.162-1.5c-.03-.028-.03-.085-.03-.142l.178-1.395zm-3.32 1.178c.058.057.087.086.117.172l.041.885c.002.114-.082.198-.196.197-.057-.001-.086-.03-.144-.088-.058-.058-.087-.087-.088-.144l-.005-.342-.506.506c-.084.084-.198.082-.285-.004-.087-.087-.088-.201-.004-.286l.506-.506-.342-.005c-.114-.001-.201-.088-.203-.202-.002-.114.083-.198.197-.197zm1.58 2.76c.115.059.174.174.119.287-.027.085-.14.14-.256.082l-1.004-.443-.058-.058c-.058-.058-.088-.144-.06-.229.055-.113.197-.14.255-.081zm1.501-4.626l-2.135-1.685-1.451.178 2.135 1.686 1.451-.179zm.665.609l-.178 1.451 1.685 2.135.178-1.452-1.685-2.134z" opacity=".2" transform="translate(193 35)"/>
            <path fill="#5EC26C" d="M68.488 123.178l4.193-1.95c.088-.022.201-.012.253.049l4.376 5.215c.051.061.04.175.004.258l-2.648 3.79-.062.052-4.193 1.95c-.088.021-.201.012-.253-.05l-4.376-5.214c-.051-.061-.04-.175-.004-.258l2.648-3.79.062-.052zm.091.55l-.726 1.029 2.504 2.986c.029.037.043.065.039.107l-.054.568c-.005.057-.037.083-.099.135l-.041.034c-.038.03-.066.043-.109.04l-.34-.028-.033.34c-.01.114-.104.193-.218.183l-.568-.045c-.026-.031-.108-.066-.134-.097l-2.11-2.516-.494.676 4.17 4.97 3.805-1.782-5.592-6.6zm.317-.317l5.585 6.657 2.415-3.438-4.253-5.005-.75.369 2.11 2.515c.052.062.078.092.072.149l-.053.568c-.006.056-.037.083-.099.135l-.042.034c-.037.029-.065.043-.108.04l-.341-.028-.032.34c-.01.114-.104.192-.218.183l-.568-.046c-.026-.03-.108-.066-.134-.096l-2.446-2.915-1.138.538zm2.374 5.797c.062-.052.093-.078.18-.1l.885.043c.113.009.19.1.18.214-.006.057-.037.083-.099.135-.062.053-.093.079-.15.074l-.341-.027.463.552c.077.092.067.205-.027.284-.093.078-.206.069-.284-.023l-.463-.552-.032.34c-.01.114-.104.192-.218.183-.113-.01-.19-.101-.18-.215l.08-.851s-.025-.031.006-.057zm3.313-1.735c.068-.109.212-.126.295-.09.082.035.129.153.061.262l-.675 1.09-.063.052c-.062.052-.15.073-.232.038-.083-.035-.129-.153-.061-.262zm-6.933-2.39l-.727 1.029 2.142 2.489.284.023.032-.34c.01-.114.104-.193.218-.183l.34.027.028-.284-2.317-2.76zm2.773-2.379l2.347 2.735.285.023.032-.34c.01-.114.104-.192.217-.183l.341.028.027-.284-2.11-2.516-1.14.537z" opacity=".2" transform="translate(193 35)"/>
            <path fill="#FCD834" d="M115.064 47.133l1.192 4.467c.006.09-.023.201-.093.241l-5.895 3.404c-.07.04-.18.01-.255-.04l-3.273-3.267-.04-.07-1.192-4.467c-.006-.09.022-.201.092-.241l5.896-3.404c.069-.04.179-.01.254.04l3.273 3.267.04.07zm-.559-.006l-.886-.894-3.376 1.948c-.041.022-.071.03-.112.019l-.55-.151c-.055-.016-.075-.05-.116-.121l-.026-.047c-.022-.042-.031-.072-.02-.114l.086-.33-.33-.092c-.11-.03-.17-.135-.142-.246l.144-.551c.035-.02.084-.096.118-.116l2.844-1.641-.58-.603-5.617 3.243 1.093 4.056 7.47-4.36zm.258.367l-7.525 4.345 2.966 2.974 5.667-3.319-.233-.803-2.843 1.642c-.07.04-.105.06-.16.045l-.55-.151c-.054-.015-.074-.05-.115-.12l-.026-.048c-.023-.042-.031-.072-.02-.113l.086-.332-.33-.09c-.11-.03-.171-.136-.142-.246l.144-.552c.034-.02.083-.095.118-.115l3.295-1.902-.332-1.215zm-6.121 1.331c.04.07.06.105.067.196l-.196.863c-.028.11-.132.17-.242.14-.055-.015-.076-.05-.116-.12-.04-.071-.061-.106-.047-.162l.087-.33-.625.36c-.104.06-.214.03-.275-.076-.06-.105-.032-.216.072-.276l.625-.36-.33-.09c-.11-.031-.171-.137-.142-.247.028-.11.132-.17.242-.14l.825.227s.035-.02.055.015zm1.133 3.564c.096.086.087.231.038.306-.05.076-.173.1-.269.015l-.956-.854-.04-.07c-.04-.071-.047-.161.002-.237.05-.075.174-.1.27-.014zm3.557-6.413l-.886-.894-2.823 1.677-.072.276.33.09c.11.03.17.136.142.247l-.087.33.275.076 3.121-1.802zm1.862 3.144l-3.101 1.837-.072.276.33.091c.11.03.17.136.142.246l-.087.331.275.076 2.844-1.642-.331-1.215z" opacity=".3" transform="translate(193 35)"/>
            <path fill="#E44444" d="M62.669 89.173l-2.587 1.64c-.054.023-.127.029-.161-.005l-2.938-2.837c-.035-.033-.032-.106-.012-.161l1.55-2.642.037-.04 2.586-1.64c.055-.022.128-.028.162.006l2.938 2.837c.035.034.032.106.012.162l-1.55 2.642-.037.038zm-.076-.336l.426-.718-1.66-1.602c-.034-.033-.052-.05-.05-.086l.015-.362c.002-.036.02-.055.058-.094.038-.04.056-.059.093-.061l.216-.017.01-.217c.002-.072.059-.13.13-.136l.361-.028c.018.017.071.03.088.047l1.418 1.369.29-.473-2.8-2.704-2.347 1.496 3.752 3.586zm-.19.23l-3.75-3.621-1.413 2.397 2.853 2.718.462-.306-1.417-1.369c-.034-.033-.052-.05-.05-.086l.015-.361c.002-.037.02-.056.058-.095.038-.039.056-.058.092-.061l.217-.017.009-.217c.003-.072.06-.13.132-.136l.36-.028c.018.017.071.03.088.048l1.642 1.585.702-.45zm-1.691-3.401c-.038.039-.057.058-.112.08l-.56.062c-.072.005-.124-.045-.12-.117 0-.036.02-.056.057-.095.038-.039.057-.058.093-.061l.216-.017-.31-.3c-.053-.05-.05-.122.007-.18.056-.06.128-.065.18-.015l.311.3.01-.216c.002-.073.059-.13.13-.136.073-.006.125.044.122.116l-.023.543s.017.016-.001.036zm-2.038 1.418c-.039.075-.13.1-.183.086-.054-.014-.087-.083-.048-.158l.392-.751.037-.04c.038-.038.093-.06.146-.046.053.013.086.083.047.158zm4.462.81l.426-.717-1.436-1.35-.18.014-.01.217c-.003.073-.06.131-.132.137l-.216.016-.008.181 1.556 1.502zm-1.675 1.769l-1.574-1.483-.18.014-.01.217c-.002.072-.059.13-.131.136l-.217.017-.007.18 1.417 1.37.702-.451z" opacity=".2" transform="translate(193 35)"/>
            <path fill="#E44444" d="M143.253 89.896l3.454-1.025c.07-.007.158.014.192.069l2.886 4.618c.034.054.014.142-.022.203l-2.436 2.655-.054.034-3.454 1.025c-.07.006-.158-.015-.192-.069l-2.886-4.619c-.034-.054-.014-.142.022-.202l2.436-2.656.054-.033zm.016.443l-.667.72 1.63 2.607c.033.055.05.082.04.126l-.098.439c-.01.044-.036.06-.09.094-.053.033-.08.05-.124.04l-.262-.063-.059.263c-.02.088-.1.138-.187.117l-.438-.104c-.017-.027-.078-.065-.095-.092l-1.392-2.228-.45.47 2.75 4.402 3.136-.94-3.694-5.851zm.277-.211l3.684 5.895 2.22-2.406-2.812-4.44-.62.2 1.392 2.227c.034.055.051.082.041.126l-.098.439c-.01.044-.036.06-.09.094-.053.033-.08.05-.124.04l-.262-.063-.06.263c-.019.088-.1.138-.187.118l-.437-.105c-.017-.027-.078-.065-.095-.092l-1.613-2.58-.939.284zm1.272 4.834c.053-.033.08-.05.15-.056l.684.14c.087.02.138.102.118.19-.01.044-.036.06-.09.094-.053.033-.08.05-.124.04l-.262-.063.305.489c.051.081.032.17-.049.22-.08.05-.168.029-.218-.053l-.306-.489-.059.264c-.02.087-.1.138-.187.117-.088-.021-.139-.103-.12-.19l.148-.659s-.017-.027.01-.044zm2.749-.962c.063-.078.177-.073.238-.036.06.038.085.136.022.213l-.634.774-.053.033c-.054.034-.124.04-.185.003-.06-.038-.085-.136-.022-.214zm-5.155-2.71l-.668.72 1.419 2.21.219.053.059-.264c.02-.087.1-.138.187-.117l.262.063.05-.22-1.528-2.445zm2.392-1.533l1.555 2.429.219.052.058-.263c.02-.088.1-.138.188-.117l.262.062.05-.22-1.393-2.227-.939.284z" opacity=".8" transform="translate(193 35)"/>
            <path fill="#E44444" d="M100.031 6.43l-2.225.9c.27-.416.42-.916.35-1.414 0-.22-.168-.415-.379-.504-.21-.09-.415-.052-.626.078-.526.433-.812 1.029-.825 1.648-.44-.436-1.112-.69-1.738-.612-.22 0-.415.168-.505.378-.09.211-.052.416.078.626.333.392.75.66 1.234.773l-2.228.9c-.528.214-.774.796-.562 1.322l.457 1.13c.045.113.152.158.265.113l.19-.077 1.293 3.202c.213.528.796.773 1.322.56l6.034-2.438c.528-.213.774-.795.562-1.321l-1.294-3.202.19-.076c.112-.046.158-.153.112-.266l-.457-1.13c-.186-.549-.72-.804-1.248-.59zm-5.502.82c-.03-.076-.046-.113-.04-.204 0 0 .062-.068.099-.083l.037-.015c.718-.07 1.436.297 1.786.945-.672.183-1.436-.078-1.882-.643zm4.354 6.654l-2.828 1.143c-.303.122-.672-.035-.794-.337l-1.294-3.2 3.394-1.372 1.522 3.766zm-1.674-4.142l-3.841 1.552-.38-.943c-.123-.302.034-.672.336-.794l3.013-1.217-.473 1.111c-.045.107 0 .22.107.263.106.044.22 0 .263-.106l.472-1.111.503 1.245zm.244-3.956c.114-.046.166-.024.166-.024.052.022.121.082.113.174.07.717-.298 1.435-.946 1.785-.16-.724.104-1.488.667-1.935zm4.974 6.01c.122.301-.035.67-.337.793L99.26 13.75 97.74 9.985l3.394-1.371 1.293 3.201zm-1.14-3.702l-3.7 1.495-.502-1.243 1.112.47c.052.023.09.007.165-.023.074-.03.113-.046.135-.098.046-.106 0-.22-.106-.263L97.28 7.98l2.834-1.144c.302-.123.672.034.793.336l.381.943z" opacity=".4" transform="translate(193 35)"/>
            <path fill="#1D999E" d="M103.715 84.729l1.58-.25c-.237.229-.41.53-.439.865-.033.142.047.294.17.384.124.09.263.096.419.043.407-.202.682-.546.783-.947.22.35.619.616 1.037.659.143.032.295-.047.385-.17.09-.124.096-.263.043-.419-.157-.304-.388-.541-.685-.687l1.582-.25c.375-.06.622-.401.563-.775l-.127-.802c-.013-.08-.075-.126-.156-.113l-.134.021-.36-2.274c-.06-.374-.401-.621-.775-.562l-4.285.679c-.375.06-.622.4-.563.774l.36 2.274-.134.02c-.08.014-.126.076-.113.156l.127.803c.039.384.347.63.722.57zm3.697.292c.009.054.013.08-.005.138 0 0-.05.035-.076.04l-.026.004c-.477-.062-.889-.409-1.019-.882.464-.018.921.266 1.126.7zm-1.83-4.975l2.008-.318c.215-.034.432.123.466.337l.36 2.274-2.41.381-.424-2.674zm.466 2.942l2.728-.432.106.67c.034.214-.124.43-.338.464l-2.14.339.474-.651c.045-.062.033-.143-.03-.187-.062-.044-.143-.032-.187.03l-.473.65-.14-.883zm-.752 2.533c-.08.013-.11-.01-.11-.01-.031-.022-.068-.071-.049-.13.063-.476.41-.887.883-1.017-.005.494-.29.95-.724 1.157zm-2.33-4.65c-.034-.214.124-.43.339-.465l2.008-.318.424 2.675-2.41.382-.36-2.274zm.186 2.575l2.627-.416.14.883-.651-.473c-.03-.022-.059-.018-.111-.01-.053.01-.08.014-.103.044-.045.063-.033.143.03.187l.651.474-2.012.319c-.215.034-.431-.124-.465-.338l-.106-.67z" transform="translate(193 35)"/>
            <path fill="#1D999E" d="M2.57 99.413l-.038 2.133c-.246-.365-.603-.662-1.034-.778-.18-.076-.398-.006-.545.135-.146.142-.186.322-.153.54.171.58.56 1.021 1.062 1.247-.51.208-.951.67-1.105 1.21-.076.18-.007.398.135.544.141.147.321.187.539.154.436-.137.8-.384 1.06-.74l-.037 2.134c-.008.507.382.91.887.919l1.083.019c.108.002.183-.07.184-.178l.004-.182 3.068.054c.506.009.91-.382.918-.887l.101-5.784c.009-.506-.382-.91-.886-.918l-3.069-.054.003-.181c.002-.109-.07-.183-.178-.185l-1.083-.019c-.514-.037-.908.31-.917.817zM1.33 104.2c-.073-.002-.109-.002-.181-.04 0 0-.034-.073-.034-.108v-.036c.193-.612.743-1.072 1.394-1.133-.084.614-.562 1.148-1.18 1.317zm6.956-1.252l-.047 2.711c-.005.29-.262.538-.551.533l-3.069-.054.057-3.253 3.61.063zm-3.97-.07l-.065 3.683-.904-.016c-.29-.005-.537-.262-.532-.552l.05-2.887.746.772c.071.074.18.076.252.005.072-.072.076-.18.004-.253l-.745-.772 1.193.02zm-3.153-1.573c.002-.108.038-.143.038-.143.036-.035.11-.071.182-.033.611.192 1.07.743 1.132 1.395-.648-.122-1.181-.602-1.352-1.219zm6.645-1.982c.29.005.537.262.532.551l-.047 2.711-3.61-.063.056-3.253 3.069.054zm-3.424-.353l-.062 3.546-1.192-.02.772-.747c.036-.035.036-.072.038-.143 0-.071.002-.108-.033-.145-.072-.074-.18-.076-.253-.004l-.773.746.048-2.716c.005-.29.261-.538.55-.533l.905.016z" opacity=".2" transform="translate(193 35)"/>
            <path fill="#5EC26C" d="M159.632 6.163l-1.409-1.225c.383.04.783-.032 1.103-.256.152-.078.228-.263.216-.44-.013-.178-.111-.307-.276-.407-.485-.212-1-.2-1.433.01.147-.459.086-1.014-.19-1.42-.077-.153-.262-.23-.44-.217-.178.012-.307.11-.406.275-.154.369-.193.753-.1 1.128l-1.41-1.226c-.335-.29-.825-.256-1.115.077l-.622.716c-.062.071-.056.161.016.224l.12.104-1.762 2.026c-.29.335-.255.825.078 1.115l3.82 3.32c.334.291.825.256 1.114-.077l1.762-2.027.12.104c.072.062.161.056.224-.015l.622-.716c.314-.323.303-.782-.032-1.073zm-2.511-3.524c.042-.048.062-.071.127-.099 0 0 .069.018.092.039l.024.02c.302.473.301 1.1-.024 1.571-.364-.4-.453-1.022-.22-1.53zm-3.074 5.367l-1.79-1.556c-.192-.167-.214-.478-.048-.67l1.762-2.026 2.149 1.868-2.073 2.384zm2.28-2.622l-2.432-2.114.519-.597c.166-.192.477-.213.669-.047l1.907 1.658-.937.065c-.09.006-.152.078-.145.166.008.09.078.153.167.145l.937-.065-.685.789zm2.827-1.228c.072.062.075.106.075.106.003.044-.014.113-.08.14-.473.302-1.1.3-1.572-.025.446-.367 1.068-.454 1.577-.221zm-2.408 5.569c-.166.19-.478.212-.67.046l-1.79-1.557 2.073-2.384 2.149 1.868-1.762 2.027zm2.162-2.097l-2.342-2.036.684-.787.066.936c.003.044.028.066.075.107.047.04.072.062.116.059.09-.006.152-.078.144-.167l-.065-.938 1.794 1.56c.192.166.214.478.047.669l-.519.597z" opacity=".3" transform="translate(193 35)"/>
            <path fill="#5EC26C" d="M75.68 41.85l.42-1.82c.144.358.396.676.744.854.14.098.339.078.49-.016.15-.095.218-.242.23-.434-.041-.529-.294-.976-.683-1.261.475-.085.937-.4 1.166-.834.098-.14.078-.34-.016-.491-.094-.151-.241-.219-.433-.23-.398.038-.756.184-1.043.442l.42-1.82c.1-.433-.161-.85-.591-.949l-.924-.213c-.093-.021-.169.027-.19.12l-.036.154-2.617-.604c-.431-.1-.847.162-.947.592l-1.138 4.931c-.1.432.161.849.591.948l2.617.604-.036.155c-.021.092.027.169.119.19l.924.213c.433.126.833-.1.933-.531zm1.932-3.872c.062.014.092.021.147.066 0 0 .016.07.01.1l-.008.03c-.275.489-.83.782-1.398.716.183-.51.69-.88 1.249-.912zm-6.182-.194l.534-2.312c.057-.247.321-.413.568-.356l2.617.604-.64 2.774-3.08-.71zm3.386.781l.725-3.14.77.178c.247.057.413.322.356.57l-.569 2.462-.497-.797c-.048-.077-.14-.098-.215-.05-.075.048-.098.14-.05.216l.497.796-1.017-.235zm2.412 1.92c-.022.093-.06.116-.06.116-.036.024-.106.041-.16-.005-.489-.275-.782-.83-.716-1.4.533.223.902.73.936 1.29zm-6.048.489c-.247-.057-.412-.322-.355-.57l.534-2.311 3.078.71-.64 2.775-2.617-.604zm2.866.925l.699-3.025 1.016.235-.796.498c-.038.023-.045.055-.06.116-.013.06-.02.092.003.13.048.076.14.097.215.05l.797-.498-.534 2.316c-.057.247-.322.412-.569.356l-.77-.178z" opacity=".2" transform="translate(193 35)"/>
            <path fill="#FCD834" d="M130.255 153.184l1.582-2.466c.016-.033.062-.05.109-.069l1.703-.383c.077-.003.138.027.216.024.014.048.029.095-.003.16l-.016.033-.474.74 2.388 1.165c.061.03.106.093.105.173l-.357 3.063-.064.131-2.194 2.168c-.063.05-.14.053-.201.023l-2.388-1.165-.291.83-.016.033c-.016.032-.048.098-.125.1-.077.003-.139-.027-.184-.09l-.746-1.577c-.03-.015-.03-.096-.014-.128l.97-2.765zm.517.495l.522 1.104c.03.015.03.096.013.128l-.55 1.594 2.328 1.135 1.912-1.9-4.225-2.061zm.16-.327l4.224 2.06.32-2.676-2.326-1.135-.918 1.414c-.016.033-.062.05-.109.068l-1.192.269zm1.858 2.404c.013-.026.023-.046.035-.065l.032.052c-.007-.015-.017-.033-.03-.054.016-.028.037-.052.074-.081l.714-.3c.093-.035.185.01.215.105.014.048-.002.08-.034.146-.031.065-.047.098-.094.116l-.28.106.552.269c.092.045.121.14.073.238-.048.098-.14.134-.233.089l-.55-.269.087.286c.03.095-.018.193-.111.229-.094.035-.185-.01-.215-.105zm1.84-2.138c.017-.113.095-.197.203-.184.077-.003.153.074.136.187l-.093.967-.032.065c-.031.066-.094.116-.171.119-.108-.012-.168-.122-.136-.188zm-4.199.137l-.808 2.278.538 1.152.807-2.277-.537-1.153zm.32-.734l1.239-.286 1.297-2.038-1.238.286-1.298 2.038z" opacity=".5" transform="translate(193 35)"/>
            <path fill="#683F77" d="M80.34 162.824l-3.432 2.121c-.039.032-.11.024-.181.015l-2.452-.644c-.104-.048-.168-.127-.271-.175.007-.071.013-.142.091-.205l.039-.032 1.03-.636-2.509-3.098c-.064-.079-.09-.19-.044-.293l2.145-3.71.155-.125 4.075-1.327c.11-.023.213.025.277.104l2.508 3.098.837-.875.066-.053c.044-.03.11-.063.192-.025.104.048.168.128.193.238l.12 2.533c.033.04-.013.143-.052.174l-2.788 2.915zm-.41-.983l-.085-1.773c-.032-.04.014-.142.052-.173l1.596-1.687-2.444-3.018-3.557 1.171 4.437 5.48zm-.39.315l-4.437-5.48-1.885 3.236 2.444 3.018 1.98-1.21c.04-.031.11-.023.182-.015l1.717.451zm-1.134-4.341c-.078.062-.116.094-.226.117l-1.105-.092c-.142-.016-.238-.135-.225-.278.007-.071.046-.102.124-.165.077-.063.116-.095.187-.087l.426.05-.578-.715c-.097-.12-.084-.262.033-.356.117-.094.259-.078.355.041l.58.715.04-.427c.013-.142.13-.237.271-.22.143.016.239.135.226.278zm-3.59 1.526c-.085.135-.234.19-.369.102-.103-.048-.16-.199-.076-.333l.65-1.184.078-.063c.077-.063.187-.086.29-.038.136.087.155.27.077.332zm5.604 2.63l2.308-2.396-.077-1.844-2.309 2.395.078 1.844zm-.823.731l-1.788-.459-2.823 1.76 1.788.46 2.823-1.76z" opacity=".5" transform="translate(193 35)"/>
            <path fill="#FCD834" d="M20.742 135.802l2.034 2.596c.03.03.03.086.031.143l-.256 1.993c-.027.085-.083.14-.11.226-.058 0-.115-.002-.173-.06l-.029-.028-.61-.78-2.192 2.193c-.056.056-.141.083-.227.053l-3.158-1.471-.116-.116-1.472-3.158c-.03-.086-.002-.171.054-.228l2.192-2.192-.779-.61-.029-.029c-.029-.029-.087-.087-.06-.172.028-.085.084-.141.17-.168l1.991-.256c.029-.028.115.001.143.03l2.596 2.034zm-.735.389l-1.395.179c-.028.028-.114-.002-.143-.03l-1.5-1.163-2.135 2.136 1.295 2.756 3.878-3.878zm.29.29l-3.879 3.877 2.756 1.295 2.136-2.136-1.162-1.5c-.03-.028-.03-.085-.031-.142l.18-1.395zm-3.32 1.177c.058.057.087.086.117.172l.041.885c.002.114-.082.198-.196.197-.057-.001-.086-.03-.144-.088-.058-.058-.087-.087-.088-.144l-.005-.342-.506.506c-.084.084-.198.082-.285-.004-.087-.087-.088-.201-.004-.286l.506-.505-.342-.005c-.115-.002-.201-.089-.203-.203-.002-.114.083-.198.197-.197zm1.58 2.76c.115.059.174.174.119.287-.028.085-.14.14-.256.082l-1.004-.443-.058-.058c-.058-.057-.088-.143-.06-.229.055-.113.197-.14.255-.081zm1.501-4.626l-2.135-1.685-1.451.179 2.134 1.685 1.452-.179zm.665.609l-.179 1.451 1.685 2.135.179-1.452-1.685-2.134z" opacity=".1" transform="translate(193 35)"/>
            <path fill="#1D999E" d="M162.402 136.677l1.192 4.467c.006.09-.023.2-.092.24l-5.896 3.405c-.07.04-.18.01-.254-.04l-3.273-3.267-.04-.07-1.193-4.468c-.006-.09.023-.2.092-.24l5.896-3.404c.07-.04.18-.01.255.04l3.272 3.266.041.07zm-.558-.006l-.886-.895-3.376 1.949c-.042.021-.072.03-.113.019l-.55-.152c-.055-.015-.075-.05-.115-.12l-.027-.047c-.022-.043-.03-.073-.02-.114l.086-.331-.33-.09c-.11-.031-.17-.137-.142-.247l.144-.552c.035-.02.084-.095.119-.115l2.844-1.642-.58-.603-5.618 3.244 1.093 4.056 7.47-4.36zm.258.366l-7.526 4.345 2.966 2.975 5.667-3.319-.232-.803-2.844 1.642c-.07.04-.104.06-.159.045l-.55-.152c-.055-.015-.075-.05-.116-.12l-.026-.047c-.022-.042-.03-.072-.02-.114l.086-.33-.33-.092c-.11-.03-.17-.135-.142-.246l.144-.551c.035-.02.084-.096.119-.116l3.294-1.902-.331-1.215zm-6.122 1.332c.041.07.061.105.067.195l-.195.863c-.029.11-.133.17-.243.14-.055-.015-.075-.05-.116-.12-.04-.07-.06-.106-.046-.16l.086-.332-.624.36c-.104.06-.214.03-.275-.075-.061-.106-.032-.216.072-.276l.624-.36-.33-.091c-.11-.03-.17-.136-.142-.246.029-.11.133-.17.243-.14l.825.227s.034-.02.054.015zm1.133 3.564c.096.085.088.23.038.306-.049.075-.173.1-.268.015l-.956-.855-.04-.07c-.041-.07-.047-.16.002-.236.049-.075.173-.1.269-.015zm3.558-6.413l-.886-.894-2.824 1.677-.072.276.33.09c.11.03.17.136.142.246l-.086.331.275.076 3.12-1.802zm1.861 3.144l-3.1 1.837-.073.276.33.09c.11.03.17.136.142.247l-.086.33.275.076 2.844-1.641-.332-1.215z" opacity=".4" transform="translate(193 35)"/>
            <path fill="#E44444" d="M117.207 123.78l-1.857-.195c.338-.187.623-.475.757-.843.08-.15.036-.346-.076-.484-.112-.139-.267-.188-.459-.175-.52.105-.933.41-1.168.83-.142-.46-.511-.88-.97-1.055-.151-.08-.347-.036-.485.076-.139.112-.188.266-.175.458.086.39.274.727.565.981l-1.858-.195c-.441-.046-.823.264-.869.703l-.1.942c-.009.095.048.165.142.175l.158.016-.28 2.671c-.047.44.263.822.703.868l5.033.529c.441.046.823-.264.869-.703l.28-2.67.158.016c.095.01.165-.047.175-.141l.099-.943c.072-.445-.201-.815-.642-.861zm-4.078-1.446c.007-.063.01-.094.047-.154 0 0 .067-.025.098-.021l.031.003c.519.214.878.728.882 1.3-.529-.12-.958-.577-1.058-1.128zm.56 6.16l-2.36-.248c-.252-.027-.448-.27-.422-.521l.281-2.671 2.832.297-.33 3.143zm.364-3.456l-3.205-.337.083-.787c.026-.252.269-.448.521-.422l2.513.264-.73.59c-.07.058-.08.152-.023.22.057.069.151.08.22.024l.73-.591-.11 1.039zm1.612-2.628c.094.01.122.044.122.044.027.034.053.1.014.16-.214.519-.729.878-1.302.881.156-.555.615-.984 1.166-1.085zm1.22 5.943c-.026.252-.268.448-.52.422l-2.36-.248.33-3.142 2.832.297-.281 2.67zm.57-2.958l-3.087-.324.11-1.037.59.73c.028.033.06.037.123.043.061.007.094.01.128-.018.07-.056.08-.15.023-.22l-.591-.73 2.364.248c.252.027.449.27.422.522l-.082.786z" opacity=".5" transform="translate(193 35)"/>
            <path fill="#1D999E" d="M30.344 162.093l.42-1.82c.144.358.396.677.744.854.14.098.339.079.49-.016.151-.094.218-.242.23-.434-.041-.528-.294-.976-.682-1.26.474-.086.936-.4 1.165-.835.098-.14.078-.34-.016-.49-.094-.152-.241-.22-.433-.23-.398.037-.756.183-1.043.441l.42-1.82c.1-.433-.161-.849-.591-.948l-.924-.214c-.092-.02-.169.027-.19.12l-.036.154-2.617-.604c-.431-.1-.847.162-.947.592l-1.138 4.932c-.1.432.161.848.591.947l2.617.605-.036.154c-.021.093.027.17.119.19l.924.214c.433.126.833-.1.933-.532zm1.932-3.872c.062.015.092.022.147.066 0 0 .016.07.01.1l-.008.03c-.275.489-.83.783-1.398.717.183-.51.69-.88 1.249-.913zm-6.182-.194l.534-2.312c.057-.247.322-.413.568-.356l2.617.604-.64 2.775-3.079-.711zm3.386.782l.725-3.14.77.178c.247.057.413.322.356.569l-.569 2.462-.497-.797c-.048-.076-.14-.098-.215-.05-.075.049-.098.14-.05.216l.497.796-1.017-.234zm2.412 1.92c-.022.092-.06.116-.06.116-.036.023-.106.04-.16-.006-.489-.275-.782-.83-.716-1.399.533.222.902.73.936 1.289zm-6.048.488c-.247-.057-.412-.322-.355-.57l.534-2.31 3.078.71-.64 2.774-2.617-.604zm2.866.925l.699-3.024 1.016.234-.796.498c-.038.024-.045.055-.059.116-.014.06-.021.093.002.13.048.076.14.098.215.05l.797-.498-.534 2.316c-.057.247-.322.413-.569.356l-.77-.178z" opacity=".5" transform="translate(193 35)"/>
            <path fill="#683F77" d="M28.702 118.465l2.087-.444c-.3.322-.509.737-.525 1.183-.033.193.083.39.254.5.17.11.356.11.56.028.528-.297.87-.775.977-1.315.317.45.867.776 1.427.804.193.034.39-.083.5-.253.112-.171.11-.356.029-.56-.231-.394-.555-.694-.96-.867l2.088-.444c.496-.106.8-.577.696-1.07l-.225-1.06c-.023-.106-.11-.162-.215-.14l-.178.038-.638-3.002c-.105-.495-.577-.8-1.071-.695l-5.658 1.203c-.495.105-.8.577-.696 1.07l.639 3.002-.178.038c-.106.022-.162.109-.14.215l.226 1.06c.079.509.506.814 1.001.709zm4.943.131c.016.072.023.106.003.185 0 0-.064.05-.098.057l-.035.008c-.64-.05-1.211-.482-1.418-1.103.617-.056 1.245.29 1.548.853zm-2.784-6.497l2.652-.564c.284-.06.583.134.643.418l.639 3.002-3.183.676-.75-3.532zm.826 3.885l3.602-.766.188.885c.06.283-.134.582-.418.642l-2.825.6.585-.9c.056-.085.034-.191-.052-.246-.086-.054-.193-.033-.247.053l-.585.9-.248-1.168zm-.825 3.425c-.106.023-.148-.004-.148-.004-.042-.028-.094-.091-.072-.17.05-.639.482-1.21 1.104-1.417.027.659-.321 1.287-.884 1.591zm-3.426-6.028c-.06-.283.135-.582.418-.643l2.652-.563.751 3.532-3.183.676-.638-3.002zm.427 3.416l3.469-.738.248 1.166-.9-.584c-.043-.027-.08-.02-.149-.005-.07.015-.106.023-.133.065-.056.086-.034.192.052.247l.9.585-2.656.565c-.284.06-.583-.134-.644-.417l-.187-.884z" transform="translate(193 35)"/>
        </g>
    </g>
</svg>
