<?xml version="1.0" encoding="UTF-8"?>
<svg width="11px" height="9px" viewBox="0 0 11 9" version="1.1" xmlns="http://www.w3.org/2000/svg" xmlns:xlink="http://www.w3.org/1999/xlink">
    <!-- Generator: Sketch 63.1 (92452) - https://sketch.com -->
    <title>live 2</title>
    <desc>Created with Sketch.</desc>
    <defs>
        <linearGradient x1="0%" y1="0.192052832%" x2="100%" y2="99.8079472%" id="linearGradient-1">
            <stop stop-color="#F48836" offset="0%"></stop>
            <stop stop-color="#F4364C" offset="100%"></stop>
        </linearGradient>
        <linearGradient x1="42.8817385%" y1="0%" x2="57.1182615%" y2="100%" id="linearGradient-2">
            <stop stop-color="#F48836" offset="0%"></stop>
            <stop stop-color="#F4364C" offset="100%"></stop>
        </linearGradient>
        <linearGradient x1="45.1443053%" y1="0%" x2="54.8556947%" y2="100%" id="linearGradient-3">
            <stop stop-color="#F48836" offset="0%"></stop>
            <stop stop-color="#F4364C" offset="100%"></stop>
        </linearGradient>
        <linearGradient x1="42.8818829%" y1="0%" x2="57.1181171%" y2="100%" id="linearGradient-4">
            <stop stop-color="#F48836" offset="0%"></stop>
            <stop stop-color="#F4364C" offset="100%"></stop>
        </linearGradient>
        <linearGradient x1="45.144386%" y1="0%" x2="54.855614%" y2="100%" id="linearGradient-5">
            <stop stop-color="#F48836" offset="0%"></stop>
            <stop stop-color="#F4364C" offset="100%"></stop>
        </linearGradient>
    </defs>
    <g id="Page-1" stroke="none" stroke-width="1" fill="none" fill-rule="evenodd">
        <g id="Live-Drop" transform="translate(-47.000000, -198.000000)" fill-rule="nonzero">
            <g id="Live-drop-2" transform="translate(47.000000, 197.000000)">
                <g id="live-2" transform="translate(-0.000000, 1.482101)">
                    <path d="M6.22640944,4.77510916 C5.79498385,5.2056058 5.09575857,5.2056058 4.66433297,4.77510916 C4.23304011,4.34461251 4.23304011,3.64658157 4.66433297,3.21608492 C5.09575857,2.78558828 5.79498385,2.78558828 6.22640944,3.21608492 C6.6577023,3.64658157 6.6577023,4.34461251 6.22640944,4.77510916 Z" id="Path" fill="url(#linearGradient-1)"></path>
                    <path d="M7.73527098,6.44547328 C7.60070762,6.44547328 7.46614425,6.39411628 7.36369557,6.29126951 C7.15879828,6.08610682 7.1591964,5.75367951 7.36435913,5.54891495 C7.78012545,5.13394483 8.00904244,4.58228804 8.00904244,3.99559702 C8.00904244,3.40890601 7.78012545,2.85724925 7.36435913,2.44227914 C7.1591964,2.23738184 7.15879828,1.90508727 7.36369557,1.69979185 C7.56846017,1.49462916 7.90088744,1.49423103 8.10605017,1.69912833 C8.72060935,2.31249314 9.05900836,3.12796847 9.05900836,3.99559702 C9.05900836,4.86309291 8.72060935,5.67870091 8.10605017,6.29206576 C8.00360152,6.39438167 7.86943625,6.44547328 7.73527098,6.44547328 Z" id="Path" fill="url(#linearGradient-2)"></path>
                    <path d="M8.92271984,7.99109427 C8.78815644,7.99109427 8.65359305,7.93973726 8.55114443,7.83702319 C8.34624714,7.63172777 8.34664523,7.29943319 8.55180795,7.0945359 C9.38121732,6.266719 9.83812237,5.16619225 9.83812237,3.99559702 C9.83812237,2.8250018 9.38121732,1.72447509 8.55180795,0.89665815 C8.34664523,0.691760855 8.34624714,0.359466279 8.55114443,0.154170859 C8.75604173,-0.0509918292 9.08833631,-0.0513899542 9.29349899,0.15350734 C10.3217012,1.17971898 10.8880883,2.54419696 10.8879556,3.99559702 C10.8879556,5.44699712 10.3217012,6.81160777 9.29349899,7.83781944 C9.19105035,7.94000266 9.05688508,7.99109427 8.92271984,7.99109427 Z" id="Path" fill="url(#linearGradient-3)"></path>
                    <path d="M3.15281733,6.44547328 C3.01865205,6.44547328 2.88448678,6.39438167 2.78190544,6.29206576 C2.16734625,5.67870091 1.82894724,4.86309291 1.82894724,3.99559702 C1.82894724,3.12796847 2.16734625,2.31249314 2.78190544,1.69912833 C2.98706816,1.49423103 3.31949544,1.49449646 3.52426003,1.69979185 C3.72915733,1.90495457 3.7287592,2.23738184 3.52359648,2.44227914 C3.10783015,2.85724925 2.87891317,3.40890601 2.87891317,3.99559702 C2.87891317,4.58228804 3.10783015,5.13394483 3.52359648,5.54891495 C3.7287592,5.75367951 3.72915733,6.08610682 3.52426003,6.29126951 C3.42181135,6.39398358 3.28724799,6.44547328 3.15281733,6.44547328 Z" id="Path" fill="url(#linearGradient-4)"></path>
                    <path d="M1.9653685,7.99109427 C1.83107053,7.99109427 1.69690526,7.94000266 1.59445661,7.83768671 C0.566254384,6.81147507 4.4408921e-15,5.44699712 4.4408921e-15,3.99559702 C4.4408921e-15,2.54406426 0.566254384,1.17958628 1.59445661,0.153374643 C1.7996193,-0.0513899542 2.13204661,-0.0511245262 2.33681117,0.154170859 C2.54170846,0.359333582 2.54131037,0.691628158 2.33614765,0.896525453 C1.50673828,1.72434235 1.04983323,2.82486911 1.04983323,3.99546433 C1.04983323,5.16605955 1.50673828,6.266719 2.33614765,7.0945359 C2.54131037,7.29943319 2.54170846,7.63172777 2.33681117,7.83702319 C2.23436256,7.93973726 2.09979916,7.99109427 1.9653685,7.99109427 Z" id="Path" fill="url(#linearGradient-5)"></path>
                </g>
            </g>
        </g>
    </g>
</svg>