<svg xmlns="http://www.w3.org/2000/svg" width="581" height="719" viewBox="0 0 581 719">
    <g fill="#181D21" fill-opacity=".5" fill-rule="evenodd" opacity=".15">
        <path d="M532.485 523.88c-18.288 113.208-90.433 193.787-237.02 195.107-67.32.696-131.933-27.055-178.572-76.694a467.974 467.974 0 0 0 70.282-1.1 38.383 38.383 0 0 1 23.164 5.133c88.16 49.98 199.243 18.14 249.14-71.415 3.858-7.095 9.736-12.823 16.853-16.424a414.218 414.218 0 0 0 56.153-34.534v-.073zM299.768 213.73l5.379 6.966c.303.452.765.767 1.29.88l8.176 2.492a2.619 2.619 0 0 1 1.814 2.04 2.67 2.67 0 0 1-.953 2.58l-6.742 5.425c-.428.37-.75.851-.932 1.394l-2.366 8.358a2.674 2.674 0 0 1-2.039 1.84 2.623 2.623 0 0 1-2.551-.96l-5.307-6.965a2.58 2.58 0 0 0-1.291-.88l-8.176-2.493a2.617 2.617 0 0 1-1.864-2.053 2.746 2.746 0 0 1 .932-2.567l6.813-5.425c.429-.355.731-.845.86-1.393l2.439-8.359a2.602 2.602 0 0 1 2.008-1.833 2.34 2.34 0 0 1 2.51.953zm-21.515-28.962l.79 4.106c.025.261.155.5.358.66l2.94 2.86c.234.38.234.865 0 1.246-.11.458-.477.805-.932.88l-4.016.88a.785.785 0 0 0-.646.366l-2.797 3.007a1.336 1.336 0 0 1-1.29 0 1.09 1.09 0 0 1-.861-.954l-.789-4.106a1.476 1.476 0 0 0-.359-.66l-2.94-2.859a1.19 1.19 0 0 1-.358-1.246c.11-.459.476-.805.932-.88l4.016-.807.717-.366 2.797-3.08a1.196 1.196 0 0 1 1.22 0c.447.112.786.488.86.953h.358zm251.005 185.65c.724 9.369.169 18.795-1.65 28.008-3.459-22.853-11.57-44.71-23.81-64.156a205.757 205.757 0 0 0-31.41-37.54c-69.708-66.503-178.5-102.65-216.008-161.307C225.542 87.032 230.06 25.442 281.767 0 148.52 13.051 103.124 135.424 142.281 256.624c8.892 27.715 16.996 52.718 13.984 72.588-3.8 25.002-31.841 45.752-55.006 31.088-13.124-8.358-23.307-27.275-15.275-60.343-37.866 31.528-52.28 84.026-52.64 153.094a280.864 280.864 0 0 0 13.412 76.914c-8.514-5.6-15.654-13.126-20.87-21.996-87.206 90.772 54.934 146.642 291.237 82.12 236.303-64.523 331.971-185.87 212.206-219.964l-.071.293zm-365.75 196.207a566.082 566.082 0 0 0 129.088-19.797l24.312-6.672c49.793-13.701 97.59-34.091 142.14-60.637 15.373-9.489 22.698-28.272 17.929-45.972-17.252-65.658-67.807-116.693-132.242-133.495-64.434-16.802-132.722 3.242-178.624 52.432-45.903 49.19-62.278 119.871-42.835 184.886 5.333 18.172 22.131 30.258 40.663 29.255h-.43z"/>
        <path d="M41.91 492c4.188-1.933 43.324-20.546 39.209-48.25C73.898 393.637 59.456 337.225 90 300c-38.125 30.783-52.639 82.04-53 149.477A278.11 278.11 0 0 0 41.91 492zM206.804 400.44a15.916 15.916 0 0 0-5.152-.796c-11.334 0-23.778 10.412-27.504 23.212a22.848 22.848 0 0 0-.554 12.535c.497 1.724-.532 3.502-2.458 4.245-1.896.752-4.161.312-5.469-1.062-7.105-9.324-7.56-21.15-1.189-30.839 12.365-19.896 42.96-28.717 48.35-11.739.474 1.372-.052 2.85-1.347 3.78-1.257.99-3.1 1.252-4.677.664zM242.546 357.534c-3.549-2.433-11.406-1.188-15.546 0-5.168 1.533-9.063 4.513-10.646 8.147-.422 1.527-1.858 2.319-2.619 2.319-2.872 0-3.886-3.338-3.717-4.752 1.605-16.576 40.3-16.123 36.752-6.732-.156.623-.802 1.142-1.69 1.357-.87.234-1.864.1-2.534-.339zM281.389 51.173l5.862 7.94c.363.504.886.87 1.484 1.039l9.202 3.042a2.894 2.894 0 0 1 2.003 2.375 2.746 2.746 0 0 1-1.113 2.82l-7.94 5.862c-.504.363-.87.886-1.039 1.484l-3.042 9.202a2.894 2.894 0 0 1-2.375 2.003 2.746 2.746 0 0 1-2.82-1.113l-5.862-7.94a2.746 2.746 0 0 0-1.484-1.039l-9.202-3.042a2.894 2.894 0 0 1-2.003-2.375 2.746 2.746 0 0 1 1.113-2.82l7.94-5.862c.504-.363.87-.886 1.039-1.484l3.042-9.202a2.894 2.894 0 0 1 2.375-2.003 2.746 2.746 0 0 1 2.82 1.113zM543.57 247.768l4.76 13.139c.322.815.862 1.525 1.56 2.053l11.328 8.212a4.024 4.024 0 0 1 1.724 4.023 4.106 4.106 0 0 1-2.71 3.367l-13.133 4.763a3.776 3.776 0 0 0-2.052 1.56l-8.208 11.332a4.021 4.021 0 0 1-4.022 1.725 4.105 4.105 0 0 1-3.366-2.71l-4.76-13.139a3.53 3.53 0 0 0-1.56-2.053l-11.328-8.212a4.189 4.189 0 0 1 .985-7.39l13.134-4.763a4.35 4.35 0 0 0 2.052-1.56l8.208-11.332a4.021 4.021 0 0 1 4.022-1.725 3.858 3.858 0 0 1 3.366 2.71zM90.721 227.828l3.634 9.082a2.543 2.543 0 0 0 1.18 1.363l8.086 5.268a2.815 2.815 0 0 1 1.363 2.724 2.816 2.816 0 0 1-1.817 2.453l-9.085 3.633a3.361 3.361 0 0 0-1.362 1.18l-5.27 8.084a2.725 2.725 0 0 1-2.725 1.362 2.998 2.998 0 0 1-2.452-1.816l-3.634-9.083a3.36 3.36 0 0 0-1.181-1.362l-8.085-5.177a3.088 3.088 0 0 1-1.363-2.816 2.997 2.997 0 0 1 1.817-2.452l9.084-3.633a2.362 2.362 0 0 0 1.363-1.09l5.269-8.174a2.907 2.907 0 0 1 2.725-1.363 2.907 2.907 0 0 1 2.453 1.817zM45.819 282.55l2.844 3.786c.194.242.457.418.754.505l4.518 1.43a1.434 1.434 0 0 1 .502 2.524l-3.849 2.945c-.255.18-.434.45-.502.757l-1.339 4.543a1.34 1.34 0 0 1-1.171.926 1.418 1.418 0 0 1-1.423-.505l-2.845-3.786a1.506 1.506 0 0 0-.753-.505l-4.518-1.43a1.511 1.511 0 0 1-1.004-1.094 1.35 1.35 0 0 1 .585-1.43l3.766-2.945c.234-.165.41-.4.502-.673l1.339-4.543a1.341 1.341 0 0 1 1.171-1.01 1.335 1.335 0 0 1 1.423.505z"/>
    </g>
</svg>
