<svg xmlns="http://www.w3.org/2000/svg" width="221" height="273" viewBox="0 0 221 273">
    <defs>
        <linearGradient id="a" x1="0%" y1="50%" y2="0%">
            <stop offset="0%" stop-color="#F48836"/>
            <stop offset="100%" stop-color="#F4364C"/>
        </linearGradient>
        <radialGradient id="b" cx="4.195%" cy="-8.685%" r="366.757%" fx="4.195%" fy="-8.685%" gradientTransform="matrix(1 0 0 .27397 0 -.063)">
            <stop offset="0%" stop-color="#F83052"/>
            <stop offset="10%" stop-color="#F82F51" stop-opacity=".98"/>
            <stop offset="23%" stop-color="#F82E50" stop-opacity=".92"/>
            <stop offset="37%" stop-color="#F82B4D" stop-opacity=".81"/>
            <stop offset="52%" stop-color="#F82749" stop-opacity=".67"/>
            <stop offset="67%" stop-color="#F92345" stop-opacity=".48"/>
            <stop offset="84%" stop-color="#F91D3F" stop-opacity=".26"/>
            <stop offset="100%" stop-color="#F91638" stop-opacity="0"/>
        </radialGradient>
        <radialGradient id="c" cx="31291.2%" cy="30642.8%" r="6382%" fx="31291.2%" fy="30642.8%" gradientTransform="matrix(1 0 0 .45113 0 168.19)">
            <stop offset="0%" stop-color="#F83052"/>
            <stop offset="10%" stop-color="#F82F51" stop-opacity=".98"/>
            <stop offset="23%" stop-color="#F82E50" stop-opacity=".92"/>
            <stop offset="37%" stop-color="#F82B4D" stop-opacity=".81"/>
            <stop offset="52%" stop-color="#F82749" stop-opacity=".67"/>
            <stop offset="67%" stop-color="#F92345" stop-opacity=".48"/>
            <stop offset="84%" stop-color="#F91D3F" stop-opacity=".26"/>
            <stop offset="100%" stop-color="#F91638" stop-opacity="0"/>
        </radialGradient>
    </defs>
    <g fill="none" fill-rule="evenodd" opacity=".15">
        <path fill="url(#a)" d="M202.546 198.914c-6.956 42.984-34.399 73.58-90.157 74.081-25.607.264-50.185-10.273-67.925-29.12 8.909.53 17.844.39 26.733-.418a14.621 14.621 0 0 1 8.811 1.95c33.535 18.976 75.788 6.886 94.768-27.117a15.03 15.03 0 0 1 6.41-6.236 157.61 157.61 0 0 0 21.36-13.112v-.028zm-88.52-117.762l2.045 2.645a.79.79 0 0 0 .491.334l3.11.947c.354.105.62.404.69.774.07.37-.071.749-.363.98l-2.564 2.06c-.163.14-.285.323-.354.529l-.9 3.174c-.114.36-.411.628-.776.698a.999.999 0 0 1-.97-.364l-2.02-2.645a.981.981 0 0 0-.49-.334l-3.11-.947a.994.994 0 0 1-.71-.78 1.041 1.041 0 0 1 .355-.974l2.592-2.06a.977.977 0 0 0 .327-.529l.928-3.173a.99.99 0 0 1 .764-.696.891.891 0 0 1 .954.361zm-8.184-10.996l.3 1.559c.01.099.059.19.136.25l1.119 1.086a.453.453 0 0 1 0 .473.44.44 0 0 1-.355.334l-1.528.335a.299.299 0 0 0-.245.139l-1.064 1.141a.51.51 0 0 1-.491 0 .414.414 0 0 1-.327-.362l-.3-1.559a.56.56 0 0 0-.137-.25l-1.118-1.086a.451.451 0 0 1-.137-.473.44.44 0 0 1 .355-.334l1.527-.307.273-.139 1.064-1.17a.456.456 0 0 1 .464 0c.17.043.3.186.327.363h.137zm95.476 70.49a39.22 39.22 0 0 1-.627 10.634 63.538 63.538 0 0 0-9.057-24.36 78.158 78.158 0 0 0-11.948-14.253c-26.515-25.25-67.898-38.976-82.164-61.247C85.792 33.046 87.51 9.66 107.178 0 56.494 4.955 39.226 51.42 54.121 97.439c3.382 10.523 6.465 20.016 5.319 27.56-1.446 9.494-12.112 17.373-20.923 11.805-4.992-3.174-8.866-10.357-5.81-22.912-14.404 11.97-19.887 31.904-20.023 58.129a106.47 106.47 0 0 0 5.1 29.204 25.412 25.412 0 0 1-7.937-8.352c-33.172 34.465 20.895 55.679 110.78 31.18 89.884-24.499 126.275-70.573 80.719-83.519l-.028.112zM62.195 215.144a215.684 215.684 0 0 0 49.102-7.516l9.248-2.534a219.485 219.485 0 0 0 54.067-23.023c5.848-3.603 8.634-10.735 6.82-17.455-6.562-24.93-25.793-44.308-50.302-50.688-24.51-6.38-50.485 1.231-67.945 19.908-17.46 18.677-23.69 45.515-16.293 70.2 2.028 6.9 8.418 11.49 15.467 11.108h-.164z"/>
        <path fill="url(#b)" d="M15.853 187c1.58-.735 16.349-7.812 14.796-18.345C27.924 149.602 22.474 128.154 34 114c-14.387 11.704-19.864 31.192-20 56.832.204 5.429.824 10.834 1.853 16.168z"/>
        <path fill="url(#c)" d="M69.86 54.476C70.057 41.637 72.67 8.333 107 0 54.762 4.831 36.965 50.133 52.316 95c4.695 13.789 11.05 30.047-2.39 38 49.005-27.089 19.512-51.3 19.934-78.524z"/>
        <path fill="#FD4B60" d="M78.662 152.072a6.006 6.006 0 0 0-1.944-.3c-4.277 0-8.973 3.929-10.379 8.759a8.622 8.622 0 0 0-.21 4.73c.188.65-.2 1.321-.927 1.601-.715.284-1.57.118-2.063-.4-2.682-3.519-2.854-7.981-.449-11.637 4.666-7.508 16.211-10.837 18.245-4.43.18.518-.02 1.075-.508 1.426-.474.374-1.17.472-1.765.25zM92.315 135.93c-1.343-.946-4.316-.462-5.883 0-1.955.596-3.429 1.755-4.028 3.168-.16.594-.703.902-.99.902-1.088 0-1.471-1.298-1.407-1.848.607-6.446 15.249-6.27 13.906-2.618-.06.242-.303.444-.64.528-.329.09-.705.039-.958-.132z"/>
        <path fill="#F4364C" d="M106.958 19.444l2.218 3.004c.137.19.335.33.562.393l3.481 1.151c.406.127.701.478.758.899.087.408-.079.828-.42 1.067l-3.005 2.218c-.19.137-.33.335-.393.562l-1.151 3.481a1.095 1.095 0 0 1-.899.758 1.039 1.039 0 0 1-1.067-.42l-2.218-3.005a1.039 1.039 0 0 0-.562-.393l-3.481-1.151a1.095 1.095 0 0 1-.758-.899c-.087-.408.079-.828.42-1.067l3.005-2.218c.19-.137.33-.335.393-.562l1.151-3.481c.127-.406.478-.701.899-.758.408-.087.828.079 1.067.42zM206.668 94.045l1.796 4.958c.122.307.325.575.589.774l4.275 3.1c.497.333.751.927.65 1.517a1.55 1.55 0 0 1-1.022 1.27L208 107.463c-.32.1-.593.308-.775.589l-3.097 4.276a1.518 1.518 0 0 1-1.518.651 1.549 1.549 0 0 1-1.27-1.023l-1.796-4.958a1.332 1.332 0 0 0-.589-.774l-4.275-3.1a1.58 1.58 0 0 1 .372-2.788l4.956-1.797c.312-.114.582-.319.775-.589l3.097-4.276a1.518 1.518 0 0 1 1.518-.651c.592.05 1.095.454 1.27 1.023zM34.597 86.692l1.375 3.436c.081.22.24.404.447.516l3.06 1.993c.358.213.56.616.515 1.03-.027.418-.296.781-.688.929L35.87 95.97c-.21.1-.388.254-.516.447l-1.993 3.059c-.207.366-.615.57-1.032.515a1.134 1.134 0 0 1-.928-.687l-1.375-3.437c-.099-.209-.253-.387-.446-.515l-3.06-1.959a1.168 1.168 0 0 1-.515-1.065c.043-.412.306-.767.687-.928l3.438-1.375a.894.894 0 0 0 .515-.412l1.994-3.093a1.1 1.1 0 0 1 1.031-.516 1.1 1.1 0 0 1 .928.688zM17.43 107.214l1.106 1.472a.586.586 0 0 0 .293.196l1.757.557a.558.558 0 0 1 .195.982l-1.497 1.144a.49.49 0 0 0-.195.295l-.52 1.767a.521.521 0 0 1-.456.36.552.552 0 0 1-.553-.197l-1.107-1.472a.586.586 0 0 0-.293-.196l-1.757-.557a.588.588 0 0 1-.39-.425.525.525 0 0 1 .228-.556l1.464-1.145a.523.523 0 0 0 .195-.262l.52-1.767a.522.522 0 0 1 .456-.392.52.52 0 0 1 .553.196z"/>
    </g>
</svg>
