<svg xmlns="http://www.w3.org/2000/svg" width="65" height="80" viewBox="0 0 65 80">
    <defs>
        <linearGradient id="a" x1="0%" y1="50%" y2="0%">
            <stop offset="0%" stop-color="#F48836"/>
            <stop offset="100%" stop-color="#F4364C"/>
        </linearGradient>
        <radialGradient id="b" cx="4.195%" cy="-8.685%" r="366.757%" fx="4.195%" fy="-8.685%" gradientTransform="matrix(1 0 0 .27422 0 -.063)">
            <stop offset="0%" stop-color="#F83052"/>
            <stop offset="10%" stop-color="#F82F51" stop-opacity=".98"/>
            <stop offset="23%" stop-color="#F82E50" stop-opacity=".92"/>
            <stop offset="37%" stop-color="#F82B4D" stop-opacity=".81"/>
            <stop offset="52%" stop-color="#F82749" stop-opacity=".67"/>
            <stop offset="67%" stop-color="#F92345" stop-opacity=".48"/>
            <stop offset="84%" stop-color="#F91D3F" stop-opacity=".26"/>
            <stop offset="100%" stop-color="#F91638" stop-opacity="0"/>
        </radialGradient>
        <radialGradient id="c" cx="31291.2%" cy="30642.8%" r="6382%" fx="31291.2%" fy="30642.8%" gradientTransform="matrix(1 0 0 .45246 0 167.781)">
            <stop offset="0%" stop-color="#F83052"/>
            <stop offset="10%" stop-color="#F82F51" stop-opacity=".98"/>
            <stop offset="23%" stop-color="#F82E50" stop-opacity=".92"/>
            <stop offset="37%" stop-color="#F82B4D" stop-opacity=".81"/>
            <stop offset="52%" stop-color="#F82749" stop-opacity=".67"/>
            <stop offset="67%" stop-color="#F92345" stop-opacity=".48"/>
            <stop offset="84%" stop-color="#F91D3F" stop-opacity=".26"/>
            <stop offset="100%" stop-color="#F91638" stop-opacity="0"/>
        </radialGradient>
    </defs>
    <g fill="none" fill-rule="evenodd">
        <path fill="url(#a)" d="M58.914 57.875C56.89 70.38 48.908 79.283 32.69 79.429c-7.448.077-14.597-2.99-19.757-8.473 2.591.154 5.19.114 7.776-.121a4.252 4.252 0 0 1 2.563.567c9.754 5.521 22.044 2.004 27.564-7.89a4.372 4.372 0 0 1 1.865-1.814 45.84 45.84 0 0 0 6.213-3.815v-.008zM33.166 23.612l.595.77a.23.23 0 0 0 .143.096l.904.276a.295.295 0 0 1 .095.51l-.745.6a.349.349 0 0 0-.103.153l-.262.924a.29.29 0 1 1-.508.097l-.587-.77a.285.285 0 0 0-.143-.097l-.904-.275a.29.29 0 0 1-.207-.227.303.303 0 0 1 .103-.284l.754-.599a.284.284 0 0 0 .095-.154l.27-.923a.288.288 0 0 1 .222-.203.26.26 0 0 1 .278.106zm-2.38-3.2l.087.454a.106.106 0 0 0 .04.073l.325.315a.132.132 0 0 1 0 .138.128.128 0 0 1-.103.097l-.445.098a.087.087 0 0 0-.071.04l-.31.332a.148.148 0 0 1-.142 0 .12.12 0 0 1-.095-.105l-.088-.454a.163.163 0 0 0-.04-.073l-.325-.316a.131.131 0 0 1-.04-.137.128.128 0 0 1 .104-.097l.444-.09.08-.04.309-.34a.133.133 0 0 1 .135 0c.05.012.087.054.095.105h.04zm27.77 20.51c.08 1.034.02 2.076-.182 3.094a18.49 18.49 0 0 0-2.634-7.088 22.739 22.739 0 0 0-3.476-4.147c-7.712-7.347-19.749-11.34-23.898-17.82C24.954 9.615 25.454 2.81 31.174 0 16.432 1.442 11.41 14.96 15.742 28.35c.984 3.062 1.88 5.824 1.547 8.02-.42 2.761-3.523 5.053-6.086 3.433-1.452-.923-2.578-3.013-1.69-6.666C5.323 36.62 3.73 42.42 3.69 50.05c.097 2.89.596 5.751 1.484 8.497a7.393 7.393 0 0 1-2.309-2.43c-9.648 10.028 6.078 16.2 32.222 9.072 26.144-7.128 36.73-20.534 23.478-24.3l-.007.032zM18.09 62.596a62.718 62.718 0 0 0 14.283-2.187l2.69-.737a63.83 63.83 0 0 0 15.726-6.699c1.7-1.048 2.51-3.123 1.983-5.079-1.908-7.253-7.502-12.891-14.63-14.747-7.13-1.856-14.685.358-19.764 5.792-5.078 5.434-6.89 13.243-4.739 20.425.59 2.008 2.449 3.343 4.499 3.232h-.048z"/>
        <path fill="url(#b)" d="M4.437 54.245c.462-.215 4.777-2.28 4.323-5.355-.796-5.562-2.388-11.824.98-15.956-4.204 3.417-5.804 9.106-5.844 16.591.06 1.585.24 3.163.541 4.72z"/>
        <path fill="url(#c)" d="M20.315 15.87c.057-3.74.821-13.442 10.852-15.87-15.264 1.408-20.464 14.605-15.978 27.676 1.372 4.017 3.228 8.754-.699 11.07 14.319-7.891 5.702-14.945 5.825-22.876z"/>
        <path fill="#FD4B60" d="M22.692 44.095c-.18-.06-.374-.09-.568-.087-1.25 0-2.622 1.141-3.033 2.545-.149.448-.17.919-.06 1.375.054.189-.06.384-.272.465a.566.566 0 0 1-.603-.116c-.783-1.023-.834-2.32-.131-3.382 1.363-2.182 4.737-3.15 5.331-1.287.052.15-.006.312-.149.414a.546.546 0 0 1-.515.073zM26.802 39.557c-.374-.262-1.201-.128-1.637 0-.544.165-.954.486-1.12.877-.045.165-.197.25-.277.25-.302 0-.409-.36-.391-.512.169-1.784 4.243-1.735 3.87-.724-.017.067-.085.123-.178.146a.338.338 0 0 1-.267-.037z"/>
        <path fill="#F4364C" d="M31.155 5.935l.617.831a.29.29 0 0 0 .156.11l.97.318a.304.304 0 0 1 .21.248.287.287 0 0 1-.117.296l-.836.614a.288.288 0 0 0-.11.155l-.32.964a.304.304 0 0 1-.25.21.29.29 0 0 1-.297-.117l-.617-.832a.29.29 0 0 0-.156-.108l-.969-.32a.304.304 0 0 1-.211-.248.287.287 0 0 1 .117-.295l.836-.614a.288.288 0 0 0 .11-.155l.32-.964a.304.304 0 0 1 .25-.21.29.29 0 0 1 .297.117zM60.191 27.426l.525 1.44c.035.09.095.168.172.226l1.249.9a.44.44 0 0 1 .19.442.45.45 0 0 1-.299.369l-1.448.522a.416.416 0 0 0-.226.171l-.905 1.243a.444.444 0 0 1-.444.19.452.452 0 0 1-.37-.298l-.526-1.44a.387.387 0 0 0-.172-.226l-1.249-.9a.458.458 0 0 1 .109-.81l1.448-.523a.48.48 0 0 0 .226-.171l.905-1.243a.444.444 0 0 1 .444-.19c.173.015.32.133.371.298zM10.184 25.377l.383.95a.267.267 0 0 0 .124.143l.851.552c.1.059.156.17.144.285a.295.295 0 0 1-.192.257l-.956.38a.353.353 0 0 0-.144.124l-.554.847a.287.287 0 0 1-.287.142.315.315 0 0 1-.259-.19l-.382-.95a.353.353 0 0 0-.124-.144l-.852-.542a.323.323 0 0 1-.143-.295.314.314 0 0 1 .191-.256l.957-.38a.248.248 0 0 0 .143-.115l.555-.856a.307.307 0 0 1 .545.048zM4.85 31.056l.308.408c.021.026.05.045.082.054l.488.154a.154.154 0 0 1 .055.272l-.417.317a.136.136 0 0 0-.054.081l-.145.49a.145.145 0 0 1-.127.099.154.154 0 0 1-.154-.055l-.307-.407a.163.163 0 0 0-.082-.054l-.489-.154a.163.163 0 0 1-.109-.118.145.145 0 0 1 .064-.154l.407-.317a.145.145 0 0 0 .055-.072l.144-.49a.145.145 0 0 1 .127-.108.145.145 0 0 1 .154.054z"/>
    </g>
</svg>
