<svg xmlns="http://www.w3.org/2000/svg" width="19" height="15" viewBox="0 0 19 15">
    <g fill="none" fill-rule="evenodd">
        <path stroke="#76797B" stroke-linecap="round" d="M14 3.879v8.667c0 .797-.696 1.444-1.556 1.444H6.222c-.859 0-1.555-.647-1.555-1.444V3.879h0" transform="translate(0 .25)"/>
        <path stroke="#76797B" stroke-linecap="round" d="M2.834 5.434h-.611c-.86 0-1.556-.696-1.556-1.555V2.323c0-.859.697-1.555 1.556-1.555h14.221c.86 0 1.556.696 1.556 1.555V3.88c0 .859-.697 1.555-1.556 1.555h-.611 0" transform="translate(0 .25)"/>
        <path fill="#76797B" fill-rule="nonzero" d="M9.333 6.849c.37 0 .67.3.67.669a.334.334 0 10.668 0c0-.622-.427-1.141-1.003-1.291V6.18a.334.334 0 10-.67 0v.047a1.337 1.337 0 00-1.003 1.29c0 .739.6 1.339 1.338 1.339a.67.67 0 11-.669.669.334.334 0 10-.669 0c0 .621.428 1.14 1.004 1.29v.048a.334.334 0 10.669 0v-.048a1.337 1.337 0 001.003-1.29c0-.738-.6-1.338-1.338-1.338a.67.67 0 010-1.338" transform="translate(0 .25)"/>
    </g>
</svg>
