<svg xmlns="http://www.w3.org/2000/svg" width="17" height="23" viewBox="0 0 17 23">
    <g fill="#FFF" fill-rule="evenodd">
        <path fill-rule="nonzero" d="M8.13.013c.154.002.309.001.464 0l-.007.012c.149-.003.297.013.446.006l-.011.012c.156-.002.31.03.467.027l-.01.011c.061.004.122.012.183.005L9.649.1c.054.005.109.01.164.007l-.01.012c.046.004.093.008.14.009l-.005.01c.046.004.092.01.139.008l-.007.012c.04.003.08.007.12.007l-.002.011c.038.004.077.008.115.009l-.002.011c.04.004.08.007.12.008l-.009.013c.034.001.067.005.101.006l-.003.012.097.007v.012c.032.002.064.006.097.007l-.005.01c.06.008.117.026.177.03l-.005.01c.034.003.067.006.102.007L10.96.33c.097.014.19.047.286.067.024.008.05.013.074.02a.237.237 0 0 0 .087.016l-.005.01c.046.009.091.024.14.03l-.007.01.052.008a.318.318 0 0 0 .088.02l-.008.012.064.004-.004.013.051.007c.066.024.132.052.202.059l-.009.01c.04.01.08.024.122.027l-.007.015.065.002-.008.013c.031.007.061.018.092.027l.055.022a.538.538 0 0 0 .068.017l-.003.009c.03.007.06.018.089.03a.363.363 0 0 0 .066.018l-.003.012.063.005-.007.023.03-.008a.448.448 0 0 0 .164.062l-.002.012c.045.008.083.034.127.045a.267.267 0 0 0 .102.038v.012c.047.009.085.04.133.046l.002.018.027-.004c.03.023.066.04.106.042l-.004.02.04-.006.002.024.027-.004c.07.04.142.079.22.1l-.001.019.037-.006.002.024.035-.005.005.024.033-.006.004.024.026-.002.046.024.005.016.033-.004.005.023.026-.002.038.027.045.015.006.018.033-.005.004.025.026-.005a.674.674 0 0 0 .05.035c.08.038.156.085.237.123l.05.03c.085.047.166.094.254.14.045.027.088.064.141.076l-.004.01c.032.012.058.037.091.046a.31.31 0 0 0 .096.058c.047.037.1.066.152.096.018.013.037.027.058.037.03.02.059.044.094.057.016.016.036.03.057.038.133.09.267.178.4.267a.585.585 0 0 0 .056.04c.065.042.124.091.191.13.044.036.088.072.14.097l-.001.008c.023.016.046.033.07.047.1.078.202.154.305.228.052.04.1.088.16.116l-.005.008c.06.037.11.09.172.125v11.945l-.014-.006c0 .072-.007.143-.006.215l-.011-.004c-.004.045-.009.091-.008.138l-.013-.007c-.002.034-.006.067-.006.101l-.013-.005a11.51 11.51 0 0 1-.008.071.296.296 0 0 0-.021.076.268.268 0 0 0-.017.088l-.01-.007-.009.053a.254.254 0 0 0-.02.09l-.012-.013a8.659 8.659 0 0 1-.005.07l-.014-.011a8.285 8.285 0 0 1-.005.068l-.011-.011a.554.554 0 0 1-.03.093.513.513 0 0 0-.018.066l-.01-.003c-.009.032-.022.064-.027.097l-.011-.002c-.01.033-.024.064-.028.098l-.018-.004.005.04-.024.003.004.026c-.027.035-.042.078-.061.117l-.019.038c-.025.043-.043.091-.074.132l.003.017c-.036.039-.057.088-.081.135-.021.03-.043.06-.056.096a.373.373 0 0 0-.058.094c-.029.037-.052.077-.076.116-.039.057-.078.113-.115.171l-.041.054-.017.04c-.05.04-.08.099-.116.15a.17.17 0 0 0-.035.04c-.019.026-.04.05-.056.077-.052.062-.103.126-.153.19-.032.038-.066.073-.096.113-.031.039-.066.075-.098.113a1.09 1.09 0 0 0-.035.038 1.985 1.985 0 0 0-.018.024c-.05.06-.113.109-.155.175l-.012-.003-.004.02-.02.005.006.018-.022-.004.004.02h-.014c-.154.173-.326.33-.488.495l-.014.001v.02l-.016-.005-.005.02-.02.002.008.02-.025-.006v.016a.109.109 0 0 0-.044.04c-.054.042-.103.092-.15.14l-.01-.002-.007.018-.02.003.005.01c-.06.038-.104.095-.16.136a.237.237 0 0 0-.039.036c-.033.024-.062.053-.092.08l-.02.017c-.039.026-.069.062-.108.088l-.002.007c-.042.024-.072.062-.113.088v.007c-.037.021-.068.05-.1.078l-.02.017c-.031.022-.06.048-.092.07l.005.006c-.066.036-.12.089-.179.135-.058.039-.109.086-.166.125l.001.007a.296.296 0 0 0-.082.058.432.432 0 0 0-.076.057.483.483 0 0 0-.077.057c-.072.048-.14.1-.209.153-.046.028-.09.06-.133.094a1.12 1.12 0 0 0-.133.096.154.154 0 0 0-.057.038c-.066.042-.13.085-.191.133a1.92 1.92 0 0 0-.053.027l.003.011a.1.1 0 0 0-.063.04.123.123 0 0 0-.058.037.206.206 0 0 0-.057.037.286.286 0 0 0-.056.038.14.14 0 0 0-.058.039.175.175 0 0 0-.057.037.172.172 0 0 0-.058.038c-.073.039-.14.089-.208.133a.25.25 0 0 0-.058.039c-.053.027-.104.06-.152.096a.459.459 0 0 0-.053.025l.004.011a.237.237 0 0 0-.103.06c-.051.018-.092.056-.14.081-.035.024-.076.04-.108.07a.291.291 0 0 0-.095.057c-.036.01-.065.033-.094.056-.033.012-.061.033-.092.047l.004.01c-.053.012-.097.047-.141.077a.447.447 0 0 0-.083.045.5.5 0 0 1-.052.03c-.03.015-.058.034-.09.047l.004.017-.028-.005c-.045.04-.104.057-.15.094-.043.017-.082.042-.122.065l-.05.029c-.06.031-.122.057-.173.1l-.017-.002c-.058.04-.122.071-.185.101l.003.01-.048.024-.018-.001c-.097.067-.214.101-.306.174l-.024-.008-.006.027-.033-.006-.004.02c-.043.008-.082.033-.12.055-.052.024-.102.05-.151.078a.422.422 0 0 0-.077.037c-.034.015-.065.033-.098.048-.05.026-.102.05-.151.077-.071.044-.137-.015-.205-.031l.002-.019-.038.007v-.024a2.726 2.726 0 0 0-.037.005l-.004-.025a2.098 2.098 0 0 0-.034.006l-.004-.025-.034.006-.003-.025-.035.006-.003-.025-.035.005-.005-.026-.025.007a.437.437 0 0 0-.052-.036c-.092-.045-.182-.092-.273-.139a7.434 7.434 0 0 1-.039-.02c-.043-.024-.087-.046-.131-.068l-.04-.026-.025.006.002-.016a2.576 2.576 0 0 1-.224-.122l-.017.003c-.056-.051-.133-.07-.192-.117l-.017.003c-.043-.045-.107-.058-.154-.098a.506.506 0 0 0-.018.003c-.037-.038-.089-.057-.134-.083a.502.502 0 0 1-.05-.03.68.68 0 0 0-.084-.045.824.824 0 0 0-.133-.075c-.044-.03-.088-.064-.14-.077l.003-.01c-.031-.014-.06-.034-.09-.047-.031-.022-.061-.044-.097-.056a.322.322 0 0 0-.095-.056.367.367 0 0 0-.095-.06.338.338 0 0 0-.096-.056c-.03-.03-.072-.043-.105-.07a.793.793 0 0 0-.047-.025.407.407 0 0 0-.095-.058c-.017-.014-.035-.03-.057-.037-.03-.02-.058-.046-.094-.056a.119.119 0 0 0-.058-.039.278.278 0 0 0-.057-.038c-.033-.02-.06-.051-.1-.057l.002-.012a1.766 1.766 0 0 0-.054-.026.145.145 0 0 0-.057-.039.324.324 0 0 0-.057-.038l-.343-.229a.239.239 0 0 0-.057-.037.12.12 0 0 0-.056-.038 2.204 2.204 0 0 0-.19-.133.717.717 0 0 0-.078-.057c-.018-.014-.037-.027-.056-.039a1.487 1.487 0 0 0-.133-.095.454.454 0 0 0-.076-.056 30.928 30.928 0 0 0-.38-.285.33.33 0 0 0-.084-.06l.005-.008c-.135-.088-.252-.203-.384-.296v-.007c-.039-.026-.07-.06-.109-.086-.04-.033-.075-.07-.119-.097v-.008c-.048-.028-.08-.075-.128-.105-.048-.037-.086-.086-.14-.117l.004-.009-.027-.015c-.041-.035-.077-.076-.12-.11a6.968 6.968 0 0 1-.038-.038 1.366 1.366 0 0 1-.028-.015l.002-.008c-.073-.055-.132-.127-.203-.185a.091.091 0 0 0-.047-.038l.004-.02-.025.008.006-.022-.023.002.001-.022-.021.004.004-.02-.02-.002-.004-.02-.017.006.004-.023-.022.004.002-.023-.022.003.003-.022-.014.002-.026-.026.002-.014-.014.002-.026-.026.002-.014-.022.003.003-.022-.022.002.003-.022-.022.004.004-.022-.023.004.005-.023-.024.004.007-.02h-.022l-.002-.022-.011.001a.285.285 0 0 0-.038-.045c-.06-.069-.13-.13-.187-.202l-.007.002-.016-.03a1.387 1.387 0 0 1-.038-.036c-.03-.04-.067-.074-.099-.112l-.016-.02c-.031-.04-.066-.076-.098-.114-.026-.038-.06-.07-.086-.108l-.008-.001c-.04-.07-.106-.122-.143-.194l-.008.006a.255.255 0 0 0-.06-.083 1.085 1.085 0 0 0-.047-.071h-.009c-.023-.051-.062-.094-.095-.14a.302.302 0 0 0-.038-.055 5.158 5.158 0 0 0-.115-.172.155.155 0 0 0-.039-.058c-.012-.035-.035-.065-.057-.095a.424.424 0 0 0-.056-.095c-.024-.047-.044-.096-.081-.135l.003-.017c-.045-.065-.073-.14-.112-.208l-.02-.04a.577.577 0 0 1-.025-.066l-.017-.003.005-.037-.019.002a.236.236 0 0 0-.038-.103.501.501 0 0 0-.038-.096.558.558 0 0 0-.037-.095 1.377 1.377 0 0 0-.018-.058c-.02-.057-.037-.115-.06-.17a5.582 5.582 0 0 0-.007-.056l-.012.011c-.002-.03.002-.064-.019-.09a.263.263 0 0 0-.018-.076 3.292 3.292 0 0 1-.009-.071l-.011.005-.008-.098-.011.002a.383.383 0 0 0-.018-.124c-.002-.076-.025-.148-.028-.224l-.012.008c-.009-.461-.001-.922-.004-1.384V3.25c.024-.008.043-.023.063-.037l.02-.02c.048-.034.087-.078.132-.115l.02-.017c.04-.027.069-.064.11-.088l-.002-.007c.035-.02.064-.046.095-.07l.001-.006c.035-.019.063-.049.097-.07l-.004-.006c.032-.014.058-.037.084-.06.037-.031.086-.051.114-.092.07-.036.127-.09.19-.136.024-.015.048-.031.071-.048L1 2.47a.219.219 0 0 0 .063-.04c.046-.029.09-.062.134-.094a.39.39 0 0 0 .056-.038c.04-.024.076-.05.113-.077.058-.037.116-.074.172-.114a.34.34 0 0 0 .059-.038c.052-.028.102-.061.15-.096a1.32 1.32 0 0 0 .055-.027l-.004-.01a.247.247 0 0 0 .102-.058c.036-.01.065-.034.095-.056.032-.014.06-.033.092-.048l-.003-.016.027.005c.033-.034.084-.043.114-.08.005 0 .014.003.018.004.046-.041.11-.054.154-.1a.583.583 0 0 0 .018.005c.067-.048.143-.08.216-.12a.431.431 0 0 0 .05-.035l.027.005.005-.025c.008 0 .025.004.033.005l.004-.019a.229.229 0 0 0 .083-.036l.04-.024.025.001.005-.022c.008 0 .025.004.033.005l.005-.024c.008 0 .026.004.034.005l.003-.024.036.005.002-.025.037.009-.002-.02c.066-.013.12-.053.182-.077l.04-.022.027.002v-.018a.399.399 0 0 0 .143-.061l.028.003v-.019a.218.218 0 0 0 .106-.042l.028.005-.003-.018c.033-.007.065-.019.097-.029L3.7.966a.289.289 0 0 0 .102-.037.478.478 0 0 0 .095-.039l.09-.029-.004-.008c.034-.006.065-.019.098-.027L4.08.815a.45.45 0 0 0 .066-.017.256.256 0 0 1 .092-.027L4.224.757 4.292.75 4.286.74A.57.57 0 0 0 4.411.7c.03-.008.06-.02.09-.026L4.498.662c.089-.01.17-.052.256-.075A.702.702 0 0 0 4.81.566l.05-.008-.004-.012.065-.005L4.911.53c.05-.004.1-.017.146-.04L5.11.484 5.105.471A.224.224 0 0 0 5.19.453l.053-.007L5.24.43c.026 0 .053-.002.08-.004L5.313.415a.392.392 0 0 0 .089-.019.991.991 0 0 0 .073-.018c.026-.006.051-.012.076-.02a.371.371 0 0 0 .077-.02l.069-.009-.002-.012.08-.004L5.77.299a.254.254 0 0 0 .106-.018l.072-.007L5.94.26c.033 0 .067-.004.1-.006L6.039.242l.1-.006-.007-.013a.39.39 0 0 0 .127-.018c.029-.003.059-.007.088-.008L6.341.185c.04 0 .08-.004.119-.008L6.456.166c.04-.001.08-.004.12-.007L6.57.145c.046.002.092-.002.138-.006L6.703.127c.047.001.095-.003.143-.008L6.832.108c.055.003.11-.003.165-.007L6.985.089c.066.002.131-.004.197-.008L7.18.07c.07 0 .141-.006.212-.01l-.003-.01c.085.004.17-.007.255-.007l-.01-.012c.167.005.335-.01.503-.007L8.13.013zm-.174 1.009l.012.012c-.123-.005-.246.003-.368.008l.003.01c-.077-.003-.153.005-.23.009l.001.01c-.06 0-.118.004-.177.008l.008.013c-.082-.01-.162.014-.243.02-.021.008-.064-.008-.07.02-.044-.005-.087 0-.13.004l.004.011c-.04 0-.08.004-.12.007l.007.012c-.04 0-.08.004-.119.007l.003.013a.3.3 0 0 0-.122.017l-.089.01.005.01a.296.296 0 0 0-.108.016c-.055.009-.109.024-.164.03l.003.01c-.062.003-.122.02-.181.037a.582.582 0 0 0-.077.019.989.989 0 0 0-.075.018c-.044.01-.087.025-.132.03l.012.01a3.9 3.9 0 0 0-.083.007l.004.011c-.047.006-.092.02-.138.03l.005.009a.44.44 0 0 0-.143.04c-.013 0-.04.004-.052.006l.005.013-.064.004.007.012c-.102.013-.193.066-.293.084l.01.013-.067.004.009.016-.064.004.004.012a.468.468 0 0 0-.067.018c-.03.012-.06.024-.091.026l.01.011a1.44 1.44 0 0 0-.223.079.536.536 0 0 0-.094.038c-.043.012-.082.035-.126.046v.012c-.048.002-.086.037-.133.044v.012c-.048.005-.087.037-.133.046L3.89 2a3.301 3.301 0 0 1-.046.017c-.045.019-.09.038-.132.061-.023.01-.044.019-.067.026l-.003.017a2.185 2.185 0 0 0-.037-.004l.001.017c-.07.016-.128.058-.192.086-.066.038-.142.06-.2.111l-.024-.008-.004.022c-.074.02-.136.07-.204.102a.858.858 0 0 1-.052.03c-.045.025-.097.044-.133.083l-.018-.005c-.034.032-.08.046-.115.076a.311.311 0 0 0-.094.057.29.29 0 0 0-.095.057.296.296 0 0 0-.094.057 1.123 1.123 0 0 0-.055.027l.004.01c-.059.02-.107.062-.159.095a.256.256 0 0 0-.057.038.12.12 0 0 0-.057.04.128.128 0 0 0-.057.037.138.138 0 0 0-.057.038 2.12 2.12 0 0 0-.19.132 1.36 1.36 0 0 0-.134.096.569.569 0 0 0-.076.056.554.554 0 0 0-.076.058c-.06.04-.116.086-.17.133-.035.022-.065.05-.096.076-.038.027-.07.06-.108.087l-.001.007c-.05.027-.084.072-.128.106l-.027.016.003.009a.075.075 0 0 0-.045.046l-.01-.002c-.035.062-.023.135-.025.203v9.872c.003.342-.018.689.055 1.025.012.058.016.117.04.171.003.026.01.052.018.076l.008.055.011-.01a.352.352 0 0 0 .017.087l.02.058c.011.03.023.06.025.093l.015-.012.005.066.013-.004c.005.033.017.065.027.097h.01c.006.048.036.087.047.133h.011c.032.106.094.201.141.3.021.027.028.062.05.088.017.033.034.067.058.095a.362.362 0 0 0 .056.095c.065.118.147.225.22.338l.008-.001c.022.052.062.095.096.139a.673.673 0 0 0 .057.077c.02.032.048.058.067.092l.007-.004a.44.44 0 0 0 .077.101c.023.034.05.064.079.094l.015.02c.03.04.065.075.097.113l.02.021c.048.067.114.118.163.185h.015l-.006.016.02.002v.022l.021-.006-.003.026.015-.004c.008.019.02.034.038.046.122.131.25.258.38.38.011.018.027.03.047.037l-.009.014.027-.002-.001.025.018-.007.022.025-.003.015.015-.001a3.3 3.3 0 0 0 .19.178l.026.018-.002.008c.054.036.094.088.147.125.047.038.088.084.14.116l-.001.006c.038.026.07.061.108.088.039.031.074.067.116.094.03.029.062.058.1.078l-.002.007c.033.019.059.048.091.067.055.047.112.093.172.133.024.024.05.047.083.059l-.004.007c.079.052.148.119.231.165l-.001.007c.023.016.046.033.07.048.046.034.088.073.14.096v.008c.044.026.082.06.127.086.061.048.125.092.19.134.018.017.04.03.064.038l-.001.009c.173.109.336.236.515.334l-.003.009c.017.01.035.018.053.027.086.062.178.116.268.172.03.021.06.04.094.058a.546.546 0 0 0 .058.038.483.483 0 0 1 .048.03c.047.026.091.06.14.083.03.021.062.042.096.057.044.028.088.063.14.077l-.003.01c.03.013.058.035.091.046.033.032.08.043.113.075l.028-.005-.004.016c.031.014.06.033.091.049a.422.422 0 0 1 .05.03c.034.02.071.035.101.062a.68.68 0 0 0 .02-.004c.04.047.107.057.152.1a.918.918 0 0 1 .018-.005c.049.047.115.07.173.102l.05.03c.07.042.15.072.215.12a.65.65 0 0 0 .018-.004c.087.065.19.106.287.156.025.015.048.034.077.039a.828.828 0 0 0 .053.032c.022.01.044.02.068.026l.004.019.033-.006.004.024c.009 0 .026-.004.034-.005l.005.025.033-.006.005.026.034-.008.001.025.038-.004v.022l.037-.003.004.024.033-.006.005.024c.008 0 .025-.003.033-.005l.006.026.023-.005c.025.027.067.023.098.01.185-.092.37-.186.553-.279a.997.997 0 0 0 .052-.036l.026.006.004-.026.027.003c.08-.053.17-.091.253-.138a.686.686 0 0 0 .052-.034h.018c.059-.047.136-.065.192-.117l.017.005c.045-.043.112-.053.153-.1.005 0 .014.003.018.005.046-.04.105-.058.153-.094a.834.834 0 0 0 .133-.077.758.758 0 0 0 .132-.076.38.38 0 0 0 .095-.056c.032-.013.06-.034.092-.048l-.004-.016.026.004c.037-.027.078-.048.115-.074a.538.538 0 0 0 .095-.057c.065-.034.125-.075.187-.114a.3.3 0 0 0 .06-.038.643.643 0 0 0 .093-.057c.022-.01.04-.024.059-.038.073-.04.142-.086.21-.134l.053-.027-.004-.01a.275.275 0 0 0 .069-.035c.15-.104.306-.198.452-.308a.13.13 0 0 0 .056-.039c.066-.04.13-.085.19-.132.047-.03.092-.061.134-.096l.071-.047v-.009c.135-.08.252-.188.382-.276l-.003-.008c.032-.013.057-.036.083-.059.032-.02.059-.047.092-.067l-.005-.006c.066-.037.12-.09.178-.136a2.07 2.07 0 0 0 .02-.018c.032-.021.059-.047.09-.068v-.007c.044-.026.08-.065.12-.097.04-.029.076-.063.112-.096l.02-.016c.048-.036.089-.078.134-.116.057-.044.106-.096.16-.144l.026-.017v-.008a.207.207 0 0 0 .044-.037c.08-.071.155-.15.234-.222.006-.005.018-.016.025-.02l-.001-.014h.02v-.02l.013.002.025-.025-.001-.007.026-.026.014.002-.003-.022.022.003-.003-.022.023.003-.003-.015.026-.024h.013v-.02h.012l.021-.025c.078-.088.17-.165.24-.26l.009.002.016-.026c.041-.047.088-.09.126-.14l.018-.022c.03-.038.067-.072.095-.113.027-.03.055-.06.077-.095a.464.464 0 0 0 .077-.101l.007.003c.023-.048.072-.078.088-.13.067-.065.117-.15.17-.229a.115.115 0 0 0 .038-.062l.01.001c.01-.017.018-.035.026-.053a.13.13 0 0 0 .039-.057c.014-.019.028-.037.04-.057.021-.047.058-.084.075-.133.04-.045.054-.106.094-.15l-.004-.018c.06-.083.105-.18.14-.276l.016-.003-.003-.026a.21.21 0 0 0 .043-.106l.012.002c.009-.033.02-.064.026-.097l.01.003c.007-.03.018-.06.029-.089l.019-.057.02-.058a.312.312 0 0 0 .016-.084l.014.004c0-.013.004-.04.005-.052.016-.026.016-.057.02-.086l.01.003.009-.069a.224.224 0 0 0 .015-.104h.016l.005-.116.012.005a.944.944 0 0 0 .006-.14l.012.01c.007-.086.011-.173.008-.26l.014.015c.002-.326-.003-.653-.001-.979l-.12-.008.12-.008v-.098l-.118-.008.118-.008v-.098l-.153-.008.153-.008c-.002-.445-.002-.89 0-1.335l-.137-.008.137-.008c0-2.642-.001-5.284.001-7.926a.439.439 0 0 0-.008-.074l-.018-.038a.233.233 0 0 0-.061-.054.768.768 0 0 0-.076-.056.468.468 0 0 0-.077-.057.218.218 0 0 0-.083-.059l.005-.008c-.06-.036-.11-.086-.169-.123-.048-.042-.102-.077-.153-.115a.511.511 0 0 0-.056-.038.978.978 0 0 0-.077-.058c-.019-.013-.037-.026-.056-.037-.044-.033-.088-.066-.135-.095a2.215 2.215 0 0 0-.113-.077.691.691 0 0 0-.056-.038.581.581 0 0 0-.058-.038c-.018-.014-.037-.028-.058-.038a.37.37 0 0 0-.056-.038c-.05-.033-.099-.068-.152-.095-.05-.034-.098-.07-.152-.094a.341.341 0 0 0-.096-.058.346.346 0 0 0-.094-.057.388.388 0 0 0-.095-.056.915.915 0 0 0-.134-.078c-.06-.043-.13-.067-.189-.112l-.026.006.002-.017c-.07-.031-.134-.074-.205-.105a.43.43 0 0 1-.055-.035l-.027.003-.005-.024a1.747 1.747 0 0 1-.033.005l-.005-.025-.033.006-.005-.024c-.008 0-.025.004-.033.005l-.005-.024c-.008 0-.025.004-.033.005l-.005-.024a2.429 2.429 0 0 0-.034.005l-.004-.025-.033.006-.005-.024-.033.005-.004-.017c-.086-.027-.158-.086-.246-.103v-.018l-.036.004-.003-.016c-.06-.015-.109-.055-.17-.066v-.01c-.044-.012-.083-.035-.126-.048a.225.225 0 0 0-.104-.037l.003-.012c-.045-.01-.084-.032-.127-.045a.666.666 0 0 0-.163-.059l.006-.008a.757.757 0 0 1-.09-.03.402.402 0 0 0-.067-.018l.005-.012-.064-.005.008-.012a.933.933 0 0 1-.148-.048 3.93 3.93 0 0 0-.17-.057.692.692 0 0 0-.06-.017.475.475 0 0 0-.143-.039l.009-.012-.064-.004.003-.013-.052-.007a1.003 1.003 0 0 0-.132-.04.33.33 0 0 0-.087-.018l.005-.012a3.005 3.005 0 0 0-.081-.006l.008-.014a3.189 3.189 0 0 0-.084-.005l.007-.011c-.08-.011-.155-.046-.236-.047l.007-.012a3.852 3.852 0 0 0-.08-.005l.001-.013c-.033-.003-.066-.006-.098-.007l.007-.013-.07-.006c-.032-.014-.068-.017-.103-.021-.028-.012-.06-.015-.09-.02a.39.39 0 0 0-.124-.016l.005-.012c-.04-.003-.08-.006-.12-.007l.007-.012c-.04-.003-.08-.006-.12-.007l.005-.012c-.047-.003-.094-.007-.14-.007l.01-.011c-.048-.004-.095-.009-.142-.008l.006-.01c-.053-.005-.105-.01-.158-.008l.006-.011c-.066-.005-.132-.01-.198-.01l.008-.01c-.078-.004-.157-.01-.235-.008l.006-.011c-.13-.005-.26-.012-.39-.008l.015-.013a20.22 20.22 0 0 0-.736.002z"/>
        <path fill-rule="nonzero" d="M7.786 2.79c.104.005.208-.007.313-.006l-.01-.013c.226.002.452.003.678 0l-.013.012c.113 0 .225.012.337.007l-.014.013c.075.002.15.01.225.006l-.018.013c.043.002.087.006.131.007.054.018.111.018.167.02l-.006.01.11.01a.435.435 0 0 0 .146.017l-.011.013c.033.002.067.005.102.006l-.001.012c.028.001.057.005.085.009.034.011.07.017.106.018v.01c.032.004.064.007.097.008l-.006.013.071.008c.033.015.07.018.107.018l-.008.015.083.003-.007.016.084.003-.01.015.055.005a.195.195 0 0 0 .087.019l-.006.012.053.008a.225.225 0 0 0 .086.018l-.005.014.064.004-.007.012.052.008a.682.682 0 0 0 .058.021c.076.024.151.052.228.075l.056.022a.579.579 0 0 0 .067.017l-.002.009c.03.008.06.019.088.03a.405.405 0 0 0 .068.019l-.007.008c.031.008.062.019.093.03a.27.27 0 0 0 .1.036l.002.01c.032.011.063.024.096.03l-.001.017c.007 0 .02-.003.027-.004.045.026.092.05.142.062l.005.012c.073.017.133.068.206.083l.001.018.035-.005.004.017a.838.838 0 0 1 .067.027c.049.028.1.053.152.075.028.024.067.029.093.055l.027-.003.005.025.034-.008-.004.017c.075.028.136.084.214.104l-.004.01a.415.415 0 0 1 .11.065l.019-.005a.22.22 0 0 0 .095.063c.03.022.06.044.096.057.029.023.06.045.095.057.05.037.101.074.16.097l-.006.01c.019.008.037.017.055.027a.247.247 0 0 0 .057.038.534.534 0 0 0 .057.038.568.568 0 0 0 .058.039.55.55 0 0 0 .056.038.41.41 0 0 0 .057.038c.062.045.125.092.19.132.07.053.139.111.216.154l-.002.009c.085.054.16.122.244.18.054.047.112.09.17.134l.027.019-.001.014h.022l-.01.024.022-.012.008.084.012-.006c-.002.06-.002.122 0 .183l-.013-.015.002.053.013-.014c-.006.073-.004.146-.002.219h-.03l.027.02c.003.098.003.197 0 .296l-.026.019.028.001v.08l-.032.009.032.008v.099l-.034.007.034.007a8.14 8.14 0 0 0 0 .29l-.034.007.035.008a7.374 7.374 0 0 0 0 .29l-.03.001.027.019c.005.195-.001.392.002.588l-.034.007.034.008v.08l-.034.007.035.008a2.72 2.72 0 0 0 0 .176l-.03.001.027.018c.004.064 0 .127.002.19l-.03.001c.054.022.02.09.03.133h-.03c.054.022.02.091.032.135l-.013-.011v.106l.012-.011c-.005.178.002.357-.003.535l-.028.018.03.002a2.786 2.786 0 0 0 0 .138l-.032.007.033.009c-.002.059-.002.118 0 .178l-.013-.012.002.052.013-.015c-.007.194-.003.389-.002.583l-.013-.008v.062l.013-.005a3.53 3.53 0 0 0 0 .2l-.013-.013c0 .142.002.284 0 .426l.12.008-.12.008v.84l.155.008-.155.008v.086l.012-.016v.11l-.013-.015c0 .472.002.945 0 1.417l.153.008-.153.008a2.64 2.64 0 0 1 0 .155l.12.009-.12.007.001.092.011-.034.001.1h-.03l.028.019c.005.077-.002.156.003.234l-.012-.019v.053l.012-.01a9.69 9.69 0 0 0 0 .407l-.012-.005c.005.136-.022.27-.027.405l-.013-.006c0 .03-.005.059-.007.089a.264.264 0 0 0-.019.107l-.012-.005a1.846 1.846 0 0 0-.006.08l-.013-.002a2.234 2.234 0 0 0-.006.081l-.013-.01a6.314 6.314 0 0 0-.008.055.219.219 0 0 0-.02.089l-.022-.008.009.029a.619.619 0 0 0-.026.062.838.838 0 0 0-.036.096.73.73 0 0 0-.04.094c-.054.108-.098.222-.167.322l.005.028-.016-.004c-.014.031-.034.06-.048.091-.022.03-.044.06-.057.096a.156.156 0 0 0-.038.057 1.759 1.759 0 0 0-.076.114.328.328 0 0 0-.038.057c-.034.045-.072.089-.097.14l-.007-.002c-.018.026-.037.05-.05.079l-.007-.005c-.018.034-.048.06-.067.093-.028.032-.058.063-.078.1h-.007c-.025.04-.062.07-.088.109a1.532 1.532 0 0 0-.017.02c-.033.037-.068.072-.098.111a7.036 7.036 0 0 1-.04.037l-.015.03-.007-.003c-.073.094-.166.17-.242.26a.15.15 0 0 0-.04.038.307.307 0 0 0-.056.057.126.126 0 0 0-.039.038c-.077.064-.14.144-.22.204l.002.008-.03.016-.036.038c-.046.033-.079.08-.127.108v.007a.097.097 0 0 0-.044.039c-.035.02-.062.052-.093.078a1.498 1.498 0 0 0-.02.017c-.04.029-.077.064-.115.096-.033.023-.063.05-.094.077-.096.075-.192.15-.286.228-.127.094-.254.19-.38.286a1.212 1.212 0 0 0-.072.048l.001.008c-.05.02-.087.06-.134.087l.001.008a.124.124 0 0 0-.062.039c-.066.042-.13.085-.192.133a.118.118 0 0 0-.056.039.11.11 0 0 0-.056.038.126.126 0 0 0-.058.038.144.144 0 0 0-.058.038.11.11 0 0 0-.056.038c-.055.024-.1.063-.15.094a.232.232 0 0 0-.059.04.943.943 0 0 0-.054.026l.003.01a.731.731 0 0 0-.159.096c-.066.032-.128.074-.19.114a.498.498 0 0 0-.096.058.392.392 0 0 0-.095.057.326.326 0 0 0-.094.056.747.747 0 0 0-.134.076c-.06.027-.114.065-.172.094a3.18 3.18 0 0 1-.09.05l.003.015-.027-.005c-.058.04-.122.072-.186.102l.004.018-.034-.01-.005.02c-.1.037-.189.102-.288.144l.004.01-.047.021a.69.69 0 0 1-.02 0c-.095.068-.214.1-.305.175l-.028-.01.005.024h-.078c-.04-.026-.087-.043-.128-.068-.033-.016-.065-.033-.098-.048-.029-.023-.067-.028-.092-.055l-.028.004-.004-.026-.035.008.003-.016c-.088-.045-.18-.086-.261-.143a.643.643 0 0 1-.018.006c-.05-.045-.114-.07-.172-.102a.89.89 0 0 1-.051-.03c-.04-.02-.079-.047-.12-.064a3.43 3.43 0 0 0-.268-.151c-.044-.03-.088-.065-.141-.077l.005-.01a.285.285 0 0 1-.073-.045l-.026.005.003-.016c-.033-.017-.063-.04-.098-.049l.003-.008c-.033-.017-.063-.041-.099-.05l.005-.01-.056-.026a.366.366 0 0 0-.094-.058 2.567 2.567 0 0 0-.209-.133 1.776 1.776 0 0 0-.115-.076c-.153-.1-.304-.204-.457-.304a.128.128 0 0 0-.056-.038.502.502 0 0 0-.077-.057c-.018-.014-.037-.027-.056-.039a1.591 1.591 0 0 0-.133-.095c-.075-.06-.154-.112-.229-.171-.08-.056-.152-.121-.233-.173v-.006l-.09-.068c-.032-.026-.061-.054-.096-.075-.032-.029-.062-.059-.1-.079l.001-.007c-.04-.025-.07-.06-.109-.086a2.325 2.325 0 0 0-.094-.08.976.976 0 0 0-.038-.036c-.042-.027-.072-.069-.114-.096a.496.496 0 0 0-.037-.038 2.572 2.572 0 0 0-.024-.016c-.05-.046-.097-.093-.148-.138a.147.147 0 0 0-.046-.037l.003-.015-.025.003.005-.021H4.08l-.002-.022L4.06 17l.005-.022-.022.004v-.02h-.02l.001-.014-.025-.02a6.233 6.233 0 0 1-.17-.17l-.02-.026h-.014v-.02h-.02l.004-.015-.018-.005-.004-.02-.019.008.007-.024-.025.003.006-.024-.018.004c-.04-.068-.106-.115-.155-.176A1.345 1.345 0 0 0 3.5 16.4c-.025-.032-.053-.062-.08-.092l-.016-.02c-.096-.12-.198-.237-.283-.366l-.023-.014c-.008-.038-.036-.064-.058-.094-.038-.058-.075-.115-.114-.172-.032-.05-.06-.104-.095-.153a.764.764 0 0 0-.045-.084l-.03-.05c-.028-.065-.066-.126-.097-.19a.744.744 0 0 1-.025-.067l-.01-.002c-.013-.05-.036-.094-.058-.14l-.029-.09-.009.004a.73.73 0 0 0-.017-.068 1.154 1.154 0 0 0-.023-.056l-.007-.05-.013.004-.004-.066-.015.01a2.836 2.836 0 0 0-.005-.082l-.012.004c-.003-.06-.024-.118-.029-.178l-.01.008c0-.047-.005-.094-.008-.14l-.013.009c.004-.074-.004-.147-.008-.22l-.011.009c.005-2.942 0-5.885 0-8.827.035-.082.112-.131.174-.19l.02-.018c.04-.025.068-.063.109-.088l-.001-.007c.038-.019.068-.05.1-.078.036-.02.064-.05.096-.076.102-.075.204-.15.305-.228.064-.038.121-.086.186-.124l-.002-.008a.37.37 0 0 0 .06-.029l-.003-.01a.465.465 0 0 0 .06-.027l-.004-.01c.078-.035.145-.088.216-.134.05-.023.094-.057.142-.084.047-.031.099-.054.144-.088a.62.62 0 0 0 .084-.046l.05-.029c.041-.018.08-.045.12-.064a.575.575 0 0 0 .052-.035h.02c.034-.027.075-.043.113-.063l.053-.03c.04-.016.078-.036.115-.057.04-.016.078-.036.116-.056.022-.01.044-.019.066-.026l.004-.016.036.003V3.59c.052-.008.099-.035.144-.06l.026.002.002-.017c.047-.006.085-.038.132-.046l.001-.012a.261.261 0 0 0 .101-.036.462.462 0 0 0 .096-.04c.03-.008.059-.02.089-.028l-.002-.009a.426.426 0 0 0 .066-.018.273.273 0 0 1 .097-.026L5.5 3.288l.085-.007-.005-.012a.55.55 0 0 0 .125-.038c.02-.005.038-.012.057-.019l.058-.018a.887.887 0 0 0 .057-.022l.053-.006-.01-.011c.05-.004.1-.02.145-.04l.057-.007-.014-.011a.217.217 0 0 0 .09-.018c.044-.01.087-.022.13-.03l-.005-.011.08-.005-.004-.014.08-.005-.005-.012c.06-.002.116-.023.174-.03l-.002-.008a.504.504 0 0 0 .107-.019.563.563 0 0 0 .093-.02c.029-.002.057-.007.087-.01v-.01c.033 0 .066-.004.099-.006l-.006-.013a.409.409 0 0 0 .143-.018l.112-.009-.01-.011c.057 0 .114 0 .168-.018.05-.001.1-.006.15-.009l-.016-.012c.074.006.147-.006.22-.006l-.007-.013zm.227 2.77l.003.103h-.027l.026.022-.001.027-.028.02h.03c-.003.231-.002.462 0 .692h-.021l.011.03c-.059 0-.117.006-.175.007l-.002.015c-.046-.002-.09.002-.136.004l.005.015a.718.718 0 0 0-.118.006l.004.01c-.034.001-.066.005-.1.007l.004.014-.084.002.012.015-.102.006.003.014a2.13 2.13 0 0 0-.079.006l.004.01c-.046.006-.09.02-.136.031l.002.01-.063.005.009.011c-.04.005-.08.018-.118.03v.009c-.033.007-.065.018-.097.026l.004.01c-.033.006-.065.018-.097.03l-.001.01a.8.8 0 0 0-.238.12l-.017-.003c-.08.054-.163.105-.243.16l.003.008a.213.213 0 0 0-.083.059c-.05.032-.09.077-.133.118H6.02v.013l-.025.025h-.014l.002.02H5.97c-.033.047-.083.08-.109.134l-.006-.005c-.04.064-.092.12-.125.188-.032.05-.066.1-.077.16l-.018-.001.006.037-.017.003a1.221 1.221 0 0 1-.03.085.271.271 0 0 0-.017.067l-.01-.003-.008.051c-.008.024-.014.048-.02.073a.915.915 0 0 0-.035.262l-.01-.006a4.133 4.133 0 0 0-.001.363l.01-.003c0 .061-.003.125.019.184a.789.789 0 0 0 .036.187.72.72 0 0 0 .039.132c.01.03.02.06.028.09l.01-.003c.005.044.029.083.046.124.024.05.054.096.077.146l.01-.002c.008.04.036.069.058.101.048.068.096.136.158.192l-.002.015L6 9.843l.002.02.022.001-.01.02.026-.003-.001.025.024-.004-.006.02.02.004.006.02.01-.007.024.025v.008c.038.026.069.063.108.089l.021.017c.023.021.047.04.074.057.043.034.087.068.134.095.049.034.097.072.152.095.027.025.06.043.094.057.07.052.155.082.226.131l.028-.002.004.024.033-.006.005.025.034-.006.004.024c.008 0 .025-.003.034-.005l.004.018c.022.007.044.016.066.025.046.023.09.051.142.06v.017l.027-.004a.545.545 0 0 0 .136.062c.03.015.061.03.094.038.03.016.062.031.096.038.03.015.062.028.094.04a.504.504 0 0 0 .067.018l-.003.01c.033.01.064.021.098.027l-.003.01c.037.012.074.027.114.027.004.612 0 1.225.002 1.837h-.098v-.01c-.07-.003-.14-.01-.21-.009v-.01c-.05-.005-.102-.01-.153-.01l.005-.011c-.04-.004-.08-.007-.12-.007l.006-.013c-.033-.002-.066-.006-.099-.006l.001-.012c-.032-.003-.065-.007-.097-.007l.004-.012-.07-.008c-.1-.03-.204-.052-.306-.079-.024-.008-.05-.012-.075-.018a.205.205 0 0 0-.086-.017l.005-.012a4.405 4.405 0 0 0-.053-.008.571.571 0 0 0-.075-.02.607.607 0 0 0-.134-.037.458.458 0 0 0-.145-.039l.008-.01-.054-.007c-.055-.024-.113-.039-.17-.06a.473.473 0 0 0-.067-.018l.003-.011-.065-.008.011-.014c-.047-.002-.086-.03-.13-.043-.033-.016-.066-.033-.103-.038v-.01c-.045-.012-.085-.04-.133-.047v-.018l-.027.002c-.02-.016-.046-.02-.07-.028.002.507.002 1.015.001 1.522.03.013.06.027.091.037.03.015.062.029.095.038a.647.647 0 0 0 .097.038l.054.021a.699.699 0 0 0 .068.017l-.004.012.063.005-.007.013.052.007.057.022c.028.01.056.015.086.015l-.006.016.064.002-.005.01c.053.012.104.03.16.03l-.012.01c.054.01.107.026.162.029l-.007.01.072.008a.32.32 0 0 0 .126.019l-.01.013.106.005-.01.012c.04.004.082.007.123.007l-.009.013c.04.003.081.006.122.006l-.006.011c.045.004.091.008.137.008l-.001.01c.058.005.117.011.175.008l-.007.011c.078.005.156.012.234.008l-.003.012c.135.005.27.012.405.008l-.01.013h.059c-.01.043.022.111-.031.131l.03.001a1.94 1.94 0 0 0 .001.145l-.012-.017-.001.051.013-.008c-.005.089.002.178-.003.267l-.028.018.03.001v.196l-.03.002.028.018c.005.09-.002.18.003.27l-.012-.015v.054l.013-.016a9.73 9.73 0 0 1-.006.07c.092-.002.184 0 .276-.002l.007.033.008-.033c.166 0 .332.004.498-.003v-1.195c.051.001.104-.004.156-.008l-.01-.013c.048.004.096 0 .144-.005l-.013-.012c.048.001.095-.003.142-.008l-.005-.011c.035 0 .07-.004.104-.006l-.012-.012c.07 0 .138-.016.203-.038l.057-.005-.012-.015.084-.003-.005-.015c.03-.002.06-.004.086-.019l.051-.008-.006-.012.063-.005-.004-.011a.842.842 0 0 0 .067-.018c.033-.012.065-.023.095-.04.044-.009.08-.037.124-.046l.002-.016.04.003-.004-.017c.04-.006.075-.028.11-.046l.05-.03c.069-.03.13-.073.191-.115.102-.062.19-.143.28-.22v-.014l.02.001-.002-.013.025-.025h.013v-.013a1.337 1.337 0 0 0 .214-.267l.054-.075-.002-.018c.048-.055.075-.125.103-.191.018-.03.027-.064.04-.095a.35.35 0 0 0 .017-.07l.01.009.006-.054c.018-.025.017-.056.02-.085l.011.003c.003-.034.006-.068.004-.102l.015.012c.003-.041.006-.082.007-.123l.01.005c.013-.173.012-.346.001-.519l-.012.006c.002-.047-.002-.095-.005-.142l-.013.012c0-.04-.003-.08-.007-.12l-.013.002-.005-.077h-.014a6.862 6.862 0 0 0-.004-.063l-.01.013a.275.275 0 0 0-.02-.073.31.31 0 0 0-.044-.096l.002-.024-.016-.006-.017-.044a1.675 1.675 0 0 0-.117-.19c-.022-.03-.048-.059-.068-.091l-.007.003c-.025-.051-.072-.085-.108-.127-.06-.056-.114-.122-.183-.166v-.007c-.031-.02-.057-.048-.09-.067a.548.548 0 0 0-.075-.057.17.17 0 0 0-.064-.04l.003-.01a.227.227 0 0 0-.061-.026l.004-.011a.895.895 0 0 0-.055-.026.352.352 0 0 0-.094-.059 1.614 1.614 0 0 0-.21-.114c-.028-.022-.063-.029-.09-.05-.029-.008-.054-.025-.08-.038-.08-.031-.152-.081-.236-.103l-.002-.01c-.06-.015-.109-.055-.17-.066v-.01c-.043-.012-.083-.034-.126-.048-.032-.017-.066-.035-.103-.036l.003-.012c-.033-.009-.064-.023-.098-.027l.002-.012c-.045-.008-.084-.032-.127-.045a2.262 2.262 0 0 0-.095-.04.555.555 0 0 0-.066-.018l.004-.015H8.8V7.867c.045.003.09.005.136.004l-.007.011c.048.003.096.008.145.009a.498.498 0 0 0 .169.018l-.013.013c.03.001.061.005.092.008.04.014.084.018.127.018l-.006.012.1.007-.004.01c.06.007.117.026.177.03l-.006.011.08.005-.002.014.08.005-.006.01c.046.01.091.024.138.03l-.002.012.078.005-.006.017.067.002-.011.015.065.004-.004.013.05.008.056.023c.023.006.045.012.068.016l-.003.012.087.007-.04.013c.035.002.068.011.099.027a.427.427 0 0 0 .066.017l-.001.01c.037.008.116.06.12-.008.014-.031.03-.063.037-.098a.285.285 0 0 0 .038-.095.253.253 0 0 0 .037-.103l.01.004c.01-.033.023-.065.029-.098h.01c.01-.031.022-.062.028-.095h.01c.01-.032.022-.063.028-.095h.01c.01-.032.022-.063.028-.095h.01c.01-.032.023-.064.029-.097l.01.004c.009-.033.022-.065.028-.099l.01.004c.01-.033.022-.065.028-.098h.01c.01-.032.021-.063.028-.096l.01.002c.01-.044.033-.084.046-.126.014-.032.028-.063.04-.095a.735.735 0 0 0 .014-.05l-.033.004a.185.185 0 0 0-.104-.042v-.012c-.043-.01-.084-.03-.126-.047a4.78 4.78 0 0 1-.055-.02.34.34 0 0 0-.074-.02l.014-.008c-.102-.019-.194-.074-.297-.084l.013-.012-.067-.005.004-.01-.124-.03c-.027-.016-.059-.015-.088-.018l.003-.012a3.767 3.767 0 0 0-.079-.006l.003-.013a3.676 3.676 0 0 0-.078-.006v-.01c-.055-.007-.11-.023-.164-.031a.36.36 0 0 0-.125-.016l.009-.013c-.034-.002-.067-.006-.101-.006l.002-.011c-.039-.004-.077-.007-.115-.008v-.01a3.78 3.78 0 0 0-.122-.01c-.054-.02-.111-.017-.167-.018l.007-.01c-.066-.005-.132-.012-.198-.008l.01-.011c-.092-.003-.184-.015-.275-.007l.008-.013-.102-.002c.001-.288-.002-.576.001-.863l-.178.001.017-.013-.452.001.012.012c-.061-.001-.122 0-.183-.002z"/>
        <path d="M7.769 7.927l.08-.004-.005-.014c.053-.002.105-.008.157-.012.001.457.003.914 0 1.371-.054-.015-.1-.048-.156-.057v-.019l-.035.006-.004-.017-.047-.025-.025.007.001-.017-.09-.047c-.038-.027-.076-.053-.115-.076-.033-.028-.064-.058-.101-.08l.003-.01-.026-.023-.016.004.004-.022H7.38a.101.101 0 0 0-.039-.044l-.02-.038c-.02-.034-.041-.068-.048-.107l-.012.003a9.737 9.737 0 0 0-.006-.08l-.013.004v-.213h.012l.008-.096h.01c.05-.181.228-.285.39-.353a.816.816 0 0 0 .06-.02c.012-.003.038-.006.05-.008l-.003-.013zM8.8 11.287c.118.04.223.109.335.16.03.027.064.047.102.06l-.002.008c.048.024.086.065.135.087l-.004.008a.435.435 0 0 1 .193.25l.015-.005.006.067.014-.007c.008.097.01.194 0 .291l-.013-.002a2.14 2.14 0 0 0-.006.079l-.021-.004.005.04-.026.004.01.025a.135.135 0 0 0-.045.06.7.7 0 0 1-.19.171.204.204 0 0 0-.06.04h-.033l.005.017c-.034.005-.065.018-.097.028l.001.009a.256.256 0 0 0-.066.02l-.054.008.01.012a2.97 2.97 0 0 0-.083.006l.003.013c-.045.002-.09.007-.134.013v-1.458z"/>
    </g>
</svg>
