<svg xmlns="http://www.w3.org/2000/svg" width="12" height="12" fill="none" viewBox="0 0 12 12">
    <path fill="#FCD834" d="M6 12c3.314 0 6-2.686 6-6S9.314 0 6 0 0 2.686 0 6s2.686 6 6 6z"/>
    <path fill="#181D1F" d="M6.68 7.434c.007-.498.125-.877.353-1.136l.638-.627c.525-.546.788-1.101.788-1.664 0-.633-.194-1.126-.583-1.478C7.486 2.176 6.945 2 6.25 2c-.674 0-1.216.178-1.625.534-.41.356-.618.84-.625 1.452h1.26c0-.287.09-.514.272-.682.182-.168.421-.251.718-.251.311 0 .547.085.708.256.16.171.241.42.241.744 0 .246-.07.474-.207.685-.09.138-.304.37-.64.697-.338.327-.563.626-.677.9-.114.273-.171.639-.171 1.099H6.68zm-.554 2.281c.228 0 .404-.064.529-.192.124-.128.186-.287.186-.477 0-.197-.064-.36-.192-.49-.127-.13-.302-.194-.523-.194-.218 0-.39.063-.519.19-.128.125-.192.29-.192.494 0 .19.062.35.185.477.122.128.298.192.526.192z"/>
</svg>
