<svg xmlns="http://www.w3.org/2000/svg" width="22" height="22" viewBox="0 0 22 22">
    <g fill="none" fill-rule="evenodd">
        <rect width="20" height="20" x="1" y="1" stroke="currentColor" stroke-width="2" rx="10"/>
        <path fill="currentColor" d="M8 8.852h1.524c.052-.851.59-1.395 1.427-1.395.818 0 1.363.523 1.363 1.248 0 .69-.273 1.06-1.077 1.583-.895.565-1.272 1.192-1.213 2.238l.006.474h1.505v-.397c0-.69.24-1.046 1.09-1.583C13.507 10.455 14 9.71 14 8.642 14 7.102 12.813 6 11.036 6 9.109 6 8.052 7.2 8 8.852zM11 16c.614 0 1-.395 1-.997 0-.608-.386-1.003-1-1.003-.602 0-1 .395-1 1.003 0 .602.398.997 1 .997z"/>
    </g>
</svg>
