<svg xmlns="http://www.w3.org/2000/svg" width="37" height="30" viewBox="0 0 37 30">
    <defs>
        <linearGradient id="crqk81h5ga" x1="46.502%" x2="53.498%" y1="0%" y2="100%">
            <stop offset="0%" stop-color="#F48836"/>
            <stop offset="100%" stop-color="#F4364C"/>
        </linearGradient>
        <linearGradient id="m6oe3ynsdb" x1="0%" x2="100%" y1=".897%" y2="99.103%">
            <stop offset="0%" stop-color="#F48836"/>
            <stop offset="100%" stop-color="#F4364C"/>
        </linearGradient>
    </defs>
    <g fill="none">
        <path fill="url(#crqk81h5ga)" d="M10.081 5.18L15.918 5.18 15.918 27.245 10.081 27.245z"/>
        <path fill="#FFF" d="M34.409 9.95h-8.41V5.18c0-.388-.318-.703-.71-.703h-4.176C21.08 2.033 19.065.055 16.595.055c-1.465 0-2.77.696-3.595 1.772C12.157.734 10.83.055 9.404.055c-2.47 0-4.484 1.978-4.518 4.422H.71c-.392 0-.71.315-.71.703v5.473c0 .388.318.703.71.703h1.55v15.889c0 .388.318.703.71.703H18.73c.175.87.952 1.528 1.881 1.528H34.41c1.058 0 1.918-.853 1.918-1.901V11.851c0-1.049-.86-1.901-1.918-1.901zM16.595 1.462c1.688 0 3.065 1.346 3.1 3.015h-6.2c.035-1.669 1.412-3.015 3.1-3.015zm-7.19 0c1.23 0 2.355.738 2.843 1.851-.106.371-.166.761-.172 1.164H6.305c.034-1.669 1.411-3.015 3.1-3.015zM1.418 5.883H24.58V9.95H1.419V5.883zm2.26 5.473h15.08c-.042.158-.065.324-.065.495v14.69H3.679V11.356zm31.23 16.219c0 .273-.225.495-.5.495H20.612c-.275 0-.499-.222-.499-.495V11.851c0-.273.224-.495.5-.495h13.796c.275 0 .5.222.5.495v15.724z"/>
        <path fill="url(#m6oe3ynsdb)" d="M27.575 23.46l-1.211.448c-.26.096-.547-.036-.643-.295-.022-.06-.032-.123-.03-.187l.036-1.387c.003-.111-.032-.22-.098-.31l-.823-1.116c-.164-.222-.117-.535.105-.699.045-.033.096-.059.15-.076l1.269-.39c.111-.033.207-.105.271-.203l.73-1.11c.152-.23.462-.295.693-.143.057.038.105.086.143.143l.73 1.11c.064.098.16.17.271.204l1.269.39c.264.08.412.36.331.624-.016.054-.042.105-.076.15l-.823 1.116c-.066.09-.1.199-.098.31l.037 1.387c.007.276-.21.506-.487.513-.064.002-.127-.009-.187-.031l-1.211-.449c-.112-.041-.236-.041-.348 0z"/>
        <path fill="#FFF" d="M31.541 13.628H23.48c-.392 0-.71.315-.71.703 0 .388.318.703.71.703h8.061c.392 0 .71-.315.71-.703 0-.388-.318-.703-.71-.703z"/>
    </g>
</svg>
