<?xml version="1.0" encoding="UTF-8"?>
<svg width="12px" height="12px" viewBox="0 0 12 12" version="1.1" xmlns="http://www.w3.org/2000/svg" xmlns:xlink="http://www.w3.org/1999/xlink">
    <!-- Generator: Sketch 60 (88103) - https://sketch.com -->
    <title>Star</title>
    <desc>Created with Sketch.</desc>
    <g id="Desktop" stroke="none" stroke-width="1" fill="none" fill-rule="evenodd">
        <g id="Update-Light-(Laptop)" transform="translate(-514.000000, -31.000000)">
            <g id="Header-white">
                <g id="Star" transform="translate(510.000000, 28.500000)">
                    <rect id="bound" x="0" y="0" width="19" height="19"></rect>
                    <path d="M9.54162371,12.5164764 L6.83471511,14.0036377 C6.51073508,14.1816307 6.11002059,14.0514632 5.93969422,13.7129005 C5.87186937,13.5780831 5.8484647,13.4236605 5.87310351,13.273539 L6.39007704,10.1236808 L4.20014202,7.89293896 C3.93803668,7.62594959 3.93267354,7.18746977 4.18816309,6.91356686 C4.28990037,6.80449726 4.42320679,6.733517 4.56744496,6.71161449 L7.59386075,6.25205639 L8.94731506,3.38622077 C9.10930499,3.04321936 9.50670493,2.90239139 9.83493255,3.07167271 C9.96563449,3.13908142 10.071427,3.2496358 10.1359322,3.38622077 L11.4893866,6.25205639 L14.5158023,6.71161449 C14.878023,6.76661738 15.1289928,7.11806076 15.076359,7.49658529 C15.0554001,7.64731567 14.9874771,7.78662233 14.8831053,7.89293896 L12.6931703,10.1236808 L13.2101438,13.273539 C13.2720184,13.6505341 13.0297264,14.008566 12.6689693,14.0732257 C12.5253141,14.0989736 12.3775427,14.0745154 12.2485322,14.0036377 L9.54162371,12.5164764 Z" fill="#76797B" fill-rule="nonzero"></path>
                </g>
            </g>
        </g>
    </g>
</svg>