<svg xmlns="http://www.w3.org/2000/svg" width="252" height="24" viewBox="0 0 252 24">
    <defs>
        <linearGradient id="a" x1="0%" y1="50%" y2="50%">
            <stop offset="0%" stop-color="#F48836"/>
            <stop offset="100%" stop-color="#F4364C"/>
        </linearGradient>
    </defs>
    <path fill="url(#a)" fill-rule="evenodd" d="M554.432 0c.444 0 .868.184 1.17.508l5.83 6.238.001-3.635a1.601 1.601 0 0 1 2.498-1.327l13.362 8.992a1.599 1.599 0 0 1 0 2.654l-13.362 8.992a1.604 1.604 0 0 1-2.498-1.326v-3.842l-5.83 6.238a1.603 1.603 0 0 1-1.171.508H373.138c-.425 0-.832-.169-1.133-.469l-7.439-7.428v4.993a1.601 1.601 0 0 1-2.497 1.326l-13.362-8.992a1.599 1.599 0 0 1 0-2.654l13.362-8.992a1.604 1.604 0 0 1 2.498 1.327l-.001 4.785 7.44-7.427c.3-.3.707-.469 1.132-.469h181.294zm26.194 6c.312 0 .617.09.879.26l6.748 4.364a1.642 1.642 0 0 1 0 2.752l-6.748 4.364a1.62 1.62 0 0 1-2.247-.491 1.643 1.643 0 0 1-.258-.885V7.636A1.63 1.63 0 0 1 580.626 6zm-233.884.751c.168.264.258.571.258.885v8.728A1.63 1.63 0 0 1 345.374 18c-.312 0-.617-.09-.879-.26l-6.748-4.364a1.642 1.642 0 0 1 0-2.752l6.748-4.364a1.62 1.62 0 0 1 2.247.491z" transform="matrix(1 0 0 -1 -337 24)"/>
</svg>
