<svg xmlns="http://www.w3.org/2000/svg" width="12" height="15" viewBox="0 0 12 15">
    <defs>
        <linearGradient id="prefix__a" x1="17.752%" x2="82.248%" y1="0%" y2="100%">
            <stop offset="0%" stop-color="#F48836"/>
            <stop offset="100%" stop-color="#F4364C"/>
        </linearGradient>
    </defs>
    <path fill="url(#prefix__a)" d="M5.653.039c.136-.052.287-.052.423 0l5.272 2.013c.23.088.381.308.381.553v4.698c0 1.962-1.073 3.738-2.834 5.307-.603.536-1.245 1.011-1.889 1.42-.225.144-.435.27-.624.376l-.08.045-.169.09c-.168.086-.368.086-.537 0l-.1-.053-.294-.166c-.15-.087-.31-.184-.48-.292-.642-.409-1.285-.884-1.887-1.42C1.073 11.04 0 9.265 0 7.303V2.605c0-.245.152-.465.38-.553zm.211 1.186l-4.68 1.788v4.29c0 1.492.827 2.926 2.242 4.244l.196.179c.551.49 1.144.928 1.737 1.305.103.066.203.128.298.185l.207.12.208-.12.299-.185c.592-.377 1.185-.814 1.736-1.305 1.534-1.367 2.438-2.863 2.438-4.423v-4.29l-4.68-1.788zm0 1.284L9.22 3.947v3.356c0 2.876-3.355 4.793-3.355 4.793s-3.356-1.917-3.356-4.793V3.947L5.865 2.51z"/>
</svg>
