<?xml version="1.0" encoding="UTF-8"?>
<svg width="50px" height="37px" viewBox="0 0 50 37" version="1.1" xmlns="http://www.w3.org/2000/svg" xmlns:xlink="http://www.w3.org/1999/xlink">
    <defs>
        <linearGradient x1="0%" y1="0%" x2="100%" y2="100%" id="linearGradient-1">
            <stop stop-color="#F48836" offset="0%"></stop>
            <stop stop-color="#F4364C" offset="100%"></stop>
        </linearGradient>
    </defs>
    <g id="Page-1" stroke="none" stroke-width="1" fill="none" fill-rule="evenodd">
        <g id="Main-Page-(Dark)-Laptop-Copy-2" transform="translate(-298.000000, -1564.000000)">
            <g id="or-use-this-icon" transform="translate(298.000000, 1564.000000)">
                <path d="M22.3281171,5.50792686 C22.9232328,5.11488418 23.7013929,5.16103554 24.2438326,5.60587984 L24.3563091,5.70729131 L27.6990385,9.01634615 L39.575,14.0548077 L42.8062723,14.0551178 C45.0475708,14.0551178 46.9992688,15.485752 47.7022568,17.5268819 L47.7192308,17.5807692 L48.1481488,17.5809759 C48.5207706,17.5809759 48.8804151,17.7093419 49.1669808,17.9418979 L49.2851453,18.0478733 C49.5886892,18.3484983 49.7596154,18.7570303 49.7596154,19.1835943 C49.7596154,22.1845945 48.3760005,24.3813955 45.6101011,25.7889069 C43.0050712,27.1144583 39.0353005,27.7752979 33.4747484,27.8336876 C33.0764881,27.8378696 32.7502441,27.5184061 32.7460621,27.1201457 C32.7418801,26.7218854 33.0613437,26.3956415 33.459604,26.3914594 C38.8174935,26.3351978 42.5905107,25.7071113 44.9559847,24.5034563 C47.2441062,23.3390766 48.3173077,21.635127 48.3173077,19.1835943 C48.3173077,19.1425655 48.3006792,19.1028216 48.2703022,19.0727367 C48.2491706,19.0518151 48.2225392,19.0368098 48.1933895,19.0291309 L48.1481488,19.0232836 L46.5805782,19.0232836 L46.4620508,18.447544 C46.124311,16.8069927 44.6935009,15.5872031 42.9959453,15.5021678 L42.8062723,15.4974255 L39.2811,15.4974255 L26.8798846,10.2354627 L23.3415454,6.73223325 C23.2840176,6.6752772 23.1914653,6.66620926 23.1227892,6.71156616 C22.3812719,7.20096878 21.8939048,7.94359052 21.7438242,8.81125926 C21.6053961,9.61148023 21.7733403,10.405302 22.2197672,11.0767555 L22.3371595,11.2420024 L23.0154876,12.1377317 L22.4810262,12.5778506 C20.8745921,13.900719 18.8736069,14.615961 16.7711454,14.615961 C13.8194421,14.615961 11.1499048,12.9315652 9.89601837,10.3003557 L9.78264853,10.0509284 L9.1309016,8.5452992 C9.1115715,8.50064883 9.07222732,8.46695466 9.02449113,8.45289822 L8.97438804,8.44570923 L7.19376255,8.44570923 C7.11920824,8.44570923 7.05468938,8.49174544 7.03260645,8.55733582 C5.94797754,11.778835 5.35193626,15.1225259 5.25732749,18.5111722 L5.24509531,19.189478 L5.23925943,19.9047481 L4.52282432,19.9047481 C4.48624029,19.9047481 4.45140123,19.9159584 4.42288473,19.9357838 L4.38542412,19.9716587 L1.71446659,23.4975423 C1.66187583,23.56696 1.67585287,23.6638269 1.74764157,23.7171407 L2.09014947,23.9666011 L2.42566334,24.2004131 C2.48111777,24.238105 2.53636952,24.2751653 2.59146293,24.3116043 L2.92047831,24.5228636 L3.24782308,24.7197009 C3.30235962,24.7513326 3.35691528,24.7823838 3.41153442,24.8128647 L3.74036586,24.9889889 L4.07285013,25.1519175 C4.46370736,25.3344942 4.86636992,25.4911314 5.29605397,25.6253345 L5.671327,25.7349534 C6.18146076,25.8740046 6.73256623,25.9850622 7.34735674,26.0733587 L7.82074547,26.1353952 L8.32014545,26.1893868 C8.40566469,26.1977422 8.49235645,26.2057829 8.5802651,26.2135191 L9.12267456,26.2563631 L9.69641872,26.2923887 L10.6204455,26.3347155 L11.2818425,26.355841 L12.3473299,26.3781172 L13.5072758,26.3905703 L14.336599,26.3942328 C14.7348802,26.3951722 15.0569893,26.7188044 15.0560499,27.1170856 C15.0551105,27.5153667 14.7314783,27.8374759 14.3331971,27.8365314 L13.0807463,27.829327 L12.299652,27.819398 L11.2037175,27.795557 L10.5205893,27.772961 L9.87307593,27.7444138 L9.25913635,27.7094098 L8.67672961,27.6674437 L8.12381474,27.6180101 L7.59835079,27.5606035 L7.09829677,27.4947187 C6.85428209,27.4595724 6.61903077,27.4210573 6.39139478,27.3788889 L5.94593639,27.289597 C5.72794392,27.2424314 5.51680141,27.191423 5.31136082,27.1362876 L4.90774203,27.0204298 C4.3126972,26.8381365 3.76208136,26.6169942 3.22489735,26.349327 L2.86842442,26.1639053 C2.80923052,26.1318249 2.75011742,26.099149 2.69104257,26.0658671 L2.33671253,25.8588201 L1.98125987,25.6367244 L1.62264364,25.3990747 L1.25882285,25.1453654 L0.887756559,24.8750912 C0.212572896,24.3736668 0.0453045015,23.4465296 0.481540589,22.7474662 L0.564807637,22.6266027 L3.235712,19.1007893 C3.3575956,18.9398669 3.50701345,18.8055466 3.6747955,18.7022943 L3.8125,18.6259615 L3.81558456,18.4708134 C3.90761883,15.1747289 4.45493752,11.9190006 5.44643439,8.77020219 L5.66569261,8.09712061 C5.87127793,7.48649417 6.4215165,7.06295291 7.05649371,7.00919464 L7.19376255,7.00340154 L8.97438804,7.00340154 C9.56782287,7.00340154 10.1096958,7.32737078 10.3900034,7.84023857 L10.4545095,7.97231273 L11.1062665,9.4779652 C12.0778794,11.7224986 14.3007015,13.1736533 16.7711454,13.1736533 C18.2275862,13.1736533 19.6217726,12.7671786 20.8212252,12.0038471 L21.0182692,11.8730769 L20.9025654,11.6915384 C20.3831433,10.8254749 20.1674064,9.82587781 20.2859927,8.81759975 L20.3226221,8.56542163 C20.5406485,7.30493472 21.2553027,6.215986 22.3281171,5.50792686 Z" id="Path" fill="#FFFFFF" fill-rule="nonzero"></path>
                <path d="M4.89055601,18.706613 L4.9869767,18.7245642 L11.9399631,20.5091588 C12.1963318,20.5749599 12.4564612,20.6099559 12.7172077,20.6138381 L13.4722742,20.6250799 C13.8705124,20.6310091 14.1885416,20.9586515 14.182694,21.3568896 C14.1766832,21.7551277 13.8490408,22.073157 13.4508027,22.0672278 L12.6957362,22.0559859 C12.4146195,22.0518005 12.134377,22.0225071 11.8573132,21.968464 L11.5813943,21.9061842 L4.62840792,20.1215896 C4.24263001,20.0225736 4.01016358,19.6295704 4.10917962,19.2437925 C4.19086785,18.9255258 4.47265105,18.7116066 4.78539379,18.7020809 L4.89055601,18.706613 Z M47.1153846,17.7403846 C47.5136669,17.7403846 47.8365385,18.0632562 47.8365385,18.4615385 C47.8365385,20.5055194 46.7942679,21.7651762 44.7956705,22.0414228 L44.5778795,22.0672485 L34.6061453,21.9394811 C34.2078957,21.9343784 33.8891872,21.6073967 33.8942295,21.2091471 C33.8989675,20.844085 34.1741127,20.5458595 34.5266913,20.5026209 L34.624624,20.4972918 L44.514114,20.6287048 C45.8267681,20.4951341 46.3942295,19.8476897 46.3942295,18.4615385 C46.3942295,18.0632562 46.7171023,17.7403846 47.1153846,17.7403846 Z" id="Shape" fill="#FFFFFF" fill-rule="nonzero"></path>
                <path d="M11.9435754,15.9100711 C12.9880808,16.4981869 13.9074065,16.956536 14.6993149,17.2849234 C15.0672192,17.4374855 15.2417887,17.8594068 15.0892266,18.2273111 C14.9366646,18.5952155 14.5147433,18.7697849 14.146839,18.6172229 C13.5093967,18.3528893 12.8046614,18.0148979 12.0316892,17.6031665 L11.8923077,17.5278846 L10.2569454,20.713952 C10.0750578,21.0682762 9.64037227,21.2080638 9.28604801,21.0261762 C8.93172376,20.8442886 8.79193622,20.409603 8.97382381,20.0552788 L10.9481951,16.2091249 C11.1350611,15.8451025 11.5870259,15.7093134 11.9435754,15.9100711 Z M31.0214024,14.9012957 C32.2253286,15.35065 33.6419249,15.9979047 35.2732239,16.8434133 L36.1067747,17.2826904 L36.9761658,17.7550197 C37.2719425,17.9179726 37.5737019,18.0864358 37.8814536,18.260411 L38.8226945,18.7988741 C39.1674322,18.998335 39.2852023,19.4394952 39.0857413,19.784233 C38.8862803,20.1289707 38.4451201,20.2467407 38.1003824,20.0472798 C37.7870065,19.8659643 37.479659,19.6901259 37.1783494,19.519766 L36.2925438,19.0251241 C35.5694829,18.6266217 34.8842176,18.262371 34.236895,17.9323976 L33.4783298,17.5528841 C32.3678289,17.0082984 31.3804528,16.5748041 30.5170591,16.2525504 C30.1439204,16.1132799 29.9543329,15.6978901 30.0936034,15.3247514 C30.232874,14.9516127 30.6482637,14.7620252 31.0214024,14.9012957 Z" id="Shape" fill="#FFFFFF" fill-rule="nonzero"></path>
                <path d="M26.5478351,9.08653846 C26.7507184,9.08653846 26.966901,9.0997755 27.1968101,9.1259016 C27.5925454,9.17087164 27.8768969,9.52813395 27.8319268,9.9238693 C27.7869568,10.3196046 27.4296945,10.6039561 27.0339591,10.558986 C26.8561182,10.5387768 26.6939344,10.5288462 26.5478351,10.5288462 C25.8500891,10.5288462 25.2620522,10.7373621 24.4667506,11.2199569 L23.3199572,11.9577217 C23.0849338,12.1079125 22.8761468,12.2357717 22.6671818,12.3559334 C22.3219132,12.5544739 21.8810687,12.4355273 21.6825282,12.0902587 C21.4839876,11.7449901 21.6029342,11.3041457 21.9482028,11.1056051 C22.0731582,11.0337518 22.1993673,10.9580185 22.3340402,10.8743477 L22.5827748,10.7165427 L23.6571479,10.0246985 L23.7185268,9.98690674 C24.7196896,9.37939395 25.5455728,9.08653846 26.5478351,9.08653846 Z" id="Path-7-Copy-2" fill="#FFFFFF" fill-rule="nonzero"></path>
                <path d="M39.600198,14.4912514 C39.9873807,14.3978794 40.3769472,14.6360599 40.4703193,15.0232426 C40.5728559,15.4484274 40.625,15.8841333 40.625,16.3252168 C40.625,18.4739748 39.3843817,20.4255993 37.3805397,21.5856528 C37.0358509,21.7851982 36.5946619,21.6675362 36.3951164,21.3228474 C36.195571,20.9781586 36.313233,20.5369695 36.6579218,20.3374241 C38.2352157,19.4243055 39.1826923,17.9338242 39.1826923,16.3252168 C39.1826923,15.9984206 39.1441298,15.6761999 39.0682068,15.3613728 C38.9748347,14.9741901 39.2130153,14.5846235 39.600198,14.4912514 Z" id="Path" fill="#FFFFFF" fill-rule="nonzero"></path>
                <path d="M6.01878841,11.1387439 L9.0656335,13.2579981 C9.36045548,13.4630635 9.45540635,13.849065 9.30357837,14.1631446 L9.25057971,14.2549579 L7.42624576,16.943396 C7.31120479,17.1129267 7.1305703,17.2241578 6.93078547,17.2524783 L6.82951221,17.2596154 L4.80769231,17.2596154 L4.80769231,15.8173077 L6.44711538,15.8173077 L7.65673077,14.0346154 L5.19521371,12.3227946 L6.01878841,11.1387439 Z" id="Path-8-Copy" fill="#FFFFFF" fill-rule="nonzero"></path>
                <circle id="Oval" fill="url(#linearGradient-1)" cx="23.5576923" cy="22.7884615" r="8.17307692"></circle>
                <path d="M23.5576923,13.8942308 C18.6455443,13.8942308 14.6634615,17.8763135 14.6634615,22.7884615 C14.6634615,27.7006096 18.6455443,31.6826923 23.5576923,31.6826923 C28.4698403,31.6826923 32.4519231,27.7006096 32.4519231,22.7884615 C32.4519231,17.8763135 28.4698403,13.8942308 23.5576923,13.8942308 Z M23.5576923,15.3365385 C27.6732758,15.3365385 31.0096154,18.6728781 31.0096154,22.7884615 C31.0096154,26.904045 27.6732758,30.2403846 23.5576923,30.2403846 C19.4421088,30.2403846 16.1057692,26.904045 16.1057692,22.7884615 C16.1057692,18.6728781 19.4421088,15.3365385 23.5576923,15.3365385 Z" id="Oval-Copy-229" fill="#FFFFFF" fill-rule="nonzero"></path>
                <path d="M28.323032,18.9266835 C28.5971825,18.6377713 29.053635,18.6258046 29.3425472,18.8999551 C29.6051947,19.1491828 29.6389616,19.5490733 29.4369571,19.836785 L29.3692757,19.9194703 L22.9824094,26.6502395 C22.7238925,26.9226765 22.3057576,26.9474435 22.0182192,26.7245405 L21.9361657,26.6502395 L18.7076474,23.2478805 C18.4334969,22.9589683 18.4454636,22.5025158 18.7343758,22.2283653 C18.9970233,21.9791375 19.3981339,21.9663704 19.6748657,22.1831728 L19.7538911,22.2550937 L22.4586538,25.1057692 L28.323032,18.9266835 Z" id="Path-13" fill="#FFFFFF" fill-rule="nonzero"></path>
            </g>
        </g>
    </g>
</svg>