<?xml version="1.0" encoding="UTF-8"?>
<svg width="32px" height="32px" viewBox="0 0 32 32" version="1.1" xmlns="http://www.w3.org/2000/svg" xmlns:xlink="http://www.w3.org/1999/xlink">
    <!-- Generator: Sketch 52.3 (67297) - http://www.bohemiancoding.com/sketch -->
    <title>icon-social-steam</title>
    <desc>Created with Sketch.</desc>
    <g id="Web" stroke="none" stroke-width="1" fill="none" fill-rule="evenodd">
        <g id="Artboard" transform="translate(-111.000000, -93.000000)" fill="#FFFFFF" fill-rule="nonzero">
            <path d="M126.972322,93 C135.824564,93 143,100.163209 143,109 C143,117.835651 135.824564,125 126.972322,125 C119.635433,125 113.454087,120.076221 111.551247,113.360214 L117.69569,115.896257 C118.110855,117.967986 119.94796,119.533191 122.143722,119.533191 C124.645092,119.533191 126.680554,117.50139 126.680554,115.002995 C126.680554,114.932264 126.678247,114.860392 126.674787,114.78852 L132.123829,110.908592 C132.169958,110.909733 132.214934,110.910873 132.261064,110.910873 C135.593917,110.910873 138.305175,108.202567 138.305175,104.875936 C138.305175,101.549305 135.593917,98.842139 132.261064,98.842139 C128.928211,98.842139 126.216953,101.549305 126.216953,104.875936 L126.216953,104.953512 L122.396281,110.481925 C122.313248,110.477362 122.229062,110.47508 122.143722,110.47508 C121.198068,110.47508 120.318149,110.764848 119.590457,111.262246 L111,107.716578 C111.655038,99.4809982 118.552544,93 126.972322,93 Z M121.043996,117.257295 C122.321782,117.788478 123.789851,117.185482 124.321494,115.911098 C124.854289,114.636714 124.249993,113.173111 122.972207,112.641927 L120.937898,111.802977 C121.722099,111.507748 122.614704,111.49521 123.448494,111.840593 C124.286896,112.189396 124.940781,112.843686 125.286752,113.682636 C125.632723,114.521587 125.630417,115.444888 125.280986,116.281559 C124.55906,118.010754 122.561655,118.830327 120.829494,118.109924 C120.027995,117.777079 119.423699,117.170664 119.075422,116.445701 L121.043996,117.257295 Z M136.288626,104.866247 C136.288626,107.081031 134.481505,108.883179 132.261525,108.883179 C130.040392,108.883179 128.233271,107.081031 128.233271,104.866247 C128.233271,102.651464 130.040392,100.848176 132.261525,100.848176 C134.481505,100.848176 136.288626,102.651464 136.288626,104.866247 Z M129.242353,104.859408 C129.242353,106.52591 130.597405,107.876666 132.267291,107.876666 C133.938331,107.876666 135.293383,106.52591 135.293383,104.859408 C135.293383,103.192906 133.938331,101.84215 132.267291,101.84215 C130.597405,101.84215 129.242353,103.192906 129.242353,104.859408 Z" id="icon-social-steam"></path>
        </g>
    </g>
</svg>