<svg xmlns="http://www.w3.org/2000/svg" width="13" height="12" viewBox="0 0 13 12">
    <path fill="#1D2326" d="M2.93.248l6.703 6.704 1.194-1.195.795.795-1.392 1.391 1.792 1.791c.218.22.218.575 0 .795l-.4.4c-.22.218-.575.218-.795 0L9.013 9.143 7.64 10.534l-.795-.794L8.04 8.546 1.335 1.842V.248H2.93zm5.458 4.259l2.67-2.67V.246H9.464l-2.67 2.671 1.594 1.589zM5.6 7.323L4.005 5.707 2.76 6.952 1.566 5.757l-.794.795 1.391 1.391L.372 9.74c-.219.22-.219.575 0 .794l.4.4c.22.219.574.219.794 0L3.38 9.143l1.375 1.391.794-.794-1.194-1.194L5.6 7.323z"/>
</svg>
