<svg xmlns="http://www.w3.org/2000/svg" width="18" height="19" viewBox="0 0 18 19">
<defs>
        <linearGradient x1="0%" y1="0%" x2="100%" y2="100%" id="linearGradient-1">
            <stop stop-color="#F48836" offset="0%"></stop>
            <stop stop-color="#F4364C" offset="100%"></stop>
        </linearGradient>
    </defs>
    <g fill="none" fill-rule="evenodd">
        <path d="M0 0H19V19.001H0z"/>
        <path fill="transparent" fill-rule="nonzero" stroke="url(#linearGradient-1)" stroke-linecap="round" stroke-width="1.5" d="M4.35 7.607v1.55c0 .156.051.309.142.435l.076.089 4.355 4.355c.112.112.253.183.406.207l.117.009h1.55"/>
        <path fill="transparent" fill-rule="nonzero" stroke="url(#linearGradient-1)" stroke-linecap="round" stroke-width="1.5" d="M6.724 9.467l5.229-6.97c.08-.106.19-.185.316-.226l.096-.024 3.893-.649c.208-.035.417.033.566.181.126.127.194.3.19.477l-.009.088-.649 3.893c-.021.132-.084.253-.176.347l-.075.066-6.97 5.227"/>
        <path fill="transparent" stroke="url(#linearGradient-1)" stroke-linecap="round" stroke-linejoin="round" stroke-width="1.5" d="M4.806 12.415L4.806 17.525 2.46 17.525 2.46 12.415" transform="rotate(45 3.633 14.97)"/>
    </g>
</svg>
