<?xml version="1.0" encoding="UTF-8"?>
<svg width="22px" height="22px" viewBox="0 0 22 22" version="1.1" xmlns="http://www.w3.org/2000/svg" xmlns:xlink="http://www.w3.org/1999/xlink">
    <!-- Generator: Sketch 51.2 (57519) - http://www.bohemiancoding.com/sketch -->
    <title>Icon</title>
    <desc>Created with Sketch.</desc>
    <defs></defs>
    <g id="Page-1" stroke="none" stroke-width="1" fill="none" fill-rule="evenodd">
        <g id="0.1-Style-Guide---Basic-Styles" transform="translate(-501.000000, -11377.000000)" fill="#F3A536" fill-rule="nonzero">
            <g id="Group-75" transform="translate(116.000000, 11055.000000)">
                <g id="Group-71" transform="translate(351.000000, 0.000000)">
                    <g id="Group-18" transform="translate(0.000000, 298.000000)">
                        <g id="Icon" transform="translate(30.000000, 20.000000)">
                            <path d="M23.8,4 L6.2,4 C4.99,4 4.011,4.99 4.011,6.2 L4,26 L8.4,21.6 L23.8,21.6 C25.01,21.6 26,20.61 26,19.4 L26,6.2 C26,4.99 25.01,4 23.8,4 Z M16.1,13.9 L13.9,13.9 L13.9,7.3 L16.1,7.3 L16.1,13.9 Z M16.1,18.3 L13.9,18.3 L13.9,16.1 L16.1,16.1 L16.1,18.3 Z" id="Shape"></path>
                        </g>
                    </g>
                </g>
            </g>
        </g>
    </g>
</svg>