<svg xmlns="http://www.w3.org/2000/svg" width="45" height="50" viewBox="0 0 45 50">
    <g fill="none">
        <path fill="#EE1D52" d="M15.608 35.1l.162.457c-.026-.053-.085-.212-.162-.457zm-7.513-3.248c.284-2.454 1.25-3.828 3.067-5.236 2.601-1.908 5.85-.829 5.85-.829v-6.403c.79-.02 1.58.03 2.362.147v8.238s-3.248-1.08-5.85.828c-1.816 1.41-2.783 2.784-3.066 5.237-.009 1.334.23 3.076 1.335 4.582-.273-.146-.552-.312-.835-.499-2.432-1.703-2.874-4.258-2.863-6.065zM32.791 7.547C31 5.501 30.325 3.436 30.08 1.985h2.25s-.448 3.804 2.823 7.546l.045.05c-.881-.578-1.69-1.261-2.407-2.034z" transform="translate(.91)"/>
        <path fill="#EE1D52" d="M43.634 13.348v8.072s-2.872-.116-4.998-.681c-2.968-.79-4.876-1.999-4.876-1.999s-1.318-.864-1.424-.923v16.675c0 .928-.244 3.246-.987 5.18-.97 2.53-2.466 4.19-2.74 4.528 0 0-1.82 2.245-5.032 3.756-2.894 1.363-5.435 1.329-6.194 1.363 0 0-4.393.182-8.346-2.5-.855-.59-1.653-1.258-2.383-1.997l.02.014c3.954 2.681 8.345 2.5 8.345 2.5.76-.035 3.302 0 6.195-1.364 3.209-1.51 5.03-3.756 5.03-3.756.273-.338 1.776-1.998 2.742-4.529.74-1.933.986-4.251.986-5.18V15.834c.107.06 1.425.924 1.425.924s1.908 1.212 4.876 1.999c2.126.564 4.998.682 4.998.682v-6.325c.982.23 1.82.293 2.363.235z" transform="translate(.91)"/>
        <path fill="#FFF" d="M41.272 13.113v6.324s-2.872-.118-4.998-.682c-2.968-.79-4.876-1.999-4.876-1.999s-1.318-.864-1.425-.924v16.672c0 .928-.243 3.246-.986 5.18-.97 2.53-2.466 4.19-2.741 4.528 0 0-1.82 2.245-5.031 3.756-2.893 1.364-5.434 1.33-6.195 1.364 0 0-4.391.181-8.345-2.5l-.02-.014c-.417-.422-.81-.867-1.177-1.333-1.261-1.606-2.035-3.503-2.229-4.045v-.007c-.314-.942-.97-3.2-.88-5.39.158-3.862 1.46-6.232 1.804-6.826.913-1.62 2.099-3.068 3.506-4.282 1.241-1.048 2.649-1.881 4.165-2.466.945-.392 1.93-.682 2.937-.863.737-.132 1.483-.206 2.232-.222v6.4s-3.25-1.08-5.85.828c-1.819 1.408-2.784 2.783-3.068 5.236-.011 1.807.431 4.362 2.861 6.067.283.188.561.354.835.5.424.573.94 1.073 1.528 1.48 2.373 1.566 4.362 1.676 6.905.658 1.697-.672 2.969-2.206 3.571-3.906.372-1.062.367-2.13.367-3.235V1.986h5.919c.245 1.45.921 3.516 2.71 5.562.718.773 1.527 1.456 2.408 2.034.26.281 1.593 1.67 3.302 2.524.882.441 1.812.779 2.77 1.007z" transform="translate(.91)"/>
        <path fill="#69C9D0" d="M.894 37.474v.006l.151.416c-.016-.049-.074-.196-.151-.422z" transform="translate(.91)"/>
        <path fill="#69C9D0" d="M11.844 20.47c-1.516.584-2.924 1.417-4.165 2.465-1.407 1.217-2.593 2.668-3.504 4.29-.344.592-1.646 2.965-1.805 6.827-.09 2.19.567 4.448.881 5.39v.007c.197.537.968 2.434 2.23 4.045.366.466.759.911 1.176 1.333-1.337-.925-2.53-2.043-3.54-3.318-1.25-1.591-2.021-3.47-2.223-4.024l-.004-.012v-.008c-.314-.939-.973-3.2-.881-5.391.158-3.863 1.46-6.233 1.805-6.827.91-1.623 2.096-3.074 3.504-4.29 1.24-1.049 2.648-1.882 4.164-2.466.946-.393 1.93-.683 2.938-.864 1.518-.265 3.068-.288 4.594-.068v1.825c-.749.014-1.495.086-2.232.215-1.008.183-1.993.475-2.938.87z" transform="translate(.91)"/>
        <path fill="#69C9D0" d="M30.08 1.986H24.16v31.428c0 1.104.005 2.17-.367 3.235-.597 1.698-1.869 3.232-3.564 3.913-2.544 1.022-4.532.908-6.905-.66-.587-.405-1.103-.905-1.528-1.479 2.022 1.078 3.83 1.06 6.072.16 1.685-.685 2.967-2.22 3.559-3.919.373-1.061.368-2.13.368-3.233V0h8.172s-.092.782.112 1.986zm11.192 9.379v1.748c-.96-.228-1.89-.566-2.772-1.007-1.71-.854-3.041-2.243-3.302-2.524.302.199.616.379.94.54 2.078 1.037 4.12 1.348 5.134 1.243z" transform="translate(.91)"/>
    </g>
</svg>
