<svg xmlns="http://www.w3.org/2000/svg" width="12" height="9" viewBox="0 0 12 9">
    <path fill="#FFF" fill-rule="evenodd" d="M10.256 2.5c0 .755-.148 1.507-.446 2.254a7.05 7.05 0 0 1-1.261 2.052c-.543.62-1.25 1.121-2.121 1.506-.87.385-1.82.577-2.846.577A6.784 6.784 0 0 1-.01 7.884c.193.015.379.022.557.022 1.102 0 2.076-.32 2.925-.962-.506 0-.956-.146-1.35-.437a2.237 2.237 0 0 1-.816-1.123 3.122 3.122 0 0 0 1.139-.021 2.136 2.136 0 0 1-1.262-.78 2.231 2.231 0 0 1-.479-1.42V3.12c0 .085.1.153.301.203.201.05.413.075.636.075a2.847 2.847 0 0 1-.848-.812 1.828 1.828 0 0 1-.335-1.048C.457 1.14.561.762.77.406a6.646 6.646 0 0 0 2.154 1.666c.84.414 1.737.642 2.69.684a2.014 2.014 0 0 1-.068-.512c0-.613.231-1.14.692-1.581A2.304 2.304 0 0 1 7.89 0c.684 0 1.258.235 1.719.705.52-.1 1.019-.277 1.495-.535-.178.528-.528.941-1.049 1.24.476-.057.93-.177 1.362-.363a5.026 5.026 0 0 1-1.184 1.175c.016.1.023.192.023.278z"/>
</svg>
