<svg xmlns="http://www.w3.org/2000/svg" width="50" height="50" viewBox="0 0 50 50">
    <g fill="none">
        <circle cx="25" cy="25" r="25" fill="#242A2D"/>
        <path fill="#8813FF" d="M16.909 40.213l-2.249-3.687c-.125-.205-.348-.33-.588-.33H9.689c-.38 0-.689-.309-.689-.69V15.665c0-.125.034-.248.098-.355l2.986-4.975c.124-.208.349-.335.591-.335h27.266c.381 0 .69.309.69.69v16.493c0 .182-.073.358-.202.487l-8.324 8.324c-.13.129-.305.202-.488.202H23.6c-.239 0-.46.123-.586.326l-2.293 3.696c-.126.202-.347.326-.586.326h-2.637c-.24 0-.463-.126-.588-.33z"/>
        <path fill="#FFF" d="M16.752 31.848h-1.924c-.217 0-.393-.176-.393-.394V15.828c0-.217.176-.393.393-.393h22.148c.217 0 .394.176.394.393v9.303c0 .105-.042.205-.116.279l-6.323 6.323c-.073.073-.174.115-.278.115h-9.731c-.142 0-.272.076-.342.198l-1.401 2.452c-.151.265-.533.265-.684 0l-1.4-2.452c-.071-.122-.201-.198-.343-.198z"/>
        <g fill="#8813FF">
            <path d="M.436 6.536V.597c0-.19.155-.346.346-.346H3.46c.19 0 .345.155.345.346v5.94c0 .19-.154.345-.345.345H.782c-.191 0-.346-.155-.346-.346zM8.045 6.536V.597c0-.19.155-.346.345-.346h2.679c.19 0 .345.155.345.346v5.94c0 .19-.155.345-.345.345H8.39c-.19 0-.345-.155-.345-.346z" transform="translate(19.434 19.531)"/>
        </g>
    </g>
</svg>
