<svg xmlns="http://www.w3.org/2000/svg" width="25" height="25" fill="none" viewBox="0 0 25 25">
    <path fill="#fff" d="M3 2H21V23H3z"/>
    <path fill="#06A7E6" fill-rule="evenodd" d="M2.778 0h19.444C23.75 0 25 1.25 25 2.778v19.444C25 23.752 23.75 25 22.222 25H2.778C1.25 25 0 23.751 0 22.222V2.778C0 1.25 1.25 0 2.778 0zM18.56 8.098c.672-.093 1.297-.269 1.875-.527-.433.661-.976 1.224-1.627 1.69.01.092.015.232.015.418 0 .868-.126 1.739-.38 2.612-.253.873-.64 1.71-1.162 2.51-.522.802-1.144 1.51-1.868 2.124-.723.615-1.591 1.106-2.604 1.473-1.013.367-2.098.55-3.255.55-1.798 0-3.462-.485-4.992-1.457.249.031.507.047.776.047 1.498 0 2.847-.465 4.045-1.395-.702-.01-1.33-.228-1.883-.651-.553-.424-.938-.961-1.155-1.612.269.04.47.062.605.062.227 0 .49-.042.79-.124-.754-.145-1.39-.52-1.906-1.124-.517-.605-.775-1.295-.775-2.07v-.03c.547.258 1.064.392 1.55.402-.94-.63-1.411-1.534-1.411-2.712 0-.579.15-1.127.45-1.643.816 1.002 1.808 1.803 2.976 2.402 1.167.6 2.418.936 3.751 1.008-.052-.197-.077-.445-.077-.744 0-.9.317-1.667.953-2.302.635-.636 1.403-.953 2.302-.953.95 0 1.741.34 2.371 1.023.713-.135 1.406-.398 2.078-.79-.259.795-.74 1.4-1.442 1.813z" clip-rule="evenodd"/>
</svg>
