<svg xmlns="http://www.w3.org/2000/svg" width="18" height="16" viewBox="0 0 18 16">
    <path fill="none" stroke="#5B6873" d="M15.4 3.4h-1.544c-.534 0-1.034-.266-1.331-.711l-.65-.976C11.578 1.268 11.078 1 10.544 1H7.456c-.534 0-1.034.268-1.331.712l-.65.976c-.297.446-.797.712-1.331.712H2.6C1.716 3.4 1 4.117 1 5v8.8c0 .883.716 1.6 1.6 1.6h12.8c.883 0 1.6-.717 1.6-1.6V5c0-.882-.717-1.6-1.6-1.6zM9 13.8c-2.647 0-4.8-2.153-4.8-4.8 0-2.646 2.153-4.8 4.8-4.8s4.8 2.154 4.8 4.8c0 2.648-2.153 4.8-4.8 4.8z"/>
</svg>
