<?xml version="1.0" encoding="UTF-8"?>
<svg width="16px" height="13px" viewBox="0 0 16 13" version="1.1" xmlns="http://www.w3.org/2000/svg" xmlns:xlink="http://www.w3.org/1999/xlink">
    <!-- Generator: Sketch 60 (88103) - https://sketch.com -->
    <title>Upgrade</title>
    <desc>Created with Sketch.</desc>
    <defs>
        <linearGradient x1="0%" y1="0%" x2="100%" y2="100%" id="linearGradient-1">
            <stop stop-color="#F48836" offset="0%"></stop>
            <stop stop-color="#F4364C" offset="100%"></stop>
        </linearGradient>
    </defs>
    <g id="Desktop" stroke="none" stroke-width="1" fill="none" fill-rule="evenodd">
        <g id="Update-Light-(Laptop)" transform="translate(-232.000000, -32.000000)">
            <g id="Header-white">
                <g id="Topbar">
                    <g id="Main-Menus" transform="translate(117.000000, 28.000000)">
                        <g id="Upgrade" transform="translate(112.998493, 0.000000)">
                            <g>
                                <rect id="bound" x="0" y="0" width="20" height="20"></rect>
                                <path d="M12.0225571,6.90062767 L15.6074679,6.90062767 C16.0034461,6.90062767 16.32445,7.22163151 16.32445,7.61760981 L16.32445,13.353467 C16.32445,13.7494453 16.0034461,14.0704492 15.6074679,14.0704492 L12.0225571,14.0704492 L12.0225571,17.4319039 C12.0225571,17.5745934 11.9658451,17.7114325 11.864909,17.8122897 C11.6548276,18.0222068 11.3143517,18.0220737 11.1044346,17.8119924 L4.15735064,10.8594737 C3.94743362,10.6493923 3.94756686,10.3089164 4.15764823,10.0989993 L11.1047321,3.15735064 C11.2055651,3.05659647 11.3422768,3 11.4848205,3 C11.7818042,3 12.0225571,3.24075288 12.0225571,3.53773661 L12.0225571,6.90062767 Z" id="Shape-path" fill="url(#linearGradient-1)" fill-rule="nonzero" transform="translate(10.162225, 10.484820) rotate(-270.000000) translate(-10.162225, -10.484820) "></path>
                            </g>
                        </g>
                    </g>
                </g>
            </g>
        </g>
    </g>
</svg>