<?xml version="1.0" encoding="UTF-8"?>
<svg width="17px" height="15px" viewBox="0 0 17 15" version="1.1" xmlns="http://www.w3.org/2000/svg" xmlns:xlink="http://www.w3.org/1999/xlink">
    <!-- Generator: Sketch 61.2 (89653) - https://sketch.com -->
    <title>48px-wallet</title>
    <desc>Created with Sketch.</desc>
    <g id="Page-1" stroke="none" stroke-width="1" fill="none" fill-rule="evenodd">
        <g id="FAQ-HIW-White" transform="translate(-715.000000, -27.000000)">
            <g id="Header-dark-2">
                <g id="Topbar">
                    <g id="48px-wallet" transform="translate(716.000000, 28.000000)">
                        <path d="M14.2959184,8.63265306 L14.2959184,12.0306122 C14.2959184,12.3367347 14.0510204,12.5816327 13.744898,12.5816327 L0.704081633,12.5816327 C0.397959184,12.5816327 0.153061224,12.3367347 0.153061224,12.0306122 L0.153061224,0.704081633 C0.153061224,0.397959184 0.397959184,0.153061224 0.704081633,0.153061224 L13.7142857,0.153061224 C14.0204082,0.153061224 14.2653061,0.397959184 14.2653061,0.704081633 L14.2653061,3.97959184" id="Path" stroke="currentColor"></path>
                        <path d="M11.4489796,4.10204082 L14.6020408,4.10204082 C14.7244898,4.10204082 14.8163265,4.19387755 14.8163265,4.31632653 L14.8163265,4.31632653 L14.8163265,8.3877551 C14.8163265,8.51020408 14.7244898,8.60204082 14.6020408,8.60204082 L14.6020408,8.60204082 L11.4489796,8.60204082 C10.1938776,8.60204082 9.18367347,7.59183673 9.18367347,6.36734694 L9.18367347,6.36734694 L9.18367347,6.36734694 C9.18367347,5.1122449 10.1938776,4.10204082 11.4489796,4.10204082 L11.4489796,4.10204082 Z" id="Path" stroke="currentColor" stroke-linecap="round"></path>
                        <circle id="Oval" fill="currentColor" fill-rule="nonzero" cx="12.0306122" cy="6.36734694" r="1"></circle>
                    </g>
                </g>
            </g>
        </g>
    </g>
</svg>