<?xml version="1.0" encoding="UTF-8"?>
<svg width="17px" height="15px" viewBox="0 0 17 15" version="1.1" xmlns="http://www.w3.org/2000/svg" xmlns:xlink="http://www.w3.org/1999/xlink">
    <!-- Generator: Sketch 61.2 (89653) - https://sketch.com -->
    <title>wallet</title>
    <desc>Created with Sketch.</desc>
    <g id="Page-1" stroke="none" stroke-width="1" fill="none" fill-rule="evenodd">
        <g id="Deposit-Balance" transform="translate(-703.000000, -27.000000)">
            <g id="Header-dark-2">
                <g id="Topbar">
                    <g id="wallet" transform="translate(704.000000, 28.000000)">
                        <path d="M14.2959184,8.72857143 L14.2959184,12.1642857 C14.2959184,12.4738095 14.0510204,12.7214286 13.744898,12.7214286 L0.704081633,12.7214286 C0.397959184,12.7214286 0.153061224,12.4738095 0.153061224,12.1642857 L0.153061224,0.711904762 C0.153061224,0.402380952 0.397959184,0.154761905 0.704081633,0.154761905 L13.7142857,0.154761905 C14.0204082,0.154761905 14.2653061,0.402380952 14.2653061,0.711904762 L14.2653061,4.02380952" id="Path" stroke="#000000"></path>
                        <path d="M11.4489796,4.14761905 L14.6020408,4.14761905 C14.7244898,4.14761905 14.8163265,4.24047619 14.8163265,4.36428571 L14.8163265,4.36428571 L14.8163265,8.48095238 C14.8163265,8.6047619 14.7244898,8.69761905 14.6020408,8.69761905 L14.6020408,8.69761905 L11.4489796,8.69761905 C10.1938776,8.69761905 9.18367347,7.67619048 9.18367347,6.43809524 L9.18367347,6.43809524 L9.18367347,6.43809524 C9.18367347,5.16904762 10.1938776,4.14761905 11.4489796,4.14761905 L11.4489796,4.14761905 Z" id="Path" stroke="#000000" stroke-linecap="round"></path>
                        <ellipse id="Oval" fill="#000000" fill-rule="nonzero" cx="12.0306122" cy="6.43809524" rx="1" ry="1"></ellipse>
                    </g>
                </g>
            </g>
        </g>
    </g>
</svg>