<svg xmlns="http://www.w3.org/2000/svg" width="20" height="17" viewBox="0 0 20 17">
    <path fill="#F48446" d="M9.788 0c.284 0 .545.154.687.405l8.73 15.38c.143.252.143.56.001.81-.142.251-.404.405-.687.405H1.059c-.284 0-.546-.154-.688-.405-.142-.25-.142-.558 0-.81L9.101.406C9.245.154 9.506 0 9.789 0zm0 2.425L2.435 15.38h14.707L9.788 2.425zm0 9.843c.549 0 .993.454.993 1.012 0 .559-.444 1.012-.993 1.012-.548 0-.992-.453-.992-1.012 0-.558.444-1.012.992-1.012zm0-6.322c.439 0 .794.36.794.81v3.489c0 .449-.355.809-.794.809-.438 0-.793-.36-.793-.81V6.756c0-.449.355-.809.793-.809z"/>
</svg>
