<svg xmlns="http://www.w3.org/2000/svg" width="15" height="15" viewBox="0 0 15 15">
    <path fill="#FFF" d="M0 11.874v1.251C0 14.159 2.52 15 5.625 15s5.625-.84 5.625-1.875v-1.251c-1.21.853-3.422 1.251-5.625 1.251S1.21 12.727 0 11.874zM9.375 3.75C12.48 3.75 15 2.91 15 1.875 15 .841 12.48 0 9.375 0S3.75.84 3.75 1.875c0 1.034 2.52 1.875 5.625 1.875zM0 8.8v1.512c0 1.035 2.52 1.876 5.625 1.876s5.625-.841 5.625-1.876V8.802c-1.21.996-3.425 1.511-5.625 1.511S1.21 9.797 0 8.802zm12.188.323C13.866 8.798 15 8.194 15 7.5V6.249c-.68.48-1.679.809-2.813 1.01v1.864zM5.625 4.688C2.52 4.688 0 5.736 0 7.03s2.52 2.344 5.625 2.344 5.625-1.049 5.625-2.344-2.52-2.343-5.625-2.343zm6.425 1.649C13.808 6.02 15 5.399 15 4.687v-1.25c-1.04.735-2.827 1.13-4.708 1.224.864.42 1.5.982 1.758 1.676z"/>
</svg>
