<svg xmlns="http://www.w3.org/2000/svg" width="24" height="20" viewBox="0 0 24 20">
    <path fill="#F7B500" d="M11.746 0c.34 0 .654.181.824.476l10.477 18.095c.17.296.17.658 0 .953-.17.295-.484.476-.825.476H1.27c-.34 0-.655-.181-.825-.476-.17-.295-.17-.657 0-.953L10.923.476c.17-.295.484-.476.824-.476zm0 2.852L2.922 18.095H20.57L11.746 2.852zm0 11.581c.658 0 1.19.534 1.19 1.19 0 .658-.532 1.191-1.19 1.191-.657 0-1.19-.533-1.19-1.19 0-.657.533-1.19 1.19-1.19zm0-7.438c.526 0 .953.424.953.953v4.104c0 .529-.427.953-.953.953s-.952-.424-.952-.953V7.948c0-.529.426-.953.952-.953z"/>
</svg>
