<svg xmlns="http://www.w3.org/2000/svg" width="21" height="17" viewBox="0 0 21 17">
    <g fill="none" fill-rule="evenodd" stroke="#fff" stroke-linecap="round" transform="translate(1 1)">
        <ellipse cx="4" cy="1.769" rx="3.808" ry="1.577"/>
        <ellipse cx="14.846" cy="8.462" rx="3.808" ry="1.577"/>
        <path d="M7.846 4.512c0 .884-1.692 1.577-3.808 1.577-2.115 0-3.807-.693-3.807-1.577M7.846 7.346c0 .885-1.692 1.577-3.808 1.577-2.115 0-3.807-.73-3.807-1.577M.192 1.769v11.154"/>
        <path d="M7.846 1.77v11.153c0 .885-1.692 1.577-3.808 1.577-2.115 0-3.807-.73-3.807-1.615"/>
        <path d="M7.846 10.18c0 .885-1.692 1.578-3.808 1.578-2.115 0-3.807-.731-3.807-1.577M18.654 10.846c0 .885-1.73 1.577-3.808 1.577-2.077 0-3.808-.692-3.808-1.577"/>
        <path d="M18.654 8.462v4.769c0 .884-1.73 1.577-3.808 1.577-2.077 0-3.808-.693-3.808-1.577V8.46"/>
    </g>
</svg>
