<?xml version="1.0" encoding="UTF-8"?>
<svg width="48px" height="35px" viewBox="0 0 48 35" version="1.1" xmlns="http://www.w3.org/2000/svg" xmlns:xlink="http://www.w3.org/1999/xlink">
    <title>youtube</title>
    <g id="Page-1" stroke="none" stroke-width="1" fill="none" fill-rule="evenodd">
        <g id="Unboxing-page-Hover" transform="translate(-194.000000, -540.000000)" fill="#FFFFFF" fill-rule="nonzero">
            <g id="Unboxing-1" transform="translate(111.000000, 467.000000)">
                <g id="Video&amp;Photo" transform="translate(10.000000, 10.000000)">
                    <g id="youtube" transform="translate(73.000000, 63.000000)">
                        <g id="XMLID_1334_" transform="translate(17.500000, 7.954545)">
                            <path d="M0.795454545,19.0909091 C0.661843,19.0909091 0.527454773,19.0567294 0.406272205,18.9891469 C0.155362295,18.8485441 0,18.5828747 0,18.2954545 L0,0.795454545 C0,0.508034386 0.155362295,0.242364977 0.406272205,0.101762182 C0.658735795,-0.0380637727 0.965576182,-0.0334028864 1.21027168,0.116521523 L15.5284535,8.86652152 C15.7646041,9.01100852 15.9090909,9.268133 15.9090909,9.54545455 C15.9090909,9.82277609 15.7646041,10.0799006 15.5284535,10.2243874 L1.21027168,18.9743874 C1.0828747,19.0520685 0.939164545,19.0909091 0.795454545,19.0909091 Z M1.59090909,2.21391164 L1.59090909,16.8769976 L13.5879794,9.54545455 L1.59090909,2.21391164 Z" id="Shape"></path>
                        </g>
                        <path d="M23.8636364,35 C18.4679065,35 14.3927557,34.6248003 10.0775702,34.2278497 C8.92245216,34.1222033 7.76111955,34.0150034 6.56560736,33.9147949 C2.88351064,33.6071777 0,30.4735219 0,26.780562 L0,8.21943802 C0,4.52647809 2.88351064,1.3928223 6.5656072,1.08520507 C7.70984995,0.988880455 8.83467248,0.887118273 9.95638764,0.785355932 C14.2133123,0.399280955 18.6155007,0 23.8636364,0 C29.2966531,0 33.3407316,0.373646159 37.6225142,0.769042909 C38.7846237,0.876242818 39.954501,0.984219568 41.1616655,1.08520507 C44.8437379,1.3928223 47.7272727,4.52647809 47.7272727,8.21943802 L47.7272727,26.780562 C47.7272727,30.4735219 44.8437379,33.6071777 41.1616655,33.9147949 C39.9210982,34.0188876 38.72947,34.1299716 37.549494,34.2402787 C33.363259,34.6310147 29.4100674,35 23.8636364,35 Z M23.8636364,1.59090909 C18.6877441,1.59090909 14.5162686,1.96921614 10.1000976,2.37005061 C8.97449843,2.4718128 7.8465687,2.57435198 6.69766507,2.66989975 C3.78617718,2.91381841 1.59090909,5.2994052 1.59090909,8.21943802 L1.59090909,26.780562 C1.59090909,29.7005948 3.78617718,32.0861816 6.69766507,32.3301004 C7.89783814,32.4303091 9.06383164,32.537509 10.2236106,32.643932 C14.5007324,33.0377753 18.5409269,33.4090909 23.8636364,33.4090909 C29.3362704,33.4090909 33.2537288,33.0432128 37.401123,32.656361 C38.5865367,32.5452771 39.7828257,32.4341931 41.0296075,32.3301004 C43.9410955,32.0861816 46.1363636,29.7005948 46.1363636,26.780562 L46.1363636,8.21943802 C46.1363636,5.2994052 43.9410955,2.91381841 41.0296077,2.66989959 C39.8170056,2.56891409 38.6424672,2.46093734 37.4764738,2.35296059 C33.231978,1.9606712 29.2236328,1.59090909 23.8636364,1.59090909 Z" id="Shape"></path>
                    </g>
                </g>
            </g>
        </g>
    </g>
</svg>