<?xml version="1.0" encoding="UTF-8"?>
<svg width="34px" height="34px" viewBox="0 0 34 34" version="1.1" xmlns="http://www.w3.org/2000/svg" xmlns:xlink="http://www.w3.org/1999/xlink">
    <title>zoom-in</title>
    <g id="Page-1" stroke="none" stroke-width="1" fill="none" fill-rule="evenodd">
        <g id="Unboxing-page-Hover" transform="translate(-457.000000, -540.000000)" fill="#FFFFFF">
            <g id="Unboxing-2" transform="translate(367.000000, 467.000000)">
                <g id="Video&amp;Photo" transform="translate(10.000000, 10.000000)">
                    <g id="zoom-in" transform="translate(80.000000, 63.000000)">
                        <path d="M13.6111111,13.6111111 L8.75665583,13.6111111 C8.23064472,13.6111111 7.77777778,14.0463906 7.77777778,14.5833333 C7.77777778,15.1045728 8.21603611,15.5555556 8.75665583,15.5555556 L13.6111111,15.5555556 L13.6111111,20.4100108 C13.6111111,20.9360219 14.0463906,21.3888889 14.5833333,21.3888889 C15.1045728,21.3888889 15.5555556,20.9506306 15.5555556,20.4100108 L15.5555556,15.5555556 L20.4100108,15.5555556 C20.9360219,15.5555556 21.3888889,15.1202761 21.3888889,14.5833333 C21.3888889,14.0620939 20.9506306,13.6111111 20.4100108,13.6111111 L15.5555556,13.6111111 L15.5555556,8.75665583 C15.5555556,8.23064472 15.1202761,7.77777778 14.5833333,7.77777778 C14.0620939,7.77777778 13.6111111,8.21603611 13.6111111,8.75665583 L13.6111111,13.6111111 Z M24.1921672,25.5537314 C21.6260606,27.8031678 18.2639275,29.1666667 14.5833333,29.1666667 C6.52918,29.1666667 0,22.6374867 0,14.5833333 C0,6.52918 6.52918,0 14.5833333,0 C22.6374867,0 29.1666667,6.52918 29.1666667,14.5833333 C29.1666667,18.2639275 27.8031678,21.6260606 25.5537314,24.1921672 L33.6721681,32.3106058 C34.0438933,32.6823311 34.0294442,33.2994667 33.6644564,33.6644564 C33.2884708,34.04044 32.6722861,34.0338503 32.3106058,33.6721681 L24.1921672,25.5537314 Z M14.5833333,27.2222222 C21.5635992,27.2222222 27.2222222,21.5635992 27.2222222,14.5833333 C27.2222222,7.6030675 21.5635992,1.94444444 14.5833333,1.94444444 C7.6030675,1.94444444 1.94444444,7.6030675 1.94444444,14.5833333 C1.94444444,21.5635992 7.6030675,27.2222222 14.5833333,27.2222222 Z" id="Shape"></path>
                    </g>
                </g>
            </g>
        </g>
    </g>
</svg>