<svg xmlns="http://www.w3.org/2000/svg" width="2677" height="929" viewBox="0 0 2677 929">
    <g fill="#0B0D0E" fill-rule="evenodd" opacity=".5">
        <g>
            <path d="M69 0H1254V1H69zM66.848 10.727H1251.848V11.727H66.848zM64.696 21.454H1249.696V22.454H64.696zM62.544 32.182H1247.544V33.182H62.544zM60.392 42.909H1245.392V43.909H60.392zM58.24 53.636H1243.24V54.636H58.24zM56.088 64.363H1241.088V65.363H56.088zM53.937 75.091H1238.937V76.091H53.937zM51.785 85.818H1236.785V86.818H51.785zM49.633 96.545H1234.633V97.545H49.633zM47.481 107.272H1232.481V108.272H47.481zM45.329 118H1230.329V119H45.329zM43.177 128.727H1228.177V129.727H43.177zM41.025 139.454H1226.025V140.454H41.025zM38.873 150.181H1223.873V151.181H38.873zM36.721 160.909H1221.721V161.909H36.721zM34.569 171.636H1219.569V172.636H34.569zM32.417 182.363H1217.417V183.363H32.417zM30.265 193.09H1215.265V194.09H30.265zM28.113 203.818H1213.113V204.818H28.113zM25.962 214.545H1210.962V215.545H25.962zM23.81 225.272H1208.81V226.272H23.81zM21.658 235.999H1206.658V236.999H21.658zM19.506 246.727H1204.506V247.727H19.506zM17.354 257.454H1202.354V258.454H17.354zM15.202 268.181H1200.202V269.181H15.202zM13.05 278.908H1198.05V279.908H13.05zM10.898 289.636H1195.898V290.636H10.898zM8.746 300.363H1193.746V301.363H8.746zM6.594 311.09H1191.594V312.09H6.594zM4.442 321.817H1189.442V322.817H4.442zM2.29 332.544H1187.29V333.544H2.29zM.138 343.272H1185.138V344.272H.138z" transform="translate(.18 .64) rotate(-30 1879.513 -2328.024)"/>
        </g>
        <g>
            <path d="M69 0H1254V1H69zM66.848 10.727H1251.848V11.727H66.848zM64.696 21.454H1249.696V22.454H64.696zM62.544 32.182H1247.544V33.182H62.544zM60.392 42.909H1245.392V43.909H60.392zM58.24 53.636H1243.24V54.636H58.24zM56.088 64.363H1241.088V65.363H56.088zM53.937 75.091H1238.937V76.091H53.937zM51.785 85.818H1236.785V86.818H51.785zM49.633 96.545H1234.633V97.545H49.633zM47.481 107.272H1232.481V108.272H47.481zM45.329 118H1230.329V119H45.329zM43.177 128.727H1228.177V129.727H43.177zM41.025 139.454H1226.025V140.454H41.025zM38.873 150.181H1223.873V151.181H38.873zM36.721 160.909H1221.721V161.909H36.721zM34.569 171.636H1219.569V172.636H34.569zM32.417 182.363H1217.417V183.363H32.417zM30.265 193.09H1215.265V194.09H30.265zM28.113 203.818H1213.113V204.818H28.113zM25.962 214.545H1210.962V215.545H25.962zM23.81 225.272H1208.81V226.272H23.81zM21.658 235.999H1206.658V236.999H21.658zM19.506 246.727H1204.506V247.727H19.506zM17.354 257.454H1202.354V258.454H17.354zM15.202 268.181H1200.202V269.181H15.202zM13.05 278.908H1198.05V279.908H13.05zM10.898 289.636H1195.898V290.636H10.898zM8.746 300.363H1193.746V301.363H8.746zM6.594 311.09H1191.594V312.09H6.594zM4.442 321.817H1189.442V322.817H4.442zM2.29 332.544H1187.29V333.544H2.29zM.138 343.272H1185.138V344.272H.138z" transform="translate(.18 .64) rotate(-30 1526.013 -1008.744)"/>
        </g>
        <g>
            <path d="M69 0H1254V1H69zM66.848 10.727H1251.848V11.727H66.848zM64.696 21.454H1249.696V22.454H64.696zM62.544 32.182H1247.544V33.182H62.544zM60.392 42.909H1245.392V43.909H60.392zM58.24 53.636H1243.24V54.636H58.24zM56.088 64.363H1241.088V65.363H56.088zM53.937 75.091H1238.937V76.091H53.937zM51.785 85.818H1236.785V86.818H51.785zM49.633 96.545H1234.633V97.545H49.633zM47.481 107.272H1232.481V108.272H47.481zM45.329 118H1230.329V119H45.329zM43.177 128.727H1228.177V129.727H43.177zM41.025 139.454H1226.025V140.454H41.025zM38.873 150.181H1223.873V151.181H38.873zM36.721 160.909H1221.721V161.909H36.721zM34.569 171.636H1219.569V172.636H34.569zM32.417 182.363H1217.417V183.363H32.417zM30.265 193.09H1215.265V194.09H30.265zM28.113 203.818H1213.113V204.818H28.113zM25.962 214.545H1210.962V215.545H25.962zM23.81 225.272H1208.81V226.272H23.81zM21.658 235.999H1206.658V236.999H21.658zM19.506 246.727H1204.506V247.727H19.506zM17.354 257.454H1202.354V258.454H17.354zM15.202 268.181H1200.202V269.181H15.202zM13.05 278.908H1198.05V279.908H13.05zM10.898 289.636H1195.898V290.636H10.898zM8.746 300.363H1193.746V301.363H8.746zM6.594 311.09H1191.594V312.09H6.594zM4.442 321.817H1189.442V322.817H4.442zM2.29 332.544H1187.29V333.544H2.29zM.138 343.272H1185.138V344.272H.138z" transform="translate(.18 .64) rotate(-30 1173.88 312.902)"/>
        </g>
    </g>
</svg>
