<svg xmlns="http://www.w3.org/2000/svg" width="201" height="230" viewBox="0 0 201 230">
    <g fill="none" fill-rule="evenodd" opacity=".67" transform="translate(.211)">
        <path fill="#4FC1E3" fill-rule="nonzero" d="M125.023 56.179c.127-.3-.012-.645-.311-.771l-1.401-.595c-.509-.216-.746-.803-.53-1.311l1.641-3.867c.158-.372-.016-.802-.388-.96-.372-.158-.802.016-.96.388l-2.101 4.95c-.216.508.021 1.095.53 1.31l2.749 1.168c.299.127.644-.013.771-.312z"/>
        <path fill="#FCD834" fill-rule="nonzero" d="M96.96 79.195c.132-.297-.001-.645-.298-.777l-1.39-.619c-.505-.225-.732-.816-.507-1.32l1.708-3.837c.164-.37-.002-.803-.371-.967-.37-.165-.803.001-.967.371l-2.187 4.912c-.225.505.002 1.096.506 1.32l2.73 1.215c.296.132.644-.001.776-.298zM156.88 52.183c.576.154 1.123.152 1.642-.005.52-.158.966-.46 1.342-.904.375-.446.654-1.006.835-1.682l.082-.307c.18-.673.217-1.3.112-1.878-.106-.58-.345-1.067-.716-1.461-.371-.394-.843-.668-1.415-.822-.573-.153-1.118-.152-1.637.004-.518.156-.968.459-1.35.907-.381.45-.663 1.012-.844 1.688l-.09.34c-.174.66-.207 1.278-.098 1.851.11.574.35 1.057.724 1.45.373.393.844.666 1.413.819zm.311-1.16c-.484-.13-.803-.423-.957-.879-.154-.456-.138-1.034.05-1.735l.09-.335c.194-.713.47-1.22.827-1.52.357-.3.772-.387 1.247-.26.478.128.796.414.953.857.158.443.14 1.025-.053 1.745l-.09.335c-.194.713-.468 1.221-.823 1.526-.354.304-.769.393-1.244.266z"/>
        <path fill="#4FC1E3" fill-rule="nonzero" d="M175.771 90.178c.575-.154 1.049-.43 1.42-.825.37-.396.607-.881.71-1.454.102-.574.062-1.199-.119-1.875l-.082-.306c-.18-.673-.461-1.234-.843-1.683-.381-.448-.831-.75-1.35-.907-.518-.156-1.064-.157-1.636-.004-.572.154-1.044.428-1.415.822-.371.394-.61.881-.716 1.46-.106.58-.068 1.208.113 1.884l.091.34c.18.659.46 1.21.842 1.652.381.442.832.74 1.352.894.52.153 1.064.154 1.633.002zm-.31-1.16c-.485.13-.908.035-1.27-.282-.36-.318-.635-.827-.823-1.529l-.09-.335c-.188-.714-.203-1.29-.044-1.73.159-.438.476-.72.95-.848.478-.128.896-.04 1.254.266.359.305.634.817.827 1.537l.09.335c.188.715.204 1.293.05 1.733-.155.441-.47.725-.945.852zM31.155 222.788c.51.307 1.037.456 1.58.448.541-.009 1.054-.175 1.538-.5.484-.324.906-.786 1.266-1.386l.164-.272c.359-.598.567-1.19.625-1.775.058-.586-.038-1.12-.286-1.602-.248-.48-.626-.874-1.134-1.18-.507-.304-1.032-.454-1.574-.447-.541.007-1.057.174-1.547.5s-.916.79-1.277 1.39l-.18.3c-.35.588-.551 1.173-.604 1.754-.053.582.045 1.113.296 1.594.25.48.628.873 1.133 1.176zm.618-1.03c-.43-.258-.656-.627-.678-1.108-.023-.48.153-1.032.527-1.654l.178-.297c.384-.632.788-1.043 1.214-1.234.426-.19.85-.159 1.27.095.425.254.652.617.68 1.086.03.47-.147 1.024-.531 1.663l-.179.297c-.383.632-.787 1.045-1.212 1.24-.424.195-.847.166-1.269-.088z"/>
        <path fill="#19BD66" fill-rule="nonzero" d="M196.407 67.903l-1.944-4.813 1.469-.593c.304-.123.45-.469.328-.773-.123-.304-.469-.45-.773-.328l-4.269 1.725c-.304.123-.45.469-.328.773.123.303.469.45.773.327l1.442-.582 1.944 4.812c.152.375.578.557.954.405.375-.152.556-.578.404-.953zM121.407 189.903l-1.944-4.813 1.469-.593c.304-.123.45-.469.328-.773-.123-.304-.469-.45-.773-.328l-4.269 1.725c-.304.123-.45.469-.328.773.123.303.469.45.773.327l1.442-.582 1.944 4.812c.152.375.578.557.954.405.375-.152.556-.578.404-.953z"/>
        <path fill="#FCD834" fill-rule="nonzero" d="M73.293 125.44l1.944-4.812 1.47.593c.303.123.649-.024.772-.327.122-.304-.025-.65-.328-.773l-4.27-1.725c-.303-.122-.65.024-.772.328-.123.304.024.65.328.773l1.442.582-1.944 4.813c-.152.375.03.802.404.953.375.152.802-.03.954-.405z"/>
        <path fill="#8847FF" fill-rule="nonzero" d="M22.366 195.932l-1.86-4.845 1.48-.568c.305-.118.458-.46.34-.767-.117-.306-.46-.458-.766-.341l-4.299 1.65c-.306.118-.458.46-.341.767.117.306.46.458.766.34l1.452-.556 1.86 4.845c.145.378.57.566.947.422.377-.145.566-.57.421-.947zM188.175 209.956l-1.93-5.304c-.139-.38-.56-.576-.94-.438-.38.139-.575.559-.437.94l1.93 5.303c.139.38.56.576.94.438.38-.138.575-.559.437-.939z"/>
        <path fill="#F05660" fill-rule="nonzero" d="M126.206 131.216c.127-.299-.012-.644-.312-.771l-2.036-.865c-.254-.108-.373-.401-.265-.655l.353-.833c.108-.254.402-.373.656-.265l1.6.68c.292.124.629-.013.753-.304.124-.292-.012-.629-.304-.752l-1.6-.68c-.255-.108-.373-.401-.266-.656l.272-.639c.108-.254.401-.372.655-.265l2.023.86c.302.127.65-.013.778-.315s-.012-.65-.314-.778l-3.371-1.431c-.255-.108-.548.01-.656.265l-2.387 5.624c-.108.254.01.547.265.655l3.385 1.437c.299.127.644-.013.771-.312z"/>
        <circle cx="145.789" cy="67" r="3" stroke="#F05660" stroke-width="1.2"/>
        <path stroke="#F05660" stroke-linecap="round" stroke-width="1.2" d="M50.187 193.57c-.23-2.196-2.199-3.79-4.396-3.559-2.197.23-3.79 2.2-3.56 4.396"/>
        <circle cx="124.789" cy="98" r="2" fill="#8847FF" transform="matrix(-1 0 0 1 249.578 0)"/>
        <circle cx="156.789" cy="215" r="2" fill="#4FC1E3" transform="matrix(-1 0 0 1 313.578 0)"/>
        <circle cx="146.789" cy="191" r="2" fill="#8847FF" transform="matrix(-1 0 0 1 293.578 0)"/>
        <circle cx="196.789" cy="33" r="2" fill="#4FC1E3" transform="matrix(-1 0 0 1 393.578 0)"/>
        <rect width="6" height="6" x="167.789" y="112" stroke="#FCD834" stroke-width="1.2" rx="1"/>
        <rect width="6" height="6" x="125.789" y="23" stroke="#F05660" stroke-width="1.2" rx="1"/>
        <rect width="6" height="6" x="99.789" y="211" stroke="#8847FF" stroke-width="1.2" rx="1"/>
        <rect width="4" height="4" x="64" y="164" stroke="#19BD66" stroke-width="1.2" rx="1" transform="rotate(-42 66 166)"/>
        <rect width="6" height="6" x="117.789" y="156" stroke="#4FC1E3" stroke-width="1.2" rx="1" transform="rotate(-38 120.789 159)"/>
        <rect width="4" height="4" x="192.789" y="188" fill="#FCD834" rx="1" transform="rotate(-32 194.789 190)"/>
        <rect width="4" height="4" x="103.789" y="46" fill="#19BD66" rx="1" transform="rotate(-32 105.789 48)"/>
        <rect width="4" height="4" x="51.789" y="138" fill="#4FC1E3" rx="1" transform="rotate(1 53.789 140)"/>
        <path stroke="#8847FF" stroke-linecap="round" stroke-width="1.2" d="M183.307 141.39l-.385.834c-.41.884-.024 1.934.861 2.343.141.065.29.111.442.137.717.123 1.198.804 1.075 1.52-.04.232-.14.449-.293.628-.47.555-.4 1.386.154 1.855.18.152.396.253.628.293.716.123 1.198.804 1.074 1.52-.04.232-.14.448-.292.628-.47.555-.401 1.385.154 1.855.18.152.396.253.628.293.96.165 1.606 1.077 1.44 2.038-.026.153-.072.302-.137.442l-.385.834h0"/>
        <path stroke="#FCD834" stroke-linecap="round" stroke-width="1.2" d="M130.19 215.448l-.124.91c-.133.966.543 1.856 1.509 1.989.153.02.31.022.463.002.721-.092 1.38.418 1.472 1.14.03.233-.004.47-.097.686-.287.667.022 1.442.69 1.729.216.092.453.126.686.096.721-.092 1.38.418 1.472 1.14.03.233-.004.47-.096.685-.287.668.021 1.442.69 1.73.215.092.452.126.685.096.967-.123 1.851.561 1.974 1.528.02.154.02.31-.002.463l-.125.91h0M29.961 164.672l.789.471c.837.5 1.92.226 2.42-.612.08-.133.141-.276.183-.425.198-.7.925-1.107 1.624-.91.227.064.432.187.594.357.503.525 1.336.543 1.861.04.17-.162.293-.367.357-.593.197-.7.924-1.107 1.624-.91.226.064.431.187.594.357.502.525 1.336.543 1.86.04.17-.162.294-.367.358-.593.264-.938 1.24-1.485 2.178-1.22.149.042.292.104.425.183l.789.47h0"/>
        <path stroke="#4FC1E3" stroke-linecap="round" stroke-width="1.2" d="M82.097 100.214l.82.415c.87.44 1.932.09 2.371-.78.07-.138.122-.285.153-.436.148-.712.845-1.17 1.557-1.021.23.048.443.156.617.314.538.49 1.37.45 1.86-.089.158-.174.266-.387.314-.617.148-.712.845-1.169 1.557-1.02.23.047.443.156.617.314.538.489 1.37.449 1.86-.09.157-.173.266-.387.314-.617.198-.954 1.133-1.567 2.087-1.369.152.032.299.083.437.153l.82.415h0"/>
        <path stroke="#F05660" stroke-linecap="round" stroke-width="1.2" d="M197.795 115.419l.327-.86c.346-.91-.112-1.93-1.023-2.276-.145-.056-.296-.091-.45-.107-.724-.073-1.251-.718-1.179-1.441.024-.234.11-.457.249-.647.43-.586.303-1.41-.283-1.84-.19-.139-.413-.224-.647-.248-.723-.073-1.25-.718-1.178-1.441.024-.234.11-.458.248-.647.43-.586.304-1.41-.283-1.84-.19-.139-.413-.225-.646-.248-.97-.098-1.678-.963-1.58-1.933.015-.155.051-.306.106-.45l.327-.86h0M184.836 16.245l-.1-.913c-.104-.97-.975-1.67-1.945-1.565-.154.017-.305.054-.45.11-.677.263-1.44-.072-1.703-.75-.085-.219-.11-.457-.073-.689.117-.717-.37-1.393-1.087-1.51-.232-.038-.47-.013-.689.072-.678.264-1.44-.072-1.704-.75-.085-.219-.11-.456-.072-.688.117-.718-.37-1.394-1.088-1.511-.232-.038-.47-.013-.689.072-.908.354-1.931-.097-2.285-1.005-.056-.145-.093-.296-.11-.45l-.099-.913h0"/>
        <path stroke="#4FC1E3" stroke-linecap="round" stroke-width="1.2" d="M161.064 183.46l.526-.445c.559-.472.629-1.307.157-1.866-.075-.089-.161-.167-.257-.233-.448-.311-.56-.926-.248-1.374.1-.145.237-.26.398-.334.495-.228.711-.815.483-1.31-.074-.16-.19-.298-.334-.398-.448-.31-.56-.926-.249-1.374.1-.145.238-.26.398-.334.496-.228.712-.814.484-1.31-.074-.16-.19-.297-.334-.398-.601-.416-.75-1.241-.334-1.842.067-.096.145-.182.234-.257l.526-.444h0"/>
        <path stroke="#8847FF" stroke-width="1.2" d="M87.683 143.789l2.382 4.764c.247.494.047 1.094-.447 1.341-.139.07-.292.106-.447.106h-4.764c-.552 0-1-.448-1-1 0-.155.036-.308.106-.447l2.382-4.764c.247-.494.847-.694 1.341-.447.194.096.35.253.447.447z"/>
        <path stroke="#4FC1E3" stroke-width="1.2" d="M138.665 3.618l4.172 3.31c.433.344.505.973.162 1.406-.097.121-.22.219-.36.285l-4.318 2.013c-.5.233-1.096.017-1.33-.484-.065-.14-.097-.295-.093-.45l.146-5.324c.015-.552.475-.987 1.027-.972.216.006.425.082.594.216z"/>
        <path stroke="#19BD66" stroke-width="1.2" d="M157.665 135.618l4.172 3.31c.433.344.505.973.162 1.406-.097.121-.22.219-.36.285l-4.318 2.013c-.5.233-1.096.017-1.33-.484-.065-.14-.097-.295-.093-.45l.146-5.324c.015-.552.475-.987 1.027-.972.216.006.425.082.594.216z"/>
        <path fill="#F05660" d="M4.596 215.55l3.03.612c.54.11.89.637.781 1.179-.03.152-.097.295-.192.417l-1.702 2.178c-.34.435-.968.512-1.403.172-.123-.095-.221-.218-.288-.358l-1.327-2.79c-.237-.5-.025-1.096.474-1.333.195-.093.415-.12.627-.077z"/>
        <path fill="#8847FF" d="M163.385 23.55l3.03.612c.54.11.89.637.781 1.179-.03.152-.097.295-.192.417l-1.702 2.178c-.34.435-.968.512-1.403.172-.123-.095-.221-.218-.288-.358l-1.327-2.79c-.237-.5-.025-1.096.474-1.333.195-.093.415-.12.627-.077z"/>
        <path fill="#FCD834" fill-rule="nonzero" d="M77.967 219.348c-.023-.325-.304-.569-.628-.546l-1.756.122c-.525.037-.98-.358-1.016-.883-.037-.525.358-.98.883-1.016l1.283-.09c.317-.022.555-.296.533-.612-.022-.316-.297-.555-.613-.533l-1.388.097c-.467.033-.871-.319-.904-.786-.033-.466.32-.871.786-.904l1.846-.129c.327-.023.573-.306.55-.633-.022-.327-.306-.573-.633-.55l-3.155.22c-.55.039-.966.516-.927 1.067l.356 5.097c.039.551.516.967 1.067.928l3.17-.221c.324-.023.568-.304.546-.628z"/>
        <circle cx="85" cy="189" r="2" fill="#F05660" transform="matrix(-1 0 0 1 170 0)"/>
    </g>
</svg>
