<svg xmlns="http://www.w3.org/2000/svg" width="243" height="226" viewBox="0 0 243 226">
    <g fill="none" opacity=".5">
        <path fill="#FCD834" d="M237 207v-1.588c1.911 0 3.421-1.33 3.421-2.912 0-1.526-1.404-2.817-3.218-2.907l-.203-.005V198c2.74 0 5 1.99 5 4.5 0 2.439-2.133 4.386-4.766 4.495L237 207z"/>
        <path fill="#4FC1E3" d="M104 122h-1.588c0-1.911-1.33-3.421-2.912-3.421-1.526 0-2.817 1.404-2.907 3.218l-.005.203H95c0-2.74 1.99-5 4.5-5 2.439 0 4.386 2.133 4.495 4.766L104 122z"/>
        <path fill="#FCD834" d="M151 212v1.412c-1.529 0-2.737 1.181-2.737 2.588 0 1.357 1.123 2.504 2.574 2.584l.163.004V220c-2.192 0-4-1.768-4-4 0-2.168 1.706-3.899 3.813-3.996L151 212z"/>
        <path fill="#F06072" d="M123.333 179.734l6.036 6.036 6.144-6.143-6.037-6.036-6.143 6.143zm2.15-.019l3.975-3.975 3.905 3.906-3.975 3.975-3.906-3.906z"/>
        <path fill="#FCD834" d="M182.665 52.264l6.037 6.036 6.143-6.144-6.036-6.036-6.144 6.144zm2.15-.02l3.975-3.975 3.906 3.906-3.975 3.975-3.906-3.905z"/>
        <path fill="#F06072" d="M208 191h9v-9h-9v9zm1.588-1.588v-5.824h5.824v5.824h-5.824z"/>
        <path fill="#8847FF" d="M0 218h9v-9H0v9zm1.588-1.588v-5.824h5.824v5.824H1.588z"/>
        <path fill="#FCD834" d="M28.178 168.398l6.037 6.036 6.143-6.144-6.036-6.036-6.144 6.144zm2.15-.019l3.975-3.975 3.906 3.905-3.976 3.976-3.905-3.906zM198 14.688h8.536V6H198v8.688zm1.506-1.533V7.533h5.524v5.622h-5.524z"/>
        <path fill="#F06072" d="M128 93v9h9v-9h-9zm1.588 1.588h5.824v5.824h-5.824v-5.824z"/>
        <path fill="#4FC1E3" d="M132 65c2.761 0 5-2.239 5-5s-2.239-5-5-5-5 2.239-5 5 2.239 5 5 5zm0-1.579c-1.89 0-3.421-1.532-3.421-3.421 0-1.89 1.532-3.421 3.421-3.421 1.89 0 3.421 1.532 3.421 3.421 0 1.89-1.532 3.421-3.421 3.421zM207 130v9h9v-9h-9zm1.588 1.588h5.824v5.824h-5.824v-5.824z"/>
        <path fill="#19BD66" d="M226 217v9h9v-9h-9zm1.588 1.588h5.824v5.824h-5.824v-5.824z"/>
        <path fill="#F06072" d="M243 173L243 180 241 180 241 173z" transform="rotate(-180 242 176.5)"/>
        <path fill="#19BD66" d="M160 140L160 147 158 147 158 140z" transform="rotate(-180 159 143.5)"/>
        <path fill="#8847FF" d="M220 26L220 33 218 33 218 26z" transform="rotate(90 219 29.5)"/>
        <path fill="#FCD834" d="M109 93L109 100 107 100 107 93z"/>
        <path fill="#4FC1E3" d="M208 86L208 93 206 93 206 86z" transform="rotate(90 207 89.5)"/>
        <path fill="#4FC1E3" d="M35 219L35 226 33 226 33 219z" transform="rotate(90 34 222.5)"/>
        <path fill="#FCD834" d="M65 205v2h2v-2h-2zm0 3v2h2v-2h-2zm0 3v2h2v-2h-2z"/>
        <path fill="#F06072" d="M168 2h2V0h-2v2zm3 0h2V0h-2v2zm3 0h2V0h-2v2z"/>
        <path fill="#FCD834" d="M239 143v2h2v-2h-2zm0 3v2h2v-2h-2zm0 3v2h2v-2h-2zM196 218h2v-2h-2v2zm3 0h2v-2h-2v2zm3 0h2v-2h-2v2zM154 30v2h2v-2h-2zm0 3v2h2v-2h-2zm0 3v2h2v-2h-2z"/>
        <path fill="#19BD66" d="M226 111h2v-2h-2v2zm3 0h2v-2h-2v2zm3 0h2v-2h-2v2z"/>
        <path fill="#4FC1E3" d="M74 183.073L75.677 183 75.838 185.541 78.912 185.408 79 186.794 74.249 187z" transform="rotate(-90 76.5 185)"/>
        <path fill="#4FC1E3" d="M170 199.073L171.677 199 171.838 201.541 174.912 201.408 175 202.794 170.249 203z" transform="rotate(-180 172.5 201)"/>
        <path fill="#F06072" d="M85.069 148L86.473 148.024 86.428 150.568 89 150.612 88.976 152 85 151.931z" transform="rotate(-180 87 150)"/>
        <path fill="#FCD834" d="M180.927 165L181 166.677 178.458 166.837 178.592 169.912 177.206 170 177 165.249z" transform="rotate(-180 179 167.5)"/>
        <path fill="#8847FF" d="M235.927 72L236 73.677 233.458 73.837 233.592 76.912 232.206 77 232 72.249z" transform="rotate(-180 234 74.5)"/>
        <path fill="#8847FF" d="M166.927 73L167 74.677 164.458 74.837 164.592 77.912 163.206 78 163 73.249z" transform="rotate(-90 165 75.5)"/>
        <path fill="#19BD66" d="M187.927 28L188 29.677 185.458 29.837 185.592 32.912 184.206 33 184 28.249z"/>
        <path fill="#8847FF" d="M122 152c2.761 0 5-2.239 5-5s-2.239-5-5-5-5 2.239-5 5 2.239 5 5 5zm0-1.579c-1.89 0-3.421-1.532-3.421-3.421 0-1.89 1.532-3.421 3.421-3.421 1.89 0 3.421 1.532 3.421 3.421 0 1.89-1.532 3.421-3.421 3.421z"/>
        <path fill="#F06072" d="M231 56c2.761 0 5-2.239 5-5s-2.239-5-5-5-5 2.239-5 5 2.239 5 5 5zm0-1.579c-1.89 0-3.421-1.532-3.421-3.421 0-1.89 1.532-3.421 3.421-3.421 1.89 0 3.421 1.532 3.421 3.421 0 1.89-1.532 3.421-3.421 3.421zM36 202c2.761 0 5-2.239 5-5s-2.239-5-5-5-5 2.239-5 5 2.239 5 5 5zm0-1.579c-1.89 0-3.421-1.532-3.421-3.421 0-1.89 1.532-3.421 3.421-3.421 1.89 0 3.421 1.532 3.421 3.421 0 1.89-1.532 3.421-3.421 3.421z"/>
        <path fill="#FCD834" d="M165 120c2.761 0 5-2.239 5-5s-2.239-5-5-5-5 2.239-5 5 2.239 5 5 5zm0-1.579c-1.89 0-3.421-1.532-3.421-3.421 0-1.89 1.532-3.421 3.421-3.421 1.89 0 3.421 1.532 3.421 3.421 0 1.89-1.532 3.421-3.421 3.421z"/>
        <path fill="#19BD66" d="M64 145c2.761 0 5-2.239 5-5s-2.239-5-5-5-5 2.239-5 5 2.239 5 5 5zm0-1.579c-1.89 0-3.421-1.532-3.421-3.421 0-1.89 1.532-3.421 3.421-3.421 1.89 0 3.421 1.532 3.421 3.421 0 1.89-1.532 3.421-3.421 3.421zM110 216c2.761 0 5-2.239 5-5s-2.239-5-5-5-5 2.239-5 5 2.239 5 5 5zm0-1.579c-1.89 0-3.421-1.532-3.421-3.421 0-1.89 1.532-3.421 3.421-3.421 1.89 0 3.421 1.532 3.421 3.421 0 1.89-1.532 3.421-3.421 3.421z"/>
        <path fill="#4FC1E3" d="M234 10c2.761 0 5-2.239 5-5s-2.239-5-5-5-5 2.239-5 5 2.239 5 5 5zm0-1.579c-1.89 0-3.421-1.532-3.421-3.421 0-1.89 1.532-3.421 3.421-3.421 1.89 0 3.421 1.532 3.421 3.421 0 1.89-1.532 3.421-3.421 3.421z"/>
    </g>
</svg>
