<svg xmlns="http://www.w3.org/2000/svg" width="226" height="229" viewBox="0 0 226 229">
    <g fill="none" opacity=".5">
        <path fill="#FCD834" d="M6 22v1.588c-1.911 0-3.421 1.33-3.421 2.912 0 1.526 1.404 2.817 3.218 2.907l.203.005V31c-2.74 0-5-1.99-5-4.5 0-2.439 2.133-4.386 4.766-4.495L6 22zM108 101h1.588c0 1.911 1.33 3.421 2.912 3.421 1.526 0 2.817-1.404 2.907-3.218l.005-.203H117c0 2.74-1.99 5-4.5 5-2.439 0-4.386-2.133-4.495-4.766L108 101zM146 160v-1.412c1.529 0 2.737-1.181 2.737-2.588 0-1.357-1.123-2.504-2.574-2.584l-.163-.004V152c2.192 0 4 1.768 4 4 0 2.168-1.706 3.899-3.813 3.996L146 160z"/>
        <path fill="#4FC1E3" d="M116 197h-1.412c0-1.529-1.181-2.737-2.588-2.737-1.357 0-2.504 1.123-2.584 2.574l-.004.163H108c0-2.192 1.768-4 4-4 2.168 0 3.899 1.706 3.996 3.813L116 197z"/>
        <path fill="#8847FF" d="M82.667 49.266l-6.036-6.036-6.144 6.143 6.037 6.036 6.143-6.143zm-2.15.019l-3.975 3.975-3.905-3.906 3.975-3.975 3.906 3.906z"/>
        <path fill="#FCD834" d="M63.335 174.736l-6.037-6.036-6.143 6.144 6.036 6.036 6.144-6.144zm-2.15.02l-3.975 3.975-3.906-3.906 3.975-3.975 3.906 3.905z"/>
        <path fill="#F06072" d="M31 38h-9v9h9v-9zm-1.588 1.588v5.824h-5.824v-5.824h5.824z"/>
        <path fill="#8847FF" d="M226 217h-9v9h9v-9zm-1.588 1.588v5.824h-5.824v-5.824h5.824z"/>
        <path fill="#FCD834" d="M185.858 219.712l-6.036-6.036-6.144 6.143 6.037 6.036 6.143-6.143zm-2.15.019l-3.975 3.975-3.905-3.906 3.975-3.975 3.906 3.906z"/>
        <path fill="#F06072" d="M98 132v-9h-9v9h9zm-1.588-1.588h-5.824v-5.824h5.824v5.824z"/>
        <path fill="#8847FF" d="M126 220v-9h-9v9h9zm-1.588-1.588h-5.824v-5.824h5.824v5.824z"/>
        <path fill="#4FC1E3" d="M32 99v-9h-9v9h9zm-1.588-1.588h-5.824v-5.824h5.824v5.824z"/>
        <path fill="#19BD66" d="M14 9V0H5v9h9zm-1.588-1.588H6.588V1.588h5.824v5.824z"/>
        <path fill="#F06072" d="M2 49L2 56 0 56 0 49z"/>
        <path fill="#19BD66" d="M66 78L66 85 64 85 64 78z"/>
        <path fill="#8847FF" d="M25 196L25 203 23 203 23 196z" transform="rotate(-90 24 199.5)"/>
        <path fill="#19BD66" d="M119 163L119 170 117 170 117 163z" transform="rotate(-90 118 166.5)"/>
        <path fill="#4FC1E3" d="M37 136L37 143 35 143 35 136z" transform="rotate(-90 36 139.5)"/>
        <path fill="#4FC1E3" d="M206 200L206 207 204 207 204 200z" transform="rotate(-90 205 203.5)"/>
        <path fill="#4FC1E3" d="M172 147v-2h-2v2h2zm0-3v-2h-2v2h2zm0-3v-2h-2v2h2z"/>
        <path fill="#F06072" d="M75 227h-2v2h2v-2zm-3 0h-2v2h2v-2zm-3 0h-2v2h2v-2z"/>
        <path fill="#FCD834" d="M4 86v-2H2v2h2zm0-3v-2H2v2h2zm0-3v-2H2v2h2zM43 11h-2v2h2v-2zm-3 0h-2v2h2v-2zm-3 0h-2v2h2v-2zM84 195v-2h-2v2h2zm0-3v-2h-2v2h2zm0-3v-2h-2v2h2z"/>
        <path fill="#19BD66" d="M17 118h-2v2h2v-2zm-3 0h-2v2h2v-2zm-3 0H9v2h2v-2z"/>
        <path fill="#4FC1E3" d="M161 182.073L162.677 182 162.838 184.541 165.912 184.408 166 185.794 161.249 186z" transform="rotate(90 163.5 184)"/>
        <path fill="#4FC1E3" d="M52 26.073L53.677 26 53.838 28.541 56.912 28.408 57 29.794 52.249 30z"/>
        <path fill="#F06072" d="M150.069 212L151.473 212.024 151.428 214.568 154 214.612 153.976 216 150 215.931z"/>
        <path fill="#FCD834" d="M49.927 59L50 60.677 47.458 60.837 47.592 63.912 46.206 64 46 59.249z"/>
        <path fill="#8847FF" d="M10.927 152L11 153.677 8.458 153.837 8.592 156.912 7.206 157 7 152.249z"/>
        <path fill="#8847FF" d="M67.927 141L68 142.677 65.458 142.837 65.592 145.912 64.206 146 64 141.249z" transform="rotate(90 66 143.5)"/>
        <path fill="#19BD66" d="M53.927 207L54 208.677 51.458 208.837 51.592 211.912 50.206 212 50 207.249z" transform="rotate(-180 52 209.5)"/>
        <path fill="#4FC1E3" d="M91 73c-2.761 0-5 2.239-5 5s2.239 5 5 5 5-2.239 5-5-2.239-5-5-5zm0 1.579c1.89 0 3.421 1.532 3.421 3.421 0 1.89-1.532 3.421-3.421 3.421-1.89 0-3.421-1.532-3.421-3.421 0-1.89 1.532-3.421 3.421-3.421z"/>
        <path fill="#F06072" d="M12 173c-2.761 0-5 2.239-5 5s2.239 5 5 5 5-2.239 5-5-2.239-5-5-5zm0 1.579c1.89 0 3.421 1.532 3.421 3.421 0 1.89-1.532 3.421-3.421 3.421-1.89 0-3.421-1.532-3.421-3.421 0-1.89 1.532-3.421 3.421-3.421zM201 169c-2.761 0-5 2.239-5 5s2.239 5 5 5 5-2.239 5-5-2.239-5-5-5zm0 1.579c1.89 0 3.421 1.532 3.421 3.421 0 1.89-1.532 3.421-3.421 3.421-1.89 0-3.421-1.532-3.421-3.421 0-1.89 1.532-3.421 3.421-3.421z"/>
        <path fill="#FCD834" d="M64 107c-2.761 0-5 2.239-5 5s2.239 5 5 5 5-2.239 5-5-2.239-5-5-5zm0 1.579c1.89 0 3.421 1.532 3.421 3.421 0 1.89-1.532 3.421-3.421 3.421-1.89 0-3.421-1.532-3.421-3.421 0-1.89 1.532-3.421 3.421-3.421z"/>
        <path fill="#19BD66" d="M127 135c-2.761 0-5 2.239-5 5s2.239 5 5 5 5-2.239 5-5-2.239-5-5-5zm0 1.579c1.89 0 3.421 1.532 3.421 3.421 0 1.89-1.532 3.421-3.421 3.421-1.89 0-3.421-1.532-3.421-3.421 0-1.89 1.532-3.421 3.421-3.421z"/>
        <path fill="#4FC1E3" d="M9 219c-2.761 0-5 2.239-5 5s2.239 5 5 5 5-2.239 5-5-2.239-5-5-5zm0 1.579c1.89 0 3.421 1.532 3.421 3.421 0 1.89-1.532 3.421-3.421 3.421-1.89 0-3.421-1.532-3.421-3.421 0-1.89 1.532-3.421 3.421-3.421z"/>
    </g>
</svg>
