<svg xmlns="http://www.w3.org/2000/svg" width="207" height="238" viewBox="0 0 207 238">
    <g fill="none" fill-rule="evenodd" opacity=".5" transform="translate(1 2)">
        <path fill="#131719" stroke="#F06072" d="M90 41H97V48H90z" transform="rotate(-30 93.5 44.5)"/>
        <path fill="#131719" stroke="#8847FF" d="M196.444 211.358L204.02 211.358 200.957 218.934 193.381 218.934z" transform="rotate(-20 198.7 215.146)"/>
        <path fill="#131719" stroke="#4FC1E3" d="M82.02 107.358L91.02 107.358 87.381 116.358 78.381 116.358z" transform="rotate(-134 84.7 111.858)"/>
        <path fill="#131719" stroke="#4FC1E3" d="M66.639 5L75.639 5 72 14 63 14z" transform="rotate(-99 69.32 9.5)"/>
        <path fill="#131719" stroke="#FDC403" d="M116.639 68L125.639 68 122 77 113 77z" transform="rotate(-20 119.32 72.5)"/>
        <path fill="#131719" stroke="#4FC1E3" d="M10 153H19V162H10z" transform="rotate(7 14.5 157.5)"/>
        <path fill="#131719" stroke="#FDC403" d="M124 212H133V221H124z" transform="rotate(22 128.5 216.5)"/>
        <path fill="#131719" stroke="#19BD66" d="M72 72L77 81 67 81z" transform="rotate(-22 72 76.5)"/>
        <path fill="#131719" stroke="#8847FF" d="M42.5 190L48 199.9 37 199.9z" transform="rotate(-25 42.5 194.95)"/>
        <path fill="#131719" stroke="#F06072" d="M133 122L138 131 128 131z" transform="rotate(-66 133 126.5)"/>
        <circle cx="109" cy="152" r="5" stroke="#8847FF"/>
        <circle cx="6" cy="68" r="4" fill="#131719" stroke="#8AC6DD"/>
        <circle cx="168.381" cy="183.358" r="6" fill="#131719" stroke="#F06072"/>
        <path stroke="#8847FF" d="M9.5 8.25L6.267 9.95 6.885 6.35 4.269 3.8 7.884 3.275 9.5 0 11.116 3.275 14.731 3.8 12.115 6.35 12.733 9.95z"/>
        <path fill="#131719" stroke="#FDC403" d="M167.5 146.25L164.267 147.95 164.885 144.35 162.269 141.8 165.884 141.275 167.5 138 169.116 141.275 172.731 141.8 170.115 144.35 170.733 147.95z" transform="rotate(-19 167.5 143.5)"/>
        <path fill="#131719" stroke="#FDC403" d="M9 230L5.473 231.854 6.147 227.927 3.294 225.146 7.237 224.573 9 221 10.763 224.573 14.706 225.146 11.853 227.927 12.527 231.854z" transform="rotate(-36 9 227)"/>
        <path fill="#131719" stroke="#4FC1E3" stroke-linejoin="round" d="M109 187.5L106.061 189.045 106.622 185.773 104.245 183.455 107.531 182.977 109 180 110.469 182.977 113.755 183.455 111.378 185.773 111.939 189.045z"/>
        <path fill="#131719" stroke="#19BD66" d="M35.5 27L40.263 29.75 40.263 35.25 35.5 38 30.737 35.25 30.737 29.75z"/>
        <path fill="#131719" stroke="#F06072" d="M73.899 214.499L80.394 218.249 80.394 225.749 73.899 229.499 67.403 225.749 67.403 218.249z" transform="rotate(-13 73.899 221.999)"/>
        <path fill="#131719" stroke="#FDC403" d="M68.5 148L73.263 150.75 73.263 156.25 68.5 159 63.737 156.25 63.737 150.75z" transform="rotate(-13 68.5 153.5)"/>
        <path fill="#131719" stroke="#FDC403" d="M28.5 102L33.263 104.75 33.263 110.25 28.5 113 23.737 110.25 23.737 104.75z" transform="rotate(-15 28.5 107.5)"/>
    </g>
</svg>
