<svg xmlns="http://www.w3.org/2000/svg" width="239" height="230" viewBox="0 0 239 230">
    <g fill="none" fill-rule="evenodd" opacity=".6">
        <path fill="#19BD66" d="M35 57L35 63.071 45.455 67z"/>
        <path fill="#19BD66" d="M93 217L93 223.071 103.455 227z" transform="rotate(49 98.227 222)"/>
        <path fill="#FCD834" d="M49 211L49 217.071 59.435 221z" transform="rotate(-25 54.217 216)"/>
        <path fill="#FCD834" d="M6 31L6 37.071 10.412 41z" transform="rotate(4 8.206 36)"/>
        <path fill="#19BD66" d="M100 56L100 66.2 107.412 72.8z" transform="rotate(150 103.706 64.4)"/>
        <path fill="#4FC1E3" d="M61 188.462L65.873 181 67.681 191 64.34 188.462z" transform="rotate(-20 64.34 186)"/>
        <path fill="#4FC1E3" d="M3 8.462L7.873 1 9.681 11 6.34 8.462z" transform="rotate(135 6.34 6)"/>
        <path fill="#8847FF" d="M77 89.781L81.738 79 83.496 93.448 80.248 89.781z" transform="rotate(112 80.248 86.224)"/>
        <circle cx="45" cy="97" r="4" fill="#F06072"/>
        <circle cx="72" cy="60" r="4" fill="#4FC1E3"/>
        <circle cx="128" cy="122" r="4" fill="#4FC1E3"/>
        <circle cx="12" cy="217" r="4" fill="#4FC1E3"/>
        <circle cx="96" cy="174" r="3" fill="#F06072"/>
        <circle cx="198" cy="185" r="3" fill="#19BD66"/>
        <circle cx="85" cy="36" r="4" fill="#FCD834"/>
        <path fill="#FCD834" d="M7 142.623L18.957 139 18.957 145.377 7 149z"/>
        <path fill="#F06072" d="M162 219.623L173.957 216 173.957 222.377 162 226z"/>
        <path fill="#19BD66" d="M51 140.623L62.957 137 62.957 143.377 51 147z" transform="rotate(90 56.979 142)"/>
        <path fill="#F06072" d="M32 22.898L42 20 42 25.102 32 28z" transform="rotate(169 37 24)"/>
        <path fill="#8847FF" d="M10 107.623L21.957 104 21.957 110.377 10 114z" transform="rotate(45 15.979 109)"/>
        <path fill="#FCD834" d="M160 143.623L171.957 140 171.957 146.377 160 150z" transform="rotate(100 165.979 145)"/>
        <path fill="#8847FF" d="M164 182.623L175.957 179 175.957 185.377 164 189z" transform="rotate(45 169.979 184)"/>
        <path stroke="#19BD66" d="M118.449 155.285L121.153 150.627 122.082 152.956 124.753 148.528 124.753 152.956 127.949 145.285"/>
        <path stroke="#FCD834" d="M132 204L134.704 199.342 135.633 201.671 138.303 197.243 138.303 201.671 141.5 194" transform="matrix(-1 0 0 1 273.5 0)"/>
        <path stroke="#8847FF" d="M11 183.684L12.956 179.88 14.077 185.176 15.64 177.79 16.888 186 21.625 176M227 222.684L228.956 218.88 230.077 224.176 231.64 216.79 232.888 225 237.625 215"/>
        <path stroke="#F06072" d="M83 128.684L84.956 124.88 86.077 130.176 87.64 122.79 88.888 131 93.625 121"/>
        <path stroke="#4FC1E3" d="M6.762 81.162L8.726 77.357 9.852 82.654 11.42 75.267 12.673 83.477 17.429 73.477" transform="rotate(58 12.095 78.477)"/>
        <path stroke="#FCD834" d="M116 95.684L117.964 91.88 119.089 97.176 120.658 89.79 121.911 98 126.667 88" transform="rotate(58 121.333 93)"/>
        <path stroke="#4FC1E3" d="M196 212.684L197.964 208.88 199.089 214.176 200.658 206.79 201.911 215 206.667 205" transform="rotate(58 201.333 210)"/>
        <path stroke="#8847FF" d="M62 18.684L63.964 14.88 65.089 20.176 66.658 12.79 67.911 21 72.667 11" transform="rotate(60 67.333 16)"/>
    </g>
</svg>
