<svg xmlns="http://www.w3.org/2000/svg" width="231" height="226" viewBox="0 0 231 226">
    <g fill="none" fill-rule="evenodd" opacity=".8" transform="translate(1.375)">
        <path fill="#19BD66" d="M181.17 164L181.17 170.071 191.625 174z" transform="rotate(-180 186.398 169)"/>
        <path fill="#19BD66" d="M134.17 13L134.17 19.071 144.625 23z" transform="rotate(-131 139.398 18)"/>
        <path fill="#FCD834" d="M169.19 2L169.19 8.071 179.625 12z" transform="rotate(155 174.408 7)"/>
        <path fill="#FCD834" d="M218.213 182L218.213 188.071 222.625 192z" transform="rotate(-176 220.42 187)"/>
        <path fill="#4FC1E3" d="M62.625 132L62.625 142.2 70.037 148.8z" transform="rotate(50 66.33 140.4)"/>
        <path fill="#4FC1E3" d="M160.944 39.462L165.817 32 167.625 42 164.285 39.462z" transform="rotate(160 164.285 37)"/>
        <path fill="#4FC1E3" d="M218.944 219.462L223.817 212 225.625 222 222.285 219.462z" transform="rotate(-45 222.285 217)"/>
        <path fill="#8847FF" d="M139.129 144.333L143.867 133.552 145.625 148 142.377 144.333z" transform="rotate(-68 142.377 140.776)"/>
        <circle cx="183.625" cy="126" r="4" fill="#F06072" transform="rotate(-180 183.625 126)"/>
        <circle cx="156.625" cy="166" r="4" fill="#4FC1E3" transform="rotate(-180 156.625 166)"/>
        <circle cx="100.625" cy="188" r="4" fill="#4FC1E3" transform="rotate(-180 100.625 188)"/>
        <circle cx="216.625" cy="6" r="4" fill="#4FC1E3" transform="rotate(-180 216.625 6)"/>
        <circle cx="132.625" cy="50" r="3" fill="#F06072" transform="rotate(-180 132.625 50)"/>
        <circle cx="33.625" cy="181" r="3" fill="#19BD66" transform="rotate(-180 33.625 181)"/>
        <circle cx="135.625" cy="187" r="4" fill="#FCD834" transform="rotate(-180 135.625 187)"/>
        <path fill="#FCD834" d="M209.668 77.623L221.625 74 221.625 80.377 209.668 84z" transform="rotate(-180 215.646 79)"/>
        <path fill="#F06072" d="M57.668 175.623L69.625 172 69.625 178.377 57.668 182z" transform="rotate(-180 63.646 177)"/>
        <path fill="#19BD66" d="M165.668 79.623L177.625 76 177.625 82.377 165.668 86z" transform="rotate(-90 171.646 81)"/>
        <path fill="#F06072" d="M186.625 197.898L196.625 195 196.625 200.102 186.625 203z" transform="rotate(-11 191.625 199)"/>
        <path fill="#8847FF" d="M206.668 112.623L218.625 109 218.625 115.377 206.668 119z" transform="rotate(-135 212.646 114)"/>
        <path fill="#4FC1E3" d="M115.625 74.623L127.582 71 127.582 77.377 115.625 81z" transform="rotate(-135 121.604 76)"/>
        <path fill="#FCD834" d="M100.625 148.623L112.582 145 112.582 151.377 100.625 155z" transform="rotate(-80 106.604 150)"/>
        <path fill="#8847FF" d="M59.668 211.623L71.625 208 71.625 214.377 59.668 218z" transform="rotate(-135 65.646 213)"/>
        <path stroke="#FCD834" d="M91.125 112L93.829 107.342 94.758 109.671 97.428 105.243 97.428 109.671 100.625 102" transform="matrix(1 0 0 -1 0 214)"/>
        <path stroke="#8847FF" d="M207 44.684L208.956 40.88 210.077 46.176 211.64 38.79 212.888 47 217.625 37" transform="rotate(-180 212.313 42)"/>
        <path stroke="#FCD834" d="M0 208.684L1.956 204.88 3.077 210.176 4.64 202.79 5.888 211 10.625 201" transform="rotate(-180 5.313 206)"/>
        <path stroke="#F06072" d="M136 105.684L137.956 101.88 139.077 107.176 140.64 99.79 141.888 108 146.625 98" transform="rotate(-180 141.313 103)"/>
        <path stroke="#4FC1E3" d="M211.196 147.207L213.16 143.403 214.286 148.699 215.854 141.313 217.107 149.523 221.863 139.523" transform="rotate(-122 216.53 144.523)"/>
        <path stroke="#FCD834" d="M101.958 219.684L103.922 215.88 105.048 221.176 106.616 213.79 107.869 222 112.625 212" transform="rotate(-122 107.292 217)"/>
        <path stroke="#4FC1E3" d="M29.625 214.684L31.65 210.88 32.811 216.176 34.429 208.79 35.721 217 40.625 207" transform="scale(1 -1) rotate(-58 -347.333 0)"/>
        <path stroke="#8847FF" d="M147.958 213.684L149.922 209.88 151.048 215.176 152.616 207.79 153.869 216 158.625 206" transform="rotate(-120 153.292 211)"/>
    </g>
</svg>
