<svg xmlns="http://www.w3.org/2000/svg" width="226" height="235" viewBox="0 0 226 235">
    <g fill="none" fill-rule="evenodd" opacity=".6" transform="translate(1)">
        <path fill="#4FC1E3" d="M107.5 94L112 113 103 113z" transform="rotate(61 107.5 103.5)"/>
        <path fill="#F06072" d="M13.5 -2L18 17 9 17z" transform="rotate(74 13.5 7.5)"/>
        <path fill="#4FC1E3" d="M77.5 198L82 217 73 217z" transform="rotate(46 77.5 207.5)"/>
        <path fill="#4FC1E3" d="M22.5 50L27 69 18 69z" transform="rotate(126 22.5 59.5)"/>
        <path fill="#F06072" d="M84.5 154L89 173 80 173z" transform="rotate(113 84.5 163.5)"/>
        <path fill="#F06072" d="M176.5 207L181 226 172 226z" transform="rotate(28 176.5 216.5)"/>
        <path fill="#FCD834" d="M30 28L36 37 24 37z" transform="rotate(30 30 32.5)"/>
        <path fill="#8847FF" d="M28 135L34 144 22 144z" transform="rotate(-81 28 139.5)"/>
        <path fill="#4FC1E3" d="M219 213L225 222 213 222z" transform="rotate(-81 219 217.5)"/>
        <path fill="#8847FF" d="M150 189L156 198 144 198z" transform="rotate(-119 150 193.5)"/>
        <circle cx="65" cy="128" r="5" fill="#FCD834"/>
        <circle cx="137" cy="224" r="5" fill="#FCD834"/>
        <circle cx="138" cy="161" r="5" fill="#19BD66"/>
        <circle cx="11" cy="215" r="5" fill="#FCD834"/>
        <circle cx="117" cy="38" r="5" fill="#8847FF"/>
        <path fill="#19BD66" d="M69 74H84V77H69z"/>
        <path fill="#FCD834" d="M94 10H109V13H94z" transform="rotate(33 101.5 11.5)"/>
        <path fill="#F06072" d="M-1 119H14V122H-1z" transform="rotate(44 6.5 120.5)"/>
        <path fill="#4FC1E3" d="M165 147H180V150H165z" transform="rotate(-61 172.5 148.5)"/>
        <path fill="#F06072" d="M46 61H61V64H46z" transform="rotate(-41 53.5 62.5)"/>
        <path fill="#FCD834" d="M34 192H49V195H34z" transform="rotate(-41 41.5 193.5)"/>
        <path fill="#F06072" d="M138 113H153V116H138z" transform="rotate(-41 145.5 114.5)"/>
        <path fill="#F06072" d="M52 104H55V107H52z"/>
        <path fill="#8847FF" d="M82 49H85V52H82z" transform="rotate(-12 83.5 50.5)"/>
        <path fill="#FCD834" d="M99 188H102V191H99z" transform="rotate(-14 100.5 189.5)"/>
        <path fill="#19BD66" d="M9 186H12V189H9z" transform="rotate(-40 10.5 187.5)"/>
        <path fill="#FCD834" d="M4 79H7V82H4z" transform="rotate(-26 5.5 80.5)"/>
        <path fill="#4FC1E3" d="M56 153H59V156H56z" transform="rotate(-26 57.5 154.5)"/>
        <path stroke="#8847FF" d="M14 95.255L19.662 91 23.457 95.255 29.903 91"/>
        <path stroke="#19BD66" d="M-1 157.255L4.662 153 8.457 157.255 14.903 153" transform="rotate(51 6.952 155.128)"/>
        <path stroke="#8847FF" d="M100 139.255L105.662 135 109.457 139.255 115.903 135" transform="rotate(-17 107.952 137.128)"/>
        <path stroke="#4FC1E3" d="M58 20.255L63.662 16 67.457 20.255 73.903 16" transform="rotate(52 65.952 18.128)"/>
        <path stroke="#FCD834" d="M190 182.255L195.662 178 199.457 182.255 205.903 178" transform="rotate(52 197.952 180.128)"/>
        <path stroke="#FCD834" d="M126 75.255L131.662 71 135.457 75.255 141.903 71" transform="rotate(112 133.952 73.128)"/>
        <path stroke="#19BD66" d="M109 212.255L114.662 208 118.457 212.255 124.903 208" transform="rotate(-27 116.952 210.128)"/>
        <path stroke="#F06072" d="M47 228.255L52.662 224 56.457 228.255 62.903 224" transform="rotate(57 54.952 226.128)"/>
    </g>
</svg>
