<svg xmlns="http://www.w3.org/2000/svg" width="180" height="231" viewBox="0 0 180 231">
    <g fill="none" fill-rule="evenodd" opacity=".6" transform="translate(1)">
        <path fill="#F05660" fill-rule="nonzero" d="M24.502 34.412c0-.325-.263-.589-.588-.589h-1.522c-.552 0-1-.447-1-1v-4.2c0-.404-.328-.732-.732-.732-.405 0-.733.328-.733.732V34c0 .552.448 1 1 1h2.987c.325 0 .588-.263.588-.588z"/>
        <path fill="#FCD834" fill-rule="nonzero" d="M11.17 91.195c.133-.297 0-.645-.297-.777l-1.39-.619c-.505-.225-.732-.816-.507-1.32l1.708-3.837c.164-.37-.002-.803-.371-.967-.37-.165-.803.001-.967.371l-2.187 4.912c-.225.505.002 1.096.506 1.32l2.73 1.215c.296.132.644-.001.776-.298zM47.091 52.183c.576.154 1.123.152 1.642-.005.52-.158.966-.46 1.342-.904.375-.446.654-1.006.835-1.682l.082-.307c.18-.673.217-1.3.112-1.878-.106-.58-.345-1.067-.716-1.461-.371-.394-.843-.668-1.415-.822-.573-.153-1.118-.152-1.637.004-.518.156-.968.459-1.35.907-.381.45-.663 1.012-.844 1.688l-.09.34c-.174.66-.207 1.278-.098 1.851.11.574.35 1.057.724 1.45.373.393.844.666 1.413.819zm.311-1.16c-.484-.13-.803-.423-.957-.879-.154-.456-.138-1.034.05-1.735l.09-.335c.194-.713.47-1.22.827-1.52.357-.3.772-.387 1.247-.26.478.128.796.414.953.857.158.443.14 1.025-.053 1.745l-.09.335c-.194.713-.468 1.221-.823 1.526-.354.304-.769.393-1.244.266zM105.862 150.81c.516-.297.902-.685 1.157-1.164.256-.478.36-1.008.31-1.588-.05-.58-.25-1.174-.6-1.78l-.158-.275c-.348-.603-.765-1.072-1.25-1.407-.484-.335-.997-.51-1.538-.526-.542-.017-1.069.123-1.582.42-.513.296-.898.682-1.154 1.16-.257.476-.361 1.008-.313 1.595.047.587.246 1.184.596 1.79l.176.304c.344.59.758 1.05 1.24 1.378.483.329.996.5 1.538.514.542.014 1.068-.126 1.578-.42zm-.6-1.04c-.435.25-.868.27-1.299.056-.431-.213-.828-.634-1.191-1.263l-.174-.3c-.366-.641-.53-1.195-.49-1.66.04-.464.273-.82.699-1.065.428-.247.855-.27 1.28-.068.425.202.823.626 1.196 1.271l.173.3c.367.642.533 1.196.497 1.662-.035.466-.266.821-.692 1.067z"/>
        <path fill="#4FC1E3" fill-rule="nonzero" d="M64.982 90.178c.575-.154 1.049-.43 1.42-.825.37-.396.607-.881.71-1.454.102-.574.062-1.199-.119-1.875l-.082-.306c-.18-.673-.461-1.234-.843-1.683-.38-.448-.831-.75-1.35-.907-.518-.156-1.064-.157-1.636-.004-.572.154-1.044.428-1.415.822-.371.394-.61.881-.716 1.46-.106.58-.068 1.208.113 1.884l.091.34c.18.659.46 1.21.842 1.652.381.442.832.74 1.352.894.52.153 1.064.154 1.633.002zm-.31-1.16c-.485.13-.908.035-1.27-.282-.36-.318-.635-.827-.823-1.529l-.09-.335c-.188-.714-.203-1.29-.044-1.73.159-.438.476-.72.95-.848.478-.128.896-.04 1.254.266.359.305.634.817.827 1.537l.09.335c.188.715.204 1.293.05 1.733-.155.441-.47.725-.945.852zM120.155 214.788c.51.307 1.037.456 1.58.448.541-.009 1.054-.175 1.538-.5.484-.324.906-.786 1.266-1.386l.164-.272c.359-.598.567-1.19.625-1.775.058-.586-.038-1.12-.286-1.602-.248-.48-.626-.874-1.134-1.18-.507-.304-1.032-.454-1.574-.447-.541.007-1.057.174-1.547.5s-.916.79-1.277 1.39l-.18.3c-.35.588-.551 1.173-.604 1.754-.053.582.045 1.113.296 1.594.25.48.628.873 1.133 1.176zm.618-1.03c-.43-.258-.656-.627-.678-1.108-.023-.48.153-1.032.527-1.654l.178-.297c.384-.632.788-1.043 1.214-1.234.426-.19.85-.159 1.27.095.425.254.652.617.68 1.086.03.47-.147 1.024-.531 1.663l-.179.297c-.383.632-.787 1.045-1.212 1.24-.424.195-.847.166-1.269-.088z"/>
        <path fill="#19BD66" fill-rule="nonzero" d="M85.618 67.903l-1.944-4.813 1.469-.593c.304-.123.45-.469.328-.773-.123-.304-.469-.45-.772-.328l-4.27 1.725c-.303.123-.45.469-.328.773.123.303.469.45.773.327l1.442-.582 1.944 4.812c.152.375.578.557.954.405.375-.152.556-.578.404-.953zM7.618 190.903l-1.944-4.813 1.469-.593c.304-.123.45-.469.328-.773-.123-.304-.469-.45-.772-.328l-4.27 1.725c-.303.123-.45.469-.328.773.123.303.469.45.773.327l1.442-.582 1.944 4.812c.152.375.578.557.954.405.375-.152.556-.578.404-.953z"/>
        <path fill="#FCD834" fill-rule="nonzero" d="M7.504 142.44l1.944-4.812 1.47.593c.303.123.649-.024.772-.327.122-.304-.024-.65-.328-.773l-4.27-1.725c-.303-.122-.65.024-.772.328-.123.304.024.65.328.773l1.442.582-1.944 4.813c-.152.375.03.802.404.953.375.152.802-.03.954-.405z"/>
        <path fill="#8847FF" fill-rule="nonzero" d="M153.577 222.932l-1.86-4.845 1.48-.568c.305-.118.458-.46.34-.767-.117-.306-.46-.458-.766-.341l-4.299 1.65c-.306.118-.458.46-.341.767.117.306.46.458.767.34l1.451-.556 1.86 4.845c.145.378.57.566.947.422.377-.145.566-.57.421-.947zM98.956 115.365l2.822-4.888c.202-.35.082-.799-.268-1-.35-.203-.798-.083-1 .267l-2.823 4.889c-.202.35-.082.798.268 1 .35.202.798.082 1-.268zM77.386 209.956l-1.93-5.304c-.139-.38-.56-.576-.94-.438-.38.139-.575.559-.437.94l1.93 5.303c.139.38.56.576.94.438.38-.138.575-.559.437-.939z"/>
        <path fill="#FCD834" fill-rule="nonzero" d="M108.465 68.377v-5.645c0-.404-.328-.732-.733-.732-.404 0-.732.328-.732.732v5.645c0 .404.328.732.732.732.405 0 .733-.328.733-.732zM177.967 219.348c-.023-.325-.304-.569-.628-.546l-1.756.122c-.525.037-.98-.358-1.016-.883-.037-.525.358-.98.883-1.016l1.283-.09c.317-.022.555-.296.533-.612-.022-.316-.297-.555-.613-.533l-1.388.097c-.467.033-.871-.319-.904-.786-.033-.466.32-.871.786-.904l1.846-.129c.327-.023.573-.306.55-.633-.022-.327-.306-.573-.633-.55l-3.155.22c-.55.039-.966.516-.927 1.067l.356 5.097c.039.551.516.967 1.067.928l3.17-.221c.324-.023.568-.304.546-.628z"/>
        <path fill="#F05660" fill-rule="nonzero" d="M35.417 131.216c.127-.299-.012-.644-.312-.771l-2.036-.865c-.254-.108-.373-.401-.265-.655l.353-.833c.108-.254.402-.373.656-.265l1.6.68c.292.124.629-.013.753-.304.124-.292-.012-.629-.304-.752l-1.6-.68c-.255-.108-.373-.401-.266-.656l.272-.639c.108-.254.401-.372.655-.265l2.023.86c.302.127.65-.013.778-.315s-.012-.65-.314-.778l-3.371-1.431c-.255-.108-.548.01-.656.265l-2.387 5.624c-.108.254.01.547.265.655l3.385 1.437c.299.127.644-.013.771-.312z"/>
        <circle cx="24" cy="67" r="3" fill="#131719" stroke="#F05660" stroke-width="1.2"/>
        <path fill="#131719" stroke="#F05660" stroke-linecap="round" stroke-width="1.2" d="M106 173c-2.21 0-4 1.79-4 4s1.79 4 4 4"/>
        <circle cx="32" cy="98" r="2" fill="#8847FF" transform="matrix(-1 0 0 1 64 0)"/>
        <circle cx="46" cy="215" r="2" fill="#4FC1E3" transform="matrix(-1 0 0 1 92 0)"/>
        <circle cx="36" cy="191" r="2" fill="#8847FF" transform="matrix(-1 0 0 1 72 0)"/>
        <circle cx="169" cy="188" r="2" fill="#F05660" transform="matrix(-1 0 0 1 338 0)"/>
        <circle cx="97" cy="33" r="2" fill="#4FC1E3" transform="matrix(-1 0 0 1 194 0)"/>
        <rect width="6" height="6" x="65" y="112" stroke="#FCD834" stroke-width="1.2" rx="1"/>
        <rect width="6" height="6" x="2" y="8" stroke="#FCD834" stroke-width="1.2" rx="1"/>
        <rect width="6" height="6" y="211" stroke="#FCD834" stroke-width="1.2" rx="1"/>
        <rect width="4" height="4" x="142" y="153" stroke="#8847FF" stroke-width="1.2" rx="1" transform="rotate(-42 144 155)"/>
        <rect width="6" height="6" x="23" y="159" stroke="#4FC1E3" stroke-width="1.2" rx="1" transform="rotate(-38 26 162)"/>
        <rect width="4" height="4" x="82" y="188" fill="#FCD834" rx="1" transform="rotate(-32 84 190)"/>
        <rect width="4" height="4" x="4" y="43" fill="#19BD66" rx="1" transform="rotate(-32 6 45)"/>
        <rect width="4" height="4" x="132" y="124" fill="#4FC1E3" rx="1" transform="rotate(1 134 126)"/>
        <path stroke="#8847FF" stroke-linecap="round" stroke-width="1.2" d="M64.518 141.39l-.385.834c-.41.884-.024 1.934.861 2.343.141.065.29.111.442.137.717.123 1.198.804 1.075 1.52-.04.232-.14.449-.293.628-.47.555-.4 1.386.154 1.855.18.152.396.253.628.293.716.123 1.198.804 1.074 1.52-.04.232-.14.448-.292.628-.47.555-.401 1.385.154 1.855.18.152.396.253.628.293.96.165 1.606 1.077 1.44 2.038-.026.153-.072.302-.137.442l-.385.834h0"/>
        <path stroke="#FCD834" stroke-linecap="round" stroke-width="1.2" d="M27.628 222.88l.377.838c.4.89 1.444 1.287 2.333.887.142-.063.274-.145.394-.243.563-.46 1.392-.377 1.852.186.15.182.246.4.282.633.11.718.783 1.211 1.501 1.1.233-.035.451-.132.633-.281.563-.46 1.392-.377 1.852.186.149.182.246.4.282.633.11.719.782 1.212 1.501 1.101.232-.036.45-.133.633-.282.755-.617 1.867-.505 2.484.25.098.12.18.253.243.394l.377.838h0"/>
        <path stroke="#F05660" stroke-linecap="round" stroke-width="1.2" d="M105.207 90.765l.24.887c.256.94 1.226 1.496 2.167 1.241.15-.04.293-.1.427-.179.628-.366 1.434-.154 1.8.474.119.203.18.434.18.67-.004.726.583 1.318 1.31 1.321.235.001.466-.06.669-.179.628-.366 1.434-.154 1.8.474.119.203.18.434.18.669-.004.727.583 1.319 1.31 1.322.235.001.466-.06.669-.18.842-.49 1.923-.206 2.414.636.078.134.138.278.18.427l.24.887h0"/>
        <path stroke="#4FC1E3" stroke-linecap="round" stroke-width="1.2" d="M4.308 115.214l.82.415c.87.44 1.932.09 2.371-.78.07-.138.122-.285.153-.436.148-.712.845-1.17 1.557-1.021.23.048.443.156.617.314.538.49 1.37.45 1.86-.089.158-.174.266-.387.314-.617.148-.712.845-1.169 1.557-1.02.23.047.443.156.617.314.538.489 1.37.449 1.86-.09.157-.173.266-.387.314-.617.198-.954 1.133-1.567 2.087-1.369.152.032.3.083.437.153l.82.415h0"/>
        <path stroke="#F05660" stroke-linecap="round" stroke-width="1.2" d="M82.047 34.245l-.1-.913c-.104-.97-.975-1.67-1.945-1.565-.154.017-.305.054-.45.11-.677.263-1.44-.072-1.703-.75-.085-.219-.11-.457-.073-.689.117-.717-.37-1.393-1.087-1.51-.232-.038-.47-.013-.689.072-.678.264-1.44-.072-1.704-.75-.085-.219-.11-.456-.072-.688.117-.718-.37-1.394-1.088-1.511-.232-.038-.47-.013-.689.072-.908.354-1.931-.097-2.285-1.005-.056-.145-.093-.296-.11-.45l-.099-.913h0"/>
        <path stroke="#4FC1E3" stroke-linecap="round" stroke-width="1.2" d="M54.275 186.46l.526-.445c.559-.472.629-1.307.157-1.866-.075-.089-.161-.167-.257-.233-.448-.311-.56-.926-.248-1.374.1-.145.238-.26.398-.334.495-.228.711-.815.483-1.31-.074-.16-.19-.298-.334-.398-.448-.31-.56-.926-.249-1.374.1-.145.238-.26.398-.334.496-.228.712-.814.484-1.31-.074-.16-.19-.297-.334-.398-.601-.416-.75-1.241-.334-1.842.067-.096.145-.182.234-.257l.526-.444h0"/>
        <path stroke="#FCD834" stroke-width="1.2" d="M145.894 181.789l2.382 4.764c.247.494.047 1.094-.447 1.341-.139.07-.292.106-.447.106h-4.764c-.552 0-1-.448-1-1 0-.155.036-.308.106-.447l2.382-4.764c.247-.494.847-.694 1.341-.447.194.096.35.253.447.447z"/>
        <path stroke="#4FC1E3" stroke-width="1.2" d="M38.876 3.618l4.172 3.31c.433.344.505.973.162 1.406-.097.121-.22.219-.36.285l-4.318 2.013c-.5.233-1.096.017-1.33-.484-.065-.14-.097-.295-.093-.45l.146-5.324c.015-.552.475-.987 1.027-.972.216.006.425.082.594.216z"/>
        <path fill="#F05660" d="M93.596 223.55l3.03.612c.54.11.89.637.781 1.179-.03.152-.097.295-.192.417l-1.702 2.178c-.34.435-.968.512-1.403.172-.123-.095-.221-.218-.288-.358l-1.327-2.79c-.237-.5-.025-1.096.474-1.333.195-.093.415-.12.627-.077z"/>
        <path fill="#8847FF" d="M53.596 23.55l3.03.612c.54.11.89.637.781 1.179-.03.152-.097.295-.192.417l-1.702 2.178c-.34.435-.968.512-1.403.172-.123-.095-.221-.218-.288-.358l-1.327-2.79c-.237-.5-.025-1.096.474-1.333.195-.093.415-.12.627-.077z"/>
    </g>
</svg>
