<?xml version="1.0" encoding="UTF-8"?>
<svg width="24px" height="18px" viewBox="0 0 24 18" version="1.1" xmlns="http://www.w3.org/2000/svg" xmlns:xlink="http://www.w3.org/1999/xlink">
    <title>18+</title>
    <defs>
        <linearGradient x1="0%" y1="19.2426022%" x2="100%" y2="80.7573978%" id="linearGradient-1">
            <stop stop-color="#F48836" offset="0%"></stop>
            <stop stop-color="#F4364C" offset="100%"></stop>
        </linearGradient>
    </defs>
    <g id="Page-1" stroke="none" stroke-width="1" fill="none" fill-rule="evenodd">
        <g id="Main-Page-(Dark)-Laptop" transform="translate(-1143.000000, -1941.000000)" fill="url(#linearGradient-1)" fill-rule="nonzero">
            <g id="Footer" transform="translate(-2.000000, 1873.000000)">
                <g id="18+" transform="translate(1145.000000, 68.000000)">
                    <path d="M13.8458273,4.98192191 C16.583477,4.98192191 18.3079519,6.279639 18.3079519,8.32398784 C18.3079519,9.40838158 17.7213127,10.3683367 16.7435806,10.9017562 C18.1122944,11.4705074 18.9656989,12.6616739 18.9656989,14.0482757 C18.9656989,16.288171 16.9745698,17.7104378 13.8636042,17.7104378 C10.7525275,17.7104378 8.76150947,16.3059479 8.76150947,14.1017177 C8.76150947,12.6794508 9.68591069,11.4705074 11.1258433,10.9017562 C10.0770035,10.3150058 9.40147954,9.31960795 9.40147954,8.23521422 C9.40147954,6.243974 11.1437314,4.98192191 13.8458273,4.98192191 Z M6.41528585,5.10636053 L6.41528585,17.5684444 L3.25087828,17.5684444 L3.25087828,7.64846388 L0.957652186,7.64846388 L0.957652186,5.10636053 L6.41528585,5.10636053 Z M13.8636042,12.1639194 C12.4946682,12.1639194 11.7480365,12.7506697 11.7480365,13.7817326 C11.7480365,14.8306836 12.4947793,15.4173228 13.8636042,15.4173228 C15.2324291,15.4173228 15.9968378,14.8485716 15.9968378,13.7817326 C15.9968378,12.7507808 15.2324291,12.1639194 13.8636042,12.1639194 Z M13.8636042,7.06193575 C12.7079916,7.06193575 12.0681326,7.5775783 12.0681326,8.50175731 C12.0681326,9.39082684 12.7081027,9.88835913 13.8636042,9.88835913 C15.0191057,9.88835913 15.6590758,9.39071574 15.6590758,8.50175731 C15.6590758,7.5775783 15.0191057,7.06193575 13.8636042,7.06193575 Z M21.4971578,0 L21.4971578,2.03695631 L23.5384615,2.03695631 L23.5384615,3.50156983 L21.4971578,3.50156983 L21.4971578,5.53846154 L20.0291959,5.53846154 L20.0291959,3.50156983 L18,3.50156983 L18,2.03695631 L20.0291959,2.03695631 L20.0291959,0 L21.4971578,0 Z" id="Combined-Shape"></path>
                </g>
            </g>
        </g>
    </g>
</svg>