<svg xmlns="http://www.w3.org/2000/svg" width="17" height="17" viewBox="0 0 17 17">
    <path fill="#717A80" d="M.253 6.428C1.383 1.91 5.97-.878 10.523.25c4.552 1.165 7.304 5.753 6.175 10.27-1.13 4.553-5.717 7.306-10.27 6.177C1.877 15.568-.875 10.98.254 6.428zm7.87-3.46l-.389 1.518c-.211-.035-.423-.106-.6-.14l-1.27-.318-.247.988.67.176c.354.07.424.318.424.53L5.688 9.886c-.036.106-.177.283-.424.212l-.67-.176-.459 1.058 1.2.318c.247.07.459.106.67.176l-.388 1.553.918.247.388-1.517c.247.035.494.106.74.176l-.387 1.518.917.282.388-1.553c1.588.283 2.788.177 3.282-1.27.424-1.165 0-1.836-.847-2.259.636-.141 1.094-.565 1.2-1.376.177-1.13-.706-1.73-1.94-2.118l.387-1.518-.917-.247-.353 1.483c-.247-.071-.494-.106-.741-.177l.388-1.482-.917-.247zm-.457 5.508c1.941.184 2.816.748 2.626 1.69-.19.941-1.22 1.028-3.09.26zm.662-3.027c.529.16 2.186.441 1.939 1.686-.247 1.205-1.868.603-2.397.442z"/>
</svg>
