<?xml version="1.0" encoding="UTF-8"?>
<svg width="14px" height="14px" viewBox="0 0 14 14" version="1.1" xmlns="http://www.w3.org/2000/svg" xmlns:xlink="http://www.w3.org/1999/xlink">
    <title>Instagram</title>
    <g id="Page-1" stroke="none" stroke-width="1" fill="none" fill-rule="evenodd">
        <g id="Unboxings-History-(Dark)" transform="translate(-28.000000, -1293.000000)" fill="#8D9093" fill-rule="nonzero">
            <g id="Footer" transform="translate(-0.000000, 1198.000000)">
                <g id="Instagram" transform="translate(28.500000, 95.392089)">
                    <path d="M11.5555556,0 C12.35,0 13,0.65 13,1.44444444 L13,1.44444444 L13,11.5555556 C13,12.3507222 12.35,13 11.5555556,13 L11.5555556,13 L1.44444444,13 C0.65,13 0,12.3507222 0,11.5555556 L0,11.5555556 L0,1.44444444 C0,0.65 0.65,0 1.44444444,0 L1.44444444,0 Z M7.34661579,0.997978367 L5.65298795,0.997978367 C4.89750365,1.00080151 4.68240511,1.00929698 4.23087916,1.02991209 C3.77436288,1.03907373 3.32270375,1.12556656 2.89510126,1.28571386 C2.15589076,1.57153548 1.57153042,2.15589981 1.28571386,2.89511227 C1.12556656,3.32271476 1.03907373,3.77437389 1.02991209,4.23089016 C1.00757905,4.72003411 0.99946976,4.93171186 0.997387024,5.85356666 L0.997978502,7.34661593 C1.00080209,8.10210023 1.00929952,8.31719877 1.02992309,8.76872472 C1.03908474,9.225241 1.12557757,9.67690013 1.28572487,10.1045026 C1.57154401,10.8437109 2.15590398,11.4280709 2.89511227,11.71389 C3.32271476,11.8740373 3.77437389,11.9605301 4.23089016,11.9696918 C4.7526437,11.9935137 4.95870237,12.0011521 6.04769929,12.0025555 L7.15828667,12.0021886 C8.0697794,12.0000608 8.28174562,11.9919199 8.76872472,11.9696588 C9.225241,11.9604971 9.67690013,11.8740043 10.1045026,11.713857 C10.8437109,11.4280379 11.4280709,10.8436779 11.71389,10.1044696 C11.8740373,9.67686711 11.9605301,9.22520798 11.9696918,8.76871372 C11.9935137,8.24696018 12.0011521,8.04090151 12.0025555,6.95190459 L12.0021887,5.84131721 C12.0000614,4.92982448 11.9919237,4.71785826 11.9696808,4.23087916 C11.9605191,3.77436288 11.8740263,3.32270375 11.713879,2.89510126 C11.4280599,2.15589298 10.8436999,1.571533 10.1044916,1.28571386 C9.67688912,1.12556656 9.22522999,1.03907373 8.76871372,1.02991209 C8.27956977,1.00757905 8.06789202,0.99946976 7.14603722,0.997387024 Z M7.32732384,2.09097471 C8.03858939,2.09357707 8.24014516,2.10142228 8.67348404,2.12119534 C9.01458085,2.12523398 9.35244355,2.18789294 9.67230519,2.30643357 C10.1414152,2.48741152 10.5122031,2.85819939 10.6931811,3.32730945 C10.8117205,3.64716769 10.8743794,3.98502665 10.8784193,4.32611984 C10.8999809,4.79885316 10.9073549,4.99573796 10.909214,5.87945234 L10.909214,5.87945234 L10.9086224,7.32732967 C10.906008,8.03859955 10.898143,8.24015338 10.8784193,8.67348404 C10.8743883,9.0145816 10.8117291,9.3524456 10.6931811,9.67230519 C10.5122031,10.1414152 10.1414152,10.5122031 9.67230519,10.6931811 C9.35244355,10.8117217 9.01458085,10.8743807 8.67348404,10.8784193 C8.20086727,10.899972 8.00394959,10.9073519 7.12018367,10.9092132 L7.12018367,10.9092132 L5.67223104,10.9086224 C4.9609201,10.906008 4.75935188,10.898143 4.32611984,10.8784193 C3.98502303,10.8743807 3.64716033,10.8117217 3.32729869,10.6931811 C2.85818863,10.5122031 2.48740076,10.1414152 2.30642281,9.67230519 C2.18787474,9.3524456 2.12521554,9.0145816 2.12118458,8.67348404 C2.09963191,8.20075072 2.09225194,8.00379868 2.09039063,7.12011792 L2.09097457,5.67231561 C2.09357647,4.96106471 2.10141974,4.75945872 2.12118458,4.32611984 C2.12522323,3.98502303 2.18788218,3.64716033 2.30642281,3.32729869 C2.48740076,2.85818863 2.85818863,2.48740076 3.32729869,2.30642281 C3.64716033,2.18788218 3.98502303,2.12522323 4.32611984,2.12118458 C4.79885316,2.09962294 4.99574543,2.09224895 5.87945608,2.09038989 Z M6.49980194,3.73750595 C4.97422799,3.73750595 3.73750595,4.97422799 3.73750595,6.49980194 C3.73750595,8.02537589 4.97422799,9.26209793 6.49980194,9.26209793 C7.23240926,9.26209793 7.93501171,8.97107492 8.45304332,8.45304332 C8.97107492,7.93501171 9.26209793,7.23240926 9.26209793,6.49980194 C9.26209793,4.97422799 8.02537589,3.73750595 6.49980194,3.73750595 Z M6.50002389,4.93342522 C7.36523245,4.93342522 8.06662256,5.63481534 8.06662256,6.50002389 C8.06662256,7.36523245 7.36523245,8.06662256 6.50002389,8.06662256 C5.63481534,8.06662256 4.93342522,7.36523245 4.93342522,6.50002389 C4.93342522,5.63481534 5.63481534,4.93342522 6.50002389,4.93342522 Z M9.37122044,2.98287909 C9.01471824,2.98287909 8.7257161,3.27188123 8.7257161,3.62838344 C8.7257161,3.98488564 9.01471824,4.27388778 9.37122044,4.27388778 C9.72772265,4.27388778 10.0167248,3.98488564 10.0167248,3.62838344 C10.0167248,3.27188123 9.72772265,2.98287909 9.37122044,2.98287909 Z" id="Combined-Shape"></path>
                </g>
            </g>
        </g>
    </g>
</svg>