<?xml version="1.0" encoding="UTF-8"?>
<svg width="13px" height="13px" viewBox="0 0 13 13" version="1.1" xmlns="http://www.w3.org/2000/svg" xmlns:xlink="http://www.w3.org/1999/xlink">
    <title>Instagram</title>
    <g id="Page-1" stroke="none" stroke-width="1" fill="none" fill-rule="evenodd">
        <g id="Main-Page-(Dark)-Laptop-Copy-2" transform="translate(-27.000000, -1941.000000)" fill-rule="nonzero">
            <g id="Footer" transform="translate(-2.000000, 1835.000000)">
                <g id="Instagram" transform="translate(29.000000, 106.000000)">
                    <path d="M11.5555556,0 L1.44444444,0 C0.65,0 0,0.65 0,1.44444444 L0,11.5555556 C0,12.3507222 0.65,13 1.44444444,13 L6.5,13 L8.66666667,13 L11.5555556,13 C12.35,13 13,12.3507222 13,11.5555556 L13,1.44444444 C13,0.65 12.35,0 11.5555556,0 Z" id="Combined-Shape-Copy" fill="#8D9093"></path>
                    <path d="M8.58291667,1.5 C10.19125,1.5 11.5,2.80833333 11.5,4.41625 L11.5,4.41625 L11.5,8.58291667 C11.5,10.19125 10.1916667,11.5 8.58375,11.5 L8.58375,11.5 L4.41708333,11.5 C2.80875,11.5 1.5,10.1916667 1.5,8.58375 L1.5,8.58375 L1.5,4.41708333 C1.5,2.80875 2.80833333,1.5 4.41625,1.5 L4.41625,1.5 Z M6.5,4 C5.12125,4 4,5.12125 4,6.5 C4,7.87875 5.12125,9 6.5,9 C7.87875,9 9,7.87875 9,6.5 C9,5.12125 7.87875,4 6.5,4 Z M6.5,4.83333333 C7.42047458,4.83333333 8.16666667,5.57952542 8.16666667,6.5 C8.16666667,7.42047458 7.42047458,8.16666667 6.5,8.16666667 C5.57952542,8.16666667 4.83333333,7.42047458 4.83333333,6.5 C4.83333333,5.57952542 5.57952542,4.83333333 6.5,4.83333333 Z M9.41666667,3.16666667 C9.18666667,3.16666667 9,3.35333333 9,3.58333333 C9,3.81333333 9.18666667,4 9.41666667,4 C9.64666667,4 9.83333333,3.81333333 9.83333333,3.58333333 C9.83333333,3.35333333 9.64666667,3.16666667 9.41666667,3.16666667 Z" id="Combined-Shape" fill="#101315"></path>
                </g>
            </g>
        </g>
    </g>
</svg>