<svg xmlns="http://www.w3.org/2000/svg" width="24" height="17" viewBox="0 0 24 17">
    <g fill="none">
        <path fill="#76797B" d="M4.14 16.869v-1.111c0-.426-.265-.704-.719-.704-.227 0-.472.074-.642.315-.133-.204-.322-.315-.605-.315-.19 0-.378.055-.53.26v-.223h-.396v1.778h.396v-.982c0-.315.17-.463.435-.463s.397.167.397.463v.982h.397v-.982c0-.315.19-.463.435-.463.264 0 .397.167.397.463v.982h.434zm5.878-1.778h-.643v-.537h-.397v.537H8.62v.352h.36v.815c0 .407.17.648.623.648.17 0 .36-.056.492-.13l-.114-.333c-.113.074-.246.092-.34.092-.19 0-.265-.11-.265-.296v-.796h.643v-.352zm3.364-.037c-.226 0-.378.111-.472.26v-.223h-.397v1.778h.397v-1c0-.297.132-.463.378-.463.076 0 .17.018.246.037l.113-.37c-.076-.02-.189-.02-.265-.02zm-5.084.185c-.19-.13-.454-.185-.737-.185-.454 0-.756.222-.756.574 0 .296.226.463.623.518l.19.019c.207.037.32.093.32.185 0 .13-.15.222-.415.222s-.473-.092-.605-.185l-.189.296c.208.149.491.223.775.223.53 0 .832-.241.832-.574 0-.315-.246-.482-.624-.537l-.19-.019c-.17-.018-.302-.055-.302-.167 0-.13.133-.203.34-.203.228 0 .454.092.568.148l.17-.315zm10.547-.185c-.227 0-.378.111-.473.26v-.223h-.396v1.778h.396v-1c0-.297.133-.463.379-.463.075 0 .17.018.245.037l.114-.37c-.076-.02-.19-.02-.265-.02zm-5.066.926c0 .537.378.926.964.926.265 0 .454-.056.643-.204l-.189-.315c-.151.111-.302.167-.473.167-.32 0-.548-.222-.548-.574 0-.334.227-.556.548-.574.17 0 .322.055.473.166l.189-.314c-.189-.149-.378-.204-.643-.204-.586 0-.964.389-.964.926zm3.667 0v-.889h-.397v.222c-.132-.166-.321-.26-.567-.26-.51 0-.907.39-.907.927s.397.926.907.926c.265 0 .454-.093.567-.26v.223h.397v-.89zm-1.455 0c0-.315.208-.574.548-.574.321 0 .548.24.548.574 0 .315-.227.574-.548.574-.34-.019-.548-.26-.548-.574zm-4.744-.926c-.53 0-.908.37-.908.926 0 .555.378.926.926.926.265 0 .53-.074.738-.241l-.19-.278c-.15.111-.34.185-.529.185-.245 0-.491-.11-.548-.426h1.342v-.148c.02-.574-.321-.944-.831-.944zm0 .333c.245 0 .415.148.453.426h-.945c.038-.24.208-.426.492-.426zm9.847.593v-1.593h-.397v.926c-.132-.166-.32-.26-.567-.26-.51 0-.907.39-.907.927s.397.926.907.926c.265 0 .454-.093.567-.26v.223h.397v-.89zm-1.455 0c0-.315.208-.574.548-.574.321 0 .548.24.548.574 0 .315-.227.574-.548.574-.34-.019-.548-.26-.548-.574zm-13.27 0v-.889h-.396v.222c-.132-.166-.321-.26-.567-.26-.51 0-.907.39-.907.927s.397.926.907.926c.265 0 .454-.093.567-.26v.223h.397v-.89zm-1.473 0c0-.315.207-.574.548-.574.321 0 .548.24.548.574 0 .315-.227.574-.548.574-.34-.019-.548-.26-.548-.574z" transform="translate(.402)"/>
        <path fill="#8F9CA4" d="M8.166 1.592H14.120000000000001V12.072000000000001H8.166z" transform="translate(.402)"/>
        <path fill="#717A80" d="M8.544 6.833c0-2.13 1.02-4.018 2.59-5.24C9.98.702 8.523.166 6.936.166 3.175.167.132 3.147.132 6.833c0 3.684 3.043 6.666 6.805 6.666 1.588 0 3.043-.537 4.196-1.426-1.569-1.204-2.59-3.111-2.59-5.24zM22.153 6.833c0 3.684-3.043 6.666-6.805 6.666-1.588 0-3.043-.537-4.196-1.426 1.588-1.222 2.59-3.111 2.59-5.24 0-2.13-1.021-4.018-2.59-5.24C12.305.702 13.76.166 15.348.166c3.762 0 6.805 3 6.805 6.666z" transform="translate(.402)"/>
    </g>
</svg>
