<svg xmlns="http://www.w3.org/2000/svg" width="51" height="17" viewBox="0 0 51 17">
    <g fill="none" fill-rule="evenodd">
        <path fill="#8D9093" fill-rule="nonzero" d="M41.978 6.284c.032-.3.073-.582.091-.863.03-.431-.023-.854-.126-1.274-.117-.472-.34-.89-.673-1.243-.41-.431-.916-.692-1.513-.782-.518-.078-1.025-.04-1.522.11-.636.191-1.162.548-1.599 1.043-.723.825-1.185 1.778-1.437 2.839-.082.347-.126.698-.149 1.054-.018.272-.023.539.003.808.061.629.28 1.188.688 1.677.471.568 1.092.794 1.812.817.661.02 1.238-.223 1.782-.562.41-.252.779-.559 1.127-.883.626-.585 1.203-1.22 1.774-1.857.26-.293.527-.577.79-.869.433-.478.872-.947 1.294-1.434.536-.617 1.182-1.06 1.958-1.318.293-.095.594-.133.905-.15.41-.026.81.011 1.203.133.843.26 1.42.817 1.765 1.607.213.49.31 1.008.333 1.539.009.202.035.408.03.61-.024.98-.203 1.927-.67 2.805-.384.715-.873 1.34-1.535 1.827-.53.391-1.115.638-1.773.719-.498.06-.984.037-1.467-.087-.465-.122-.878-.345-1.223-.68-.085-.082-.167-.166-.278-.273l-.937 4.432h-2.418c.056-.264.109-.522.161-.78.155-.747.313-1.497.469-2.244.026-.125.073-.232.163-.328.513-.547 1.016-1.103 1.52-1.657L44 9.398c.023.055.044.099.061.145.15.397.357.75.706 1.011.506.38 1.053.411 1.624.168.5-.211.846-.59 1.095-1.06.334-.626.539-1.292.635-1.99.062-.44.053-.88-.067-1.315-.082-.296-.422-.568-.732-.591-.369-.029-.694.093-1.007.27-.383.22-.723.498-1.045.793-.556.516-1.042 1.095-1.504 1.692-.492.634-.98 1.268-1.493 1.885-.372.45-.761.884-1.212 1.263-.284.238-.594.423-.942.55-.597.218-1.21.377-1.844.409-.34.017-.68.043-1.019.029-1.15-.05-2.192-.388-3.08-1.153-.699-.602-1.138-1.35-1.39-2.222-.175-.605-.266-1.225-.24-1.856.03-.626.117-1.246.273-1.854.166-.66.383-1.306.69-1.915.384-.756.867-1.442 1.505-2.01C35.864.888 36.84.375 37.968.15c.346-.07.697-.099 1.048-.13.384-.038.761-.015 1.139.022.998.099 1.902.432 2.68 1.078.768.637 1.26 1.44 1.529 2.387.023.087.011.147-.05.214-.395.429-.79.86-1.183 1.292-.339.374-.676.747-1.015 1.118-.032.058-.08.098-.138.153z"/>
        <path fill="#76797B" d="M22.829 14.086l-1.06 1.94L0 17l.409-1.944 22.42-.97zm6.9-10.686c.712.006 1.428.003 2.14.003.058 0 .116.006.188.009-.026.058-.04.102-.064.14l-2.892 5.203c-.866 1.558-4.32 7.274-4.32 7.274h-2.438l2.073-3.75-.009-.052c-.04-.235-.203-1.205-.292-1.723l-.417-2.426c-.125-.73-.252-1.459-.376-2.188-.137-.794-.276-1.59-.412-2.385-.003-.023.003-.05.006-.087h2.36c.153 1.133.31 2.27.46 3.404.15 1.13.316 2.258.391 3.421.03-.044.052-.067.061-.094.39-1.119.915-2.173 1.474-3.213.6-1.122 1.199-2.244 1.792-3.369.067-.12.136-.167.275-.167zM6.88 0l1.685.005c.586.003 1.168.024 1.748.146 1.245.263 2.085 1.137 2.267 2.395.14.964-.024 1.88-.433 2.76-.305.653-.729 1.208-1.317 1.634-.496.358-1.055.555-1.647.68-.513.108-1.033.17-1.56.173-.555.004-1.11.01-1.666.017-.37.005-.741.01-1.111.013h-.27c-.191.88-.377 1.758-.563 2.637-.152.722-.305 1.445-.461 2.169H1l-.014-.01-.007-.005-.004-.01v-.006l-.002-.005-.001-.021v-.039l.639-3.04C2.274 6.337 2.937 3.18 3.6.002h.918L5.193 0C6.318 0 7.442-.001 8.563.005zm10.8 3.4c.472.003.938.043 1.393.17.661.184 1.199.54 1.548 1.147.22.38.286.794.26 1.23-.033.593-.158 1.167-.283 1.742-.047.218-.095.435-.137.654-.059.3-.12.6-.182.901-.077.373-.153.746-.224 1.12-.12.633-.095 1.266.071 1.887.007.024.012.049.018.073l.014.06c-.14.042-1.977.054-2.272.016-.084-.218-.116-.45-.15-.7-.012-.088-.024-.179-.039-.272l-.1.1-.069.067c-.489.49-1.07.814-1.745.958-.658.138-1.302.103-1.9-.236-.672-.38-1.075-.958-1.204-1.722-.08-.472-.066-.94.063-1.404.229-.84.77-1.394 1.58-1.69.443-.161.9-.262 1.367-.314.2-.022.401-.042.602-.063.409-.043.816-.085 1.223-.135.172-.022.342-.058.511-.093.099-.021.197-.042.296-.06.1-.02.157-.072.18-.175.057-.23.109-.457.103-.696-.006-.302-.146-.532-.398-.678-.143-.084-.311-.144-.475-.17-.308-.046-.623-.04-.932.046-.404.115-.687.362-.85.75l-.063.146c-.004.01-.01.021-.014.033l-.227-.02c-.675-.056-1.356-.114-2.05-.176.12-.385.289-.713.512-1.015.535-.719 1.253-1.15 2.117-1.349.48-.109.967-.135 1.456-.132zm.46 4.923c-.085.013-.164.027-.239.04-.103.017-.2.033-.295.046l-.063.009c-.488.069-.976.138-1.454.267-.283.078-.563.167-.806.34-.398.281-.475.652-.395 1.052.08.403.36.638.755.736.22.055.438.046.658 0 .718-.147 1.265-.517 1.516-1.234.08-.23.142-.468.203-.705.024-.092.047-.184.072-.275.013-.05.021-.104.03-.167l.019-.11zM7.195 2.075l-.659.001-.564.002c-.041 0-.084.002-.128.005l-.084.004-.481 2.282-.29 1.372h.263l.551-.009c.368-.004.735-.009 1.104-.027.4-.02.8-.06 1.198-.12.986-.145 1.813-.9 1.927-2.004.08-.784-.326-1.357-1.1-1.431-.358-.036-.72-.063-1.078-.069-.44-.008-.878-.006-1.318-.005z"/>
    </g>
</svg>
