<svg xmlns="http://www.w3.org/2000/svg" width="15" height="17" viewBox="0 0 15 17">
    <g fill="none">
        <path fill="#717A80" d="M12.908 4.38c.03-.234.044-.471.044-.712C12.952 1.642 11.297 0 9.254 0h-6.18c-.389 0-.721.278-.785.659L.01 14.083c-.081.482.293.92.785.92h2.26c.39 0 .728-.278.792-.658l.01-.062-.314 1.857c-.072.424.258.811.692.811h1.977c.343 0 .636-.245.692-.58l.562-3.312c.097-.57.595-.989 1.179-.989h.52c2.821 0 5.109-2.268 5.109-5.067 0-1.083-.54-2.04-1.367-2.624z"/>
        <path fill="#717A80" d="M12.913 4.46c-.353 2.836-2.797 5.03-5.76 5.03H5.434c-.388 0-.723.256-.828.617L3.58 16.145c-.072.422.257.806.69.806h1.97c.342 0 .634-.244.69-.577l.56-3.29c.097-.567.593-.982 1.175-.982h.518c2.813 0 5.093-2.254 5.093-5.035 0-1.075-.538-2.027-1.362-2.606z"/>
        <path fill="#8F9CA4" d="M5.261 10h1.662c2.864 0 5.227-2.511 5.567-5.755-.51-.425-1.135-.676-1.81-.676H6.342c-.493 0-.915.417-.997.987l-.884 6.15c.101-.413.425-.706.8-.706z"/>
    </g>
</svg>
