<svg xmlns="http://www.w3.org/2000/svg" width="17" height="17" viewBox="0 0 17 17">
    <path fill="#717A80" d="M16.951 8.476c0 4.682-3.8 8.475-8.49 8.475-3.888 0-7.162-2.608-8.167-6.165l3.253 1.343c.22 1.097 1.193 1.927 2.355 1.927 1.34 0 2.457-1.107 2.4-2.511l2.887-2.058c1.78.045 3.274-1.398 3.274-3.195 0-1.764-1.435-3.196-3.202-3.196S8.059 4.532 8.059 6.292v.04l-2.024 2.93c-.53-.031-1.049.116-1.486.413L0 7.795C.349 3.431 4.002 0 8.462 0c4.689 0 8.49 3.793 8.49 8.476zM5.321 12.86l-1.042-.43c.191.397.522.711.93.881.919.383 1.975-.054 2.357-.97.185-.444.188-.933.004-1.377-.185-.445-.53-.793-.974-.978-.441-.184-.913-.178-1.33-.02l1.077.444c.677.28.998 1.056.714 1.733-.283.68-1.06.998-1.736.717zm5.94-4.44c-1.176 0-2.133-.956-2.133-2.128 0-1.173.957-2.13 2.133-2.13 1.175 0 2.132.957 2.132 2.13 0 1.172-.953 2.129-2.132 2.129zm.003-.532c.885 0 1.603-.718 1.603-1.6 0-.885-.718-1.6-1.603-1.6s-1.603.719-1.603 1.6c.004.882.722 1.6 1.603 1.6z"/>
</svg>
