<svg xmlns="http://www.w3.org/2000/svg" width="13" height="14" viewBox="0 0 13 14">
    <path fill="#8D9093" d="M11.556.062C12.35.062 13 .712 13 1.507v10.11c0 .796-.65 1.445-1.444 1.445H1.444C.65 13.062 0 12.412 0 11.618V1.507C0 .712.65.062 1.444.062zM8.088 3.21c-.468 0-.867.165-1.197.496-.33.33-.496.73-.496 1.197 0 .156.014.284.04.387-.693-.038-1.343-.213-1.95-.524-.607-.312-1.123-.728-1.548-1.25-.156.269-.234.554-.234.855 0 .612.245 1.082.734 1.41-.253-.005-.521-.075-.806-.21v.017c0 .403.134.762.403 1.076.269.314.6.51.991.584-.155.043-.292.065-.41.065-.07 0-.175-.011-.315-.032.113.338.313.618.6.838.288.22.614.333.98.338-.624.484-1.325.726-2.104.726-.14 0-.274-.008-.403-.024.795.505 1.66.757 2.596.757.601 0 1.166-.095 1.692-.286.527-.19.978-.446 1.354-.766.377-.32.7-.687.972-1.104.271-.416.473-.852.604-1.306.132-.454.198-.906.198-1.358 0-.097-.003-.17-.008-.217.338-.242.62-.535.846-.88-.3.135-.626.227-.975.275.365-.215.615-.53.75-.943-.35.204-.71.341-1.08.411-.329-.355-.74-.532-1.234-.532z"/>
</svg>
