<svg xmlns="http://www.w3.org/2000/svg" width="53" height="17" viewBox="0 0 53 17">
    <path fill="#76797B" d="M7.43 1.733c.88 0 1.598.241 1.838 1.205l1.126 5.342c.286.499.513 1.001.668 1.494l.294 1.757 4.782-9.798h3.49l-4.285 9.518.187.179-2.068 4.731H8.993l-.045-.154h-.026l-.549-1.948-3.06-10.373C4.077 2.97 2.67 2.393 1.108 1.99l-.39-.096L0 1.734zm19.335 0l-2.698 14.275h-.415l.159.153h-4.22l.662-3.47.017.018 2.143-10.976h4.352zm6.95-.892c1.633 0 2.94.32 3.756.639l-.653 3.113-.408-.16c-.735-.319-1.715-.558-3.103-.558-1.632 0-2.367.638-2.367 1.277 0 .718.898 1.117 2.367 1.836 2.45 1.037 3.51 2.315 3.51 3.991 0 1.156-.414 2.16-1.167 2.962l.097.09c-1.11 1.128-2.946 1.814-5.215 1.947-.292.02-.591.03-.898.03-1.878 0-3.674-.4-4.653-.798l.052.02-.044-.016-.008-.004.571-3.273.571.24c1.388.558 2.286.798 3.919.798 1.143 0 2.449-.48 2.449-1.437 0-.639-.49-1.118-2.123-1.836-1.632-.719-3.673-1.836-3.673-3.991 0-2.874 2.939-4.87 7.02-4.87zm14.736.892l1.934 8.381.143.132 1.407 5.756h-.191l.001.006h-3.764l-.002-.006h-.016l-.497-2.365h-4.979l-.78 2.37H37.47l.001-.005h-.019l.044-.056 5.856-13.182c.37-.895 1.016-1.018 1.876-1.03h3.223zm-2.849 4.138c-.214.533-.445 1.176-.445 1.176s-1.333 3.489-1.569 4.203v.02h3.216c-.16-.76-.937-4.095-.99-4.324l-.003-.012z"/>
</svg>
