<svg xmlns="http://www.w3.org/2000/svg" width="294" height="29" viewBox="0 0 294 29">
    <path fill="#1ABE66" fill-rule="evenodd" d="M253.522.75c.518 0 1.012.215 1.365.593l6.792 7.277V4.38a1.867 1.867 0 0 1 2.91-1.549l15.568 10.491a1.867 1.867 0 0 1 0 3.096L264.589 26.91a1.867 1.867 0 0 1-2.91-1.548V20.88l-6.792 7.278a1.867 1.867 0 0 1-1.365.593H42.307c-.496 0-.97-.197-1.32-.547l-8.667-8.666v5.824a1.867 1.867 0 0 1-2.91 1.548L13.844 16.42a1.867 1.867 0 0 1 0-3.097l15.568-10.49a1.867 1.867 0 0 1 2.91 1.547l-.001 5.583 8.667-8.665c.35-.35.824-.547 1.32-.547h211.215zM284.2 7.902c.358 0 .708.103 1.01.297l7.747 4.98a1.867 1.867 0 0 1 0 3.141l-7.748 4.981a1.867 1.867 0 0 1-2.876-1.57V9.769c0-1.03.836-1.867 1.867-1.867zM11.37 8.76c.194.3.297.651.297 1.01v9.96a1.867 1.867 0 0 1-2.876 1.571l-7.748-4.98a1.867 1.867 0 0 1 0-3.141L8.79 8.199a1.867 1.867 0 0 1 2.58.56z"/>
</svg>
