<?xml version="1.0" encoding="UTF-8"?>
<svg width="255px" height="255px" viewBox="0 0 255 255" version="1.1" xmlns="http://www.w3.org/2000/svg" xmlns:xlink="http://www.w3.org/1999/xlink">
    <!-- Generator: Sketch 61.2 (89653) - https://sketch.com -->
    <title>Upgrading</title>
    <desc>Created with Sketch.</desc>
    <defs>
        <filter x="-44.0%" y="-92.2%" width="188.1%" height="284.4%" filterUnits="objectBoundingBox" id="filter-1">
            <feGaussianBlur stdDeviation="20" in="SourceGraphic"></feGaussianBlur>
        </filter>
        <linearGradient x1="0%" y1="50%" x2="100%" y2="0%" id="linearGradient-2">
            <stop stop-color="#F48836" offset="0%"></stop>
            <stop stop-color="#F4364C" offset="100%"></stop>
        </linearGradient>
        <path d="M109.37046,41.8187916 C146.99013,41.8187916 177.486898,72.3155598 177.486898,109.93523 C177.486898,147.5549 146.99013,178.051668 109.37046,178.051668 C71.7507898,178.051668 41.2540215,147.5549 41.2540215,109.93523 C41.2540215,72.3155598 71.7507898,41.8187916 109.37046,41.8187916 Z" id="path-3"></path>
        <filter x="-67.5%" y="-67.5%" width="235.1%" height="235.1%" filterUnits="objectBoundingBox" id="filter-4">
            <feMorphology radius="2" operator="dilate" in="SourceAlpha" result="shadowSpreadOuter1"></feMorphology>
            <feOffset dx="0" dy="0" in="shadowSpreadOuter1" result="shadowOffsetOuter1"></feOffset>
            <feGaussianBlur stdDeviation="30" in="shadowOffsetOuter1" result="shadowBlurOuter1"></feGaussianBlur>
            <feComposite in="shadowBlurOuter1" in2="SourceAlpha" operator="out" result="shadowBlurOuter1"></feComposite>
            <feColorMatrix values="0 0 0 0 0.901960784   0 0 0 0 0.454901961   0 0 0 0 0.301960784  0 0 0 0.4 0" type="matrix" in="shadowBlurOuter1"></feColorMatrix>
        </filter>
    </defs>
    <g id="Page-1" stroke="none" stroke-width="1" fill="none" fill-rule="evenodd">
        <g id="FAQ-Upgrade" transform="translate(-158.000000, -859.000000)">
            <g id="Upgrading" transform="translate(177.000000, 876.500000)">
                <rect id="Rectangle-2" fill="#F44747" opacity="0.100000001" filter="url(#filter-1)" x="49.1952055" y="112.770548" width="136.232877" height="65.0890411"></rect>
                <g id="Mask">
                    <use fill="black" fill-opacity="1" filter="url(#filter-4)" xlink:href="#path-3"></use>
                    <use stroke="url(#linearGradient-2)" stroke-width="4" fill="url(#linearGradient-2)" fill-rule="evenodd" xlink:href="#path-3"></use>
                </g>
                <path d="M128.664384,30.0818933 L90.8219178,30.0818933 C56.9642147,30.0818933 29.5171233,57.5289848 29.5171233,91.3866879 L29.5171233,129.229154 C29.5171233,163.086857 56.9642147,190.533948 90.8219178,190.533948 L128.664384,190.533948 C162.522087,190.533948 189.969178,163.086857 189.969178,129.229154 L189.969178,91.3866879 C189.969178,57.5289848 162.522087,30.0818933 128.664384,30.0818933 Z M90.8219178,31.595592 L128.664384,31.595592 C161.686094,31.595592 188.455479,58.3649774 188.455479,91.3866879 L188.455479,129.229154 C188.455479,162.250864 161.686094,189.02025 128.664384,189.02025 L90.8219178,189.02025 C57.8002074,189.02025 31.0308219,162.250864 31.0308219,129.229154 L31.0308219,91.3866879 C31.0308219,58.3649774 57.8002074,31.595592 90.8219178,31.595592 Z" id="Mask" fill="#8847FF" fill-rule="nonzero" opacity="0.200000003" transform="translate(109.743151, 110.307921) rotate(-330.000000) translate(-109.743151, -110.307921) "></path>
                <path d="M129.048542,30.4660519 L91.2060763,30.4660519 C57.3483732,30.4660519 29.9012818,57.9131433 29.9012818,91.7708464 L29.9012818,129.613312 C29.9012818,163.471015 57.3483732,190.918107 91.2060763,190.918107 L129.048542,190.918107 C162.906245,190.918107 190.353337,163.471015 190.353337,129.613312 L190.353337,91.7708464 C190.353337,57.9131433 162.906245,30.4660519 129.048542,30.4660519 Z M91.2060763,31.9797505 L129.048542,31.9797505 C162.070253,31.9797505 188.839638,58.7491359 188.839638,91.7708464 L188.839638,129.613312 C188.839638,162.635023 162.070253,189.404408 129.048542,189.404408 L91.2060763,189.404408 C58.1843659,189.404408 31.4149804,162.635023 31.4149804,129.613312 L31.4149804,91.7708464 C31.4149804,58.7491359 58.1843659,31.9797505 91.2060763,31.9797505 Z" id="Mask" fill="#F48936" fill-rule="nonzero" opacity="0.100000001" transform="translate(110.127309, 110.692079) rotate(-270.000000) translate(-110.127309, -110.692079) "></path>
                <g id="Group-16" transform="translate(84.394432, 76.633860)" fill="#FFFFFF">
                    <path d="M44.5887053,43.8023802 C43.0573677,53.2678631 37.0160907,60.0052761 24.7413689,60.115625 C19.1042262,60.1737692 13.6936581,57.8534918 9.78830753,53.7031282 C11.749576,53.8198309 13.7165971,53.7890955 15.6734481,53.6111707 C16.3479378,53.5458099 17.0256739,53.6957511 17.6131424,54.0403053 C24.995454,58.2192638 34.2972035,55.5569547 38.4753654,48.0692041 C38.7985031,47.4759747 39.2906765,46.9970546 39.8865981,46.6959734 C41.5259111,45.8612181 43.098158,44.8957352 44.5887053,43.8085107 L44.5887053,43.8023802 Z M25.1016836,17.8703902 L25.552077,18.4527872 C25.5774648,18.4906244 25.6161938,18.5169822 25.6601714,18.5263531 L26.3447694,18.7347899 C26.4227717,18.7580003 26.4814402,18.8238972 26.4966428,18.9053752 C26.5118453,18.9868532 26.4810146,19.0701531 26.4168324,19.121011 L25.8523393,19.5746676 C25.8164297,19.6055288 25.7894396,19.6457986 25.7742711,19.691147 L25.576098,20.3900233 C25.5512112,20.4694117 25.485677,20.5284697 25.405424,20.543831 C25.325171,20.5591923 25.2431306,20.5283816 25.1917623,20.4635892 L24.7473741,19.8811923 C24.7195829,19.845937 24.6818471,19.8202551 24.6392797,19.8076264 L23.9546817,19.5991896 C23.8747314,19.5772151 23.8140977,19.5105555 23.7985453,19.4275357 C23.7847196,19.3468708 23.814558,19.2648611 23.8766135,19.2129685 L24.4471118,18.7593119 C24.4830216,18.7296273 24.5083486,18.6886898 24.5191748,18.6428325 L24.7233531,17.9439562 C24.7468127,17.8647206 24.8117318,17.8055483 24.8915,17.7906938 C24.9709628,17.7703561 25.0544932,17.8020288 25.1016836,17.8703902 L25.1016836,17.8703902 Z M23.3001099,15.4488451 L23.3661676,15.7921528 C23.3683119,15.8139789 23.3791737,15.8339378 23.3961939,15.8473272 L23.6424089,16.0864165 C23.6619825,16.1182826 23.6619825,16.1587687 23.6424089,16.1906349 C23.6332412,16.2289496 23.602485,16.257932 23.5643407,16.2642008 L23.228047,16.3377667 C23.2061702,16.3382155 23.1859306,16.3496942 23.1739998,16.3684192 L22.9397952,16.6197695 C22.9060495,16.6382983 22.8654465,16.6382983 22.8317008,16.6197695 C22.7932568,16.612032 22.7641224,16.5798114 22.7596378,16.540073 L22.6935801,16.1967654 C22.6884594,16.1760141 22.6781077,16.1569923 22.6635539,16.1415909 L22.4173389,15.9025016 C22.3876795,15.8771083 22.3758432,15.8360256 22.3873126,15.7982832 C22.3964804,15.7599685 22.4272365,15.7309861 22.4653808,15.7247173 L22.8016746,15.6572819 L22.861727,15.6266294 L23.0959316,15.3691487 C23.1275181,15.3505318 23.1664343,15.3505318 23.1980208,15.3691487 C23.2355527,15.3785076 23.263943,15.4099052 23.2700837,15.4488451 L23.3001099,15.4488451 Z M44.3184693,30.9712561 C44.379115,31.7546332 44.3326285,32.5428153 44.1803486,33.3131048 C43.8907124,31.4023397 43.2114935,29.5748943 42.1866071,27.9489225 L42.1866071,27.9489225 C41.4357797,26.7991705 40.5527212,25.7453903 39.5563096,24.8101095 C33.7192109,19.2497514 24.6092535,16.2274178 21.4685101,11.3230226 C18.8862545,7.27689647 19.264585,2.12728145 23.594367,0 C12.4366208,1.09122795 8.63530039,11.3230226 11.9141644,21.4567293 C12.6588149,23.774056 13.3374076,25.8645545 13.0851873,27.5259184 C12.7669093,29.6164169 10.4188583,31.3513467 8.479164,30.1252479 C7.38020407,29.4263716 6.52745921,27.8447041 7.20004671,25.0798513 C4.02927707,27.7159637 2.82222272,32.1053975 2.7921965,37.8803229 C2.86517606,40.067548 3.24330916,42.2329737 3.91517741,44.3112112 C3.20230637,43.8429725 2.60440394,43.2137224 2.16765096,42.472063 C-5.13472759,50.0616147 6.76766903,54.7330512 26.554953,49.3382164 C46.342237,43.9433816 54.3532345,33.7974139 44.3244745,30.9467341 L44.3184693,30.9712561 Z M13.6917171,47.3764583 C17.3445421,47.2432962 20.9708227,46.6880094 24.501159,45.7212249 L26.5369373,45.1633499 C30.7064453,44.0177746 34.7087791,42.3129493 38.4393339,40.0934313 C39.7265912,39.3000235 40.3399898,37.7295339 39.9406453,36.2496115 C38.4960487,30.7598513 34.2626501,26.492725 28.8671272,25.0878704 C23.4716043,23.6830158 17.7533591,25.3589913 13.9096196,29.4718056 C10.0658802,33.5846199 8.69463161,39.4944269 10.3227744,44.9303911 C10.7693317,46.4498268 12.1759832,47.4603379 13.7277486,47.3764583 L13.6917171,47.3764583 Z" id="Shape"></path>
                    <path d="M3.35830402,41.0553019 C3.70779259,40.8929307 6.97370308,39.3293566 6.63024017,37.0020366 C6.02767366,32.7924139 4.82254064,28.0535816 7.37139697,24.9264333 C4.1898458,27.5123444 2.97868712,31.818187 2.94855879,37.4831363 C2.99375382,38.6825376 3.13073449,39.8767372 3.35830402,41.0553019 L3.35830402,41.0553019 Z" id="Shape"></path>
                    <path d="M15.3752087,12.0113689 C15.4187309,9.18058791 15.9969545,1.83731453 23.5884703,0 C12.036434,1.06528334 8.10078326,11.0538109 11.4955151,20.9465826 C12.5338306,23.9868294 13.938976,27.5716874 10.9670312,29.3252156 C21.80406,23.3524472 15.2819469,18.014061 15.3752087,12.0113689 Z" id="Shape"></path>
                    <path d="M17.174328,33.3731866 C17.0375419,33.3281097 16.8915019,33.3056731 16.7443915,33.3071342 C15.7985311,33.3071342 14.760069,34.1713205 14.4491918,35.2336641 C14.3363001,35.5726665 14.3204425,35.9289672 14.402891,36.2739903 C14.4444012,36.417098 14.3585129,36.564658 14.1978443,36.6262701 C14.0395968,36.6886817 13.8505413,36.6521998 13.7414502,36.5382001 C13.1485223,35.7642891 13.1104754,34.7827701 13.642234,33.9786675 C14.6740817,32.3273561 17.2272433,31.5952747 17.677023,33.0043938 C17.7165922,33.1182774 17.6726448,33.2409016 17.5645781,33.3181429 C17.4597218,33.4002788 17.3058514,33.4219818 17.174328,33.3731866 L17.174328,33.3731866 Z" id="Shape"></path>
                    <path d="M20.2849516,29.9389297 C20.0021688,29.7407702 19.3760071,29.8421542 19.0460939,29.9389297 C18.6342642,30.063766 18.3238526,30.3065794 18.1977456,30.6025336 C18.164081,30.7269594 18.0496213,30.7914764 17.989025,30.7914764 C17.7601057,30.7914764 17.6793106,30.5195831 17.6927765,30.4043741 C17.820702,29.0541246 20.9043804,29.0909914 20.6215977,29.8559793 C20.6091174,29.9067636 20.5576694,29.9490199 20.4869393,29.9665799 C20.4175544,29.9855798 20.3383225,29.9747337 20.2849516,29.9389297 Z" id="Shape"></path>
                    <path d="M23.5796,4.49174291 L24.0467693,5.12104964 C24.075691,5.1610135 24.1173853,5.19004078 24.16504,5.20338884 L24.8983184,5.44452507 C24.9837578,5.47112081 25.046002,5.54449047 25.0579838,5.63272896 C25.0761968,5.71818048 25.0412695,5.80618184 24.9692808,5.85622107 L24.3365325,6.32084941 C24.2963501,6.34961382 24.2671641,6.39108137 24.253743,6.43847684 L24.0112881,7.16776689 C23.9845469,7.25274161 23.910776,7.31464726 23.822055,7.32656391 C23.7361361,7.34467789 23.6476535,7.30994051 23.5973406,7.23834334 L23.1301713,6.60903661 C23.1012496,6.56907275 23.0595553,6.54004547 23.0119006,6.52669741 L22.2786223,6.28556118 C22.1931829,6.25896544 22.1309387,6.18559578 22.1189568,6.0973573 C22.1007438,6.01190577 22.1356711,5.92390441 22.2076599,5.87386518 L22.8404081,5.40923684 C22.8805905,5.38047243 22.9097766,5.33900488 22.9231976,5.29160942 L23.1656526,4.56231936 C23.1923937,4.47734464 23.2661646,4.41543899 23.3548857,4.40352234 C23.4408045,4.38540836 23.5292871,4.42014574 23.5796,4.49174291 Z" id="Shape"></path>
                    <path d="M45.5554934,20.7574001 L45.9527887,21.8478593 C45.9796003,21.9154803 46.0246336,21.9744358 46.0829371,22.0182436 L47.0282259,22.6997806 C47.138167,22.7731363 47.1945067,22.9039326 47.1720742,23.0337338 C47.1560785,23.1619902 47.0685366,23.270206 46.9460268,23.313164 L45.8500399,23.7084554 C45.7794588,23.7302986 45.7188423,23.7761348 45.6787919,23.8379475 L44.9938001,24.7784686 C44.9200726,24.8878552 44.7886132,24.9439108 44.6581541,24.9215913 C44.5292475,24.9056764 44.4204832,24.8185759 44.3773075,24.6966841 L43.9800122,23.6062249 C43.9597679,23.5351371 43.9132828,23.474281 43.8498637,23.4358406 L42.904575,22.7543036 C42.7967653,22.6800261 42.7398434,22.5519336 42.7571746,22.4226054 C42.7745057,22.2932772 42.8631706,22.1844983 42.986774,22.1409203 L44.082761,21.7456288 C44.1516796,21.7206664 44.2113832,21.6755205 44.2540089,21.6161368 L44.9390008,20.6756157 C45.0127283,20.566229 45.1441876,20.5101734 45.2746468,20.5324929 C45.4056287,20.5433923 45.5167986,20.6324192 45.5554934,20.7574001 L45.5554934,20.7574001 Z" id="Shape"></path>
                    <path d="M7.70777385,19.2062553 L7.99735126,19.9261106 C8.01440885,19.9723234 8.04788488,20.0107315 8.09146392,20.0340889 L8.73577367,20.451605 C8.81139124,20.496222 8.85383943,20.5806389 8.8443652,20.6675616 C8.8386595,20.7549941 8.78202664,20.8310167 8.69957649,20.8619225 L7.97563296,21.1498646 C7.93153956,21.1706414 7.89399112,21.2029996 7.86704143,21.2434458 L7.44715418,21.884117 C7.40364626,21.9607477 7.31772859,22.003464 7.22997112,21.9920953 C7.1432837,21.9831497 7.06837379,21.9279742 7.03450636,21.8481243 L6.74492895,21.128269 C6.72403421,21.0844246 6.69149223,21.0470882 6.65081629,21.0202907 L6.00650655,20.6099731 C5.93229849,20.5606659 5.89074722,20.4752782 5.89791501,20.386818 C5.90691146,20.3006201 5.96240028,20.2261332 6.04270372,20.1924571 L6.76664726,19.9045149 C6.81260682,19.89056 6.85145824,19.8596544 6.87523879,19.8181323 L7.29512604,19.1702625 C7.34123138,19.0964048 7.42522418,19.0546456 7.5123091,19.0622842 C7.59959962,19.0696643 7.67523676,19.1253754 7.70777385,19.2062553 L7.70777385,19.2062553 Z" id="Shape"></path>
                    <path d="M3.67083761,23.5049612 L3.90384949,23.8133679 C3.91970742,23.8330744 3.94123976,23.8474297 3.96552911,23.8544887 L4.33560681,23.9709979 C4.37881681,23.9822171 4.41181664,24.0171418 4.42057178,24.0609188 C4.42932693,24.1046957 4.41229774,24.1496264 4.37672655,24.1766024 L4.06147518,24.4164742 C4.04057466,24.431205 4.02591406,24.4531965 4.02035544,24.4781555 L3.91070278,24.8482435 C3.8969467,24.8904906 3.85905783,24.9202613 3.81475671,24.9236318 C3.77125294,24.933341 3.72602254,24.9173769 3.69825077,24.8825109 L3.46523889,24.5741043 C3.44938096,24.5543977 3.42784862,24.5400424 3.40355927,24.5329834 L3.03348158,24.4164742 C2.99235831,24.4032267 2.96116227,24.3694301 2.95124209,24.3273789 C2.94109807,24.2823145 2.96028137,24.2357252 2.99921512,24.2108698 L3.3076132,23.9709979 C3.3268255,23.9575848 3.34123617,23.9383701 3.34873295,23.9161701 L3.4583856,23.5460821 C3.46976807,23.5011422 3.50818089,23.468216 3.55433167,23.4638403 C3.59792787,23.4522815 3.64415481,23.4685974 3.67083761,23.5049612 Z" id="Shape"></path>
                </g>
            </g>
        </g>
    </g>
</svg>