<?xml version="1.0" encoding="UTF-8"?>
<svg width="100px" height="100px" viewBox="0 0 100 100" version="1.1" xmlns="http://www.w3.org/2000/svg" xmlns:xlink="http://www.w3.org/1999/xlink">
    <!-- Generator: Sketch 61.2 (89653) - https://sketch.com -->
    <title>Pink 2</title>
    <desc>Created with Sketch.</desc>
    <g id="Page-1" stroke="none" stroke-width="1" fill="none" fill-rule="evenodd">
        <g id="User-pic" transform="translate(-151.000000, -545.000000)">
            <g id="Pink-2" transform="translate(151.000000, 545.000000)">
                <rect id="Rectangle-Copy-2" fill="#D32EE6" x="0" y="0" width="100" height="100"></rect>
                <path d="M92,6 L94,6 L94,6 C94,22.5685425 80.5685425,36 64,36 L62,36 L62,36 C62,19.4314575 75.4314575,6 92,6 Z" id="Rectangle-Copy-3" fill="#4D0556"></path>
                <path d="M35,7 L37,7 L37,7 C37,23.5685425 23.5685425,37 7,37 L5,37 L5,37 C5,20.4314575 18.4314575,7 35,7 Z" id="Rectangle-Copy-9" fill="#4D0556" transform="translate(21.000000, 22.000000) rotate(-90.000000) translate(-21.000000, -22.000000) "></path>
                <path d="M36,64 L38,64 L38,64 C38,80.5685425 24.5685425,94 8,94 L6,94 L6,94 C6,77.4314575 19.4314575,64 36,64 Z" id="Rectangle-Copy-7" fill="#4D0556"></path>
                <path d="M93,63 L95,63 L95,63 C95,79.5685425 81.5685425,93 65,93 L63,93 L63,93 C63,76.4314575 76.4314575,63 93,63 Z" id="Rectangle-Copy-8" fill="#4D0556" transform="translate(79.000000, 78.000000) rotate(-90.000000) translate(-79.000000, -78.000000) "></path>
            </g>
        </g>
    </g>
</svg>