<?xml version="1.0" encoding="UTF-8"?>
<svg width="100px" height="100px" viewBox="0 0 100 100" version="1.1" xmlns="http://www.w3.org/2000/svg" xmlns:xlink="http://www.w3.org/1999/xlink">
    <!-- Generator: Sketch 61.2 (89653) - https://sketch.com -->
    <title>Pink 5</title>
    <desc>Created with Sketch.</desc>
    <g id="Page-1" stroke="none" stroke-width="1" fill="none" fill-rule="evenodd">
        <g id="User-pic" transform="translate(-529.000000, -545.000000)">
            <g id="Pink-5" transform="translate(529.000000, 545.000000)">
                <rect id="Rectangle-Copy-2" fill="#D32EE6" x="0" y="0" width="100" height="100"></rect>
                <path d="M49.5346589,65.2446443 L34.1599146,73.3276257 C33.67107,73.5846265 33.0664428,73.39668 32.809442,72.9078354 C32.707103,72.7131749 32.6717883,72.4902069 32.7089651,72.2734492 L35.64528,55.1534199 C35.7009179,54.8290258 35.5933695,54.4980256 35.3576834,54.2682885 L22.919254,42.1438163 C22.5237704,41.7583151 22.5156781,41.1252019 22.9011793,40.7297183 C23.0546879,40.5722346 23.2558303,40.4697475 23.4734673,40.438123 L40.662954,37.9403443 C40.9886642,37.8930159 41.2702298,37.6884465 41.4158918,37.393303 L49.1032639,21.8169858 C49.3476862,21.3217321 49.9473121,21.1183931 50.4425657,21.3628154 C50.6397783,21.4601456 50.7994058,21.6197731 50.8967361,21.8169858 L58.5841082,37.393303 C58.7297702,37.6884465 59.0113358,37.8930159 59.337046,37.9403443 L76.5265327,40.438123 C77.0730775,40.5175406 77.451759,41.0249834 77.3723414,41.5715283 C77.3407169,41.7891653 77.2382297,41.9903077 77.080746,42.1438163 L64.6423166,54.2682885 C64.4066305,54.4980256 64.2990821,54.8290258 64.35472,55.1534199 L67.2910349,72.2734492 C67.3843959,72.8177857 67.018808,73.3347416 66.4744716,73.4281026 C66.257714,73.4652795 66.0347459,73.4299648 65.8400854,73.3276257 L50.4653411,65.2446443 C50.1740171,65.0914862 49.8259829,65.0914862 49.5346589,65.2446443 Z" id="Star" fill="#FFD700"></path>
            </g>
        </g>
    </g>
</svg>