<?xml version="1.0" encoding="UTF-8"?>
<svg width="100px" height="100px" viewBox="0 0 100 100" version="1.1" xmlns="http://www.w3.org/2000/svg" xmlns:xlink="http://www.w3.org/1999/xlink">
    <!-- Generator: Sketch 61.2 (89653) - https://sketch.com -->
    <title>Yellow 3</title>
    <desc>Created with Sketch.</desc>
    <g id="Page-1" stroke="none" stroke-width="1" fill="none" fill-rule="evenodd">
        <g id="User-pic" transform="translate(-277.000000, -29.000000)">
            <g id="Yellow-3" transform="translate(277.000000, 29.000000)">
                <rect id="Rectangle" fill="#FFD700" x="0" y="0" width="100" height="100"></rect>
                <path d="M49.5346589,68.7446443 L30.0454178,78.9907447 C29.5565732,79.2477455 28.9519461,79.059799 28.6949453,78.5709544 C28.5926062,78.3762939 28.5572915,78.1533258 28.5944684,77.9365682 L32.3165822,56.2349794 C32.3722201,55.9105853 32.2646717,55.5795851 32.0289856,55.3498479 L16.2618583,39.9806974 C15.8663748,39.5951962 15.8582825,38.9620829 16.2437837,38.5665993 C16.3972923,38.4091157 16.5984347,38.3066285 16.8160717,38.275004 L38.6057056,35.1087849 C38.9314158,35.0614564 39.2129814,34.856887 39.3586434,34.5617435 L49.1032639,14.8169858 C49.3476862,14.3217321 49.9473121,14.1183931 50.4425657,14.3628154 C50.6397783,14.4601456 50.7994058,14.6197731 50.8967361,14.8169858 L60.6413566,34.5617435 C60.7870186,34.856887 61.0685842,35.0614564 61.3942944,35.1087849 L83.1839283,38.275004 C83.7304731,38.3544216 84.1091546,38.8618645 84.029737,39.4084093 C83.9981125,39.6260464 83.8956253,39.8271888 83.7381417,39.9806974 L67.9710144,55.3498479 C67.7353283,55.5795851 67.6277799,55.9105853 67.6834178,56.2349794 L71.4055316,77.9365682 C71.4988926,78.4809046 71.1333048,78.9978606 70.5889684,79.0912216 C70.3722107,79.1283984 70.1492427,79.0930838 69.9545822,78.9907447 L50.4653411,68.7446443 C50.1740171,68.5914862 49.8259829,68.5914862 49.5346589,68.7446443 Z" id="Star" fill="#2D2D2D"></path>
            </g>
        </g>
    </g>
</svg>