<svg xmlns="http://www.w3.org/2000/svg" width="17" height="17" viewBox="0 0 17 17">
    <g fill="none" fill-rule="evenodd">
        <path d="M1 1h15v15H1z"/>
        <path stroke="#76797b" d="M8.5 1C4.365 1 1 4.364 1 8.5S4.365 16 8.5 16c4.136 0 7.5-3.364 7.5-7.5S12.636 1 8.5 1z"/>
        <path fill="#76797b" fill-rule="nonzero" d="M5.688 9.906a.47.47 0 0 1-.469.469.465.465 0 0 1-.39-.21L3.813 8.644v1.732h-.938V7.094a.47.47 0 0 1 .858-.26L4.75 8.36V6.625h.939v3.281zM8.968 7.563H7.562a.47.47 0 0 0-.468.468H8.5v.938H7.094c0 .258.21.469.468.469h1.406v.937H7.562c-.774 0-1.406-.63-1.406-1.406V8.03a1.41 1.41 0 0 1 1.406-1.406h1.406v.938zM13.197 10.375h-.964l-.458-1.866-.463 1.828.01.038H10.358l-.92-3.75h.936l.463 1.83.449-1.83h.965l.46 1.83.45-1.83h.964l-.938 3.712z"/>
    </g>
</svg>
