<svg xmlns="http://www.w3.org/2000/svg" width="15" height="18" viewBox="0 0 15 18">
    <path fill="#000" fill-rule="nonzero" d="M7.786 6.581l.022-.001a.6.6 0 0 1 .21.026l4.966 1.557a.6.6 0 0 1 .324.247l1.477 2.285a.7.7 0 0 1-.711 1.069l-.706-.127v3.52l-.006.14a1.5 1.5 0 0 1-1.042 1.29l-4.322 1.32-.013.003a.5.5 0 0 1-.056.012l-.02.003a.498.498 0 0 1-.04.003h-.017l-.017-.001h-.013a.496.496 0 0 1-.025-.002l-.02-.004h-.015a.498.498 0 0 1-.036-.01l-.018-.004L3.3 16.583a1.5 1.5 0 0 1-1.062-1.296l-.006-.14v-3.59l-.846.12A.7.7 0 0 1 .7 10.603L2.19 8.3a.6.6 0 0 1 .333-.25l4.934-1.465a.6.6 0 0 1 .33-.004zm-.435 2.533l-.755 1.567a.6.6 0 0 1-.457.333l-2.909.405v3.727a.5.5 0 0 0 .28.45l.077.03 3.764 1.13V9.114zm1-.051v7.69l3.673-1.12.083-.036a.5.5 0 0 0 .262-.44v-3.7l-2.523-.452a.6.6 0 0 1-.336-.184l-.06-.078-1.099-1.68zm.431-1.169l1.411 2.158 3.377.605-1.023-1.583-3.765-1.18zM6.876 7.8L2.95 8.966l-1.054 1.629 3.893-.542L6.876 7.8zM7.908.853a.5.5 0 0 1 .492.41l.008.09v3.886a.5.5 0 0 1-.992.09l-.008-.09V1.353a.5.5 0 0 1 .5-.5zm-3.192 2.31l.072.055 1.789 1.654a.5.5 0 0 1-.607.79l-.072-.056-1.79-1.653a.5.5 0 0 1 .608-.79zm6.929.075a.5.5 0 0 1 .047.639l-.059.068-1.707 1.653a.5.5 0 0 1-.755-.65l.06-.068 1.707-1.653a.5.5 0 0 1 .707.01z"/>
</svg>
