<svg xmlns="http://www.w3.org/2000/svg" width="15" height="12" viewBox="0 0 15 12">
    <g fill="none" fill-rule="evenodd">
        <path d="M0-2h15v15H0z"/>
        <path fill-rule="nonzero" stroke="#fff" stroke-linejoin="round" d="M4.897.5c.246.758 1.318 1.328 2.603 1.328 1.285 0 2.357-.57 2.603-1.328h.692a.624.624 0 0 1 .137 0h.005c.189 0 .358.083.472.215l2.71 1.564a.625.625 0 0 1 .229.854l-1.036 1.793a.625.625 0 0 1-.853.229l-.896-.518V10.5c0 .345-.28.625-.626.625H4.064a.625.625 0 0 1-.625-.625V4.638l-.896.517a.625.625 0 0 1-.854-.229L.653 3.133a.625.625 0 0 1 .229-.854L3.59.716A.624.624 0 0 1 4.063.5h.006a.624.624 0 0 1 .136 0h.692z"/>
    </g>
</svg>
