<svg xmlns="http://www.w3.org/2000/svg" width="15" height="12" viewBox="0 0 15 12">
    <g fill="none" fill-rule="evenodd" transform="translate(0 -1)">
        <path d="M0 0h15v15H0z"/>
        <path fill-rule="nonzero" stroke="#76797b" d="M1.875 2.125h11.25c.345 0 .625.28.625.625v6.875c0 .345-.28.625-.625.625H1.875a.625.625 0 0 1-.625-.625V2.75c0-.345.28-.625.625-.625z"/>
        <path fill="#76797b" fill-rule="nonzero" d="M6.02 5.291h.875v-.639H4.397v.64h.875V7.75h.748zM9.334 7.75l1.195-3.098h-.827L8.989 6.85H8.97l-.717-2.197h-.84L8.586 7.75z"/>
        <rect width="11.25" height="1" x="1.875" y="11.875" fill="#76797b" fill-rule="nonzero" rx=".5"/>
    </g>
</svg>
