<svg xmlns="http://www.w3.org/2000/svg" width="19" height="19" viewBox="0 0 19 19">
    <g fill="none">
        <path fill="#F7931A" d="M18.716 11.798c-1.27 5.09-6.425 8.187-11.515 6.918C2.113 17.446-.985 12.292.285 7.203 1.553 2.113 6.708-.985 11.797.284c5.09 1.27 8.188 6.425 6.919 11.514z"/>
        <path fill="#FFF" d="M13.485 8.562c.187-1.245-.761-1.914-2.057-2.36l.42-1.686-1.026-.256-.41 1.642c-.269-.068-.546-.131-.821-.194l.412-1.652L8.977 3.8l-.42 1.685c-.224-.05-.443-.1-.656-.154l.001-.005-1.415-.353-.273 1.096s.761.174.745.185c.416.104.491.379.478.597l-.478 1.92c.028.008.065.019.106.035l-.108-.027-.671 2.69c-.051.127-.18.317-.47.245.01.015-.747-.187-.747-.187l-.509 1.175 1.336.333c.248.062.492.128.731.189l-.425 1.705 1.026.256.42-1.687c.28.076.552.146.818.212l-.42 1.68 1.027.255.425-1.702c1.75.331 3.066.198 3.62-1.385.446-1.275-.022-2.01-.943-2.49.67-.154 1.176-.595 1.31-1.506zM11.14 11.85c-.317 1.275-2.463.586-3.158.413l.563-2.26c.696.174 2.927.518 2.595 1.847zm.318-3.306c-.29 1.159-2.076.57-2.655.425l.511-2.049c.58.145 2.445.414 2.144 1.624z"/>
    </g>
</svg>
