<svg xmlns="http://www.w3.org/2000/svg" width="12" height="19" viewBox="0 0 12 19">
    <g fill="none">
        <path fill="#8A92B2" d="M5.831.103v.01c.01.046.01.102.01.158V7.02c-.01.037-.038.047-.066.065-.197.094-.384.178-.58.262-.272.122-.553.253-.824.375l-.983.449c-.271.122-.543.243-.805.365-.318.15-.646.29-.964.44-.271.122-.543.253-.823.374-.225.103-.45.197-.665.3-.019.01-.037.018-.056.018-.01 0-.01 0-.019-.009l.253-.421c.487-.805.964-1.6 1.45-2.405.515-.862 1.04-1.723 1.554-2.584.478-.795.964-1.59 1.442-2.386.346-.58.702-1.161 1.048-1.741.01-.019.019-.028.019-.047h.009c-.01.01 0 .019 0 .028z"/>
        <path fill="#454A75" d="M11.578 9.66l.01.008-1.377.815-4.324 2.555c-.019.01-.037.019-.047.028-.028 0-.028-.028-.028-.037V7.16c0-.028 0-.065.01-.093.009-.038.037-.029.065-.02.122.057.253.113.375.17.365.168.73.336 1.095.495.318.14.627.29.945.43.318.141.636.291.955.431.271.122.552.253.823.375.272.121.553.252.824.374.215.094.43.197.646.29 0 .028.01.038.028.047z"/>
        <path fill="#8A92B2" d="M5.831 18.878c0 .01-.01.019-.01.028h-.009c0-.018-.018-.028-.028-.046-.58-.815-1.16-1.638-1.74-2.453-.59-.833-1.19-1.675-1.779-2.508-.57-.805-1.151-1.62-1.722-2.424-.15-.215-.3-.421-.45-.637-.009-.018-.018-.028-.037-.056.028 0 .047.019.056.028.815.478 1.62.955 2.434 1.432.936.553 1.862 1.105 2.798 1.657l.478.28c.018.02.018.038.018.057v4.511c0 .047 0 .094-.009.131z"/>
        <path fill="gray" d="M0.069 9.659L0.109 9.659 0.109 9.7 0.028 9.7 0.028 9.659z"/>
        <path fill="#FFF" d="M5.862.165c-.04 0-.04-.04-.04-.08h.04v.08z"/>
        <path fill="#62688F" d="M.047 9.678v-.01c.3-.13.59-.271.889-.402.384-.178.767-.346 1.151-.524.29-.131.59-.272.88-.403.43-.196.852-.383 1.282-.58.29-.13.58-.262.88-.402.206-.094.421-.188.627-.281.019-.01.047-.019.056-.038.01 0 .01.01 0 .02V13c0 .029-.009.057.01.075-.019.028-.038 0-.047-.009-.084-.047-.169-.094-.253-.15L.094 9.706c-.01-.01-.028-.019-.047-.028zm11.512 1.104h.01c0 .019-.02.038-.029.056-1.722 2.425-3.444 4.858-5.166 7.282-.178.253-.365.506-.543.758-.01-.009-.01-.018-.01-.028v-4.68c.394-.234.778-.458 1.17-.692 1.517-.899 3.033-1.788 4.54-2.686.01.009.019 0 .028-.01z"/>
        <path fill="#62688F" d="M5.822 7.057V.187c0-.028-.01-.047.009-.075 1.9 3.155 3.8 6.3 5.69 9.454.02.028.047.065.057.102-.131-.046-.253-.112-.375-.168-.15-.066-.308-.14-.458-.206-.094-.047-.197-.084-.29-.13-.16-.076-.319-.141-.478-.216-.093-.038-.187-.084-.28-.131l-.618-.281c-.103-.047-.206-.094-.318-.14l-.45-.197c-.093-.037-.187-.084-.28-.131l-.618-.28c-.103-.048-.206-.094-.318-.141l-.45-.197c-.103-.047-.196-.093-.3-.14-.177-.084-.355-.169-.542-.243.028-.01.019-.01.019-.01z"/>
    </g>
</svg>
