<svg xmlns="http://www.w3.org/2000/svg" width="48" height="19" viewBox="0 0 48 19">
    <g fill="none">
        <path fill="#898989" d="M47.249 6.122L42.025 17.79h-1.613l1.938-4.083-3.435-7.584h1.7L43.1 11.94h.033l2.413-5.817h1.704zm-21.695 3.61v4.724h-1.639V2.789h4.345c1.03-.026 2.034.334 2.812 1.01.763.628 1.192 1.525 1.177 2.463.012.963-.423 1.877-1.177 2.475-.758.664-1.697.994-2.812.994h-2.706v.001zm-.004-5.506v4.073h2.747c.608.017 1.197-.203 1.622-.603.42-.375.658-.889.658-1.427 0-.537-.238-1.05-.658-1.425-.436-.416-1.02-.639-1.622-.618H25.55zm9.985 1.896c1.045 0 1.87.29 2.475.87.604.58.905 1.377.905 2.387V14.2h-1.351v-1.087h-.062c-.585.895-1.363 1.342-2.333 1.342-.83 0-1.524-.255-2.084-.767-.546-.485-.852-1.186-.836-1.917 0-.808.295-1.451.883-1.93.588-.478 1.375-.716 2.358-.718.839 0 1.53.16 2.072.478v-.335c.005-.498-.208-.973-.583-1.3-.368-.348-.857-.54-1.364-.536-.79 0-1.415.346-1.873 1.038l-1.245-.813c.683-1.022 1.697-1.534 3.038-1.534zm-1.828 5.684c-.004.375.17.73.47.958.312.255.7.39 1.098.383.595-.001 1.167-.25 1.589-.686.45-.415.705-1 .703-1.612-.442-.367-1.055-.548-1.843-.548-.575 0-1.054.145-1.437.433-.387.29-.58.645-.58 1.072z"/>
        <path fill="#FBBC05" d="M3.805 9.289c0-.603.1-1.182.28-1.724L.953 5.174C.344 6.413 0 7.809 0 9.289c0 1.479.343 2.874.953 4.112l3.129-2.395c-.178-.54-.277-1.117-.277-1.717"/>
        <path fill="#EB4335" d="M9.302 3.8c1.31 0 2.495.464 3.425 1.224l2.706-2.702C13.784.887 11.67 0 9.303 0 5.625 0 2.466 2.102.952 5.174l3.131 2.39C4.806 5.375 6.862 3.8 9.302 3.8"/>
        <path fill="#34A853" d="M9.302 14.778c-2.44 0-4.496-1.575-5.218-3.765l-3.13 2.39c1.513 3.073 4.672 5.175 8.348 5.175 2.269 0 4.435-.806 6.06-2.315l-2.97-2.298c-.84.529-1.895.813-3.09.813"/>
        <path fill="#4285F4" d="M18.181 9.289c0-.549-.084-1.14-.211-1.689H9.302v3.589h4.99c-.25 1.223-.93 2.164-1.9 2.776l2.97 2.298c1.709-1.585 2.82-3.946 2.82-6.974"/>
    </g>
</svg>
