<svg xmlns="http://www.w3.org/2000/svg" width="30" height="19" viewBox="0 0 30 19">
    <g fill="none" transform="translate(0 .5)">
        <circle cx="9.23" cy="9.23" r="9.23" fill="#ED4547"/>
        <circle cx="20.698" cy="9.23" r="9.23" fill="#F89D1C"/>
        <path fill="#FF5F00" d="M11.468 9.23c0 2.931 1.366 5.543 3.496 7.233 2.13-1.69 3.497-4.302 3.497-7.233 0-2.93-1.366-5.542-3.497-7.233-2.13 1.691-3.496 4.302-3.496 7.233z"/>
        <g fill="#FFF">
            <path d="M11.607 4.708l.122-.828c-.066 0-.164.028-.25.028-.339 0-.377-.18-.355-.313l.274-1.691h.514l.125-.917h-.485l.098-.57h-.973c-.02.021-.574 3.206-.574 3.593 0 .574.321.83.775.826.355-.003.632-.101.73-.128zM11.916 3.128c0 1.378.907 1.706 1.68 1.706.714 0 1.027-.16 1.027-.16l.172-.941s-.543.241-1.033.241c-1.045 0-.862-.78-.862-.78h1.978s.127-.633.127-.89c0-.642-.32-1.425-1.387-1.425-.979 0-1.702 1.056-1.702 2.25zm1.706-1.377c.549 0 .447.619.447.669h-1.08c0-.064.102-.669.633-.669zM19.781 4.708l.174-1.064s-.477.242-.804.242c-.69 0-.967-.53-.967-1.096 0-1.151.594-1.785 1.255-1.785.496 0 .893.28.893.28l.159-1.033s-.59-.24-1.095-.24c-1.123 0-2.216.976-2.216 2.81 0 1.216.59 2.02 1.75 2.02.329 0 .851-.134.851-.134zM6.257.894c-.667 0-1.178.214-1.178.214l-.141.84s.422-.171 1.06-.171c.362 0 .626.04.626.336 0 .179-.032.245-.032.245s-.285-.024-.418-.024c-.84 0-1.725.36-1.725 1.445 0 .854.58 1.05.94 1.05.686 0 .98-.445.997-.447l-.032.373h.857l.382-2.686C7.593.93 6.6.894 6.257.894zm.209 2.185c.018.164-.103.933-.689.933-.302 0-.38-.231-.38-.368 0-.267.144-.587.857-.587.166 0 .183.018.212.022zM8.503 4.81c.22 0 1.472.056 1.472-1.24 0-1.21-1.16-.972-1.16-1.458 0-.242.19-.319.535-.319.137 0 .665.044.665.044l.123-.861S9.796.9 9.24.9c-.72 0-1.45.287-1.45 1.272 0 1.117 1.217 1.004 1.217 1.475 0 .314-.34.34-.603.34-.453 0-.861-.157-.863-.15l-.13.852c.023.008.275.12 1.091.12zM27.839.121l-.21 1.305S27.263.92 26.69.92c-.892 0-1.634 1.076-1.634 2.314 0 .799.396 1.58 1.206 1.58.583 0 .905-.406.905-.406l-.042.347h.946L28.815.12l-.976.002zm-.452 2.545c0 .515-.254 1.202-.782 1.202-.35 0-.513-.295-.513-.757 0-.755.338-1.255.765-1.255.35 0 .53.242.53.81zM.989 4.759L1.582 1.259 1.669 4.759 2.339 4.759 3.589 1.259 3.035 4.759 4.031 4.759 4.798.118 3.258.118 2.299 2.965 2.249.118.83.118.052 4.759zM15.978 4.766c.283-1.613.335-2.924 1.011-2.685.119-.624.233-.865.361-1.13 0 0-.06-.013-.187-.013-.435 0-.758.596-.758.596l.086-.547h-.906l-.606 3.779h.999zM22.026.894c-.667 0-1.178.214-1.178.214l-.141.84s.421-.171 1.06-.171c.362 0 .627.04.627.336 0 .179-.033.245-.033.245s-.285-.024-.419-.024c-.84 0-1.724.36-1.724 1.445 0 .854.58 1.05.94 1.05.686 0 .98-.445.997-.447l-.032.373h.857l.382-2.686c0-1.139-.991-1.175-1.336-1.175zm.209 2.185c.018.164-.103.933-.69.933-.301 0-.38-.231-.38-.368 0-.267.146-.587.857-.587.167 0 .184.018.213.022zM24.144 4.766c.284-1.613.336-2.924 1.012-2.685.119-.624.232-.865.362-1.13 0 0-.061-.013-.188-.013-.436 0-.758.596-.758.596l.086-.547h-.906l-.607 3.779h1z" transform="translate(.464 6.43)"/>
        </g>
    </g>
</svg>
