<svg xmlns="http://www.w3.org/2000/svg" width="16" height="14" viewBox="0 0 16 14">
    <path fill="#FFF" d="M6.889 0c3.725 0 6.76 2.957 6.885 6.654l.746-.745.054-.048c.225-.175.55-.16.758.048.224.224.224.588 0 .812l-2.128 2.128-2.128-2.128-.048-.054c-.175-.226-.16-.551.048-.758l.054-.048c.225-.175.55-.16.757.048l.738.737c-.128-3.058-2.647-5.498-5.736-5.498-3.17 0-5.74 2.57-5.74 5.74 0 3.171 2.57 5.742 5.74 5.742 1.687 0 3.254-.731 4.339-1.981.207-.24.57-.265.81-.058.239.208.265.57.057.81-1.3 1.499-3.183 2.377-5.206 2.377C3.084 13.778 0 10.693 0 6.888 0 3.085 3.084 0 6.889 0zm-1.77 4.31l4.183 2.325c.199.11.199.397 0 .508L5.118 9.467c-.236.132-.525-.04-.525-.309V4.62c0-.27.29-.44.525-.31z"/>
</svg>
