<svg xmlns="http://www.w3.org/2000/svg" width="12" height="12" viewBox="0 0 12 12">
    <path fill="#FFF" d="M11.538 10.154c0 .51-.41.927-.923.927-.102 0-.2-.037-.292-.096-.543-.191-1.721-.624-2.52-.848C5.779 9.567 3.5 9.23.924 9.23c-.255 0-.461-.207-.461-.462s.206-.461.461-.461c2.664 0 5.026.349 7.13.94.624.175 1.174.357 1.71.556.136-.337.467-.573.852-.573v-.923h.923v1.846zM11.077 0c.473 0 .863.356.917.815L12 .923v5.539c0 .473-.356.863-.815.916l-.108.007H.923C.413 7.385 0 6.97 0 6.462V.923C0 .45.356.06.815.006L.923 0h10.154zm-.923.923H1.846c0 .51-.413.923-.923.923v3.692c.51 0 .923.414.923.924h8.308c0-.51.413-.924.923-.924V1.846c-.51 0-.923-.413-.923-.923zM6 1.846c1.02 0 1.846.93 1.846 2.077 0 .59-.223 1.118-.576 1.495l-.123.12H4.853c-.423-.38-.7-.959-.7-1.615 0-1.147.827-2.077 1.847-2.077zm3.692 1.385c.255 0 .462.206.462.461s-.207.462-.462.462-.461-.207-.461-.462.206-.461.461-.461zm-7.384 0c.255 0 .461.206.461.461s-.206.462-.461.462-.462-.207-.462-.462.207-.461.462-.461z"/>
</svg>
