<svg xmlns="http://www.w3.org/2000/svg" width="82" height="15" viewBox="0 0 82 15">
    <path fill="#83BA3C" d="M81.115 3.87c-.113-.524-.355-1.001-.726-1.412-.453-.508-1.021-.836-1.647-1.079-.659-.253-1.344-.389-2.043-.464-.206-.022-.413-.041-.619-.065-.091-.008-.18.028-.272-.021h-6.104l-.3 1.608c-.244 1.336-.492 2.669-.738 4.005-.218 1.188-.437 2.372-.66 3.561l-.275 1.519c-.03.156-.032.16-.177.16h-6.71c-.049 0-.1.003-.162-.026.033-.171.062-.344.097-.515.106-.584.218-1.168.327-1.76.025-.144.028-.144.166-.144h3.904c.213 0 .194.022.23-.184.148-.832.301-1.661.45-2.487.02-.108.02-.112-.096-.112-.26-.003-.523 0-.786 0h-3.161c-.178 0-.176 0-.144-.177.128-.683.251-1.37.38-2.055.042-.224-.003-.195.234-.195 1.315-.003 2.634-.003 3.949-.003.038 0 .083-.003.12.003.088.008.112-.035.128-.112.069-.4.14-.795.213-1.192.109-.579.217-1.161.321-1.744.01-.046.023-.097.02-.149h-8.901c-.003.22-.063.43-.103.639-.116.688-.248 1.371-.376 2.059-.148.8-.299 1.606-.443 2.411-.176.963-.355 1.923-.531 2.885-.134.728-.266 1.453-.4 2.176-.022.115-.026.118-.149.118h-2.973c-.134 0-.14-.01-.113-.137.182-.997.37-1.997.558-2.992l.531-2.874c.188-1.016.378-2.025.567-3.037.072-.379.142-.766.213-1.147.006-.033.004-.07.006-.104h-4.646c-.221 1.197-.44 2.389-.663 3.587-.206 1.117-.41 2.234-.614 3.352l-.6 3.23c-.023.12-.026.124-.143.124h-2.899c-.134 0-.134-.006-.107-.138.238-1.297.48-2.58.717-3.873.246-1.328.499-2.66.747-3.987.133-.71.264-1.42.392-2.13.011-.051.029-.109.011-.165h-4.648c-.01.213-.067.42-.102.626-.114.633-.232 1.26-.349 1.893l-.446 2.412c-.156.848-.314 1.7-.468 2.55l-.496 2.678c-.036.2-.08.396-.108.596-.013.082-.05.1-.12.1-.03-.004-.061 0-.092 0-2.227 0-4.452 0-6.68-.004-.19 0-.212.048-.166-.206.13-.696.253-1.39.378-2.086.027-.148.027-.148.187-.148h3.886c.042 0 .082-.003.122 0 .067.007.1-.022.112-.09.157-.882.317-1.762.475-2.64.002-.004 0-.009-.002-.017-.056-.033-.116-.019-.176-.019H34.55c-.19 0-.193 0-.16-.18l.396-2.162c.014-.079.043-.112.13-.11.175.006.351 0 .53 0h3.568c.036 0 .07-.002.108.004.081.008.113-.034.128-.112.046-.285.1-.566.153-.85.127-.7.255-1.398.381-2.099.008-.045.008-.09.013-.134H12.123c-.029.272-.09.536-.137.803l-.533 2.918c-.157.856-.312 1.71-.467 2.565l-.383 2.08c-.008.047-.019.09-.027.14-.048 0-.048-.036-.058-.06C9.958 7.74 9.4 6.2 8.84 4.662c-.45-1.235-.902-2.465-1.355-3.7-.015-.04-.024-.087-.037-.13H2.619c-.069.362-.139.723-.206 1.085-.216 1.17-.43 2.342-.647 3.509-.217 1.179-.436 2.352-.654 3.53-.206 1.124-.411 2.252-.62 3.377L.067 14.65c-.018.05-.03.093-.067.125.003.045-.017.117.078.094.019-.01.04 0 .06 0h4.511c-.027-.081-.003-.156.011-.232.155-.872.307-1.748.463-2.624.168-.944.339-1.886.507-2.83l.467-2.658c.024-.128.048-.254.069-.384.051-.003.048.034.056.061.208.595.414 1.194.619 1.792l1.517 4.395c.262.767.528 1.528.79 2.296.018.06.048.11.045.176h16.525c.011-.222.067-.433.105-.641.165-.907.335-1.821.501-2.728l.5-2.695.438-2.384c.139-.756.281-1.508.42-2.264.023-.124.013-.13.153-.13h2.278c.02 0 .04.004.06.004.062-.006.082.027.074.082-.025.145-.048.29-.075.435l-.66 3.571c-.218 1.17-.436 2.344-.652 3.514-.149.8-.294 1.596-.44 2.396l-.15.837h43.376c.01-.216.065-.422.1-.633.125-.7.253-1.4.381-2.1.176-.963.357-1.924.535-2.888.069-.37.134-.747.203-1.118.051.005.045.048.053.08.313 1.046.629 2.1.939 3.152.342 1.149.683 2.293 1.02 3.438.007.021.01.04.014.063h4.62c-.164-.435-.321-.875-.49-1.307-.511-1.373-1.03-2.744-1.543-4.11-.066-.167-.063-.167.11-.204.43-.09.858-.19 1.261-.366 1.114-.495 1.838-1.324 2.18-2.493.118-.415.17-.837.186-1.269.02-.416-.006-.826-.099-1.234zm-58.051.279c-.034.232-.08.462-.12.691-.128.7-.26 1.41-.39 2.114-.146.798-.296 1.596-.445 2.396l-.4 2.19c-.024.135-.024.138-.165.138H14.8c-.04 0-.082.007-.133-.022l.306-1.672.112-.597c.027-.15.025-.15.179-.15h4.054c.204 0 .207 0 .245-.208l.415-2.296c.01-.064.024-.125.033-.192.015-.098.013-.098-.086-.103h-4.071c-.193 0-.193 0-.161-.184.12-.69.238-1.38.36-2.073.027-.159.027-.162.187-.162H22.954c.124.003.132.011.11.13zM76.55 6.176c-.176.445-.496.754-.924.957-.316.147-.656.219-1.007.26-.281.039-.565.033-.843.034h-.626c-.156-.001-.156-.001-.128-.149l.168-.91c.154-.818.301-1.634.455-2.453.04-.233.04-.233.278-.233.323 0 .647-.005.967.028.308.032.608.09.897.208.562.237.9.746.903 1.352.01.31-.02.613-.14.906z"/>
</svg>
