<?xml version="1.0" encoding="UTF-8"?>
<svg width="63px" height="18px" viewBox="0 0 63 18" version="1.1" xmlns="http://www.w3.org/2000/svg" xmlns:xlink="http://www.w3.org/1999/xlink">
    <!-- Generator: Sketch 63.1 (92452) - https://sketch.com -->
    <title>38971</title>
    <desc>Created with Sketch.</desc>
    <g id="Page-1" stroke="none" stroke-width="1" fill="none" fill-rule="evenodd">
        <g id="Deposit-Balance-2" transform="translate(-468.000000, -530.000000)" fill-rule="nonzero">
            <g id="38971" transform="translate(468.000000, 530.000000)">
                <path d="M12.2617857,2.17685714 C12.0378571,1.72764286 11.6836429,1.35714286 11.2439286,1.07892857 C10.7852143,0.798 10.2437143,0.601214286 9.62485714,0.4845 C8.99514286,0.3705 8.26771429,0.318928571 7.42492857,0.310785714 L3.534,0.3135 C3.12957143,0.318928571 2.73328571,0.633785714 2.63828571,1.02464286 L0.0203571429,12.4273571 C-0.0746428571,12.8127857 0.179142857,13.1357857 0.583571429,13.1357857 L2.44692857,13.1357857 C2.85135714,13.1357857 3.25171429,12.8222857 3.34128571,12.4273571 L3.9805,9.65878571 C4.066,9.27335714 4.465,8.95171429 4.8735,8.95171429 L5.40685714,8.95171429 C7.6855,8.949 9.44978571,8.4835 10.7173571,7.55114286 C11.9917143,6.61742857 12.6200714,5.38378571 12.6200714,3.85564286 C12.6187143,3.18657143 12.5087857,2.62471429 12.2617857,2.17685714 Z M8.24328571,5.90221429 C7.68007143,6.31478571 6.897,6.52107143 5.88728571,6.52107143 L5.43128571,6.52107143 C5.0255,6.52107143 4.77714286,6.20078571 4.86535714,5.80992857 L5.42585714,3.38878571 C5.50457143,3.00064286 5.91307143,2.679 6.31342857,2.68171429 L6.92414286,2.67764286 C7.63664286,2.67764286 8.18085714,2.80114286 8.54457143,3.04 C8.90421429,3.27614286 9.08471429,3.65207143 9.082,4.15014286 C9.09285714,4.90742857 8.80378571,5.48964286 8.24328571,5.90221429 Z" id="Shape" fill="#283593"></path>
                <path d="M21.2474286,3.80678571 C20.5444286,3.4105 19.4342857,3.21235714 17.917,3.21235714 C17.1665,3.21235714 16.4187143,3.27071429 15.6627857,3.38742857 C15.105,3.47292857 15.0507143,3.48921429 14.7073571,3.56385714 C13.9989286,3.71857143 13.8876429,4.42564286 13.8876429,4.42564286 L13.6596429,5.36342857 C13.5307143,5.96192857 13.8754286,5.93885714 14.0192857,5.88864286 C14.3287143,5.79635714 14.5010714,5.70135714 15.1335,5.56021429 C15.7374286,5.42314286 16.3739286,5.32 16.8787857,5.32678571 C17.6238571,5.32678571 18.1938571,5.4055 18.5738571,5.56564286 C18.9484286,5.7285 19.1357143,6.00807143 19.1357143,6.4125 L19.1031429,6.67578571 L18.8344286,6.84135714 C17.7772143,6.90785714 17.0131429,7.00557143 16.0862143,7.13992857 C15.1796429,7.26614286 14.3843571,7.48735714 13.7234286,7.79 C13.0136429,8.10214286 12.4870714,8.5215 12.1192857,9.05485714 C11.7637143,9.59092857 11.5859286,10.241 11.5859286,11.0037143 C11.5859286,11.7216429 11.8437857,12.3147143 12.3445714,12.7734286 C12.8480714,13.224 13.5130714,13.4438571 14.3083571,13.4438571 C14.8118571,13.4411429 15.2013571,13.4017857 15.4782143,13.3352857 L16.3807143,13.0245 L17.1447857,12.6010714 L17.8477857,12.1369286 L17.8572857,12.1505 L17.7867143,12.4490714 L17.7826429,12.4612857 L17.7826429,12.464 C17.7066429,12.8277143 17.9265,13.1262857 18.2807143,13.1615714 L18.2875,13.1697143 L18.3200714,13.1697143 L19.7491429,13.1697143 L20.0178571,13.1697143 L20.0422857,13.1588571 C20.4141429,13.1154286 20.7629286,12.8168571 20.8443571,12.4612857 L22.2028571,6.58078571 L22.2734286,6.10171429 L22.3060606,5.6525 C22.3114286,4.81921429 21.9517857,4.20171429 21.2474286,3.80678571 Z M18.2427143,10.4187857 L17.9522857,10.8015 L17.2194286,11.1801429 C16.8747143,11.3199286 16.5476429,11.3905 16.245,11.3905 C15.7862857,11.3905 15.4266429,11.324 15.1837143,11.1882857 L14.8240714,10.4893571 C14.8240714,10.1107143 14.9109286,9.81078571 15.0968571,9.58007143 L15.8867143,9.04264286 C16.2246429,8.92864286 16.6372143,8.83228571 17.1149286,8.76578571 C17.5410714,8.71285714 18.3825,8.6165 18.4924286,8.61378571 L18.6213571,8.84042857 C18.5955714,8.96935714 18.3567143,9.96821429 18.2427143,10.4187857 Z" id="Shape" fill="#283593"></path>
                <path d="M55.0918571,3.81492857 C54.3847857,3.41864286 53.276,3.21914286 51.7627857,3.21914286 C51.0122857,3.21914286 50.2631429,3.2775 49.5099286,3.39828571 C48.9507857,3.47971429 48.8951429,3.49735714 48.5504286,3.57064286 C47.8433571,3.724 47.7334286,4.43378571 47.7334286,4.43378571 L47.5054286,5.37021429 C47.3778571,5.96871429 47.7144286,5.94157143 47.8718571,5.89542857 C48.1826429,5.80314286 48.3495714,5.71221429 48.9765714,5.56564286 C49.5777857,5.42992857 50.2197143,5.3295 50.7259286,5.33221429 C51.4682857,5.33221429 52.0382857,5.41228571 52.4169286,5.57242857 C52.7942143,5.73528571 52.9787857,6.01757143 52.9787857,6.41792857 L52.9502857,6.67985714 L52.6842857,6.8495 C51.6162143,6.91328571 50.8507857,7.011 49.9333571,7.14535714 C49.0295,7.27157143 48.2315,7.49142857 47.5692143,7.79542857 C46.8621429,8.10892857 46.3287857,8.52828571 45.9650714,9.063 C45.6054286,9.59907143 45.4303571,10.2477857 45.4303571,11.0037143 C45.4303571,11.7270714 45.6855,12.3201429 46.1930714,12.7761429 C46.6992857,13.2253571 47.3575,13.4506429 48.1527857,13.4506429 C48.6535714,13.4452143 49.0430714,13.4126429 49.3212857,13.3407143 L50.2210714,13.034 L50.9919286,12.6105714 L51.6895,12.141 L51.7017143,12.1559286 L51.6379286,12.4572143 L51.6311429,12.4626429 L51.6338571,12.4680714 C51.5497143,12.8317857 51.7709286,13.1330714 52.1292143,13.1656429 L52.1319286,13.1724286 L52.1645,13.1724286 C52.3992857,13.1724286 53.2108571,13.1724286 53.5976429,13.1724286 L53.8609286,13.1724286 L53.8894286,13.1629286 C54.2572143,13.1181429 54.6046429,12.8195714 54.682,12.4599286 L56.0445714,6.58757143 L56.1165,6.10578571 L56.155861,5.65521429 C56.1572143,4.82464286 55.8016429,4.20985714 55.0918571,3.81492857 Z M52.0939286,10.4269286 L51.7912857,10.8137143 L51.0652143,11.1896429 C50.7205,11.3280714 50.3920714,11.4 50.0948571,11.4 C49.6212143,11.4 49.2710714,11.3321429 49.0349286,11.1964286 L48.6712143,10.5002143 C48.6712143,10.1202143 48.7594286,9.823 48.9372143,9.58821429 C49.1177143,9.367 49.3932143,9.18514286 49.7352143,9.05214286 C50.0690714,8.93814286 50.4816429,8.84585714 50.9620714,8.77664286 C51.3855,8.72371429 52.2242143,8.62464286 52.3327857,8.62328571 L52.4644286,8.84992857 C52.4454286,8.97885714 52.2052143,9.97364286 52.0939286,10.4269286 Z" id="Shape" fill="#03A9F4"></path>
                <path d="M46.1007857,2.21892857 C45.8673571,1.767 45.5172143,1.40192857 45.0747857,1.11692857 C44.6215,0.834642857 44.0840714,0.6365 43.4557143,0.5225 C42.8382143,0.412571429 42.1012857,0.352857143 41.2639286,0.3515 L37.3675714,0.354214286 C36.9617857,0.361 36.5722857,0.675857143 36.4786429,1.06264286 L33.858,12.4707857 C33.763,12.8575714 34.0235714,13.1778571 34.4198571,13.1778571 L36.2859286,13.1751429 C36.6822143,13.1778571 37.088,12.8602857 37.1816429,12.4694286 L37.8127143,9.6995 C37.905,9.31407143 38.3053571,8.98971429 38.7084286,8.99242857 L39.2417857,8.99242857 C41.5231429,8.99242857 43.2915,8.52285714 44.5645,7.59321429 C45.8225714,6.65271429 46.4590714,5.42178571 46.4590714,3.89228571 C46.4522857,3.22592857 46.3369286,2.66271429 46.1007857,2.21892857 Z M42.0822857,5.94971429 C41.5204286,6.35414286 40.736,6.56046633 39.7317143,6.56046633 L39.2675714,6.56046633 C38.8672143,6.5645 38.608,6.23878571 38.6975714,5.85064286 L39.2621429,3.43357143 C39.3449286,3.04678571 39.7493571,2.72242857 40.1524286,2.7265 L40.7563571,2.72242857 C41.4729286,2.7265 42.0103571,2.84457143 42.3767857,3.08342857 C42.7418571,3.32228571 42.9142143,3.69685714 42.9182857,4.19357143 C42.9223571,4.95085714 42.6414286,5.53442857 42.0822857,5.94971429 Z" id="Shape" fill="#03A9F4"></path>
                <path d="M62.0784286,1.15357143 C62.1639286,0.764071429 61.9196429,0.447857143 61.5192857,0.453216848 L59.85,0.453216848 C59.508,0.453216848 59.1999286,0.707071429 59.0492857,1.01921429 L58.957,1.16307143 L58.8728571,1.53221429 L56.5399286,12.1369286 L56.4639286,12.4626429 L56.4666429,12.4707857 C56.3892857,12.8195714 56.6037143,13.0828571 56.9348571,13.1330714 L56.9633571,13.1724286 L58.6964286,13.1724286 C59.0357143,13.1724286 59.3546429,12.9145714 59.4998571,12.597 L59.5894286,12.4612857 L62.0838571,1.15492857 L62.0784286,1.15357143 Z" id="Path" fill="#03A9F4"></path>
                <path d="M33.9095714,3.35485714 C33.4685,3.36028571 31.6757143,3.35485714 31.6757143,3.35485714 C31.274,3.35485714 30.7582857,3.67921429 30.5031429,4.066 C30.5031429,4.066 27.835,8.645 27.5757857,9.10507143 L27.2663571,9.101 L26.4357857,4.09721429 C26.3435,3.70364286 25.9322857,3.36707143 25.4206429,3.36707143 L23.7513571,3.36978571 C23.3496429,3.36978571 23.1026429,3.69007143 23.1935714,4.08092857 C23.1935714,4.08092857 24.4611429,11.2941429 24.7149286,12.9919286 C24.833,13.9283571 24.7,14.0952857 24.7,14.0952857 L23.0497143,16.9697143 C22.8054286,17.3605714 22.9370714,17.6795 23.3374286,17.6795 L25.2672857,17.6767857 C25.669,17.6767857 26.1969286,17.3605714 26.4357857,16.9683571 L33.8593571,4.41207143 C33.8593571,4.41342857 34.5732143,3.33992857 33.9095714,3.35485714 Z" id="Path" fill="#283593"></path>
            </g>
        </g>
    </g>
</svg>