<?xml version="1.0" encoding="UTF-8"?>
<svg viewBox="0 0 601 103" version="1.1" xmlns="http://www.w3.org/2000/svg" xmlns:xlink="http://www.w3.org/1999/xlink">
    <g id="Page-1" stroke="none" stroke-width="1" fill="none" fill-rule="evenodd">
        <g id="pay" fill-rule="nonzero">
            <path d="M78.5,43.4 C78.6,38.9 79.5,35.4 81.6,32.9 C82.6,31.9 84,31.1 85.5,30.4 C87.2,29.7 88.7,29.4 90.3,29.4 L109,29.4 C117.2,29.5 121.4,33.9 121.6,42.9 L121.6,70.5 C121.5,73.6 120.3,76.4 117.8,78.7 C115.4,81.1 112.6,82.4 109.3,82.5 L91.7,82.5 L91.7,102.4 L78.5,102.4 L78.5,43.4 Z M108.4,46 C108.3,43.9 107.4,42.9 105.4,42.8 L95.2,42.8 C92.8,43 91.5,44.3 91.4,46.7 L91.4,65 C91.5,67.5 92.8,68.8 95.5,68.9 L104.8,68.9 C105.8,68.9 106.5,68.6 107.2,67.8 C107.9,67.3 108.2,66.6 108.2,65.7 L108.4,46 L108.4,46 L108.4,46 Z" id="Shape" fill="#128AC7"></path>
            <path d="M162,45.7 C162.1,43.7 160.9,42.7 158.5,42.8 L132.2,42.8 L132.2,29.4 L161.9,29.4 C170.5,29.6 174.9,33.7 175.1,42 L175.1,70 C175,73.6 174,76.5 171.9,78.8 C169.7,81.2 166.8,82.5 163.4,82.5 L145.5,82.5 C136.8,82.4 132.3,78.5 132.2,70.5 L132.2,59.7 C132.3,51.4 136.5,47.2 144.8,47.1 L162.2,47.1 L162,45.7 L162,45.7 L162,45.7 Z M145,66.3 C145,67.1 145.3,67.7 146,68.1 C146.6,68.6 147.4,69 148.4,69 L158.4,69 C160.7,69 161.9,68.1 161.9,66.4 L161.9,62.6 C161.9,60.6 160.7,59.5 158.3,59.5 L148.4,59.5 C147.1,59.5 146.2,59.7 145.7,60.1 C145.3,60.6 145,61.6 145,63 L145,66.3 L145,66.3 Z" id="Shape" fill="#128AC7"></path>
            <path d="M211.7,88.9 C212.7,88.8 213.6,88.5 214.3,87.8 C215,87.2 215.3,86.5 215.3,85.6 L215.3,84.4 L215.3,82.5 L198.6,82.5 C196.4,82.5 194.7,82.2 193.4,81.6 C192,81.1 190.7,80.1 189.3,78.8 C188,77.4 187,75.9 186.5,74.4 C185.9,73 185.6,71.2 185.6,69 L185.6,29.5 L198.7,29.5 L198.7,64.8 C198.7,67.7 199.8,69.1 202.2,69.1 L211.4,69.1 C212.5,69.1 213.5,68.8 214.3,68 C215.1,67.4 215.4,66.6 215.4,65.7 L215.4,64.2 L215.4,29.3 L228.4,29.3 L228.4,87.7 C228.3,92.1 227.2,95.5 225.1,98.1 C222.9,100.7 220,102.1 216.2,102.1 L185.7,102.1 L185.7,88.7 L211.7,88.7 L211.7,88.9 L211.7,88.9 Z" id="Path" fill="#128AC7"></path>
            <path d="M238.6,69 L261.9,69 C264,68.9 265.1,68 265.2,66.5 L265.2,65.3 C265.2,65 265.1,64.6 264.9,64.2 C264.4,63.2 263.8,62.7 263,62.7 L261.6,62.7 L251.5,62.7 C248.1,62.6 245.1,61.5 242.7,59.2 C240.3,57.1 238.9,54.5 238.9,51.4 L238.9,41.3 C239.1,33.4 243.3,29.5 251.6,29.3 L278.6,29.3 L278.6,42.7 L255.7,42.7 C253,42.7 251.7,43.5 251.7,45.1 L251.7,46.5 C251.7,48.2 253.1,49 255.8,49 L267.3,49 C270.4,49.1 273,50.2 275.2,52.6 C277.4,54.9 278.5,57.7 278.6,60.8 L278.6,70.6 C278.5,73.4 277.3,76.1 274.8,78.8 C273.6,80.1 272.4,81.1 271.1,81.6 C269.9,82.1 268.1,82.3 266,82.3 L238.7,82.3 L238.6,69 L238.6,69 L238.6,69 Z" id="Path" fill="#128AC7"></path>
            <path d="M317.8,45.7 C317.9,43.7 316.7,42.7 314.3,42.8 L288,42.8 L288,29.4 L317.7,29.4 C326.3,29.6 330.7,33.7 330.9,42 L330.9,70 C330.8,73.6 329.8,76.5 327.7,78.8 C325.5,81.2 322.6,82.5 319.2,82.5 L301.3,82.5 C292.6,82.4 288.1,78.5 288,70.5 L288,59.7 C288.1,51.4 292.3,47.2 300.6,47.1 L318,47.1 L317.8,45.7 L317.8,45.7 L317.8,45.7 Z M300.8,66.3 C300.8,67.1 301.1,67.7 301.8,68.1 C302.4,68.6 303.2,69 304.2,69 L314.2,69 C316.5,69 317.6,68.1 317.7,66.4 L317.7,62.6 C317.7,60.6 316.5,59.5 314.1,59.5 L304.2,59.5 C302.9,59.5 302,59.7 301.5,60.1 C301.1,60.6 300.8,61.6 300.8,63 L300.8,66.3 L300.8,66.3 Z" id="Shape" fill="#128AC7"></path>
            <path d="M341.4,21.7 C341.5,18 342.8,15.2 345.4,13 C347.9,10.8 351.2,9.7 355.4,9.6 L363.7,9.6 L363.7,22.6 L358.6,22.6 C355.8,22.7 354.4,24 354.4,26.5 L354.4,29.4 L363.6,29.4 L363.6,42.8 L354.4,42.8 L354.4,82.4 L341.3,82.4 L341.4,21.7 L341.4,21.7 Z" id="Path" fill="#128AC7"></path>
            <path d="M384.6,64.3 L384.6,65.2 C384.6,66.2 384.9,67.1 385.5,67.7 C385.9,68.5 386.5,68.9 387.2,68.9 L388.9,68.9 L414,68.9 L414,82.3 L385.5,82.3 C382.9,82.3 380.9,82 379.4,81.6 C377.8,81.1 376.4,80.2 375.2,79.1 C373.8,77.7 372.8,76.2 372.3,74.7 C371.8,73.1 371.5,71.1 371.5,68.5 L371.4,41.6 C371.6,33.5 375.8,29.4 384.1,29.2 L401.7,29.2 C409.8,29.4 414,33.6 414.1,42 L414.1,52.6 L384.6,64.3 Z M400.9,45.4 L400.9,45.1 C400.9,44.4 400.6,43.8 400,43.4 C399.4,43 398.6,42.8 397.7,42.8 L388.6,42.8 C387.5,42.8 386.5,43.1 385.7,43.8 C384.8,44.4 384.3,45.2 384.3,46.2 L384.3,51.6 L400.9,45.4 Z" id="Shape" fill="#128AC7"></path>
            <path d="M441.8,82.4 C439.8,82.4 438,82.2 436.4,81.9 C434.7,81.6 433,80.9 431.3,79.5 C429.5,77.9 428.2,76.2 427.5,74.3 C426.8,72.4 426.5,70.3 426.5,67.8 L426.5,42.8 C426.4,40.8 426.7,39 427.1,37.4 C427.5,35.8 428.5,34.3 429.9,32.9 C431.5,31.3 433.1,30.3 434.8,29.8 C436.5,29.4 438.3,29.2 440.4,29.2 L460.5,29.2 L460.5,32.3 L441,32.3 C437.5,32.3 434.8,33 432.9,34.4 C430.9,36 429.8,38.6 429.8,42.4 L429.8,67.4 C429.8,69.1 430.1,70.9 430.6,72.5 C431.1,74.2 432.1,75.6 433.4,76.8 C434.8,77.8 436.3,78.5 437.6,78.8 C439.1,79.1 440.6,79.2 442.2,79.2 L460.9,79.2 L460.9,82.3 L441.8,82.4 L441.8,82.4 L441.8,82.4 Z" id="Path" fill="#128AC7"></path>
            <path d="M515,67.9 C515,69.9 514.8,71.7 514.6,73.2 C514.2,74.9 513.3,76.5 512,78.1 C509.3,81 505.9,82.4 501.8,82.3 L486.2,82.3 C482.2,82.3 478.9,81.1 476.3,78.6 C473.7,76.2 472.4,72.9 472.4,68.7 L472.4,60.6 C472.6,51.5 477.1,46.8 486,46.6 L512,46.6 L512,43 C512,40.1 511.1,37.5 509.5,35.3 C508.5,33.9 507.1,32.9 505.7,32.4 C504.2,32.1 502.6,31.8 500.8,31.8 L472.4,31.8 L472.4,28.7 L499.3,28.7 C501.7,28.7 504,28.9 506,29.2 C507,29.4 508,29.8 508.9,30.4 C509.9,30.9 510.6,31.8 511.5,32.8 C513.9,35.9 515.1,39.5 515.1,43.5 L515,67.9 L515,67.9 L515,67.9 Z M511.8,49.9 L485.5,49.9 C482.4,50 479.9,50.9 478.1,52.8 C476.3,54.7 475.4,57.3 475.4,60.7 L475.4,68.7 C475.4,70.3 475.6,71.7 475.9,73 C476.2,74.3 477,75.5 478.3,76.6 C480.6,78.5 483.1,79.4 485.8,79.4 L501.7,79.4 C508.3,79.3 511.7,75.8 511.7,68.8 L511.7,49.9 L511.8,49.9 Z" id="Shape" fill="#128AC7"></path>
            <path d="M544.3,32.2 C537.1,32.4 533.4,36.3 533.6,44.2 L533.6,82.5 L530.5,82.5 L530.5,44.2 C530.3,34.2 535.1,29.1 544.9,29.1 L548.4,29.1 L548.4,32.2 L544.3,32.2 Z" id="Path" fill="#128AC7"></path>
            <path d="M600.3,67.6 C600,77.7 594.6,82.7 584.2,82.4 L572.6,82.4 C570.2,82.4 568,82.2 566.1,81.8 C564.1,81.3 562.2,80.1 560.3,78.1 C558.9,76.4 558,74.7 557.7,73 C557.3,71.3 557,69.2 557.1,67.2 L557.1,44.3 C557.3,34 562.4,28.9 572.6,29 L597.1,29 L597.1,11.6 L600.2,11.6 L600.3,67.6 L600.3,67.6 Z M597.2,32.2 L572.4,32.2 C570.7,32.2 569,32.4 567.6,32.8 C566.1,33.1 564.6,34 563.2,35.5 C561.9,36.9 561.1,38.2 560.8,39.5 C560.4,40.9 560.1,42.5 560.2,44.4 L560.2,68.8 C560.2,72.9 561.3,75.6 563.8,77.1 C564.9,77.8 566.2,78.3 567.7,78.7 C569.2,79 570.8,79.3 572.5,79.3 L583.3,79.3 C587.3,79.3 590.6,78.3 593.2,76.5 C595.7,74.8 597,71.7 597.1,67.3 L597.2,32.2 L597.2,32.2 L597.2,32.2 Z" id="Shape" fill="#128AC7"></path>
            <g id="Group" fill="#E00D1D">
                <path d="M5.9,27.4 C6.9,27 8,26.6 9,26.4 C10.9,17.4 18.9,10.6 28.5,10.6 C38.1,10.6 46,17.4 48,26.4 C51,26.9 53.3,28.1 55.2,29.9 C55.3,28.2 55.2,26.5 55,24.9 C53.8,11.3 42.4,0.6 28.5,0.6 C14.2,0.6 2.5,11.9 1.9,26.2 C1.8,27.4 1.8,28.7 1.8,30 C2.9,28.9 4.3,28.1 5.9,27.4 Z" id="Path"></path>
                <path d="M43.9,29.4 L12.1,29.4 C10.5,29.4 9,29.7 7.3,30.4 C5.7,31.1 4.4,31.9 3.4,32.9 C1.4,35.3 0.4,38.7 0.3,43.4 L0.3,68.3 C0.4,72.9 1.3,76.3 3.4,78.8 C4.4,79.8 5.8,80.6 7.3,81.3 C9,82 10.5,82.3 12.1,82.3 L44,82.3 C52.2,82.2 56.5,77.7 56.6,68.8 L56.6,42.8 C56.4,33.9 52.2,29.5 43.9,29.4 Z" id="Path"></path>
            </g>
        </g>
    </g>
</svg>
