<?xml version="1.0" encoding="UTF-8"?>
<svg width="56px" height="19px" viewBox="0 0 56 19" version="1.1" xmlns="http://www.w3.org/2000/svg" xmlns:xlink="http://www.w3.org/1999/xlink">
    <!-- Generator: Sketch 63.1 (92452) - https://sketch.com -->
    <title>skrill-logo-gradient</title>
    <desc>Created with Sketch.</desc>
    <g id="Page-1" stroke="none" stroke-width="1" fill="none" fill-rule="evenodd">
        <g id="Deposit-Method" transform="translate(-442.000000, -485.000000)" fill="#832162" fill-rule="nonzero">
            <g id="skrill-logo-gradient" transform="translate(442.943525, 485.000000)">
                <path d="M39.1763165,4.60641772 C40.4127595,4.60641772 41.4149494,3.60470886 41.4149494,2.36946835 C41.4149494,1.13350633 40.4127595,0.130835443 39.1763165,0.130835443 C37.9413165,0.130835443 36.9396076,1.13350633 36.9396076,2.36946835 C36.9396076,3.60470886 37.9413165,4.60641772 39.1763165,4.60641772 L39.1763165,4.60641772 Z M22.0313418,5.81448101 C21.9303291,6.06821519 21.2032785,8.12189873 19.4449367,10.2503797 L19.4449367,1.14937975 L14.7598734,2.07532911 L14.7598734,18.5718987 L19.4449367,18.5718987 L19.4449367,13.4726835 C20.8018734,15.5078481 21.4719241,18.5718987 21.4719241,18.5718987 L27.0836582,18.5718987 C26.5285696,16.2642405 24.1004177,12.0092025 24.1004177,12.0092025 C26.2796456,9.24626582 27.2368608,6.30222785 27.3891013,5.81448101 L22.0313418,5.81448101 L22.0313418,5.81448101 Z M34.3481519,5.64227848 C30.1517975,5.77696203 28.0216329,7.65964557 28.0216329,11.4021646 L28.0216329,18.5718987 L32.5996709,18.5718987 L32.5996709,12.7251899 C32.5996709,10.4841519 32.8930886,9.52356962 35.5523671,9.43193671 L35.5523671,5.70793671 C35.1047848,5.61293671 34.3481519,5.64227848 34.3481519,5.64227848 L34.3481519,5.64227848 Z M6.90253165,7.63102532 C6.32868354,7.59326582 5.00012658,7.50740506 5.00012658,6.31136709 C5.00012658,4.86808861 6.91287342,4.86808861 7.6303038,4.86808861 C8.89175949,4.86808861 10.525519,5.24087342 11.6922152,5.5898481 C11.6922152,5.5898481 12.3430253,5.81929114 12.8969114,6.05426582 L12.9483797,6.06821519 L12.9483797,2.11549367 L12.8776709,2.09456962 C11.5007722,1.61283544 9.89972152,1.14937975 6.93139241,1.14937975 C1.81341772,1.14937975 0,4.13093671 0,6.68511392 C0,8.15749367 0.631088608,11.6227089 6.49246835,12.0224304 C6.98935443,12.0529747 8.30805063,12.1289747 8.30805063,13.3649367 C8.30805063,14.3854051 7.22841772,14.9871519 5.41259494,14.9871519 C3.42264557,14.9871519 1.49234177,14.4796835 0.319873418,13.9984304 L0.319873418,18.069481 C2.07508861,18.5295696 4.05373418,18.7594937 6.3726962,18.7594937 C11.3769114,18.7594937 13.6181899,15.9385949 13.6181899,13.1427089 C13.6181899,9.97259494 11.1101899,7.91289873 6.90253165,7.63102532 L6.90253165,7.63102532 Z M36.9068987,18.5718987 L41.4478987,18.5718987 L41.4478987,5.82891139 L36.9068987,5.82891139 L36.9068987,18.5718987 Z M49.9983797,1.96181013 L49.9983797,18.5718987 L54.5401013,18.5718987 L54.5401013,1.14937975 L49.9983797,1.96181013 L49.9983797,1.96181013 Z M43.3714684,1.96181013 L47.9088608,1.14937975 L47.9088608,18.5718987 L43.3714684,18.5718987 L43.3714684,1.96181013 L43.3714684,1.96181013 Z" id="Fill-1"></path>
            </g>
        </g>
    </g>
</svg>