<svg xmlns="http://www.w3.org/2000/svg" width="19" height="19" viewBox="0 0 19 19">
    <g fill="none" fill-rule="evenodd">
        <circle cx="9.5" cy="9.5" r="9.5" fill="#1F1F1F"/>
        <path fill="#FFF" fill-rule="nonzero" d="M19 9.5c0 5.248-4.26 9.5-9.515 9.5-4.36 0-8.03-2.923-9.156-6.91l3.647 1.505c.245 1.23 1.337 2.16 2.64 2.16 1.501 0 2.754-1.24 2.689-2.815l3.237-2.306c1.995.05 3.67-1.567 3.67-3.582 0-1.976-1.61-3.581-3.59-3.581-1.98 0-3.59 1.608-3.59 3.581v.046l-2.267 3.283c-.594-.034-1.176.13-1.666.464L0 8.738C.39 3.846 4.486 0 9.485 0 14.74 0 19 4.252 19 9.5zM5.964 14.415l-1.168-.483c.215.446.585.798 1.042.988 1.03.43 2.214-.06 2.643-1.088.207-.498.21-1.045.004-1.543-.207-.498-.594-.889-1.092-1.096-.494-.207-1.023-.199-1.49-.023l1.207.498c.758.314 1.118 1.184.8 1.942-.318.763-1.187 1.119-1.946.805zm6.658-4.976c-1.318 0-2.39-1.073-2.39-2.387s1.072-2.386 2.39-2.386 2.39 1.072 2.39 2.386-1.068 2.387-2.39 2.387zm.004-.598c.992 0 1.796-.804 1.796-1.793 0-.992-.804-1.792-1.796-1.792s-1.797.804-1.797 1.792c.004.989.808 1.793 1.797 1.793z"/>
    </g>
</svg>
