<svg xmlns="http://www.w3.org/2000/svg" width="28" height="19" viewBox="0 0 28 19">
    <g fill="none">
        <path fill="#E7E8E3" d="M27.48 17.351c0 .897-.727 1.625-1.624 1.625H1.624C.727 18.976 0 18.248 0 17.35V1.65C0 .75.727.024 1.624.024h24.232c.897 0 1.624.728 1.624 1.625V17.35z"/>
        <path fill="#202121" d="M1.155 17.351V1.65c0-.898.727-1.625 1.624-1.625H1.624C.727.024 0 .752 0 1.65V17.35c0 .897.727 1.625 1.624 1.625H2.78c-.897 0-1.624-.728-1.624-1.625z" opacity=".15"/>
        <g fill="#006E90">
            <path d="M.009.02H2.05C2.803.01 3.628.205 3.628 1.116c0 .391-.233.71-.575.88.465.135.752.538.752 1.034 0 1.039-.764 1.357-1.7 1.357H.01V.02zM1.146 1.74h.88c.196 0 .465-.104.465-.416 0-.318-.227-.422-.465-.422h-.88v.838zm0 1.736h.91c.361 0 .612-.129.612-.49 0-.384-.269-.513-.611-.513h-.911v1.003zM5.608.02h1.155l1.633 4.366H7.21l-.27-.783H5.419l-.275.783H3.976L5.608.02zm.073 2.74h.99L6.19 1.23h-.012L5.68 2.76zM8.713.021L9.881.021 11.397 2.711 11.409 2.711 11.409.021 12.479.021 12.479 4.386 11.311 4.386 9.795 1.665 9.783 1.665 9.783 4.386 8.713 4.386zM13.255.021L14.392.021 14.392 1.696 15.828.021 17.241.021 15.627 1.739 17.442 4.386 16.03 4.386 14.856 2.552 14.392 3.041 14.392 4.386 13.255 4.386 13.255.021z" transform="translate(7.836 5.367)"/>
        </g>
        <g fill="#66CDE7">
            <path d="M2.624.763L1.727.763 1.727 3.095.945 3.095.945.763.048.763.048.089 2.624.089zM2.97.09h1.532c.53 0 1.052.24 1.052.846 0 .324-.155.631-.471.753v.009c.32.075.412.433.437.72.009.126.022.568.127.677h-.775c-.067-.1-.08-.395-.088-.48-.021-.303-.072-.614-.438-.614h-.594v1.094H2.97V.09zm.783 1.304h.656c.236 0 .362-.126.362-.353 0-.223-.177-.324-.396-.324h-.623v.677zM6.825.09h.796l1.124 3.005h-.817l-.185-.539H6.695l-.19.54h-.804L6.825.09zm.051 1.885h.682L7.225.923h-.008l-.341 1.052zM8.964.09L9.768.09 10.812 1.942 10.821 1.942 10.821.09 11.557.09 11.557 3.095 10.753 3.095 9.709 1.222 9.701 1.222 9.701 3.095 8.964 3.095zM12.702 2.085c.017.353.236.467.569.467.235 0 .48-.084.48-.307 0-.265-.43-.316-.863-.438-.43-.122-.88-.316-.88-.867 0-.657.66-.914 1.225-.914.598 0 1.2.29 1.204.968h-.783c.012-.273-.244-.362-.484-.362-.169 0-.38.06-.38.257 0 .232.434.274.872.396.434.122.872.324.872.867 0 .762-.649 1.006-1.31 1.006-.69 0-1.3-.303-1.305-1.073h.783zM14.9.09L17.114.09 17.114.717 15.683.717 15.683 1.331 16.921 1.331 16.921 1.937 15.683 1.937 15.683 3.095 14.9 3.095 14.9.09zM17.472.09L19.868.09 19.868.717 18.255.717 18.255 1.243 19.729 1.243 19.729 1.849 18.255 1.849 18.255 2.422 19.91 2.422 19.91 3.095 17.472 3.095zM20.356.09h1.532c.53 0 1.053.24 1.053.846 0 .324-.156.631-.472.753v.009c.32.075.413.433.438.72.008.126.021.568.126.677h-.774c-.068-.1-.08-.395-.089-.48-.02-.303-.071-.614-.438-.614h-.593v1.094h-.783V.09zm.783 1.304h.657c.235 0 .362-.126.362-.353 0-.223-.177-.324-.396-.324h-.623v.677z" transform="translate(2.362 10.573)"/>
        </g>
        <g fill="#D92B2B">
            <path d="M.048.02H4.787V1.02H.048zM.048 3.437H4.787V4.436999999999999H.048zM.048 1.728H4.787V2.7279999999999998H.048z" transform="translate(2.362 5.367)"/>
        </g>
    </g>
</svg>
