<?xml version="1.0" encoding="UTF-8"?>
<svg width="31px" height="20px" viewBox="0 0 31 20" version="1.1" xmlns="http://www.w3.org/2000/svg" xmlns:xlink="http://www.w3.org/1999/xlink">
    <!-- Generator: Sketch 63.1 (92452) - https://sketch.com -->
    <title>unionpay</title>
    <desc>Created with Sketch.</desc>
    <g id="Page-1" stroke="none" stroke-width="1" fill="none" fill-rule="evenodd">
        <g id="Deposit-Method" transform="translate(-668.000000, -484.000000)">
            <g id="unionpay" transform="translate(668.105911, 484.561221)">
                <path d="M6.28355167,-1.70530257e-13 L13.9719361,-1.70530257e-13 C15.1033132,-1.70530257e-13 15.8066166,0.873690745 15.5428082,1.9514429 L11.8408866,17.0751254 C11.5770782,18.1528775 10.4460569,19.0265683 9.31467983,19.0265683 L1.62629537,19.0265683 C0.494918288,19.0265683 -0.20838511,18.1528775 0.0554232631,17.0751254 L3.75734494,1.9514429 C4.02115331,0.873690745 5.15217459,-1.70530257e-13 6.28355167,-1.70530257e-13 Z" id="Rectangle-Copy-3" fill="#E21935"></path>
                <path d="M12.9022397,-1.70530257e-13 L20.5906241,-1.70530257e-13 C21.7220012,-1.70530257e-13 22.4253046,0.873690745 22.1614962,1.9514429 L18.4595745,17.0751254 C18.1957662,18.1528775 17.0647449,19.0265683 15.9333678,19.0265683 L8.24498335,19.0265683 C7.11360627,19.0265683 6.41030287,18.1528775 6.67411124,17.0751254 L10.3760329,1.9514429 C10.6398413,0.873690745 11.7708626,-1.70530257e-13 12.9022397,-1.70530257e-13 Z" id="Rectangle-Copy-2" fill="#00457C"></path>
                <path d="M21.4909324,-1.70530257e-13 L29.1793169,-1.70530257e-13 C30.3106939,-1.70530257e-13 31.0139973,0.873690745 30.750189,1.9514429 L27.0482673,17.0751254 C26.7844589,18.1528775 25.6534376,19.0265683 24.5220606,19.0265683 L16.8336761,19.0265683 C15.702299,19.0265683 14.9989956,18.1528775 15.262804,17.0751254 L18.9647257,1.9514429 C19.228534,0.873690745 20.3595553,-1.70530257e-13 21.4909324,-1.70530257e-13 Z" id="Rectangle-Copy" fill="#007B84"></path>
                <g id="38957" transform="translate(4.460071, 4.013284)" fill="#FFFFFF" fill-rule="nonzero">
                    <path d="M16.0999777,5.96705771 L16.0641132,6.17746284 C16.0641132,6.17746284 16.4857204,5.96705771 16.7885763,5.96705771 L16.7885763,5.96705771 L17.8071284,5.96705771 L17.6453396,6.5400929 L17.4851448,6.5400929 L16.7160503,9.24587104 L16.8770421,9.24587104 L16.7256141,9.78383871 L16.5646223,9.78383871 L16.4976752,10.0165595 L15.6998891,10.0165595 L15.7668362,9.78383871 L14.1919857,9.78383871 L14.3442106,9.24587104 L14.5020144,9.24587104 L15.2719059,6.5400929 L15.1133051,6.5400929 L15.2758909,5.96705771 L16.0999777,5.96705771 Z M12.8299312,8.27593525 L12.8155854,8.57958812 L13.0020809,8.57958812 C13.0969226,8.57958812 13.1439449,8.55009952 13.1439449,8.49032533 L13.1439449,8.49032533 L13.2029221,8.29506299 L13.7863182,8.29506299 L13.7082132,8.5811821 C13.6420632,8.82027884 13.4667255,8.94381216 13.1829974,8.95736097 L13.1829974,8.95736097 L12.8084125,8.95736097 L12.8068185,9.4762009 C12.8004426,9.55908777 12.8753596,9.60212519 13.0307725,9.60212519 L13.0307725,9.60212519 L13.3814477,9.60212519 L13.2666813,10.0141686 L12.4226698,10.0141686 C12.187558,10.0237324 12.0704006,9.91215396 12.0735885,9.67226023 L12.0735885,9.67226023 L12.1261898,8.27593525 L12.8299312,8.27593525 Z M20.1263668,6.96887306 L19.9789238,7.48850998 L19.1803407,7.48771299 L19.0424616,7.96989142 L19.8410447,7.96989142 L19.6920077,8.48952835 L18.8025678,8.48952835 L18.6017266,8.79318121 L19.0376796,8.79318121 L19.1373033,9.4028779 C19.1500551,9.46344908 19.2042504,9.49293768 19.2959041,9.49293768 L19.2959041,9.49293768 L19.4313923,9.49293768 L19.2879342,9.99504084 L18.7223926,9.99556697 C18.5316414,9.98617433 18.4322668,9.90249047 18.423201,9.74558323 L18.423201,9.74558323 L18.3068406,9.18928481 L17.911534,9.78144774 C17.8174893,9.94881546 17.6732342,10.0269204 17.4787689,10.0141686 L17.4787689,10.0141686 L16.7487268,10.0141686 L16.8913879,9.5128624 L17.1193268,9.5128624 C17.2125745,9.5128624 17.2914764,9.46982499 17.3608145,9.38693812 L17.3608145,9.38693812 L17.9800751,8.49112232 L17.1814919,8.49112232 L17.3305289,7.97307938 L18.1968561,7.97307938 L18.3355322,7.49010396 L17.467611,7.49010396 L17.617445,6.96887306 L20.1263668,6.96887306 Z M10.9498338,7.18166916 L10.8127517,7.68297533 L9.9464245,7.68297533 L9.81492129,8.16834172 L10.6581358,8.16834172 L10.5210537,8.67124187 L9.67704217,8.67124187 L9.48098284,9.38534414 C9.4323665,9.5056895 9.49612563,9.55908777 9.67305722,9.54713294 L9.67305722,9.54713294 L10.3600619,9.54713294 L10.2325436,10.0133716 L8.91352657,10.0133716 C8.66247499,10.0133716 8.57719715,9.86911655 8.65530209,9.58299745 L8.65530209,9.58299745 L8.90555668,8.66964789 L8.36679202,8.66964789 L8.50307716,8.16754473 L9.04263881,8.16754473 L9.17414202,7.68297533 L8.65928703,7.68297533 L8.79477519,7.18166916 L10.9498338,7.18166916 Z M14.3402256,5.93916309 L13.8181978,7.82723037 C13.7751603,8.04321443 13.5894619,8.15001097 13.2626963,8.15001097 L13.2626963,8.15001097 L11.7173344,8.15001097 L11.3555013,9.4762009 C11.3347796,9.54792993 11.3634712,9.58459143 11.4423731,9.58459143 L11.4423731,9.58459143 L11.746823,9.58459143 L11.6336505,9.99504084 L10.860571,9.99504084 C10.5632941,9.99504084 10.4405578,9.90657504 10.4891741,9.72645549 L10.4891741,9.72645549 L11.5125082,5.95111793 L12.2337833,5.95111793 L12.2011068,6.24440993 C12.2011068,6.24440993 12.6075712,5.93916309 12.9765772,5.93916309 L12.9765772,5.93916309 L14.3402256,5.93916309 Z M16.0083239,8.69036961 L15.3930483,8.69036961 L15.2344475,9.24587104 L15.8497231,9.24587104 L16.0083239,8.69036961 Z M16.3135708,7.61523126 L15.6967012,7.61523126 L15.485499,8.3827318 C15.485499,8.3827318 15.8839936,8.18667247 16.1565639,8.17073269 C16.2338718,7.87425273 16.3135708,7.61523126 16.3135708,7.61523126 L16.3135708,7.61523126 Z M13.1694486,7.2892627 L11.9500552,7.2892627 L11.8488376,7.66464458 L12.9486826,7.66464458 C13.0387424,7.67659942 13.0897497,7.64232889 13.0961256,7.55705105 L13.0961256,7.55705105 L13.1694486,7.2892627 Z M16.6188176,6.5400929 L16.002745,6.5400929 L15.7931368,7.27252592 C15.7931368,7.27252592 16.151782,7.1346468 16.4610137,7.09559433 C16.5287578,6.84055781 16.6188176,6.5400929 16.6188176,6.5400929 L16.6188176,6.5400929 Z M10.3903474,5.9527119 L10.2189948,6.25477079 L11.2024794,6.25477079 L11.0773521,6.71543051 L9.90737203,6.71543051 C9.77268086,6.91945973 9.60690712,7.01430144 9.40686285,7.00234661 L9.40686285,7.00234661 L8.79716615,7.00234661 L8.93026334,6.51937119 L9.04821773,6.51937119 C9.15740525,6.51937119 9.22993126,6.4819127 9.26420179,6.41018367 L9.26420179,6.41018367 L9.57024562,5.9527119 L10.3903474,5.9527119 Z M13.3902146,6.48430366 L12.1724152,6.48430366 L12.0265662,6.99357972 C12.0265662,6.99357972 12.2290014,6.84693372 12.5685188,6.84215179 C12.9064422,6.83736985 13.2921849,6.84215179 13.2921849,6.84215179 L13.2921849,6.84215179 L13.3902146,6.48430366 Z M18.6168694,5.93199019 L18.6495459,6.21810929 C18.645561,6.28983831 18.6878014,6.32570282 18.7794552,6.32410885 L18.7794552,6.32410885 L18.9165373,6.32410885 L18.7770642,6.80867824 L18.207217,6.80867824 C17.9896389,6.82063308 17.8788574,6.7385432 17.8676996,6.55762666 L17.8676996,6.55762666 L17.8413989,5.93199019 L18.6168694,5.93199019 Z M22.3667033,2.34952399 L20.918574,5.28563199 C20.6603495,5.83874246 20.4116889,6.16072607 20.2666369,6.31056003 C20.1199909,6.459597 19.8322778,6.80389631 19.1365063,6.77839266 L19.1365063,6.77839266 L19.1970775,6.3567854 C19.7812705,6.17666585 20.0976752,5.36533091 20.2785917,5.00509181 L20.2785917,5.00509181 L20.0634047,2.35749388 L20.5145005,2.35111797 L20.8946643,2.35111797 L20.9353108,4.01204334 L21.6462251,2.34952399 L22.3667033,2.34952399 Z M1.75895504,0.677440771 L1.19468672,3.40154966 C1.17715296,3.47806062 1.17077705,3.54819566 1.17157404,3.6111578 C1.17077705,3.7506309 1.20504758,3.86460035 1.27518263,3.95386314 C1.37719724,4.08696032 1.54297098,4.15311042 1.77489482,4.15311042 C2.0402922,4.15311042 2.25866723,4.0885543 2.42842592,3.95705109 C2.5981846,3.82714186 2.7089661,3.64303737 2.75837942,3.40234665 L2.75837942,3.40234665 L3.32424171,0.67823776 L4.18339601,0.676643782 L3.61195479,3.43263224 C3.51711309,3.89966787 3.2955501,4.25831299 2.95284477,4.51334951 C2.61412439,4.7636041 2.17578036,4.88952839 1.63940667,4.88952839 C1.13411555,4.88952839 0.764312588,4.76201013 0.528403801,4.50458263 C0.365021027,4.32207212 0.282931146,4.08935129 0.282931146,3.80881111 C0.282931146,3.6924507 0.296479961,3.5673234 0.324374581,3.43342923 L0.324374581,3.43342923 L0.895815796,0.677440771 L1.75895504,0.677440771 Z M9.74239528,2.28496787 C10.0460481,2.28496787 10.2875359,2.37024571 10.4636705,2.5400044 C10.6398051,2.71056007 10.7282708,2.94088994 10.7282708,3.23418194 C10.7282708,3.28439226 10.7250829,3.34257246 10.71791,3.40473762 C10.7099401,3.46849675 10.7003762,3.52906792 10.6892184,3.58884211 C10.6111134,3.98175776 10.4405578,4.29577148 10.1775513,4.52530435 C9.91454493,4.75722819 9.59893723,4.87199463 9.23072825,4.87199463 C8.92548141,4.87199463 8.68558767,4.78751378 8.50945307,4.62174004 C8.33172449,4.45277834 8.2432587,4.22483944 8.24166472,3.93553239 C8.24166472,3.88532207 8.24485268,3.82953283 8.25122859,3.76816467 C8.25840149,3.70599951 8.26716837,3.64542834 8.27832622,3.58884211 C8.35961911,3.18955055 8.5293778,2.87234887 8.79238422,2.63803406 C9.05459365,2.40371925 9.37179533,2.28496787 9.74239528,2.28496787 Z M17.5202123,2.6133274 C18.0470221,2.36865173 18.3195924,2.51370376 18.6184634,2.74722157 L18.6184634,2.74722157 L18.9045825,2.55036526 L19.5780383,2.49138806 L19.0679652,4.81062646 L18.2893068,4.79070174 L18.1753374,4.65760455 C16.2027893,5.4976311 16.8029221,2.94646886 17.5202123,2.6133274 Z M12.7430594,2.28815583 C12.9988929,2.28815583 13.1837944,2.36307281 13.3001548,2.51290677 C13.4133273,2.66274072 13.4460038,2.8699579 13.3910116,3.13535529 L13.3910116,3.13535529 L13.0562761,4.81142345 L12.4290457,4.81142345 L12.7326985,3.29236215 C12.7637811,3.13535529 12.7566082,3.01819788 12.7079919,2.9432809 C12.6577816,2.86756693 12.5693158,2.83010844 12.4386095,2.83010844 C12.2776177,2.83010844 12.1421296,2.88031876 12.0305511,2.9799424 C11.9197696,3.08036304 11.8464466,3.21983614 11.8113791,3.39756471 L11.8113791,3.39756471 L11.5292449,4.81142345 L10.9028115,4.81142345 L11.3945538,2.35111797 L12.0050475,2.35111797 L11.9357094,2.70577814 L12.0217842,2.60456052 C12.2194375,2.39335839 12.4609252,2.28815583 12.7430594,2.28815583 Z M5.75346462,2.28735884 C6.01009512,2.28735884 6.1949966,2.36147883 6.31056003,2.51290677 C6.42452948,2.66274072 6.45561205,2.8699579 6.40141679,3.13535529 L6.40141679,3.13535529 L6.06668135,4.81142345 L5.4394509,4.81142345 L5.74310376,3.29236215 C5.77418634,3.13535529 5.76541946,3.01819788 5.71680312,2.9432809 C5.66978076,2.86756693 5.578924,2.83010844 5.44742079,2.83010844 C5.28642898,2.83010844 5.15094083,2.88031876 5.04015934,2.9799424 C4.92937785,3.08036304 4.85605484,3.21983614 4.82019033,3.39756471 L4.82019033,3.39756471 L4.54044714,4.81062646 L3.91321669,4.81062646 L4.40495899,2.35032098 L5.01465568,2.35032098 L4.94531763,2.70498115 L5.03218945,2.60376353 C5.23063974,2.39256141 5.47053347,2.28735884 5.75346462,2.28735884 Z M16.1828645,0.824883762 C16.5239759,0.824883762 16.7869823,0.902191709 16.9678988,1.05441664 C17.1480184,1.20743855 17.2380782,1.42740755 17.2380782,1.71432365 L17.2380782,1.71432365 C17.2380782,1.77728579 17.2348902,1.83945094 17.2293113,1.90560104 C17.2205444,1.97175114 17.2101835,2.03869823 17.1950407,2.10723929 C17.1161388,2.48740311 16.9360193,2.79185297 16.6562761,3.02297982 C16.3749389,3.25330968 16.0417975,3.36967009 15.6600397,3.36967009 L15.6600397,3.36967009 L14.7100286,3.36967009 L14.4159396,4.81062646 L13.5942438,4.81062646 L14.4119547,0.824883762 Z M7.91091423,2.35111797 L7.38091645,4.80903249 L6.70666363,4.80903249 L7.23506743,2.35111797 L7.91091423,2.35111797 Z M18.2932918,3.02616777 C18.0773077,2.95762671 17.7959706,3.19911442 17.6724372,3.56891738 C17.544919,3.93872034 17.6222269,4.2941775 17.840602,4.36112459 C18.058977,4.43046264 18.3387202,4.18738095 18.4630505,3.81837498 C18.5897717,3.44936901 18.5116668,3.09391185 18.2932918,3.02616777 Z M9.63320776,2.82931146 C9.44591532,2.82931146 9.29369039,2.89546155 9.17414202,3.02696476 C9.05379666,3.15926496 8.96851882,3.35771526 8.91432356,3.62311264 C8.90715066,3.66375909 8.90077474,3.70520252 8.89599281,3.74425499 C8.89200786,3.78569843 8.89121087,3.82315692 8.89121087,3.85822444 C8.89121087,4.00885539 8.93026334,4.1252158 9.00836828,4.20730568 C9.08487923,4.28939556 9.19406675,4.33004201 9.33752479,4.33004201 C9.52561423,4.33004201 9.67783916,4.2646889 9.79738753,4.13477967 C9.9169359,4.00566743 10.0014167,3.8096081 10.054018,3.54978964 C10.0619879,3.50914319 10.0683638,3.46690277 10.0723488,3.42386536 C10.0755367,3.38242192 10.0779277,3.34336945 10.0779277,3.30750494 C10.0779277,3.15687399 10.0396722,3.0389196 9.96156729,2.95523574 C9.88425934,2.87155188 9.77507183,2.82931146 9.63320776,2.82931146 Z M15.7628513,1.50790346 L15.0949744,1.50790346 L14.8534866,2.67628954 L15.6409119,2.67628954 C15.8465351,2.67628954 16.0099179,2.62847019 16.1278723,2.53442547 C16.2458267,2.43878678 16.3239316,2.29373475 16.366969,2.09608144 C16.3741419,2.06021693 16.3789239,2.02674339 16.3837058,1.9964578 C16.3868938,1.96776619 16.3908787,1.93987157 16.3908787,1.91197695 C16.3908787,1.77090987 16.3406684,1.66809828 16.2410447,1.60433914 C16.1398271,1.53898603 15.9828203,1.50790346 15.7628513,1.50790346 L15.7628513,1.50790346 Z M8.12928925,1.45450518 L8.00177099,2.05224704 L7.32034527,2.05224704 L7.44706655,1.45450518 L8.12928925,1.45450518 Z" id="Combined-Shape"></path>
                </g>
            </g>
        </g>
    </g>
</svg>