<svg xmlns="http://www.w3.org/2000/svg" width="43" height="14" viewBox="0 0 43 14">
    <path fill="#666" fill-rule="nonzero" d="M28.073.455c1.356 0 2.44.271 3.134.526l-.474 2.73-.317-.143a6.554 6.554 0 0 0-2.616-.483c-1.369 0-2 .56-2 1.082-.01.59.737.979 1.96 1.56 2.015.902 2.95 1.993 2.937 3.423-.026 2.619-2.414 4.305-6.087 4.305-1.567-.013-3.077-.32-3.893-.67l.491-2.823.447.202c1.15.47 1.893.66 3.293.66 1.005 0 2.08-.384 2.09-1.228.008-.552-.449-.946-1.81-1.561-1.325-.604-3.085-1.613-3.063-3.424.022-2.449 2.454-4.156 5.908-4.156zm12.096.228L43 13.273h-3.243s-.32-1.45-.426-1.888l-3.474-.004h-1.003c-.136.34-.733 1.892-.733 1.892h-3.674L35.64 1.726c.37-.819.992-1.043 1.83-1.043h2.7zM20.717.67L18.526 13.27h-3.493L17.218.67h3.5zM15.804.68l-5.503 12.577-3.7.005-3.13-10.508c2.252 1.414 4.17 3.66 4.841 5.221l.366 1.298L12.1.679h3.703zm21.912 3.397c-.176.475-.483 1.238-.466 1.203 0 0-1.101 2.799-1.391 3.523h2.901l-.808-3.64zM5.464.558c.734.03 1.322.259 1.523 1.026L8.17 7.151C7.009 4.24 4.218 1.817 0 .812L.048.558z"/>
</svg>
