<svg xmlns="http://www.w3.org/2000/svg" width="59" height="18" viewBox="0 0 59 18">
    <g fill="none">
        <path fill="#025EAD" d="M38.099.617c1.84 0 3.312.369 4.253.714l-.643 3.704-.43-.193c-.875-.345-1.995-.679-3.55-.655-1.858 0-2.716.76-2.716 1.468-.012.802 1 1.329 2.663 2.119 2.734 1.223 4.002 2.703 3.985 4.644-.036 3.554-3.277 5.842-8.262 5.842-2.127-.018-4.176-.433-5.283-.908l.667-3.832.606.274c1.562.639 2.569.896 4.469.896 1.364 0 2.823-.522 2.835-1.667.012-.75-.608-1.284-2.454-2.119-1.799-.819-4.188-2.188-4.158-4.646.03-3.324 3.33-5.641 8.018-5.641zm16.416.31l3.842 17.087h-4.402s-.435-1.968-.577-2.563l-5.263-.005-.813-.001c-.185.463-.995 2.569-.995 2.569h-4.986l7.047-15.671c.5-1.112 1.346-1.416 2.484-1.416h3.663zM28.116.91l-2.974 17.099h-4.74L23.366.909h4.749zm-6.667.012l-7.469 17.07-5.021.005-4.247-14.26c3.055 1.92 5.658 4.968 6.569 7.086l.496 1.761L16.423.921h5.026zm29.736 4.611c-.238.644-.655 1.68-.631 1.633 0 0-1.495 3.798-1.888 4.78h3.937l-1.096-4.938z" transform="translate(0 -.5)"/>
        <path fill="#EFA938" d="M11.086 9.705L9.483 2.15C9.209 1.108 8.412.798 7.415.757H.065L0 1.103c5.724 1.363 9.512 4.652 11.086 8.602z" transform="translate(0 -.5)"/>
    </g>
</svg>
