<svg xmlns="http://www.w3.org/2000/svg" width="19" height="19" viewBox="0 0 19 19">
    <defs>
        <linearGradient id="prefix__a" x1="19.251%" x2="92.036%" y1="31.903%" y2="91.685%">
            <stop offset="0%" stop-color="#20A1D7"/>
            <stop offset="100%" stop-color="#0F689F"/>
        </linearGradient>
    </defs>
    <g fill="none" fill-rule="evenodd">
        <path fill="#266BA6" d="M9.495.094C4.275.094.042 4.326.042 9.547.042 14.767 4.274 19 9.495 19c5.22 0 9.453-4.232 9.453-9.453 0-5.22-4.232-9.453-9.453-9.453"/>
        <path fill="#181D1F" d="M9.495 18.204c-4.781 0-8.657-3.876-8.657-8.657C.838 4.766 4.714.89 9.495.89c4.78 0 8.657 3.876 8.657 8.657 0 4.78-3.876 8.657-8.657 8.657"/>
        <path fill="url(#prefix__a)" d="M11.537 10.586c-.13 0-.258.01-.382.029-.373-.317-.66-.711-.636-1.164.02-.353.185-.647.421-.89.171.036.348.056.53.056 1.405 0 2.545-1.14 2.545-2.546 0-1.405-1.14-2.545-2.545-2.545-1.406 0-2.546 1.14-2.546 2.545 0 .654.247 1.25.652 1.7-.056.337-.18.635-.417.79-.254.165-.757.191-1.305.155-.372-.944-1.292-1.613-2.368-1.613-1.406 0-2.545 1.14-2.545 2.546 0 1.405 1.14 2.545 2.545 2.545 1.158 0 2.134-.773 2.443-1.83.446-.069.849-.063 1.062.106.271.214.409.673.472 1.186-.296.416-.472.925-.472 1.476 0 1.405 1.14 2.545 2.546 2.545 1.405 0 2.545-1.14 2.545-2.545 0-1.406-1.14-2.546-2.545-2.546"/>
    </g>
</svg>
