<?xml version="1.0" encoding="UTF-8"?>
<svg width="20px" height="20px" viewBox="0 0 20 20" version="1.1" xmlns="http://www.w3.org/2000/svg" xmlns:xlink="http://www.w3.org/1999/xlink">
    <title>Battles_fill_hover</title>
    <defs>
        <linearGradient x1="0%" y1="8.97017097%" x2="100%" y2="91.029829%" id="linearGradient-1">
            <stop stop-color="#F48836" offset="0%"></stop>
            <stop stop-color="#F4364C" offset="100%"></stop>
        </linearGradient>
    </defs>
    <g id="Page-1" stroke="none" stroke-width="1" fill="none" fill-rule="evenodd" stroke-linejoin="round">
        <g id="Battles_fill_hover" fill="url(#linearGradient-1)" stroke="url(#linearGradient-1)">
            <path d="M5.4605,2.4625 L14.7745,11.7775 L15.8825,10.6695 C16.1875,10.3645 16.6815,10.3645 16.9855,10.6695 C17.2905,10.9745 17.2905,11.4685 16.9855,11.7735 L15.6045,13.1545 L18.0935,15.6445 C18.3965,15.9485 18.3965,16.4425 18.0935,16.7475 L17.5375,17.3035 C17.2325,17.6065 16.7395,17.6065 16.4345,17.3035 L13.9145,14.8215 L12.5525,16.1995 C12.2515,16.5045 11.7605,16.5075 11.4555,16.2065 C11.1475,15.8985 11.1475,15.4045 11.4525,15.0995 L12.5595,13.9925 L3.2455,4.6775 L3.2455,2.4625 L5.4605,2.4625 Z M16.7555,4.6705 L16.7555,2.4625 L14.5395,2.4625 L11.312021,5.7333787 L13.528021,7.9413787 L16.7555,4.6705 Z M6.53940323,10.5130008 L5.2255,11.7785 L4.1185,10.6685 C3.8135,10.3635 3.3185,10.3635 3.0145,10.6685 C2.7095,10.9735 2.7095,11.4675 3.0145,11.7725 L4.3965,13.1535 L1.9065,15.6505 C1.6035,15.9555 1.6035,16.4485 1.9065,16.7545 L2.4625,17.3095 C2.7685,17.6135 3.2615,17.6135 3.5665,17.3095 L6.0865,14.8205 L7.4485,16.1985 C7.7485,16.5035 8.2405,16.5065 8.5455,16.2055 L8.5485,16.2025 C8.8535,15.8975 8.8535,15.4035 8.5485,15.0985 L7.4405,13.9925 L8.75440323,12.7590008 L6.53940323,10.5130008 Z" id="Shape"></path>
        </g>
    </g>
</svg>