<svg xmlns="http://www.w3.org/2000/svg" width="18" height="19" viewBox="0 0 18 19">
    <g fill="none" fill-rule="evenodd" stroke="#76797B" stroke-linecap="round" stroke-linejoin="round">
        <path d="M8.64.165l6.346 3.158c.54.267.88.814.88 1.414v7.524c0 .6-.34 1.147-.88 1.414L8.64 16.833c-.447.223-.973.223-1.42 0L.873 13.675c-.539-.27-.877-.821-.873-1.422V4.737c0-.6.341-1.147.88-1.414L7.228.165c.445-.22.968-.22 1.412 0z" transform="translate(1 1)"/>
        <path d="M0 4.533L7.367 7.933 15.512 3.998M7.367 17L7.367 7.933" transform="translate(1 1)"/>
    </g>
</svg>
