<?xml version="1.0" encoding="UTF-8"?>
<svg width="20px" height="20px" viewBox="0 0 20 20" version="1.1" xmlns="http://www.w3.org/2000/svg" xmlns:xlink="http://www.w3.org/1999/xlink">
    <title>Box_fill_hover</title>
    <defs>
        <linearGradient x1="6.0976093%" y1="0%" x2="93.9023907%" y2="100%" id="linearGradient-1">
            <stop stop-color="#F48836" offset="0%"></stop>
            <stop stop-color="#F4364C" offset="100%"></stop>
        </linearGradient>
        <path d="M9.00563215,1.21679052 C9.59009467,0.927736493 10.2766106,0.927736493 10.8610732,1.21679052 L10.8610732,1.21679052 L13.7919013,2.675 L5.64542871,6.70368857 L5.54797034,6.76074472 C5.33218107,6.90846143 5.2,7.15455409 5.2,7.42082119 L5.2,7.42082119 L5.2,10.0581706 L5.20623314,10.1585209 C5.25559842,10.5529825 5.59215895,10.8581706 6,10.8581706 L6,10.8581706 L6.1003503,10.8519375 C6.49481185,10.8025722 6.8,10.4660117 6.8,10.0581706 L6.8,10.0581706 L6.8,7.917 L15.5909013,3.571 L17.2077243,4.37511971 C17.8664218,4.70088756 18.3007531,5.3457402 18.3597768,6.06857372 L18.3666667,6.23665599 L18.3666667,13.7616419 C18.3662456,14.551195 17.9170909,15.2720847 17.208829,15.6223636 L17.208829,15.6223636 L10.8623208,18.7806216 C10.2750044,19.0731261 9.58376763,19.0731261 8.99659416,18.7806928 L8.99659416,18.7806928 L2.64856446,15.6216749 C1.93987912,15.2662777 1.49453201,14.5409949 1.49995022,13.7534795 L1.49995022,13.7534795 L1.49995022,6.23635717 C1.50047194,5.44681061 1.94962953,4.72593916 2.65787626,4.37566778 L2.65787626,4.37566778 Z" id="path-2"></path>
    </defs>
    <g id="Page-1" stroke="none" stroke-width="1" fill="none" fill-rule="evenodd">
        <g id="Box_fill_hover">
            <mask id="mask-3" fill="white">
                <use xlink:href="#path-2"></use>
            </mask>
            <use id="Combined-Shape" fill="url(#linearGradient-1)" fill-rule="nonzero" xlink:href="#path-2"></use>
        </g>
    </g>
</svg>