<svg xmlns="http://www.w3.org/2000/svg" width="20" height="16" viewBox="0 0 20 16">
    <path fill="#76797B" stroke="#76797B" stroke-width=".1" d="M14.459.311c-.15-.153-.39-.157-.544-.008-.343.333-.948.877-.972.9l-.004.004c-.382.394-.758.569-1.22.569-.943 0-1.666.274-2.266.86-.492-.48-1.05-.729-1.828-.811L6.415.739c-.153-.157-.4-.157-.553 0L.856 5.891c-.148.153-.153.4-.008.56l.008.009 2.52 2.427-.138.142c-.534.55-.534 1.44 0 1.99.253.26.601.415.981.411-.004.386.141.744.4 1.011.264.271.616.415.981.411-.004.386.141.744.4 1.01.254.26.601.415.981.411-.004.387.141.744.4 1.011.534.549 1.4.549 1.934 0l.138-.142.138.142c.533.549 1.4.549 1.934 0 .258-.266.404-.623.4-1.01.373.004.72-.144.98-.412.271-.278.404-.644.4-1.01.38.005.725-.147.982-.411.26-.267.404-.626.4-1.01.363.003.716-.139.981-.412.534-.55.534-1.44 0-1.99l-.138-.142c-1.153 1.18-.037.027 3.348-3.458.152-.157.152-.411 0-.568L14.458.31zM3.79 9.598l1.38-1.422c.23-.235.6-.235.83 0 .229.236.229.617 0 .853L4.62 10.451c-.229.235-.601.235-.83 0-.228-.236-.228-.617 0-.853zm1.38 1.421l1.382-1.421c.23-.236.6-.236.829 0 .228.235.229.617 0 .853L6 11.872c-.228.236-.6.236-.828 0-.23-.235-.23-.617 0-.853zm1.382 1.422l1.381-1.422c.228-.235.6-.235.829 0 .225.232.232.614 0 .853l-1.381 1.422c-.229.235-.6.235-.83 0-.228-.236-.228-.617 0-.853zm1.381 2.275c-.23-.236-.23-.618 0-.854l1.38-1.421c.23-.236.6-.236.83 0 .23.237.227.62 0 .853l-1.381 1.422c-.23.235-.6.235-.829 0zm3.038 0c-.228.235-.6.235-.828 0l-.139-.143.691-.71c.047-.049.089-.1.128-.153l.148.152c.23.236.23.618 0 .854zm3.315-4.265L12.49 8.603c-.152-.157-.4-.157-.552 0-.153.157-.153.411 0 .568l1.795 1.848c.23.236.23.617 0 .853-.23.237-.6.236-.828 0l-1.795-1.848c-.153-.157-.4-.157-.553 0-.152.157-.152.412 0 .569l1.795 1.848c.229.235.229.618 0 .853-.11.114-.257.176-.414.176-.371 0-.49-.3-.843-.617-.003-.37-.145-.718-.4-.98-.259-.267-.606-.416-.98-.413.003-.386-.142-.743-.401-1.01-.27-.277-.626-.414-.981-.41.008-.793-.616-1.43-1.38-1.423.003-.39-.145-.746-.401-1.01-.533-.548-1.4-.548-1.934 0l-.69.712L1.72 6.044l4.556-4.567L7.595 2.63c.57.067.953.236 1.304.572L7.796 4.338c-.61.627-.61 1.647 0 2.275.609.626 1.6.626 2.21 0l1.105-1.138 4.005 4.123c.228.235.228.618 0 .853-.229.235-.6.235-.83 0zm.991-2.132l-3.615-3.412.276-.285c.153-.157.153-.411 0-.568-.153-.157-.4-.157-.552 0l-1.934 1.99c-.304.313-.8.313-1.105 0-.304-.314-.304-.824 0-1.137l1.59-1.637c.464-.477 1.013-.69 1.781-.69.553 0 1.03-.17 1.477-.533l.968-.98 4.037 4.112-2.923 3.14z"/>
</svg>
