<?xml version="1.0" encoding="UTF-8"?>
<svg width="20px" height="20px" viewBox="0 0 20 20" version="1.1" xmlns="http://www.w3.org/2000/svg" xmlns:xlink="http://www.w3.org/1999/xlink">
    <title>Partners_fill_hover</title>
    <defs>
        <linearGradient x1="2.75916761%" y1="0%" x2="97.2408324%" y2="100%" id="linearGradient-1">
            <stop stop-color="#F48836" offset="0%"></stop>
            <stop stop-color="#F4364C" offset="100%"></stop>
        </linearGradient>
        <linearGradient x1="2.79797351%" y1="0%" x2="97.2020265%" y2="100%" id="linearGradient-2">
            <stop stop-color="#F48836" offset="0%"></stop>
            <stop stop-color="#F4364C" offset="100%"></stop>
        </linearGradient>
        <linearGradient x1="2.76590017%" y1="0%" x2="97.2340998%" y2="100%" id="linearGradient-3">
            <stop stop-color="#F48836" offset="0%"></stop>
            <stop stop-color="#F4364C" offset="100%"></stop>
        </linearGradient>
        <linearGradient x1="2.79718805%" y1="0%" x2="97.2028119%" y2="100%" id="linearGradient-4">
            <stop stop-color="#F48836" offset="0%"></stop>
            <stop stop-color="#F4364C" offset="100%"></stop>
        </linearGradient>
        <linearGradient x1="3.61545403%" y1="0%" x2="96.384546%" y2="100%" id="linearGradient-5">
            <stop stop-color="#F48836" offset="0%"></stop>
            <stop stop-color="#F4364C" offset="100%"></stop>
        </linearGradient>
        <linearGradient x1="0%" y1="10.9171034%" x2="100%" y2="89.0828966%" id="linearGradient-6">
            <stop stop-color="#F48836" offset="0%"></stop>
            <stop stop-color="#F4364C" offset="100%"></stop>
        </linearGradient>
        <linearGradient x1="0%" y1="23.3034352%" x2="100%" y2="76.6965648%" id="linearGradient-7">
            <stop stop-color="#F48836" offset="0%"></stop>
            <stop stop-color="#F4364C" offset="100%"></stop>
        </linearGradient>
    </defs>
    <g id="Page-1" stroke="none" stroke-width="1" fill="none" fill-rule="evenodd">
        <g id="Partners_fill_hover" fill-rule="nonzero" stroke-width="0.2">
            <path d="M2.93003202,11.8892176 L4.52934577,10.2430008 C4.79401343,9.97075306 5.22423095,9.97093491 5.48872195,10.2430008 C5.75427305,10.5165216 5.75427305,10.9575374 5.48872195,11.2308764 L3.8899383,12.8765476 C3.62527059,13.1486135 3.19452306,13.1486135 2.93003202,12.8767295 C2.66501101,12.6039361 2.66501101,12.1621928 2.93003202,11.8892176 Z" id="Path" stroke="url(#linearGradient-1)" fill="url(#linearGradient-1)"></path>
            <path d="M4.52934577,13.5350707 L6.12830609,11.8892176 C6.39385719,11.6160605 6.82248455,11.6158787 7.08803565,11.8892176 C7.35252665,12.1614653 7.35358676,12.6033905 7.08803565,12.8765476 L5.48872195,14.5229462 C5.22423095,14.795194 4.79383676,14.795194 4.52934577,14.5229462 C4.264148,14.2497892 4.26379466,13.8082277 4.52934577,13.5350707 Z" id="Path" stroke="url(#linearGradient-2)" fill="url(#linearGradient-2)"></path>
            <path d="M6.12830609,15.1812875 L7.72761979,13.5350707 C7.99211079,13.2628229 8.4223283,13.2628229 8.68717268,13.5354344 C8.94830674,13.8036812 8.95608069,14.2456064 8.68699597,14.5227644 L7.08821232,16.1684356 C6.82354465,16.4406834 6.39279708,16.4406834 6.12830609,16.1686175 C5.86328503,15.896006 5.86328503,15.4540808 6.12830609,15.1812875 Z" id="Path" stroke="url(#linearGradient-3)" fill="url(#linearGradient-3)"></path>
            <path d="M7.72761979,17.8150162 C7.46242207,17.5418591 7.46206868,17.1002977 7.72761979,16.8271406 L9.32658015,15.1812875 C9.59177787,14.9083123 10.0207586,14.9079486 10.286133,15.1812875 C10.5530976,15.4560813 10.5492106,15.8981884 10.286133,16.1687993 L8.68699597,17.8150162 C8.4223283,18.087082 7.99211079,18.087082 7.72761979,17.8150162 Z" id="Path" stroke="url(#linearGradient-4)" fill="url(#linearGradient-4)"></path>
            <path d="M11.2455092,17.8150162 C10.9811949,18.0872639 10.5508007,18.0872639 10.2863097,17.8150162 C10.1968564,17.7229395 10.195955,17.5766936 10.2842666,17.4835213 L10.9046697,16.8289706 C10.9943385,16.7343663 11.1437214,16.7303653 11.2383257,16.8200342 C11.2407092,16.8222933 11.2430453,16.824602 11.2453325,16.8269587 L11.2453325,16.8269587 L11.2453325,16.8269587 C11.5110603,17.1002977 11.5110603,17.5416772 11.2455092,17.8150162 Z" id="Path" stroke="url(#linearGradient-5)" fill="url(#linearGradient-5)"></path>
            <path d="M15.0835441,12.8765476 L13.004719,10.7369386 C12.8280383,10.5550764 12.5416389,10.5550764 12.3649582,10.7369386 C12.1884541,10.9186189 12.1884541,11.2134176 12.3649582,11.3952798 L14.4439599,13.5352526 C14.7091577,13.8080459 14.7093344,14.2496074 14.4437833,14.5229462 C14.1782321,14.7962852 13.7490747,14.795194 13.4845837,14.5229462 L11.4057586,12.3826098 C11.2292546,12.2009294 10.9428552,12.2009294 10.7661745,12.3826098 C10.5894938,12.564472 10.5894938,12.8592707 10.7659978,13.0411329 L12.8448229,15.1812875 C13.1093139,15.4535353 13.1093139,15.8965516 12.8448229,16.1686175 C12.7169061,16.3004676 12.5464092,16.3732125 12.3649582,16.3732125 C11.935094,16.3732125 11.7965763,16.0247645 11.388974,15.6579484 C11.3849103,15.2291172 11.2209506,14.8266562 10.9260705,14.5231281 C10.6260667,14.2139624 10.2242948,14.0413751 9.79019031,14.0457398 C9.79460732,13.5981769 9.62623062,13.1846222 9.32658015,12.8765476 C9.01385529,12.5546515 8.60165923,12.3962495 8.19087656,12.4006142 C8.19988729,11.4823918 7.47743992,10.7443949 6.59191624,10.7538518 C6.59633325,10.3015604 6.42459961,9.88964248 6.12830609,9.58465955 C5.51116041,8.94923293 4.50690731,8.94923293 3.88976159,9.58465955 L3.44855976,10.0388005 C3.25613955,10.2368638 2.93959012,10.2414385 2.7415268,10.0490183 C2.73801087,10.0456025 2.73454536,10.0421352 2.7311314,10.0386176 L1.21871871,8.48026087 C0.838492244,8.0884839 0.842760439,7.46415779 1.22830787,7.07761603 L5.14699746,3.14882002 C5.51914428,2.77571343 6.11697045,2.75543349 6.5135463,3.10246284 L7.33538863,3.82162769 L7.33538863,3.82162769 C7.78978063,3.87503101 8.14183734,3.98434303 8.45000536,4.17464066 C8.45000536,4.17464066 8.45000536,4.17464066 8.45000536,4.17464066 C8.64273809,4.29365554 8.70249822,4.54637692 8.58348333,4.73910966 C8.56782146,4.7644725 8.54944129,4.78805236 8.52869304,4.80945515 L7.56737038,5.79883374 L7.56737038,5.79883374 C6.86259108,6.52482772 6.86259108,7.7062047 7.56754705,8.43256238 C8.27303312,9.15819266 9.42092762,9.15837451 10.126237,8.43238053 L11.0470733,7.48466975 C11.2394864,7.28655159 11.5560757,7.28199823 11.7541504,7.47445609 C11.7576026,7.47781042 11.7610062,7.48121442 11.7643602,7.48466703 C14.233285,10.0262244 15.6595306,11.4944685 16.043097,11.8893994 C16.307588,12.1614653 16.307588,12.6044817 16.0432737,12.8765476 C15.778606,13.1486135 15.3480351,13.1486135 15.0835441,12.8765476 Z" id="Path" stroke="url(#linearGradient-6)" fill="url(#linearGradient-6)"></path>
            <path d="M15.6691321,10.1701404 L12.3658899,6.78561035 C12.1874938,6.60282413 12.1871589,6.31119975 12.3651348,6.12800433 L12.3651348,6.12800433 L12.3651348,6.12800433 C12.5418155,5.94614211 12.5418155,5.65134347 12.3651348,5.46948125 C12.1884541,5.28780088 11.9022314,5.28780088 11.725374,5.46948125 L9.48647617,7.77422115 C9.13399817,8.13703628 8.55978587,8.13703628 8.20713123,7.77422115 C7.85465322,7.4110423 7.85465322,6.82017196 8.20695452,6.45717497 C8.67091806,5.97978661 9.58541737,5.03864966 10.0488509,4.5618069 C10.5852534,4.0096732 11.2213039,3.76324993 12.1107146,3.76324993 C12.7504754,3.76324993 13.3027793,3.56538383 13.8202771,3.14637328 L14.2277734,2.73407601 C14.616004,2.34127144 15.2491581,2.33756352 15.6419627,2.72579414 C15.6455201,2.72931012 15.6490511,2.73285274 15.6525553,2.7364217 L18.9386737,6.08322566 C19.3162637,6.46778866 19.3211741,7.0824045 18.9497768,7.47295145 L16.3892811,10.165469 C16.1989864,10.3655754 15.8825039,10.3735294 15.6823975,10.1832348 C15.6778947,10.1789528 15.6734721,10.1745872 15.6691321,10.1701404 Z" id="Path" stroke="url(#linearGradient-7)" fill="url(#linearGradient-7)"></path>
        </g>
    </g>
</svg>