<?xml version="1.0" encoding="UTF-8"?>
<svg width="20px" height="17px" viewBox="0 0 20 17" version="1.1" xmlns="http://www.w3.org/2000/svg" xmlns:xlink="http://www.w3.org/1999/xlink">
    <title>photocamera-active</title>
    <defs>
        <linearGradient x1="0%" y1="9.5%" x2="100%" y2="90.5%" id="linearGradient-1">
            <stop stop-color="#F48836" offset="0%"></stop>
            <stop stop-color="#F4364C" offset="100%"></stop>
        </linearGradient>
    </defs>
    <g id="Page-1" stroke="none" stroke-width="1" fill="none" fill-rule="evenodd">
        <g id="photocamera-active" transform="translate(0.500000, 0.000000)" stroke="url(#linearGradient-1)" stroke-width="1.3">
            <path d="M15.9,3.7 L14.356,3.7 C13.822,3.7 13.322,3.434 13.025,2.989 L12.375,2.013 C12.078,1.568 11.578,1.3 11.044,1.3 L7.956,1.3 C7.422,1.3 6.922,1.568 6.625,2.012 L5.975,2.988 C5.678,3.434 5.178,3.7 4.644,3.7 L3.1,3.7 C2.216,3.7 1.5,4.417 1.5,5.3 L1.5,14.1 C1.5,14.983 2.216,15.7 3.1,15.7 L15.9,15.7 C16.783,15.7 17.5,14.983 17.5,14.1 L17.5,5.3 C17.5,4.418 16.783,3.7 15.9,3.7 Z M9.5,14.1 C6.853,14.1 4.7,11.947 4.7,9.3 C4.7,6.654 6.853,4.5 9.5,4.5 C12.147,4.5 14.3,6.654 14.3,9.3 C14.3,11.948 12.147,14.1 9.5,14.1 Z" id="Shape"></path>
        </g>
    </g>
</svg>