<svg xmlns="http://www.w3.org/2000/svg" width="19" height="17" viewBox="0 0 19 17">
    <path fill="none" stroke="#5F7B84" stroke-linejoin="round" d="M5.07 1.344l9.314 9.315 1.108-1.108c.305-.305.799-.305 1.103 0 .305.305.305.799 0 1.104l-1.381 1.381h0l2.489 2.49c.303.304.303.798 0 1.103l-.556.556c-.305.303-.798.303-1.103 0l-2.52-2.482-1.362 1.378c-.301.305-.792.308-1.097.007l-.003-.003c-.305-.305-.305-.799 0-1.104l1.107-1.107h0L2.855 3.559V1.344H5.07zm7.842 5.66l3.453-3.452V1.344h-2.216l-3.453 3.453 2.216 2.208zm-4.408 4.447L6.289 9.205 4.835 10.66 3.728 9.55c-.305-.305-.8-.305-1.104 0-.305.305-.305.799 0 1.104l1.382 1.381h0l-2.49 2.497c-.303.305-.303.798 0 1.104l.556.555c.306.304.799.304 1.104 0l2.52-2.489 1.362 1.378c.3.305.792.308 1.097.007l.003-.003c.305-.305.305-.799 0-1.104L7.05 12.874h0l1.454-1.423z"/>
</svg>
