<?xml version="1.0" encoding="UTF-8"?>
<svg width="20px" height="17px" viewBox="0 0 20 17" version="1.1" xmlns="http://www.w3.org/2000/svg" xmlns:xlink="http://www.w3.org/1999/xlink">
    <title>sword-cross-active</title>
    <defs>
        <linearGradient x1="0%" y1="8.968%" x2="100%" y2="91.032%" id="linearGradient-1">
            <stop stop-color="#F48836" offset="0%"></stop>
            <stop stop-color="#F4364C" offset="100%"></stop>
        </linearGradient>
    </defs>
    <g id="Page-1" stroke="none" stroke-width="1" fill="none" fill-rule="evenodd" stroke-linejoin="round">
        <g id="sword-cross-active" transform="translate(0.038557, 0.000000)" stroke="url(#linearGradient-1)" stroke-width="1.3">
            <path d="M4.9605,0.9625 L14.2745,10.2775 L15.3825,9.1695 C15.6875,8.8645 16.1815,8.8645 16.4855,9.1695 C16.7905,9.4745 16.7905,9.9685 16.4855,10.2735 L15.1045,11.6545 L15.1045,11.6545 L17.5935,14.1445 C17.8965,14.4485 17.8965,14.9425 17.5935,15.2475 L17.0375,15.8035 C16.7325,16.1065 16.2395,16.1065 15.9345,15.8035 L13.4145,13.3215 L12.0525,14.6995 C11.7515,15.0045 11.2605,15.0075 10.9555,14.7065 L10.9525,14.7035 C10.6475,14.3985 10.6475,13.9045 10.9525,13.5995 L12.0595,12.4925 L12.0595,12.4925 L2.7455,3.1775 L2.7455,0.9625 L4.9605,0.9625 Z M12.8025,6.6225 L16.2555,3.1705 L16.2555,0.9625 L14.0395,0.9625 L10.5875,4.4155 L12.8035,6.6235 L12.8025,6.6225 Z M8.3945,11.0695 L6.1795,8.8235 L4.7255,10.2785 L3.6185,9.1685 C3.3135,8.8635 2.8185,8.8635 2.5145,9.1685 C2.2095,9.4735 2.2095,9.9675 2.5145,10.2725 L3.8965,11.6535 L3.8965,11.6535 L1.4065,14.1505 C1.1035,14.4555 1.1035,14.9485 1.4065,15.2545 L1.9625,15.8095 C2.2685,16.1135 2.7615,16.1135 3.0665,15.8095 L5.5865,13.3205 L6.9485,14.6985 C7.2485,15.0035 7.7405,15.0065 8.0455,14.7055 L8.0485,14.7025 C8.3535,14.3975 8.3535,13.9035 8.0485,13.5985 L6.9405,12.4925 L6.9405,12.4925 L8.3945,11.0695 Z" id="Shape"></path>
        </g>
    </g>
</svg>