<?xml version="1.0" encoding="UTF-8"?>
<svg width="20px" height="20px" viewBox="0 0 20 20" version="1.1" xmlns="http://www.w3.org/2000/svg" xmlns:xlink="http://www.w3.org/1999/xlink">
    <title>Unbox_fill_hover</title>
    <defs>
        <linearGradient x1="0%" y1="8.96885813%" x2="100%" y2="91.0311419%" id="linearGradient-1">
            <stop stop-color="#F48836" offset="0%"></stop>
            <stop stop-color="#F4364C" offset="100%"></stop>
        </linearGradient>
    </defs>
    <g id="Page-1" stroke="none" stroke-width="1" fill="none" fill-rule="evenodd">
        <g id="Unbox_fill_hover" fill="url(#linearGradient-1)">
            <path d="M11.544,2.3 C12.1866873,2.3 12.7914915,2.59534312 13.1882388,3.09467605 L13.2911563,3.23584673 L13.9408813,4.21143427 C14.1191468,4.47853237 14.4044555,4.65226693 14.7194235,4.69152716 L14.856,4.7 L16.4,4.7 C17.508461,4.7 18.417749,5.56146569 18.4947221,6.65018871 L18.5,6.8 L18.5,15.6 C18.5,16.7087449 17.6391775,17.6177737 16.5498952,17.6947237 L16.4,17.7 L3.6,17.7 C2.49058263,17.7 1.58216787,16.8394494 1.50527247,15.7499306 L1.5,15.6 L1.5,6.8 C1.5,5.69097092 2.36017923,4.78220163 3.45002091,4.70527468 L3.6,4.7 L5.144,4.7 C5.46594049,4.7 5.76900265,4.55961902 5.97615884,4.31966266 L6.0588437,4.21084673 L6.70940737,3.23400222 C7.06682755,2.6996771 7.64782443,2.36012672 8.28188644,2.30724559 L8.456,2.3 L11.544,2.3 Z M10,5.3 C6.96672326,5.3 4.5,7.76707803 4.5,10.8 C4.5,13.8335993 6.96640068,16.3 10,16.3 C13.033922,16.3 15.5,13.8342767 15.5,10.8 C15.5,7.76707803 13.0332767,5.3 10,5.3 Z M10,6.7 C12.260033,6.7 14.1,8.54023162 14.1,10.8 C14.1,13.061033 12.2607684,14.9 10,14.9 C7.73959932,14.9 5.9,13.0604007 5.9,10.8 C5.9,8.54023162 7.73996699,6.7 10,6.7 Z" id="Combined-Shape"></path>
        </g>
    </g>
</svg>