<svg xmlns="http://www.w3.org/2000/svg" width="316" height="30" viewBox="0 0 316 30">
    <path fill="#50C1E3" fill-rule="evenodd" d="M272.13 0a2 2 0 0 1 1.463.635l7.277 7.797.001-4.543a2 2 0 0 1 3.118-1.659l16.679 11.24a2 2 0 0 1 0 3.318l-16.68 11.24a2 2 0 0 1-3.117-1.659v-4.802l-7.278 7.798a2 2 0 0 1-1.462.635H45.828a2 2 0 0 1-1.414-.586l-9.286-9.285.001 6.24a2 2 0 0 1-3.118 1.659l-16.679-11.24a2 2 0 0 1 0-3.318l16.68-11.24a2 2 0 0 1 3.117 1.659V9.87L44.413.586A2 2 0 0 1 45.828 0h226.303zM305 7.663a2 2 0 0 1 1.082.318l8.301 5.337a2 2 0 0 1 0 3.364l-8.301 5.337A2 2 0 0 1 303 20.337V9.663a2 2 0 0 1 2-2zm-292.318.919A2 2 0 0 1 13 9.663v10.674a2 2 0 0 1-3.082 1.682l-8.301-5.337a2 2 0 0 1 0-3.364L9.918 7.98a2 2 0 0 1 2.764.6z"/>
</svg>
